<svg xmlns="http://www.w3.org/2000/svg" width="62" height="62" viewBox="0 0 62 62">
  <g id="company-stock_16847981" transform="translate(-3072 -512)">
    <path id="Path_41495" data-name="Path 41495" d="M3077.167,571.417V533.958h21.958v23.25a1.292,1.292,0,1,0,2.583,0V519.75h29.708v24.542a1.292,1.292,0,0,0,2.583,0V518.458a1.289,1.289,0,0,0-1.292-1.292h-2.583v-3.875a1.289,1.289,0,0,0-1.292-1.292h-24.542a1.289,1.289,0,0,0-1.292,1.292v3.875h-2.583a1.289,1.289,0,0,0-1.292,1.292V527.5h-24.542a1.292,1.292,0,0,0,0,2.583h24.542v1.292h-23.25a1.289,1.289,0,0,0-1.292,1.292v38.75h-1.292a1.292,1.292,0,1,0,0,2.583h59.417a1.292,1.292,0,1,0,0-2.583Zm52.422-21.958-10.333,10.333H3094.6a1.28,1.28,0,0,0-.911.378l-7.75,7.75a1.29,1.29,0,0,0,1.821,1.826l7.375-7.372h24.652a1.281,1.281,0,0,0,.91-.378l10.714-10.712v5.924a1.292,1.292,0,0,0,2.583,0v-9.042a1.289,1.289,0,0,0-1.292-1.292h-9.042a1.292,1.292,0,0,0,0,2.583Zm-39.506,9.688h-8.4a1.289,1.289,0,0,0-1.292,1.292V565.6a1.289,1.289,0,0,0,1.292,1.292h3.229a1.292,1.292,0,1,0,0-2.583h-1.937v-2.583h7.1a1.292,1.292,0,1,0,0-2.583Zm24.542-10.333a1.289,1.289,0,0,0-1.292-1.292h-6.458a1.289,1.289,0,0,0-1.292,1.292v6.458a1.289,1.289,0,0,0,1.292,1.292h6.458a1.289,1.289,0,0,0,1.292-1.292Zm-18.729.646a1.289,1.289,0,0,0-1.292-1.292h-12.917a1.289,1.289,0,0,0-1.292,1.292v5.167a1.289,1.289,0,0,0,1.292,1.292H3094.6a1.289,1.289,0,0,0,1.292-1.292Zm16.146.646v3.875h-3.875V550.1Zm-18.729.646v2.583h-10.333V550.75Zm2.583-12.271a1.289,1.289,0,0,0-1.292-1.292h-12.917a1.289,1.289,0,0,0-1.292,1.292v5.167a1.289,1.289,0,0,0,1.292,1.292H3094.6a1.289,1.289,0,0,0,1.292-1.292Zm31.646-1.937a1.289,1.289,0,0,0-1.292-1.292h-6.458a1.289,1.289,0,0,0-1.292,1.292V543a1.289,1.289,0,0,0,1.292,1.292h6.458a1.289,1.289,0,0,0,1.292-1.292Zm-12.917,0a1.289,1.289,0,0,0-1.292-1.292h-6.458a1.289,1.289,0,0,0-1.292,1.292V543a1.289,1.289,0,0,0,1.292,1.292h6.458a1.289,1.289,0,0,0,1.292-1.292Zm-21.313,3.229v2.583h-10.333v-2.583Zm31.646-1.937v3.875h-3.875v-3.875Zm-12.917,0v3.875h-3.875v-3.875Zm15.5-13.562a1.289,1.289,0,0,0-1.292-1.292h-6.458a1.289,1.289,0,0,0-1.292,1.292v6.458a1.289,1.289,0,0,0,1.292,1.292h6.458a1.289,1.289,0,0,0,1.292-1.292Zm-12.917,0a1.289,1.289,0,0,0-1.292-1.292h-6.458a1.289,1.289,0,0,0-1.292,1.292v6.458a1.289,1.289,0,0,0,1.292,1.292h6.458a1.289,1.289,0,0,0,1.292-1.292Zm10.333,1.292v3.875h-3.875v-3.875Zm-12.917,0v3.875h-3.875v-3.875Zm-6.458-8.4h21.958v-2.583h-21.958Z" fill="#8757a3" fill-rule="evenodd"/>
  </g>
</svg>
