<svg xmlns="http://www.w3.org/2000/svg" width="70" height="70" viewBox="0 0 70 70">
  <path id="corporation" d="M77.724,73.5H75.2v-45a2.279,2.279,0,0,0-2.276-2.276H60.688V21.437a2.279,2.279,0,0,0-2.276-2.276H54.922V16.642a2.279,2.279,0,0,0-2.276-2.276H45.854V10.854a.854.854,0,0,0-1.707,0v3.512H37.354a2.279,2.279,0,0,0-2.276,2.276v2.519H31.589a2.279,2.279,0,0,0-2.276,2.276V26.22H17.072A2.279,2.279,0,0,0,14.8,28.5v45H12.276A2.279,2.279,0,0,0,10,75.774v1.95A2.279,2.279,0,0,0,12.276,80H77.724A2.279,2.279,0,0,0,80,77.724v-1.95A2.279,2.279,0,0,0,77.724,73.5Zm-4.8-45.57a.57.57,0,0,1,.569.569v45H60.688V27.928ZM36.785,16.642a.57.57,0,0,1,.569-.569H52.646a.57.57,0,0,1,.569.569v2.519H36.785Zm-5.2,4.226H58.412a.57.57,0,0,1,.569.569V73.5h-3.23V58.592a.854.854,0,0,0-.854-.854H35.1a.854.854,0,0,0-.854.854V73.5h-3.23V21.437a.57.57,0,0,1,.569-.569ZM35.956,73.5V59.446h8.19V73.5Zm9.9-14.052h8.19V73.5h-8.19ZM16.5,28.5a.57.57,0,0,1,.569-.569h12.24V73.5H16.5Zm61.79,49.227a.57.57,0,0,1-.569.569H12.276a.57.57,0,0,1-.569-.569v-1.95a.57.57,0,0,1,.569-.569H77.724a.57.57,0,0,1,.569.569ZM25.376,41.979H20.439a.854.854,0,0,0-.854.854V47.77a.854.854,0,0,0,.854.854h4.937a.854.854,0,0,0,.854-.854V42.833A.854.854,0,0,0,25.376,41.979Zm-.854,4.937h-3.23v-3.23h3.23Zm.854,16.707H20.439a.854.854,0,0,0-.854.854v4.937a.854.854,0,0,0,.854.854h4.937a.854.854,0,0,0,.854-.854V64.477A.854.854,0,0,0,25.376,63.623Zm-.854,4.937h-3.23v-3.23h3.23ZM25.376,52.8H20.439a.854.854,0,0,0-.854.854v4.937a.854.854,0,0,0,.854.854h4.937a.854.854,0,0,0,.854-.854V53.655A.854.854,0,0,0,25.376,52.8Zm-.854,4.937h-3.23v-3.23h3.23Zm.854-26.581H20.439a.854.854,0,0,0-.854.854v4.937a.854.854,0,0,0,.854.854h4.937a.854.854,0,0,0,.854-.854V32.011A.854.854,0,0,0,25.376,31.157Zm-.854,4.937h-3.23v-3.23h3.23Zm40.1,23.351h4.937a.854.854,0,0,0,.854-.854V53.655a.854.854,0,0,0-.854-.854H64.624a.854.854,0,0,0-.854.854v4.937A.854.854,0,0,0,64.624,59.446Zm.854-4.937h3.23v3.23h-3.23Zm-.854-5.885h4.937a.854.854,0,0,0,.854-.854V42.833a.854.854,0,0,0-.854-.854H64.624a.854.854,0,0,0-.854.854V47.77A.854.854,0,0,0,64.624,48.624Zm.854-4.937h3.23v3.23h-3.23ZM64.624,37.8h4.937a.854.854,0,0,0,.854-.854V32.011a.854.854,0,0,0-.854-.854H64.624a.854.854,0,0,0-.854.854v4.937A.854.854,0,0,0,64.624,37.8Zm.854-4.937h3.23v3.23h-3.23Zm-.854,37.4h4.937a.854.854,0,0,0,.854-.854V64.477a.854.854,0,0,0-.854-.854H64.624a.854.854,0,0,0-.854.854v4.937A.854.854,0,0,0,64.624,70.268Zm.854-4.937h3.23v3.23h-3.23ZM35.1,52.3H54.9a.854.854,0,0,0,.854-.854v-4.8a.854.854,0,0,0-.854-.854H35.1a.854.854,0,0,0-.854.854v4.8a.854.854,0,0,0,.854.854Zm.854-4.8H54.044v3.088H35.956ZM35.1,30.653H54.9a.854.854,0,0,0,.854-.854V25a.854.854,0,0,0-.854-.854H35.1a.854.854,0,0,0-.854.854v4.8a.854.854,0,0,0,.854.854Zm.854-4.8H54.044v3.088H35.956ZM35.1,41.475H54.9a.854.854,0,0,0,.854-.854v-4.8a.854.854,0,0,0-.854-.854H35.1a.854.854,0,0,0-.854.854v4.8a.854.854,0,0,0,.854.854Zm.854-4.8H54.044v3.088H35.956Z" transform="translate(-10 -10)" fill="#393939"/>
</svg>
