<svg xmlns="http://www.w3.org/2000/svg" width="130" height="99.42" viewBox="0 0 130 99.42">
  <path id="digital-business_17323178" d="M118.017,122.618a4.459,4.459,0,0,0,2.693-4.258V116.2h4.251a5.647,5.647,0,1,0,0-3.181h-4.251v-2.372a4.461,4.461,0,0,0-2.7-4.262l-4.789-1.847a42.742,42.742,0,0,0-1.3-4.438h5.452a1.591,1.591,0,0,0,1.378-.795l6.013-10.4a5.653,5.653,0,1,0-4.333-5.469,5.6,5.6,0,0,0,1.574,3.882l-5.551,9.6h-5.793a42.66,42.66,0,0,0-2.753-5.219l2.1-4.708a4.483,4.483,0,0,0-1.12-4.9l-5.461-5.462a4.478,4.478,0,0,0-4.918-1.08l-4.688,2.063A43.083,43.083,0,0,0,80.979,72.3l-1.85-4.8a4.46,4.46,0,0,0-4.258-2.693H67.164a4.464,4.464,0,0,0-4.263,2.7L61.054,72.3a42.5,42.5,0,0,0-12.846,5.313l-4.679-2.047a4.48,4.48,0,0,0-4.956,1.069L33.147,82.1a4.49,4.49,0,0,0-1.108,4.924L34.124,91.7a43.007,43.007,0,0,0-2.755,5.219H25.548l-5.539-9.575A5.605,5.605,0,0,0,21.6,83.441a5.744,5.744,0,1,0-4.359,5.479l6.009,10.39a1.59,1.59,0,0,0,1.377.795H30.1a44.036,44.036,0,0,0-1.314,4.438l-4.773,1.85a4.473,4.473,0,0,0-2.724,4.259v2.372H17.071a5.649,5.649,0,1,0,0,3.181h4.221v2.155a4.471,4.471,0,0,0,2.732,4.26l4.765,1.848a43.914,43.914,0,0,0,1.39,4.657H24.63a1.59,1.59,0,0,0-1.377.794l-6.009,10.39a5.654,5.654,0,1,0,4.359,5.478,5.606,5.606,0,0,0-1.594-3.905l5.539-9.575h5.918a43.291,43.291,0,0,0,2.661,5l-2.092,4.718a4.453,4.453,0,0,0,1.112,4.916l5.411,5.411a4.489,4.489,0,0,0,4.941,1.129l4.713-2.089a43.182,43.182,0,0,0,12.842,5.336l1.851,4.774a4.473,4.473,0,0,0,4.259,2.724h7.707a4.474,4.474,0,0,0,4.26-2.732l1.847-4.766A43.2,43.2,0,0,0,93.819,151.4l4.707,2.1a4.467,4.467,0,0,0,4.9-1.117l5.462-5.434A4.451,4.451,0,0,0,110,142.025l-2.089-4.713a42.667,42.667,0,0,0,2.658-5h5.889l5.551,9.6a5.6,5.6,0,0,0-1.574,3.882,5.754,5.754,0,1,0,4.333-5.47l-6.013-10.4a1.591,1.591,0,0,0-1.378-.794h-5.527a42.454,42.454,0,0,0,1.371-4.657Zm12.337-10.469a2.466,2.466,0,1,1-2.466,2.466A2.468,2.468,0,0,1,130.354,112.149ZM126.11,80.944a2.515,2.515,0,0,1,2.466,2.5,2.481,2.481,0,0,1-4.962,0A2.5,2.5,0,0,1,126.11,80.944Zm-112.652,2.5a2.481,2.481,0,1,1,2.466,2.465A2.484,2.484,0,0,1,13.458,83.441ZM11.68,117.08a2.466,2.466,0,1,1,2.465-2.466A2.484,2.484,0,0,1,11.68,117.08Zm4.244,31.205a2.481,2.481,0,1,1,2.5-2.5A2.484,2.484,0,0,1,15.924,148.286Zm112.652-2.5a2.481,2.481,0,1,1-4.962,0,2.481,2.481,0,0,1,4.962,0Zm-91.2-54.6-2.423-5.436a1.345,1.345,0,0,1,.443-1.406l5.428-5.458a1.555,1.555,0,0,1,1.038-.5.787.787,0,0,1,.35.081l5.491,2.4a1.593,1.593,0,0,0,1.5-.122,39.358,39.358,0,0,1,13.348-5.52,1.591,1.591,0,0,0,1.156-.984l2.149-5.574a1.347,1.347,0,0,1,1.3-.679h7.707a1.35,1.35,0,0,1,1.293.667l2.152,5.585a1.592,1.592,0,0,0,1.156.985,39.978,39.978,0,0,1,13.356,5.524,1.591,1.591,0,0,0,1.5.117l5.478-2.41a1.276,1.276,0,0,1,1.369.426l5.462,5.461a1.328,1.328,0,0,1,.451,1.377l-2.434,5.462a1.59,1.59,0,0,0,.119,1.514,39.861,39.861,0,0,1,2.377,4.221H99.17a33.2,33.2,0,0,0-56.306,0H34.882a39.889,39.889,0,0,1,2.38-4.221,1.591,1.591,0,0,0,.118-1.514Zm67.272,46.635,2.431,5.484a1.357,1.357,0,0,1-.445,1.385l-5.482,5.452a1.369,1.369,0,0,1-1.36.433l-5.462-2.433a1.6,1.6,0,0,0-1.515.118,40.011,40.011,0,0,1-13.358,5.552,1.592,1.592,0,0,0-1.146.98l-2.149,5.547a1.35,1.35,0,0,1-1.3.71H67.164a1.351,1.351,0,0,1-1.295-.7l-2.153-5.555a1.593,1.593,0,0,0-1.146-.98,40.023,40.023,0,0,1-13.357-5.552,1.594,1.594,0,0,0-1.512-.119l-5.484,2.431a1.326,1.326,0,0,1-1.389-.449l-5.43-5.43a1.363,1.363,0,0,1-.451-1.382l2.434-5.491a1.591,1.591,0,0,0-.119-1.512,39.558,39.558,0,0,1-2.271-4H43a33.4,33.4,0,0,0,28,15.384,32.974,32.974,0,0,0,28.035-15.384h8a39.544,39.544,0,0,1-2.269,4A1.592,1.592,0,0,0,104.652,137.822Zm-6.5-8.7a1.589,1.589,0,0,0-1.364.771A29.836,29.836,0,0,1,71,144.509,30.2,30.2,0,0,1,45.248,129.9a1.592,1.592,0,0,0-1.364-.771h-10.3a40.612,40.612,0,0,1-1.873-6.174,1.592,1.592,0,0,0-.98-1.145l-5.547-2.151a1.344,1.344,0,0,1-.707-1.295V116.2H38.859a1.591,1.591,0,1,0,0-3.181H24.474v-2.372a1.348,1.348,0,0,1,.7-1.294l5.555-2.154a1.59,1.59,0,0,0,.98-1.145,40.653,40.653,0,0,1,1.788-5.955H43.759a1.592,1.592,0,0,0,1.372-.784,30.017,30.017,0,0,1,51.771,0,1.594,1.594,0,0,0,1.372.784H108.53a39.5,39.5,0,0,1,1.761,5.946,1.59,1.59,0,0,0,.985,1.155l5.575,2.15a1.343,1.343,0,0,1,.677,1.3v2.372H103.141a1.591,1.591,0,1,0,0,3.181h14.387v2.155a1.347,1.347,0,0,1-.666,1.292l-5.586,2.153a1.592,1.592,0,0,0-.985,1.156,39.5,39.5,0,0,1-1.847,6.164H98.15ZM94.623,99.043H92.53a3.97,3.97,0,0,0-3.805-3.494H83.139V93.926A3.747,3.747,0,0,0,79.4,90.182H62.607a3.748,3.748,0,0,0-3.744,3.745v1.623H53.308a3.969,3.969,0,0,0-3.8,3.494H47.41a1.591,1.591,0,0,0-1.592,1.591v26.088a5.123,5.123,0,0,0,5.149,5.086h40.1a5.123,5.123,0,0,0,5.149-5.086V100.634a1.591,1.591,0,0,0-1.591-1.591ZM54.649,111.565l4.826,2.105a1.6,1.6,0,0,0,.637.133h6.321a4.637,4.637,0,0,0,9.136,0h6.354a1.6,1.6,0,0,0,.636-.133l4.825-2.1v11.35H54.649Zm17.82,1.427a1.467,1.467,0,1,1-2.935,0V111.4h2.934v1.592ZM62.045,93.926a.57.57,0,0,1,.562-.562H79.4a.57.57,0,0,1,.562.562v1.623H62.045V93.926Zm-9.424,5.8c0-.588.363-1,.687-1H88.726c.325,0,.687.411.687,1v7.477l-1.484.649a1.516,1.516,0,0,0-.36.157l-5.977,2.608H75.652v-.811a1.591,1.591,0,0,0-1.591-1.592H67.943a1.59,1.59,0,0,0-1.591,1.592v.811H60.443l-5.977-2.608a1.515,1.515,0,0,0-.36-.157l-1.485-.649V99.73Zm40.411,26.992a1.939,1.939,0,0,1-1.966,1.9h-40.1a1.939,1.939,0,0,1-1.966-1.9v-24.5h.437v6.024a1.589,1.589,0,0,0,.955,1.458l1.072.47v14.329a1.591,1.591,0,0,0,1.592,1.592H88.975a1.59,1.59,0,0,0,1.591-1.592V110.177l1.074-.47a1.591,1.591,0,0,0,.955-1.458v-6.024h.437v24.5Z" transform="translate(-6.001 -64.812)" fill="#c01421"/>
</svg>
