<svg xmlns="http://www.w3.org/2000/svg" xmlns:xlink="http://www.w3.org/1999/xlink" width="50" height="50" viewBox="0 0 50 50">
  <defs>
    <clipPath id="clip-path">
      <rect id="Rectangle_12006" data-name="Rectangle 12006" width="37.892" height="32.824" fill="none" stroke="#000" stroke-width="1"/>
    </clipPath>
  </defs>
  <g id="Group_37830" data-name="Group 37830" transform="translate(-1264 -940)">
    <rect id="Rectangle_11636" data-name="Rectangle 11636" width="50" height="50" rx="8" transform="translate(1264 940)" fill="#fecd2a"/>
    <g id="Group_30670" data-name="Group 30670" transform="translate(1270.719 949.216)">
      <g id="Group_30669" data-name="Group 30669" clip-path="url(#clip-path)">
        <path id="Path_35075" data-name="Path 35075" d="M34.6,6.609h-6.81V3.572A3.575,3.575,0,0,0,24.223,0H13.669A3.575,3.575,0,0,0,10.1,3.572V6.609H3.288A3.291,3.291,0,0,0,0,9.9v19.64a3.291,3.291,0,0,0,3.288,3.288H34.6a3.291,3.291,0,0,0,3.288-3.288V9.9A3.291,3.291,0,0,0,34.6,6.609M11,3.572A2.667,2.667,0,0,1,13.669.908H24.223a2.667,2.667,0,0,1,2.664,2.664V6.609H24.96V3.572a.738.738,0,0,0-.737-.737H13.669a.738.738,0,0,0-.737.737V6.609H11Zm2.834.17H24.053V6.609H13.839ZM.907,9.9A2.383,2.383,0,0,1,3.288,7.516H34.6A2.383,2.383,0,0,1,36.985,9.9v6.986A2.383,2.383,0,0,1,34.6,19.264H3.288A2.383,2.383,0,0,1,.907,16.883ZM16.562,20.171H21.33V21.5a.942.942,0,0,1-.941.941H17.5a.942.942,0,0,1-.941-.941Zm20.423,9.367A2.383,2.383,0,0,1,34.6,31.918H3.288A2.383,2.383,0,0,1,.907,29.537V19.147a3.278,3.278,0,0,0,2.381,1.024H15.655V21.5A1.85,1.85,0,0,0,17.5,23.344h2.887A1.85,1.85,0,0,0,22.237,21.5V20.171H34.6a3.278,3.278,0,0,0,2.381-1.024Z" transform="translate(0 -0.001)" stroke="#000" stroke-width="1"/>
      </g>
    </g>
  </g>
</svg>
