<svg xmlns="http://www.w3.org/2000/svg" xmlns:xlink="http://www.w3.org/1999/xlink" width="50" height="50" viewBox="0 0 50 50">
  <defs>
    <clipPath id="clip-path">
      <rect id="Rectangle_11980" data-name="Rectangle 11980" width="31.918" height="36.563" fill="#fff"/>
    </clipPath>
  </defs>
  <g id="Group_37828" data-name="Group 37828" transform="translate(-54 -940)">
    <rect id="Rectangle_11633" data-name="Rectangle 11633" width="50" height="50" rx="8" transform="translate(54 940)" fill="#1c97d4"/>
    <g id="Group_30649" data-name="Group 30649" transform="translate(65.182 948.065)">
      <g id="Group_30648" data-name="Group 30648" clip-path="url(#clip-path)">
        <path id="Path_35009" data-name="Path 35009" d="M26.2,29.455H21.232a.782.782,0,0,0-.781.781V35H1.561V1.561H26.2V14.644l1.562-1.775V.781A.78.78,0,0,0,26.98,0H.781A.78.78,0,0,0,0,.781v35a.78.78,0,0,0,.781.781H22.208a.781.781,0,0,0,.55-.227l2.407-2.391,0,0,2.365-2.375a.783.783,0,0,0,.228-.551V17.139L26.2,18.914ZM22.012,35.03V31.016h4.158Z" fill="#fff"/>
        <path id="Path_35010" data-name="Path 35010" d="M328.784,467.279l4.158-4.014h-4.158Z" transform="translate(-306.772 -432.249)" fill="#fff"/>
        <rect id="Rectangle_11978" data-name="Rectangle 11978" width="16.098" height="2.318" transform="translate(7.172 9.442)" fill="#fff"/>
        <rect id="Rectangle_11979" data-name="Rectangle 11979" width="18.844" height="2.318" transform="translate(4.427 13.285)" fill="#fff"/>
        <path id="Path_35011" data-name="Path 35011" d="M66.119,255.833v2.318H83.666l1.3-1.475v-.844Z" transform="translate(-61.692 -238.705)" fill="#fff"/>
        <path id="Path_35012" data-name="Path 35012" d="M66.119,313.237v2.318h9.437l-.562-.612-.691-.753a.389.389,0,0,1,.286-.652l.093.012,3.584.883a.392.392,0,0,1,.193.115l.925,1.008h.9l2-2.274v-.044Z" transform="translate(-61.692 -292.266)" fill="#fff"/>
        <path id="Path_35013" data-name="Path 35013" d="M206.124,158.725l-1.534-1.35a.386.386,0,0,0-.256-.1h-.025a.385.385,0,0,0-.267.131l-1.942,2.207-1.562,1.775-2.929,3.328-1.3,1.475-1.381,1.569-2,2.274-.44.5-.459-.5-.925-1.008a.391.391,0,0,0-.193-.115l-3.584-.882-.093-.012a.389.389,0,0,0-.287.652l.691.753.562.612,3.27,3.564a1.411,1.411,0,0,0,2.1-.021l6.966-7.918,1.562-1.775,4.06-4.614a.387.387,0,0,0-.035-.548" transform="translate(-174.339 -146.748)" fill="#71717b"/>
      </g>
    </g>
  </g>
</svg>
