<svg xmlns="http://www.w3.org/2000/svg" width="93.103" height="100" viewBox="0 0 93.103 100">
  <g id="management-service_10404416" transform="translate(-5 -3)">
    <path id="Path_41328" data-name="Path 41328" d="M53.276,89.424a6.9,6.9,0,1,1-3.448,0V82.31a1.724,1.724,0,0,1,3.448,0Zm-1.724,3.231A3.448,3.448,0,1,0,55,96.1,3.45,3.45,0,0,0,51.552,92.655ZM36.034,68.517H23.966a18.966,18.966,0,1,1,0-37.931,19.357,19.357,0,0,1,1.984.1,24.139,24.139,0,1,1,48.016-3.55c0,.1,0,.191,0,.286a20.873,20.873,0,0,1,3.45-.286,20.628,20.628,0,0,1,14.838,6.276,1.724,1.724,0,0,1-2.472,2.4,17.262,17.262,0,0,0-17.191-4.547,1.724,1.724,0,0,1-2.2-1.843,20.916,20.916,0,0,0,.126-2.29A20.69,20.69,0,1,0,29.81,32.384a1.725,1.725,0,0,1-2.086,2.109,15.519,15.519,0,1,0-3.759,30.576H77.414A17.247,17.247,0,0,0,93.262,41.031a1.724,1.724,0,1,1,3.167-1.362A20.694,20.694,0,0,1,77.414,68.517H67.069v7.555l9.391,4.7a1.721,1.721,0,0,1,.953,1.541v7.114a6.9,6.9,0,1,1-3.448,0V83.376l-9.391-4.7a1.721,1.721,0,0,1-.953-1.541V68.517H53.276v6.9a1.724,1.724,0,0,1-3.448,0v-6.9H39.483v8.621a1.722,1.722,0,0,1-.953,1.541l-9.391,4.7v6.048a6.9,6.9,0,1,1-3.448,0V82.31a1.721,1.721,0,0,1,.953-1.541l9.391-4.7ZM75.69,92.655A3.448,3.448,0,1,0,79.138,96.1,3.45,3.45,0,0,0,75.69,92.655Zm-48.276,0A3.448,3.448,0,1,0,30.862,96.1,3.45,3.45,0,0,0,27.414,92.655Zm28.416-62.4s.572,1.579.571,1.578a13.425,13.425,0,0,1,3.591,2.074l1.653-.295a1.725,1.725,0,0,1,1.6.566,15.533,15.533,0,0,1,2.988,5.174,1.728,1.728,0,0,1-.312,1.669s-1.081,1.284-1.083,1.283a13.431,13.431,0,0,1,0,4.147l1.081,1.284a1.728,1.728,0,0,1,.312,1.669,15.533,15.533,0,0,1-2.988,5.174,1.725,1.725,0,0,1-1.6.566l-1.652-.295A13.426,13.426,0,0,1,56.4,56.922L55.829,58.5a1.724,1.724,0,0,1-1.29,1.105,15.547,15.547,0,0,1-5.974,0,1.729,1.729,0,0,1-1.29-1.105s-.571-1.579-.571-1.578a13.478,13.478,0,0,1-3.591-2.074l-1.653.295a1.722,1.722,0,0,1-1.6-.566,15.5,15.5,0,0,1-2.988-5.174,1.724,1.724,0,0,1,.312-1.669s1.081-1.284,1.081-1.283a13.484,13.484,0,0,1,0-4.147l-1.081-1.284a1.724,1.724,0,0,1-.312-1.669,15.5,15.5,0,0,1,2.988-5.174,1.722,1.722,0,0,1,1.6-.566l1.653.295a13.426,13.426,0,0,1,3.591-2.072l.571-1.579a1.729,1.729,0,0,1,1.29-1.105,15.547,15.547,0,0,1,5.974,0,1.724,1.724,0,0,1,1.29,1.105ZM52.934,32.39a12.144,12.144,0,0,0-2.764,0l-.5,1.39a1.727,1.727,0,0,1-1.107,1.057,10.016,10.016,0,0,0-3.778,2.183,1.724,1.724,0,0,1-1.469.428l-1.455-.259a12.108,12.108,0,0,0-1.381,2.393l.952,1.131a1.716,1.716,0,0,1,.362,1.486,10.009,10.009,0,0,0,0,4.362,1.716,1.716,0,0,1-.362,1.486l-.952,1.131a12.108,12.108,0,0,0,1.381,2.393l1.455-.259a1.719,1.719,0,0,1,1.469.429,10.035,10.035,0,0,0,3.778,2.181,1.727,1.727,0,0,1,1.107,1.057s.5,1.39.5,1.39a12.129,12.129,0,0,0,2.762,0l.5-1.39a1.72,1.72,0,0,1,1.105-1.057,10.042,10.042,0,0,0,3.779-2.181,1.716,1.716,0,0,1,1.469-.429l1.455.259a12.108,12.108,0,0,0,1.381-2.393l-.952-1.131a1.722,1.722,0,0,1-.364-1.486,10.009,10.009,0,0,0,0-4.362,1.722,1.722,0,0,1,.364-1.486l.952-1.131a12.031,12.031,0,0,0-1.383-2.393l-1.453.259a1.721,1.721,0,0,1-1.469-.428,10.023,10.023,0,0,0-3.779-2.183,1.72,1.72,0,0,1-1.105-1.057Zm-1.381,6.817a5.172,5.172,0,1,1-5.172,5.172A5.174,5.174,0,0,1,51.553,39.207Zm0,3.448a1.724,1.724,0,1,0,1.724,1.724A1.725,1.725,0,0,0,51.553,42.655Z" transform="translate(0)" fill="#c01421" fill-rule="evenodd"/>
  </g>
</svg>
