<svg xmlns="http://www.w3.org/2000/svg" width="90.036" height="90" viewBox="0 0 90.036 90">
  <g id="XMLID_927_" transform="translate(-0.987 -1)">
    <path id="XMLID_963_" d="M30.185,71.532h-1.8V68.539A13.3,13.3,0,0,0,23.9,58.663V48.039A5.083,5.083,0,0,0,18.962,43.1l5.387-11.971a4.825,4.825,0,0,0-2.544-5.985,5.028,5.028,0,0,0-6.285,1.945L2.353,50.583a8.718,8.718,0,0,0-.15,9.128L8.488,71.532h-1.2a1.414,1.414,0,0,0-1.5,1.5V83.5a1.414,1.414,0,0,0,1.5,1.5H30.334a1.414,1.414,0,0,0,1.5-1.5V73.028a1.758,1.758,0,0,0-1.646-1.5ZM4.9,58.065a5.179,5.179,0,0,1,.15-5.985L18.064,28.587a2.281,2.281,0,0,1,2.544-.748,1.736,1.736,0,0,1,1.047,2.095L14.623,45.346a3.9,3.9,0,0,0-.6,2.244V59.411a1.414,1.414,0,0,0,1.5,1.5,1.414,1.414,0,0,0,1.5-1.5V47.59c0-.9.748-1.5,1.8-1.5a2.158,2.158,0,0,1,2.244,1.945V59.411a1.361,1.361,0,0,0,.6,1.2,9.988,9.988,0,0,1,3.89,7.93v2.993H12.079ZM28.688,82.006H8.787V74.524H28.838v7.482Z" transform="translate(0 6.002)" fill="#c01421"/>
    <path id="XMLID_980_" d="M73.828,50.584,60.66,26.942a5.144,5.144,0,0,0-6.285-1.8,4.631,4.631,0,0,0-2.544,5.985L57.219,43.1a4.98,4.98,0,0,0-4.938,4.938V58.664a13.3,13.3,0,0,0-4.489,9.876v2.993H46a1.414,1.414,0,0,0-1.5,1.5V83.5A1.414,1.414,0,0,0,46,85H69.04a1.414,1.414,0,0,0,1.5-1.5V73.029a1.414,1.414,0,0,0-1.5-1.5H67.693l6.285-11.821a8.712,8.712,0,0,0-.15-9.128ZM67.394,82.007h-19.9V74.525H67.543v7.482Zm3.89-23.792L64.251,71.533H50.785V68.54a10.451,10.451,0,0,1,3.89-7.931,1.847,1.847,0,0,0,.6-1.2V48.04A2.158,2.158,0,0,1,57.518,46.1a1.794,1.794,0,0,1,1.8,1.5V59.412a1.5,1.5,0,0,0,2.993,0V47.592a6.27,6.27,0,0,0-.6-2.244L54.825,30.085a1.675,1.675,0,0,1,1.047-2.095,2.03,2.03,0,0,1,2.544.6L71.583,52.23a6.128,6.128,0,0,1-.3,5.985Z" transform="translate(15.83 6)" fill="#c01421"/>
    <path id="XMLID_984_" d="M35.73,13.4a8.206,8.206,0,0,0-8.23,8.23,8.3,8.3,0,1,0,16.609,0A8.433,8.433,0,0,0,35.73,13.4Zm0,13.617a5.312,5.312,0,0,1,0-10.624,5.334,5.334,0,0,1,5.387,5.237A5.564,5.564,0,0,1,35.73,27.017Z" transform="translate(10.27 4.803)" fill="#c01421"/>
    <path id="XMLID_987_" d="M58.558,42.6l-2.672-5.985c.267-.6.4-1.047.668-1.646l5.612-2.095a1.482,1.482,0,0,0,.935-1.5V24.193a1.811,1.811,0,0,0-.935-1.5L56.554,20.6a8.515,8.515,0,0,0-.668-1.646l2.672-5.985a1.736,1.736,0,0,0-.267-1.8L53.748,6.237a1.309,1.309,0,0,0-1.6-.3L46.8,8.931a6.079,6.079,0,0,0-1.47-.6L43.46,2.047A1.207,1.207,0,0,0,42.257,1H35.844a1.319,1.319,0,0,0-1.2,1.047L32.771,8.332c-.534.15-.935.449-1.47.6L25.956,5.938a1.309,1.309,0,0,0-1.6.3L19.81,11.474a1.736,1.736,0,0,0-.267,1.8l2.672,5.985c-.267.6-.4,1.047-.668,1.646L15.935,23A1.419,1.419,0,0,0,15,24.343v7.182a1.419,1.419,0,0,0,.935,1.347l5.612,2.095a8.515,8.515,0,0,0,.668,1.646L19.543,42.6a1.736,1.736,0,0,0,.267,1.8l4.543,5.087a1.309,1.309,0,0,0,1.6.3L31.3,46.787c.534.3.935.449,1.47.748l1.871,6.285a1.319,1.319,0,0,0,1.2,1.047h6.413a1.319,1.319,0,0,0,1.2-1.047l1.871-6.285c.534-.15.935-.449,1.47-.6l5.345,2.993a1.309,1.309,0,0,0,1.6-.3l4.543-5.087a2.064,2.064,0,0,0,.267-1.945Zm-6.013,4.04-5.077-2.843a1.667,1.667,0,0,0-1.2,0c-.8.449-1.6.748-2.271,1.047a1.285,1.285,0,0,0-.8.9l-1.737,5.985H36.913L35.176,45.74a1.285,1.285,0,0,0-.8-.9A10.9,10.9,0,0,1,32.1,43.795a1.667,1.667,0,0,0-1.2,0l-5.077,2.843-3.207-3.591,2.539-5.686a2.312,2.312,0,0,0,0-1.347c-.4-.9-.668-1.8-.935-2.544a1.285,1.285,0,0,0-.8-.9l-5.345-1.945V25.54l5.345-1.945a1.285,1.285,0,0,0,.8-.9,13.854,13.854,0,0,1,.935-2.544,2.312,2.312,0,0,0,0-1.347L22.616,13.12l3.207-3.591L30.9,12.372a1.667,1.667,0,0,0,1.2,0c.8-.449,1.6-.748,2.271-1.047.134-.449.534-.9.668-1.347l1.737-5.985h4.543l1.737,5.985a1.285,1.285,0,0,0,.8.9,10.9,10.9,0,0,1,2.271,1.047,1.667,1.667,0,0,0,1.2,0L52.412,9.08l3.207,3.591L53.08,18.357a2.312,2.312,0,0,0,0,1.347c.4.9.668,1.8.935,2.544a1.285,1.285,0,0,0,.8.9l5.345,1.945v5.087l-5.077,2.244a1.285,1.285,0,0,0-.8.9,13.854,13.854,0,0,1-.935,2.544,2.312,2.312,0,0,0,0,1.347L55.886,42.9Z" transform="translate(6.955)" fill="#c01421"/>
    <path id="XMLID_988_" d="M30.7,43.8a1.414,1.414,0,0,0-1.5,1.5v22.3a1.5,1.5,0,0,0,2.993,0V45.3a1.609,1.609,0,0,0-1.5-1.5Z" transform="translate(11.38 15.478)" fill="#c01421"/>
    <path id="XMLID_989_" d="M36.3,43.8a1.414,1.414,0,0,0-1.5,1.5v22.3a1.5,1.5,0,0,0,2.993,0V45.3a1.5,1.5,0,0,0-1.5-1.5Z" transform="translate(13.638 15.478)" fill="#c01421"/>
    <path id="XMLID_990_" d="M25,37.4a1.414,1.414,0,0,0-1.5,1.5v22.3a1.5,1.5,0,0,0,2.993,0V38.9A1.5,1.5,0,0,0,25,37.4Z" transform="translate(9.08 13.611)" fill="#c01421"/>
    <path id="XMLID_991_" d="M42,37.4a1.414,1.414,0,0,0-1.5,1.5v22.3a1.5,1.5,0,1,0,2.993,0V38.9A1.609,1.609,0,0,0,42,37.4Z" transform="translate(15.937 13.611)" fill="#c01421"/>
  </g>
</svg>
