<svg xmlns="http://www.w3.org/2000/svg" width="99.168" height="90" viewBox="0 0 99.168 90">
  <path id="framework_16761123" d="M62.927,101.574a1.405,1.405,0,0,1-.536,1.913,30.687,30.687,0,0,1-6.055,2.594l-3.09,7.982a1.4,1.4,0,0,1-1.311.9H42.714a1.408,1.408,0,0,1-1.311-.9l-3.088-7.98a30.626,30.626,0,0,1-5.432-2.252l-7.829,3.461A1.406,1.406,0,0,1,23.492,107l-6.522-6.522a1.406,1.406,0,0,1-.291-1.562l3.461-7.831a30.6,30.6,0,0,1-2.252-5.432l-7.98-3.09a1.4,1.4,0,0,1-.9-1.311V72.03a1.408,1.408,0,0,1,.9-1.311l7.98-3.088A30.627,30.627,0,0,1,20.14,62.2L16.679,54.37a1.406,1.406,0,0,1,.291-1.562l6.522-6.522a1.406,1.406,0,0,1,1.562-.291l7.831,3.461A30.6,30.6,0,0,1,38.317,47.2l3.088-7.98a1.4,1.4,0,0,1,1.311-.9h9.222a1.408,1.408,0,0,1,1.311.9l3.09,7.98A30.636,30.636,0,0,1,62.393,49.8a1.4,1.4,0,1,1-1.377,2.449A27.834,27.834,0,0,0,54.9,49.709a1.413,1.413,0,0,1-.931-.845l-2.991-7.729h-7.3l-2.991,7.729a1.4,1.4,0,0,1-.931.845,27.778,27.778,0,0,0-6.117,2.537,1.407,1.407,0,0,1-1.257.06L24.8,48.954,19.64,54.113,22.99,61.7a1.407,1.407,0,0,1-.06,1.257,27.866,27.866,0,0,0-2.537,6.119,1.413,1.413,0,0,1-.845.931l-7.729,2.991v7.3l7.729,2.991a1.4,1.4,0,0,1,.845.931A27.858,27.858,0,0,0,22.93,90.33a1.407,1.407,0,0,1,.06,1.257l-3.353,7.584,5.159,5.159,7.582-3.351a1.407,1.407,0,0,1,1.257.06,27.866,27.866,0,0,0,6.119,2.537,1.413,1.413,0,0,1,.931.845l2.991,7.729h7.3l2.991-7.729a1.4,1.4,0,0,1,.931-.845,27.858,27.858,0,0,0,6.117-2.537,1.405,1.405,0,0,1,1.913.536Zm7.811-24.933A23.411,23.411,0,1,1,47.327,53.23,23.439,23.439,0,0,1,70.738,76.641Zm-23.411,20.6a20.5,20.5,0,0,0,13.029-4.655V89.708a9.43,9.43,0,0,0-9.419-9.419H43.72A9.43,9.43,0,0,0,34.3,89.708v2.879a20.5,20.5,0,0,0,13.029,4.655Zm5.6-26.178a5.6,5.6,0,1,0-5.6,5.6A5.607,5.607,0,0,0,52.928,71.064Zm15,5.577A20.6,20.6,0,1,0,31.488,89.8v-.092A12.246,12.246,0,0,1,42.035,77.6a8.411,8.411,0,1,1,10.584,0A12.247,12.247,0,0,1,63.166,89.708V89.8a20.514,20.514,0,0,0,4.762-13.159ZM67,49.414A17.574,17.574,0,1,1,84.578,66.987,17.593,17.593,0,0,1,67,49.414Zm2.811,0A14.763,14.763,0,1,0,84.578,34.65,14.78,14.78,0,0,0,69.815,49.414Zm12.513,5.625a1.405,1.405,0,0,0,1.987,0l9.919-9.919a1.405,1.405,0,0,0-1.987-1.987l-8.925,8.925-3.716-3.714a1.405,1.405,0,0,0-1.987,1.987l4.71,4.71Zm25.851,34.6a18.621,18.621,0,0,1-8.869,15.853v6.376a5.574,5.574,0,0,1-3.246,5.059,6.734,6.734,0,0,1-12.968,0,5.574,5.574,0,0,1-3.246-5.059v-6.376a18.6,18.6,0,1,1,28.33-15.853Zm-15.44,27.8H86.417a3.923,3.923,0,0,0,6.32,0Zm3.76-5.569v-3H82.657v3a2.762,2.762,0,0,0,2.758,2.758H93.74A2.762,2.762,0,0,0,96.5,111.863Zm-5-30.658a1.915,1.915,0,1,0-1.915,1.915A1.917,1.917,0,0,0,91.494,81.2Zm13.874,8.429a15.789,15.789,0,1,0-23.433,13.818,1.408,1.408,0,0,1,.725,1.229v1.375h1.66V98.2L82.9,97.515a3.612,3.612,0,1,1,1.192-2.676c0,.044,0,.086-.006.128l2.252,1.084a1.407,1.407,0,0,1,.795,1.267v8.739h1.044V85.717a4.726,4.726,0,1,1,2.81,0v20.34h1.158V91.4a1.406,1.406,0,0,1,.831-1.283l2.034-.909c-.006-.1-.014-.193-.014-.289a4.095,4.095,0,1,1,1.168,2.853l-1.209.54v13.745H96.5v-1.375a1.4,1.4,0,0,1,.725-1.229,15.808,15.808,0,0,0,8.144-13.818Zm-6.289.556a1.273,1.273,0,1,0-1.273-1.273A1.273,1.273,0,0,0,99.078,90.19Zm-17.8,4.649a.807.807,0,1,0-.807.807A.807.807,0,0,0,81.28,94.839Z" transform="translate(-9.01 -31.84)" fill="#c01421"/>
</svg>
