<svg xmlns="http://www.w3.org/2000/svg" width="102.436" height="102.513" viewBox="0 0 102.436 102.513">
  <g id="Group_41599" data-name="Group 41599" transform="translate(-807.501 -7906.459)">
    <path id="Path_41329" data-name="Path 41329" d="M72.471,117.617a7.451,7.451,0,0,0,7.254,6h1.408a9.4,9.4,0,0,0,9.4-9.4V76.067a9.4,9.4,0,0,0-9.4-9.4h-1.36A7.466,7.466,0,0,0,72.9,71.243,2.706,2.706,0,0,1,71.09,72.8h0a9.756,9.756,0,0,0-7.251,9.423,10.867,10.867,0,0,0,.111,1.525c0,.006,0,.013,0,.019a.4.4,0,0,1-.126.358l-.012.011A9.722,9.722,0,0,0,60.7,91.277a10.881,10.881,0,0,0,1.456,5.331c.01.018.021.035.032.053a2.862,2.862,0,0,1,.011,3.125l-.01.015a11.683,11.683,0,0,0,9.944,17.816Zm7.3-49.171h1.359a7.621,7.621,0,0,1,7.621,7.621v38.146a7.62,7.62,0,0,1-7.621,7.621h-1.4a5.671,5.671,0,0,1-5.534-4.669,1.585,1.585,0,0,0-1.6-1.327c-.145,0-.3,0-.466,0a9.9,9.9,0,0,1-8.433-15.1A4.643,4.643,0,0,0,63.69,95.7a9.093,9.093,0,0,1-1.21-4.426,7.945,7.945,0,0,1,2.543-5.833,2.175,2.175,0,0,0,.685-1.945,9.106,9.106,0,0,1-.093-1.272,7.975,7.975,0,0,1,5.926-7.7,4.488,4.488,0,0,0,2.992-2.588v0a5.687,5.687,0,0,1,5.237-3.486Z" transform="translate(767.141 7862.576)" fill="#c01421" stroke="#c01421" stroke-width="1" fill-rule="evenodd"/>
    <path id="Path_41330" data-name="Path 41330" d="M72.494,96.174a8.276,8.276,0,0,1-1.763-2.759,8.27,8.27,0,0,1,.393-6.8,8.53,8.53,0,0,1,1.468-2.019,8.235,8.235,0,0,1,9.555-1.636.6.6,0,0,0,.565-1.048,9.4,9.4,0,0,0-2.153-.913,9.481,9.481,0,0,0-9.212,2.352,9.212,9.212,0,0,0-1.793,2.462A9.45,9.45,0,0,0,71.667,97.03a.6.6,0,1,0,.827-.857Z" transform="translate(762.492 7854.572)" fill="#c01421" stroke="#c01421" stroke-width="1" fill-rule="evenodd"/>
    <path id="Path_41331" data-name="Path 41331" d="M69.053,131.116a8.132,8.132,0,0,1-5.493-4.472,7.94,7.94,0,0,1-.68-2.333,8.078,8.078,0,0,1-.065-1.217.89.89,0,1,0-1.779,0,9.783,9.783,0,0,0,.138,1.478,9.658,9.658,0,0,0,4.3,6.492,9.5,9.5,0,0,0,3.3,1.327.652.652,0,0,0,.274-1.276Z" transform="translate(766.805 7830.759)" fill="#c01421" stroke="#c01421" stroke-width="1" fill-rule="evenodd"/>
    <path id="Path_41332" data-name="Path 41332" d="M92.41,178.252A10.116,10.116,0,0,1,89.6,179.43a9.963,9.963,0,0,1-2.986.279.89.89,0,0,0,0,1.78,11.588,11.588,0,0,0,3.412-.686,11.388,11.388,0,0,0,3.007-1.648.548.548,0,0,0-.621-.9Z" transform="translate(752.662 7798.705)" fill="#c01421" stroke="#c01421" stroke-width="1" fill-rule="evenodd"/>
    <path id="Path_41333" data-name="Path 41333" d="M99.349,123.016a6.375,6.375,0,0,1-1.146-2.572,7.9,7.9,0,0,1-.171-1.791,8.394,8.394,0,0,1,.081-1.345,7.483,7.483,0,0,1,.188-.9,6.188,6.188,0,0,1,1.048-2.121.4.4,0,1,0-.567-.566,6.808,6.808,0,0,0-1.575,1.743,6.25,6.25,0,0,0-.676,1.464,5.659,5.659,0,0,0-.279,1.723,5.87,5.87,0,0,0,.468,2.271,6.668,6.668,0,0,0,2.062,2.659.4.4,0,1,0,.567-.567Z" transform="translate(746.629 7835.686)" fill="#c01421" stroke="#c01421" stroke-width="1" fill-rule="evenodd"/>
    <path id="Path_41334" data-name="Path 41334" d="M91.151,143.709a6.38,6.38,0,0,1,.294-2.8,7.9,7.9,0,0,1,.747-1.637,8.4,8.4,0,0,1,.743-1.125,7.557,7.557,0,0,1,.611-.682,6.192,6.192,0,0,1,1.968-1.313.4.4,0,0,0-.208-.774,6.819,6.819,0,0,0-2.235.722,6.229,6.229,0,0,0-1.316.93,5.673,5.673,0,0,0-1.1,1.352,5.875,5.875,0,0,0-.73,2.2,6.663,6.663,0,0,0,.456,3.333.4.4,0,1,0,.774-.207Z" transform="translate(750.285 7823.22)" fill="#c01421" stroke="#c01421" stroke-width="1" fill-rule="evenodd"/>
    <path id="Path_41335" data-name="Path 41335" d="M118.078,100.9a6.564,6.564,0,0,1-4.708-1.8,6.713,6.713,0,0,1-2.1-4.708.591.591,0,0,0-1.181,0,8.038,8.038,0,0,0,2.236,5.755,8.192,8.192,0,0,0,5.755,2.535.89.89,0,1,0,0-1.78Z" transform="translate(738.705 7847.029)" fill="#c01421" stroke="#c01421" stroke-width="1" fill-rule="evenodd"/>
    <path id="Path_41336" data-name="Path 41336" d="M118.078,154.317a8.19,8.19,0,0,0-5.755,2.535,8.038,8.038,0,0,0-2.236,5.755.591.591,0,0,0,1.181,0,6.712,6.712,0,0,1,2.1-4.708,6.567,6.567,0,0,1,4.708-1.8.89.89,0,1,0,0-1.779Z" transform="translate(738.705 7812.361)" fill="#c01421" stroke="#c01421" stroke-width="1" fill-rule="evenodd"/>
    <path id="Path_41337" data-name="Path 41337" d="M146.585,123.613h.006a7.45,7.45,0,0,0,7.254-6h.337A11.683,11.683,0,0,0,164.125,99.8l-.009-.015a2.862,2.862,0,0,1,.011-3.125c.011-.017.022-.035.032-.053a10.881,10.881,0,0,0,1.456-5.331,9.722,9.722,0,0,0-3.112-7.138l-.012-.011a.4.4,0,0,1-.126-.358l0-.019a10.868,10.868,0,0,0,.111-1.525,9.756,9.756,0,0,0-7.251-9.423h0a2.706,2.706,0,0,1-1.806-1.561,7.466,7.466,0,0,0-6.877-4.573h-1.359a9.4,9.4,0,0,0-9.4,9.4v38.146a9.4,9.4,0,0,0,9.4,9.4Zm-.005-1.78h-1.4a7.62,7.62,0,0,1-7.621-7.621V76.067a7.621,7.621,0,0,1,7.621-7.621h1.359a5.687,5.687,0,0,1,5.237,3.486v0a4.486,4.486,0,0,0,2.994,2.588,7.974,7.974,0,0,1,5.924,7.7,9.043,9.043,0,0,1-.093,1.272,2.177,2.177,0,0,0,.685,1.945,7.945,7.945,0,0,1,2.543,5.833,9.089,9.089,0,0,1-1.2,4.413l-.013.023a4.643,4.643,0,0,0-.006,5.029,9.9,9.9,0,0,1-8.433,15.1c-.156,0-.312,0-.467,0a1.585,1.585,0,0,0-1.6,1.327A5.668,5.668,0,0,1,146.58,121.833Z" transform="translate(723.982 7862.576)" fill="#c01421" stroke="#c01421" stroke-width="1" fill-rule="evenodd"/>
    <path id="Path_41338" data-name="Path 41338" d="M175.6,97.03a9.46,9.46,0,0,0,2.115-11.222,9.212,9.212,0,0,0-1.793-2.462,9.481,9.481,0,0,0-9.212-2.352,9.4,9.4,0,0,0-2.153.913.6.6,0,0,0,.565,1.048,8.24,8.24,0,0,1,9.555,1.636,8.517,8.517,0,0,1,1.468,2.019,8.268,8.268,0,0,1,.393,6.8,8.271,8.271,0,0,1-1.764,2.759.6.6,0,0,0,.827.857Z" transform="translate(707.676 7854.572)" fill="#c01421" stroke="#c01421" stroke-width="1" fill-rule="evenodd"/>
    <path id="Path_41339" data-name="Path 41339" d="M186.443,132.392a9.5,9.5,0,0,0,3.3-1.327,9.648,9.648,0,0,0,3.94-5.055,9.564,9.564,0,0,0,.362-1.437,9.728,9.728,0,0,0,.139-1.478.89.89,0,0,0-1.78,0,8.021,8.021,0,0,1-.065,1.217,7.956,7.956,0,0,1-.679,2.333,8.036,8.036,0,0,1-.6,1.064,8.149,8.149,0,0,1-4.895,3.408.652.652,0,0,0,.274,1.276Z" transform="translate(695.41 7830.759)" fill="#c01421" stroke="#c01421" stroke-width="1" fill-rule="evenodd"/>
    <path id="Path_41340" data-name="Path 41340" d="M163.513,179.155a11.391,11.391,0,0,0,3.008,1.648,11.588,11.588,0,0,0,3.411.686.89.89,0,1,0,0-1.78,9.961,9.961,0,0,1-2.985-.279,10.116,10.116,0,0,1-2.812-1.178.548.548,0,0,0-.621.9Z" transform="translate(708.23 7798.705)" fill="#c01421" stroke="#c01421" stroke-width="1" fill-rule="evenodd"/>
    <path id="Path_41341" data-name="Path 41341" d="M163.574,123.582a6.663,6.663,0,0,0,2.061-2.659,5.87,5.87,0,0,0,.469-2.271,5.659,5.659,0,0,0-.28-1.723,6.231,6.231,0,0,0-.675-1.464,6.816,6.816,0,0,0-1.575-1.743.4.4,0,0,0-.567.566,6.188,6.188,0,0,1,1.048,2.121,7.482,7.482,0,0,1,.188.9,8.394,8.394,0,0,1,.081,1.345,7.881,7.881,0,0,1-.172,1.791,6.38,6.38,0,0,1-1.145,2.572.4.4,0,0,0,.567.567Z" transform="translate(708.453 7835.686)" fill="#c01421" stroke="#c01421" stroke-width="1" fill-rule="evenodd"/>
    <path id="Path_41342" data-name="Path 41342" d="M168.323,143.916a6.667,6.667,0,0,0,.456-3.333,5.867,5.867,0,0,0-.73-2.2,5.661,5.661,0,0,0-1.1-1.352,6.231,6.231,0,0,0-1.317-.93,6.812,6.812,0,0,0-2.235-.722.4.4,0,1,0-.207.774,6.191,6.191,0,0,1,1.968,1.313,7.431,7.431,0,0,1,.611.682,8.358,8.358,0,0,1,.743,1.125,7.882,7.882,0,0,1,.747,1.637,6.374,6.374,0,0,1,.294,2.8.4.4,0,1,0,.774.207Z" transform="translate(708.453 7823.22)" fill="#c01421" stroke="#c01421" stroke-width="1" fill-rule="evenodd"/>
    <path id="Path_41343" data-name="Path 41343" d="M136.673,102.684a8.193,8.193,0,0,0,5.755-2.535,8.038,8.038,0,0,0,2.235-5.755.591.591,0,1,0-1.181,0,6.715,6.715,0,0,1-2.1,4.708,6.565,6.565,0,0,1-4.708,1.8.89.89,0,0,0,0,1.78Z" transform="translate(723.982 7847.029)" fill="#c01421" stroke="#c01421" stroke-width="1" fill-rule="evenodd"/>
    <path id="Path_41344" data-name="Path 41344" d="M136.673,156.1a6.568,6.568,0,0,1,4.708,1.8,6.713,6.713,0,0,1,2.1,4.708.591.591,0,0,0,1.181,0,8.038,8.038,0,0,0-2.235-5.755,8.191,8.191,0,0,0-5.755-2.535.89.89,0,1,0,0,1.779Z" transform="translate(723.982 7812.361)" fill="#c01421" stroke="#c01421" stroke-width="1" fill-rule="evenodd"/>
    <path id="Path_41345" data-name="Path 41345" d="M25.809,14.594A11.226,11.226,0,1,0,37.035,25.82,11.231,11.231,0,0,0,25.809,14.594Zm0,1.78a9.446,9.446,0,1,1-9.446,9.446A9.45,9.45,0,0,1,25.809,16.374Z" transform="translate(793.418 7892.409)" fill="#c01421" stroke="#c01421" stroke-width="1" fill-rule="evenodd"/>
    <path id="Path_41346" data-name="Path 41346" d="M34.364,220.189a6.888,6.888,0,0,0,1.52-2.836,23.071,23.071,0,0,0,0-11.819,6.887,6.887,0,0,0-1.52-2.836,6.9,6.9,0,0,0-2.836-1.52,21.028,21.028,0,0,0-5.909-.769,21.024,21.024,0,0,0-5.909.769,6.894,6.894,0,0,0-2.836,1.52,6.887,6.887,0,0,0-1.52,2.836,23.071,23.071,0,0,0,0,11.819,6.888,6.888,0,0,0,1.52,2.836,6.89,6.89,0,0,0,2.836,1.52,21.026,21.026,0,0,0,5.909.769,21.03,21.03,0,0,0,5.909-.769A6.891,6.891,0,0,0,34.364,220.189Zm-1.258-1.258a5.121,5.121,0,0,1-2.1,1.077,19.2,19.2,0,0,1-5.388.691,19.2,19.2,0,0,1-5.389-.691,5.119,5.119,0,0,1-2.1-1.077,5.122,5.122,0,0,1-1.077-2.1,21.34,21.34,0,0,1,0-10.776,5.122,5.122,0,0,1,1.077-2.1,5.119,5.119,0,0,1,2.1-1.077,19.188,19.188,0,0,1,5.389-.691,19.187,19.187,0,0,1,5.388.691,5.121,5.121,0,0,1,2.1,1.077,5.127,5.127,0,0,1,1.077,2.1,21.34,21.34,0,0,1,0,10.776A5.127,5.127,0,0,1,33.105,218.931Z" transform="translate(793.418 7785.955)" fill="#c01421" stroke="#c01421" stroke-width="1" fill-rule="evenodd"/>
    <path id="Path_41347" data-name="Path 41347" d="M224.77,209.293,211.7,201.48a3.086,3.086,0,0,0-4.67,2.649v15.627a3.086,3.086,0,0,0,4.67,2.649l13.069-7.813a3.086,3.086,0,0,0,0-5.3Zm-.913,1.527a1.306,1.306,0,0,1,0,2.243l-13.069,7.813a1.307,1.307,0,0,1-1.977-1.121V204.129a1.306,1.306,0,0,1,1.977-1.121Z" transform="translate(683.164 7785.592)" fill="#c01421" stroke="#c01421" stroke-width="1" fill-rule="evenodd"/>
    <path id="Path_41348" data-name="Path 41348" d="M214,15.032l-6.541,3.776a3.347,3.347,0,0,0-1.673,2.9V29.26a3.347,3.347,0,0,0,1.673,2.9L214,35.935a3.345,3.345,0,0,0,3.346,0l6.541-3.776a3.347,3.347,0,0,0,1.673-2.9V21.707a3.347,3.347,0,0,0-1.673-2.9l-6.541-3.776A3.345,3.345,0,0,0,214,15.032Zm.89,1.541a1.568,1.568,0,0,1,1.567,0l6.541,3.777a1.567,1.567,0,0,1,.784,1.357V29.26a1.567,1.567,0,0,1-.784,1.357l-6.541,3.777a1.568,1.568,0,0,1-1.567,0l-6.541-3.777a1.566,1.566,0,0,1-.783-1.357V21.707a1.566,1.566,0,0,1,.783-1.357Z" transform="translate(683.881 7892.415)" fill="#c01421" stroke="#c01421" stroke-width="1" fill-rule="evenodd"/>
    <path id="Path_41349" data-name="Path 41349" d="M56.422,117.329H52.863a.89.89,0,0,0,0,1.78h3.559a.89.89,0,0,0,0-1.78Zm-9.048.575c-.23-.255-.381.012-.381.315a.89.89,0,0,0,.89.89H49.3a.89.89,0,0,0,0-1.78H47.9C47.448,117.329,47.338,117.586,47.374,117.9Zm62.389,1.2h.046s1.186-1.78,0-1.78a.89.89,0,0,0-.046,1.778Zm-46.223-1.778H59.982a.89.89,0,1,0,0,1.78h3.559a.89.89,0,0,0,0-1.78Zm42.71,0h-3.559a.89.89,0,0,0,0,1.78h3.559a.89.89,0,0,0,0-1.78Zm-7.118,0H95.573a.89.89,0,0,0,0,1.78h3.559a.89.89,0,1,0,0-1.78Zm-7.118,0H88.454a.89.89,0,0,0,0,1.78h3.559a.89.89,0,0,0,0-1.78Zm-7.118,0H81.336a.89.89,0,0,0,0,1.78H84.9a.89.89,0,0,0,0-1.78Zm-7.118,0H74.218a.89.89,0,0,0,0,1.78h3.559a.89.89,0,1,0,0-1.78Zm-7.118,0H67.1a.89.89,0,0,0,0,1.78h3.559a.89.89,0,0,0,0-1.78Zm46.671-9.189V110.6a.89.89,0,0,0,1.78,0v-2.464a.89.89,0,1,0-1.78,0Zm-80.708-.247h.046l.038,0a.888.888,0,1,0-.928-.886c0,.018,0,.036,0,.054a.791.791,0,0,0,.288.6A.887.887,0,0,0,36.622,107.893Zm80.708-6.871v3.559a.89.89,0,1,0,1.78,0v-3.559a.89.89,0,0,0-1.78,0Zm-79.772,2.423V99.886a.89.89,0,0,0-1.78,0v3.559a.89.89,0,1,0,1.78,0ZM117.33,93.9v3.559a.89.89,0,0,0,1.78,0V93.9a.89.89,0,0,0-1.78,0ZM37.558,96.327V92.768a.89.89,0,0,0-1.78,0v3.559a.89.89,0,0,0,1.78,0Zm79.772-9.542v3.559a.89.89,0,0,0,1.78,0V86.786a.89.89,0,1,0-1.78,0ZM37.558,89.209V85.65a.89.89,0,1,0-1.78,0v3.559a.89.89,0,0,0,1.78,0Zm79.772-9.542v3.559a.89.89,0,1,0,1.78,0V79.667a.89.89,0,0,0-1.78,0ZM37.558,82.091V78.532a.89.89,0,0,0-1.78,0v3.559a.89.89,0,1,0,1.78,0Zm79.772-9.542v3.559a.89.89,0,0,0,1.78,0V72.549a.89.89,0,0,0-1.78,0ZM37.558,74.973V71.413a.89.89,0,0,0-1.78,0v3.559a.89.89,0,0,0,1.78,0Zm79.772-9.542V68.99a.89.89,0,0,0,1.78,0V65.431a.89.89,0,1,0-1.78,0ZM37.558,67.854V64.3a.89.89,0,1,0-1.78,0v3.559a.89.89,0,0,0,1.78,0Zm79.772-9.542v3.559a.89.89,0,0,0,1.78,0V58.312a.89.89,0,0,0-1.78,0ZM37.558,60.736V57.177a.89.89,0,0,0-1.78,0v3.559a.89.89,0,1,0,1.78,0Zm79.772-9.542v3.559a.89.89,0,0,0,1.78,0V51.194a.89.89,0,0,0-1.78,0ZM37.558,53.618V50.058a.89.89,0,0,0-1.78,0v3.559a.89.89,0,0,0,1.78,0Zm79.772-5.983c0,.018,0,.036,0,.055a.788.788,0,0,0,.288.6.89.89,0,0,0,1.49-.656c0-.839-.89.89-.89.89C117.728,46.745,117.33,47.144,117.33,47.635Zm0,.055a.888.888,0,0,0,.288.6A.886.886,0,0,1,117.331,47.69ZM47.686,36.339c-.223-.23-.368.032-.368.329a.89.89,0,1,0,.89-.89C47.764,35.778,47.652,36.027,47.686,36.339Zm4.08,1.219h3.559a.89.89,0,0,0,0-1.78H51.767a.89.89,0,0,0,0,1.78Zm7.118,0h3.559a.89.89,0,0,0,0-1.78H58.885a.89.89,0,0,0,0,1.78Zm14.237,0h3.559a.89.89,0,0,0,0-1.78H73.122a.89.89,0,1,0,0,1.78Zm7.118,0H83.8a.89.89,0,0,0,0-1.78H80.24a.89.89,0,0,0,0,1.78Zm14.237,0h3.559a.89.89,0,0,0,0-1.78H94.477a.89.89,0,1,0,0,1.78Zm7.118,0h3.559a.89.89,0,0,0,0-1.78h-3.559a.89.89,0,0,0,0,1.78Zm7.675-1.78h-.557a.89.89,0,0,0,0,1.78h.562l.049-.076C109.533,37.14,110.306,35.778,109.27,35.778ZM66,37.558h3.559a.89.89,0,1,0,0-1.78H66a.89.89,0,0,0,0,1.78Zm21.355,0h3.559a.89.89,0,1,0,0-1.78H87.358a.89.89,0,0,0,0,1.78Z" transform="translate(781.275 7880.273)" fill="#c01421" stroke="#c01421" stroke-width="1" fill-rule="evenodd"/>
  </g>
</svg>
