<svg xmlns="http://www.w3.org/2000/svg" xmlns:xlink="http://www.w3.org/1999/xlink" width="64" height="64" viewBox="0 0 64 64">
  <defs>
    <clipPath id="clip-path">
      <rect id="Rectangle_12892" data-name="Rectangle 12892" width="28.306" height="25.447" fill="#71717b"/>
    </clipPath>
  </defs>
  <g id="Group_41596" data-name="Group 41596" transform="translate(-1272 -5402.999)">
    <g id="Ellipse_50" data-name="Ellipse 50" transform="translate(1272 5402.999)" fill="#fff" stroke="#707070" stroke-width="1">
      <circle cx="32" cy="32" r="32" stroke="none"/>
      <circle cx="32" cy="32" r="31.5" fill="none"/>
    </g>
    <g id="Group_41387" data-name="Group 41387" transform="translate(1312.895 5420.845) rotate(90)">
      <g id="Group_41384" data-name="Group 41384" clip-path="url(#clip-path)">
        <path id="Path_41359" data-name="Path 41359" d="M28.041,10.652a.906.906,0,0,0-1.281,0l-11.7,11.7V.906a.906.906,0,0,0-1.811,0V22.355l-11.7-11.7A.906.906,0,0,0,.265,11.933L13.512,25.182a.9.9,0,0,0,.116.1l.02.015.037.023.039.024.027.013c.018.009.035.018.054.025l.02.007c.021.008.042.016.063.023l.018,0c.022.006.045.012.068.017l.029,0,.059.009c.03,0,.06,0,.091,0a.894.894,0,0,0,.09,0c.021,0,.041-.006.061-.009l.027,0c.023,0,.046-.011.069-.017l.017,0c.022-.007.043-.015.064-.023l.02-.007.052-.025.028-.014.037-.022.039-.024.019-.014a.9.9,0,0,0,.116-.1L28.041,11.933a.906.906,0,0,0,0-1.281" transform="translate(0)" fill="#71717b"/>
      </g>
    </g>
  </g>
</svg>
