<svg xmlns="http://www.w3.org/2000/svg" width="90" height="90" viewBox="0 0 90 90">
  <g id="layer1" transform="translate(-0.529 -0.529)">
    <path id="Ic_08" d="M45.529.529a1.5,1.5,0,0,0-1.128.51l-10.5,12a1.5,1.5,0,0,0,1.128,2.493H39.55l.1,7.518a1.5,1.5,0,1,0,3-.044l-.123-8.992a1.5,1.5,0,0,0-1.494-1.485H38.343l7.187-8.215,7.187,8.215H50.026a1.5,1.5,0,0,0-1.494,1.506l.023,8.992a1.5,1.5,0,1,0,3,0l-.023-7.494h4.494a1.5,1.5,0,0,0,1.131-2.493l-10.5-12a1.5,1.5,0,0,0-1.131-.51ZM14.023,11.03a1.5,1.5,0,0,0-.979.375l-12,10.5a1.5,1.5,0,0,0,0,2.259l12,10.5a1.5,1.5,0,0,0,2.493-1.131V29.033h5.988a2.959,2.959,0,0,1,3,3V53.028a1.5,1.5,0,1,0,3,0V32.033a6.02,6.02,0,0,0-6-6h-7.5a1.5,1.5,0,0,0-1.494,1.494v2.7L4.32,23.03l8.215-7.2v2.7a1.5,1.5,0,0,0,1.494,1.494H24.523a8.953,8.953,0,0,1,9,9v13.5a11.957,11.957,0,0,0,2.962,7.881A22.513,22.513,0,0,0,25.209,61.343,13.5,13.5,0,0,0,20.4,56.978a7.494,7.494,0,1,0-12.732,0,13.6,13.6,0,0,0-7.131,12v2.013a7.534,7.534,0,0,0,7.5,7.541h12a7.449,7.449,0,0,0,3-.624v6.627a6.056,6.056,0,0,0,1.939,4.737c1.373,1.161,3.349,1.529,5.73,1.064L45.52,86.346l14.842,3.987a6.674,6.674,0,0,0,5.719-1.064,6,6,0,0,0,1.948-4.705V77.905a7.486,7.486,0,0,0,3,.624h12a7.532,7.532,0,0,0,7.494-7.541V68.975a13.6,13.6,0,0,0-7.131-12,7.5,7.5,0,1,0-12.738,0,13.5,13.5,0,0,0-4.808,4.362A22.515,22.515,0,0,0,54.57,50.412a11.952,11.952,0,0,0,2.962-7.881v-13.5a8.943,8.943,0,0,1,8.991-9H77.029a1.5,1.5,0,0,0,1.494-1.494v-2.7l8.218,7.2-8.218,7.2v-2.7a1.5,1.5,0,0,0-1.494-1.494H69.52a6.007,6.007,0,0,0-5.985,6v19.5a1.494,1.494,0,1,0,2.988,0v-19.5a2.959,2.959,0,0,1,3-3h6v4.494a1.5,1.5,0,0,0,2.49,1.131l12-10.5a1.5,1.5,0,0,0,0-2.259l-12-10.5a1.5,1.5,0,0,0-2.49,1.128v4.5h-9a12,12,0,0,0-11.991,12s0,2.924,0,5.572a11.973,11.973,0,0,0-18.006,0V29.033a12.01,12.01,0,0,0-12-12H15.538v-4.5a1.5,1.5,0,0,0-1.515-1.5Zm31.509,22.5a9,9,0,1,1-9,9,9.023,9.023,0,0,1,9-9ZM13.974,48.534a4.5,4.5,0,1,1-4.436,4.494A4.5,4.5,0,0,1,13.974,48.534Zm63,0a4.5,4.5,0,1,1-4.45,4.494A4.5,4.5,0,0,1,76.976,48.534Zm-37.925,4.09a11.955,11.955,0,0,0,12.961,0A19.445,19.445,0,0,1,65.029,71.035v13.53a3,3,0,0,1-.876,2.414c-.536.451-1.449.75-3.152.422l-9.7-2.61,6.176-1.664a6.174,6.174,0,0,0,4.339-7.53,6.063,6.063,0,0,0-2.789-3.668v-.894a1.5,1.5,0,1,0-3,.015,6.837,6.837,0,0,0-1.705.205L35.035,76.212V71.035a1.5,1.5,0,0,0-3,0v5.947l-.375.1a1.5,1.5,0,0,0,.741,2.912l22.676-5.824a3.137,3.137,0,1,1,1.629,6.059L30.069,87.4c-1.709.328-2.622.031-3.158-.422a3.06,3.06,0,0,1-.873-2.446v-13.5A19.443,19.443,0,0,1,39.052,52.624ZM18.219,59.248a10.544,10.544,0,0,1,5.6,5.865,22.629,22.629,0,0,0-.785,5.921v3.343a4.423,4.423,0,0,1-3,1.151h-12a4.473,4.473,0,0,1-4.494-4.541V68.975a10.547,10.547,0,0,1,6.313-9.724,7.44,7.44,0,0,0,8.367,0Zm54.627,0a7.442,7.442,0,0,0,8.364.006,10.555,10.555,0,0,1,6.319,9.721v2.013a4.473,4.473,0,0,1-4.494,4.541h-12a4.428,4.428,0,0,1-3-1.151V71.032a22.593,22.593,0,0,0-.782-5.918,10.548,10.548,0,0,1,5.6-5.865Zm-21.316,2.78a1.5,1.5,0,1,0,0,3h4.5a1.5,1.5,0,1,0,0-3Z" transform="translate(0 0)" fill="#c01421"/>
  </g>
</svg>
