<svg xmlns="http://www.w3.org/2000/svg" width="118.115" height="111" viewBox="0 0 118.115 111">
  <path id="change_17930856" d="M94.792,44.471A45.092,45.092,0,0,1,63,117.567c-.041,0-.082,0-.123,0a1.612,1.612,0,0,1-.119-3.219A42.019,42.019,0,0,0,101.422,72.61a41.42,41.42,0,0,0-9.149-26.125,1.612,1.612,0,0,1,2.518-2.014ZM23.164,98.019a1.612,1.612,0,0,0,1.347-2.5A41.881,41.881,0,0,1,56.36,30.861a1.612,1.612,0,0,0-.243-3.215,45.1,45.1,0,0,0-34.3,69.644A1.611,1.611,0,0,0,23.164,98.019Zm33.248,7.36v11.863a1.612,1.612,0,0,1-1.612,1.612H17.692v6.425a1.612,1.612,0,0,1-2.752,1.14L.972,112.45a1.612,1.612,0,0,1,0-2.28L14.94,96.2a1.612,1.612,0,0,1,2.752,1.14v6.425H54.8A1.612,1.612,0,0,1,56.412,105.379Zm-3.224,1.612H16.08a1.612,1.612,0,0,1-1.612-1.612v-4.145L4.392,111.31l10.077,10.076v-4.145a1.612,1.612,0,0,1,1.612-1.612H53.188v-8.639Zm64.955-74.38L104.175,46.578a1.612,1.612,0,0,1-2.752-1.14V39.014H64.315A1.612,1.612,0,0,1,62.7,37.4V25.539a1.612,1.612,0,0,1,1.612-1.612h37.108V17.5a1.612,1.612,0,0,1,2.752-1.14l13.968,13.968a1.612,1.612,0,0,1,0,2.28Zm-3.42-1.14L104.647,21.394v4.145a1.612,1.612,0,0,1-1.612,1.612H65.927V35.79h37.108a1.612,1.612,0,0,1,1.612,1.612v4.145Zm-54.106,67.2H37.883a1.612,1.612,0,0,1-1.612-1.612V87.415A11.26,11.26,0,0,1,47.522,76.17h.771l2.176-1.758a16.531,16.531,0,0,1-4.1-8.807,12,12,0,0,1-3.615-13.779c2.02-5.347,8.006-10.55,16.835-10.11,5.536.268,10.3,2.406,13.079,5.863a13.38,13.38,0,0,1,2.509,10.955c-.006.034-.013.067-.021.1-.785,3.3-1.952,5.632-3.554,7.111A16.462,16.462,0,0,1,67.235,74.7l1.816,1.469h.777A11.257,11.257,0,0,1,81.072,87.415v9.639a1.612,1.612,0,0,1-1.612,1.612H60.618Zm-.965-3.224.895-1.7L59.431,84.77h-1.52L56.8,93.736l.9,1.706Zm-5.846-22.28a1.612,1.612,0,0,1,.186.146A8.084,8.084,0,0,0,59,75.111c4.771,0,8.739-4.478,9.488-10.328.106-4.266-.455-7.385-1.709-9.459A13.989,13.989,0,0,1,59.061,58.7a1.584,1.584,0,0,1-.418,0c-3.979-.56-6.789-.159-8.126,1.156A4.774,4.774,0,0,0,49.4,63.562a13.236,13.236,0,0,0,4.407,9.6ZM64.64,76.749A11.245,11.245,0,0,1,61.186,78.1l1.747,1.86,2.933-2.223Zm-5.081,4.8.083-.377-.971-1.033L57.7,81.169l.083.377Zm-8.082-3.8,2.932,2.222,1.864-1.984a11.441,11.441,0,0,1-3.292-1.454Zm18.351,1.652h-.805l-5.3,4.015a1.58,1.58,0,0,1-1.176.313L63.809,93.84a1.613,1.613,0,0,1-.172.949l-.343.653H70.3V89.083a1.612,1.612,0,1,1,3.224,0v6.359h4.323V87.415a8.03,8.03,0,0,0-8.02-8.021ZM46.44,60.818a6.755,6.755,0,0,1,1.815-3.265c2.109-2.075,5.584-2.756,10.619-2.081a10.644,10.644,0,0,0,6.838-3.636,1.612,1.612,0,0,1,2.355-.072c1.82,1.831,2.95,4.477,3.413,8.019q.287-.845.527-1.843A10.1,10.1,0,0,0,70.153,49.6c-2.2-2.738-6.106-4.437-10.723-4.661q-.438-.022-.865-.022c-6.731,0-11.254,3.97-12.8,8.051a8.619,8.619,0,0,0,.671,7.852ZM39.495,95.442h4.329V89.083a1.612,1.612,0,0,1,3.224,0v6.359h7l-.343-.651a1.612,1.612,0,0,1-.174-.952l1.259-10.117a1.579,1.579,0,0,1-1.175-.313l-5.3-4.015h-.8a8.033,8.033,0,0,0-8.027,8.021Z" transform="translate(-0.5 -15.89)" fill="#6a2195"/>
</svg>
