<svg xmlns="http://www.w3.org/2000/svg" width="64.563" height="64.563" viewBox="0 0 64.563 64.563">
  <path id="effective_7959214" d="M58.474,38.179a14.591,14.591,0,1,0-13.537-9.151,4.591,4.591,0,0,1-3.426-.686,4.433,4.433,0,0,1-2.019-3.773,2.527,2.527,0,0,0-2.524-2.524h-4.92a2.527,2.527,0,0,0-2.524,2.524,4.539,4.539,0,0,1-7.745,3.208,2.524,2.524,0,0,0-3.569,0l-3.479,3.479a2.524,2.524,0,0,0,0,3.569,4.539,4.539,0,0,1-3.208,7.745A2.527,2.527,0,0,0,9,45.1v4.92a2.527,2.527,0,0,0,2.524,2.524,4.539,4.539,0,0,1,3.208,7.745,2.524,2.524,0,0,0,0,3.569l3.479,3.479a2.524,2.524,0,0,0,3.569,0,4.537,4.537,0,0,1,7.745,3.208,2.526,2.526,0,0,0,2.524,2.524h4.92a2.527,2.527,0,0,0,2.524-2.524,4.539,4.539,0,0,1,7.745-3.208,2.524,2.524,0,0,0,3.569,0l3.479-3.479a2.524,2.524,0,0,0,0-3.569A4.426,4.426,0,0,1,53.244,55.5a4.477,4.477,0,0,1,3.285-2.86l.016.034a.908.908,0,0,0,.827.532H67.7a.908.908,0,0,0,.818-1.3l-2.09-4.349,2.09-4.349a.908.908,0,0,0-.818-1.3H57.372a.908.908,0,0,0-.827.532l-.016.034a4.422,4.422,0,0,1-2.9-2.061,4.612,4.612,0,0,1-.6-3.284,14.513,14.513,0,0,0,5.437,1.051Zm0-27.364A12.774,12.774,0,1,1,45.7,23.59,12.789,12.789,0,0,1,58.474,10.816Zm-.517,40.573-1.329-2.926h8.226l1.407,2.926Zm6.9-4.742H56.628l1.329-2.926h8.3ZM52.079,41.353a6.216,6.216,0,0,0,3.686,2.8l-1.132,2.493H49.482a15,15,0,1,0,0,1.816h5.152l1.131,2.492A6.365,6.365,0,0,0,53,61.567a.708.708,0,0,1,0,1l-3.479,3.479a.708.708,0,0,1-1,0A6.355,6.355,0,0,0,37.677,70.54a.709.709,0,0,1-.708.708h-4.92a.709.709,0,0,1-.708-.708A6.352,6.352,0,0,0,20.5,66.048a.708.708,0,0,1-1,0l-3.479-3.479a.708.708,0,0,1,0-1,6.355,6.355,0,0,0-4.492-10.844.709.709,0,0,1-.708-.708v-4.92a.709.709,0,0,1,.708-.708,6.355,6.355,0,0,0,4.492-10.844.708.708,0,0,1,0-1l3.479-3.479a.708.708,0,0,1,1,0A6.355,6.355,0,0,0,31.34,24.57a.709.709,0,0,1,.708-.708h4.92a.709.709,0,0,1,.708.708,6.221,6.221,0,0,0,2.838,5.29,6.381,6.381,0,0,0,5.225.842,14.7,14.7,0,0,0,5.623,5.623,6.41,6.41,0,0,0,.717,5.028Zm-7.928,5.294a9.687,9.687,0,1,0,0,1.816h3.511a13.187,13.187,0,1,1,0-1.816Zm-5.366,0a4.373,4.373,0,1,0,0,1.816h3.54a7.872,7.872,0,1,1,0-1.816Zm-4.277,1.816H36.9a2.557,2.557,0,1,1,0-1.816H34.508a.908.908,0,0,0,0,1.816ZM58.474,34.811A11.222,11.222,0,1,0,47.252,23.59,11.234,11.234,0,0,0,58.474,34.811Zm0-20.628a9.406,9.406,0,1,1-9.406,9.406,9.417,9.417,0,0,1,9.406-9.406ZM57.182,23.59a1.287,1.287,0,0,1,.384-.918V19.115a.908.908,0,0,1,1.816,0v3.556a1.29,1.29,0,0,1,.34.591l1.991,1.15a.908.908,0,1,1-.908,1.572l-1.991-1.15a1.288,1.288,0,0,1-1.632-1.245Zm.384-7.419v-.514a.908.908,0,1,1,1.816,0v.514a.908.908,0,1,1-1.816,0Zm5.512,2.815a.908.908,0,0,1,0-1.284l.363-.363a.908.908,0,0,1,1.284,1.284l-.363.363a.908.908,0,0,1-1.284,0Zm1.907,4.6a.908.908,0,0,1,.908-.908h.514a.908.908,0,0,1,0,1.816h-.514A.908.908,0,0,1,64.985,23.59Zm-1.907,5.888a.908.908,0,0,1,1.284-1.284l.363.363a.908.908,0,0,1-1.284,1.284Zm-3.7,1.531v.514a.908.908,0,0,1-1.816,0v-.514a.908.908,0,1,1,1.816,0Zm-5.512-2.815a.908.908,0,0,1,0,1.284l-.363.363a.908.908,0,0,1-1.284-1.284l.363-.363a.908.908,0,0,1,1.284,0Zm-1.907-4.6a.908.908,0,0,1-.908.908H50.54a.908.908,0,1,1,0-1.816h.514A.908.908,0,0,1,51.962,23.59Zm.26-4.968a.908.908,0,0,1,1.284-1.284l.363.363a.908.908,0,0,1-1.284,1.284Z" transform="translate(-8.75 -8.75)" fill="#1f57c7" stroke="#1f57c7" stroke-width="0.5"/>
</svg>
