<svg xmlns="http://www.w3.org/2000/svg" width="62.821" height="64" viewBox="0 0 62.821 64">
  <g id="evaluation_7651302" transform="translate(-1.59 -1)">
    <path id="Path_41371" data-name="Path 41371" d="M48.92,30.09a10.357,10.357,0,0,0-14.64,0,.75.75,0,1,0,1.06,1.06,8.86,8.86,0,1,1-1.6,2.19.749.749,0,1,0-1.33-.69,10.357,10.357,0,1,0,16.51-2.56Z" stroke="#000" stroke-width="0.5"/>
    <path id="Path_41372" data-name="Path 41372" d="M63.17,54.19,55.99,47a3.761,3.761,0,0,0-.82-4.06l-.82-.82a13.628,13.628,0,1,0-8.04,8.04l.82.82a3.725,3.725,0,0,0,4.06.82l7.18,7.18a3.374,3.374,0,0,0,2.4,1,3.394,3.394,0,0,0,2.4-5.79ZM33.03,45.98a12.106,12.106,0,1,1,17.12,0,12.119,12.119,0,0,1-17.12,0Zm15.16,3.95-.4-.4a13.514,13.514,0,0,0,5.92-5.92l.4.4a2.256,2.256,0,0,1,.33,2.75l-.01.01a1.629,1.629,0,0,0-.11.17c-.06.08-.13.17-.2.25l-.01.01-2.74,2.74a2.093,2.093,0,0,1-.28.22l-.11.08a2.352,2.352,0,0,1-2.79-.31Zm13.92,8a1.933,1.933,0,0,1-2.68,0l-6.98-6.98,2.68-2.68,6.98,6.98A1.9,1.9,0,0,1,62.11,57.93Z" stroke="#000" stroke-width="0.5"/>
    <path id="Path_41373" data-name="Path 41373" d="M32.66,54.75h-8a.75.75,0,0,0,0,1.5h8a.75.75,0,0,0,0-1.5Z" stroke="#000" stroke-width="0.5"/>
    <path id="Path_41374" data-name="Path 41374" d="M36.33,56.25h1.9a.75.75,0,1,0,0-1.5h-1.9a.75.75,0,0,0,0,1.5Z" stroke="#000" stroke-width="0.5"/>
    <path id="Path_41375" data-name="Path 41375" d="M32.66,58.37h-8a.75.75,0,1,0,0,1.5h8a.75.75,0,0,0,0-1.5Z" stroke="#000" stroke-width="0.5"/>
    <path id="Path_41376" data-name="Path 41376" d="M36.33,59.87h1.9a.75.75,0,0,0,0-1.5h-1.9a.75.75,0,0,0,0,1.5Z" stroke="#000" stroke-width="0.5"/>
    <path id="Path_41377" data-name="Path 41377" d="M49.2,52.55a.755.755,0,0,0-.75.75v6.75a3.2,3.2,0,0,1-3.2,3.2H11.48a3.2,3.2,0,0,1-3.2-3.2V15.85a.75.75,0,0,0-1.5,0V58.31H6.54a3.2,3.2,0,0,1-3.2-3.2V52.44a.75.75,0,0,0-1.5,0v2.67a4.707,4.707,0,0,0,4.7,4.7h.24v.24a4.707,4.707,0,0,0,4.7,4.7H45.25a4.707,4.707,0,0,0,4.7-4.7V53.3a.749.749,0,0,0-.75-.75Z" stroke="#000" stroke-width="0.5"/>
    <path id="Path_41378" data-name="Path 41378" d="M2.58,50.63a.755.755,0,0,0,.75-.75V5.95a3.2,3.2,0,0,1,3.2-3.2H40.3a3.2,3.2,0,0,1,3.2,3.2v.24H11.48a4.707,4.707,0,0,0-4.7,4.7v1.44a.75.75,0,0,0,1.5,0V10.9a3.2,3.2,0,0,1,3.2-3.2H45.25a3.2,3.2,0,0,1,3.2,3.2V24.65a.75.75,0,1,0,1.5,0V10.9a4.707,4.707,0,0,0-4.7-4.7h-.24V5.95a4.707,4.707,0,0,0-4.7-4.7H6.54a4.707,4.707,0,0,0-4.7,4.7V49.88a.741.741,0,0,0,.74.75Z" stroke="#000" stroke-width="0.5"/>
    <path id="Path_41379" data-name="Path 41379" d="M23.61,16.58a.749.749,0,0,0-.61-.51l-2.8-.41-1.25-2.54a.778.778,0,0,0-1.34,0l-1.25,2.54-2.8.41a.75.75,0,0,0-.42,1.28l2.03,1.97-.48,2.79a.739.739,0,0,0,.3.73.791.791,0,0,0,.44.14.73.73,0,0,0,.35-.09l2.5-1.32,2.5,1.32a.753.753,0,0,0,1.09-.79l-.48-2.79,2.03-1.97a.717.717,0,0,0,.19-.76Zm-3.54,1.94a.742.742,0,0,0-.22.66l.29,1.68-1.51-.79a.726.726,0,0,0-.7,0l-1.51.79.29-1.68a.742.742,0,0,0-.22-.66l-1.22-1.19,1.69-.25a.747.747,0,0,0,.56-.41l.75-1.53.75,1.53a.765.765,0,0,0,.56.41l1.69.25Z" stroke="#000" stroke-width="0.5"/>
    <path id="Path_41380" data-name="Path 41380" d="M33.69,13.06a.749.749,0,0,0-.61-.51l-2.8-.41L29.03,9.6a.778.778,0,0,0-1.34,0l-1.25,2.54-2.8.41a.75.75,0,0,0-.42,1.28l2.03,1.97-.48,2.79a.739.739,0,0,0,.3.73.791.791,0,0,0,.44.14.73.73,0,0,0,.35-.09l2.5-1.32,2.5,1.32a.753.753,0,0,0,1.09-.79l-.48-2.79,2.03-1.97a.737.737,0,0,0,.19-.76Zm-3.54,1.95a.742.742,0,0,0-.22.66l.29,1.68-1.51-.79a.726.726,0,0,0-.7,0l-1.51.79.29-1.68a.742.742,0,0,0-.22-.66l-1.22-1.19,1.69-.25a.747.747,0,0,0,.56-.41l.75-1.53.75,1.53a.765.765,0,0,0,.56.41l1.69.25Z" stroke="#000" stroke-width="0.5"/>
    <path id="Path_41381" data-name="Path 41381" d="M43.76,16.58a.749.749,0,0,0-.61-.51l-2.8-.41L39.1,13.12a.778.778,0,0,0-1.34,0l-1.25,2.54-2.8.41a.75.75,0,0,0-.42,1.28l2.03,1.97-.48,2.79a.739.739,0,0,0,.3.73.791.791,0,0,0,.44.14.73.73,0,0,0,.35-.09l2.5-1.32,2.5,1.32a.753.753,0,0,0,1.09-.79l-.48-2.79,2.03-1.97a.717.717,0,0,0,.19-.76Zm-3.54,1.94a.742.742,0,0,0-.22.66l.29,1.68-1.51-.79a.726.726,0,0,0-.7,0l-1.51.79.29-1.68a.742.742,0,0,0-.22-.66l-1.22-1.19,1.69-.25a.747.747,0,0,0,.56-.41l.75-1.53.75,1.53a.765.765,0,0,0,.56.41l1.69.25Z" stroke="#000" stroke-width="0.5"/>
    <path id="Path_41382" data-name="Path 41382" d="M19.99,33.75a.755.755,0,0,0,.75-.75V27.06a.755.755,0,0,0-.75-.75H11.7a.755.755,0,0,0-.75.75v8.29a.755.755,0,0,0,.75.75h8.29a.75.75,0,0,0,0-1.5H12.45V27.81h6.79V33a.755.755,0,0,0,.75.75Z" stroke="#000" stroke-width="0.5"/>
    <path id="Path_41383" data-name="Path 41383" d="M17.15,29.43,15.2,31.38l-.65-.65a.75.75,0,0,0-1.06,1.06l1.19,1.19a.748.748,0,0,0,1.06,0l2.48-2.48a.754.754,0,0,0,0-1.06A.767.767,0,0,0,17.15,29.43Z" stroke="#000" stroke-width="0.5"/>
    <path id="Path_41384" data-name="Path 41384" d="M20.74,38.94a.755.755,0,0,0-.75-.75H11.7a.755.755,0,0,0-.75.75v8.29a.755.755,0,0,0,.75.75h8.29a.755.755,0,0,0,.75-.75Zm-1.5,7.54H12.45V39.69h6.79Z" stroke="#000" stroke-width="0.5"/>
    <path id="Path_41385" data-name="Path 41385" d="M14.67,44.86a.748.748,0,0,0,1.06,0l2.48-2.48a.75.75,0,0,0-1.06-1.06L15.2,43.27l-.65-.65a.75.75,0,1,0-1.06,1.06Z" stroke="#000" stroke-width="0.5"/>
    <path id="Path_41386" data-name="Path 41386" d="M14.02,59.87H20a.755.755,0,0,0,.75-.75V50.83a.755.755,0,0,0-.75-.75H11.7a.755.755,0,0,0-.75.75v8.29a.75.75,0,0,0,1.5,0V51.58h6.79v6.79H14.01a.75.75,0,1,0,.01,1.5Z" stroke="#000" stroke-width="0.5"/>
    <path id="Path_41387" data-name="Path 41387" d="M14.67,56.75a.748.748,0,0,0,1.06,0l2.48-2.48a.75.75,0,1,0-1.06-1.06L15.2,55.16l-.65-.65a.75.75,0,0,0-1.06,1.06Z" stroke="#000" stroke-width="0.5"/>
    <path id="Path_41388" data-name="Path 41388" d="M39.69,41.22a.742.742,0,0,0,.53-.22l6.1-6.1a.75.75,0,1,0-1.06-1.06l-5.57,5.57-1.77-1.77a.75.75,0,0,0-1.06,1.06l2.3,2.3a.786.786,0,0,0,.53.22Z" stroke="#000" stroke-width="0.5"/>
  </g>
</svg>
