<svg xmlns="http://www.w3.org/2000/svg" width="111.038" height="111" viewBox="0 0 111.038 111">
  <path id="goverment_17213502" d="M108.268,47.84a5.766,5.766,0,0,0,5.761-5.761V35.056A5.756,5.756,0,0,0,111,29.984L63.045,4.148a9.532,9.532,0,0,0-9.071,0L6.014,29.965A5.741,5.741,0,0,0,2.99,35.037v7.024a5.766,5.766,0,0,0,5.761,5.761h2.124V97.5a7.944,7.944,0,0,0-7.866,7.942v6.641A1.919,1.919,0,0,0,4.923,114H112.1a1.919,1.919,0,0,0,1.914-1.914v-6.641a7.968,7.968,0,0,0-7.866-7.942V47.821h2.124ZM6.8,42.08V35.056a1.912,1.912,0,0,1,1.014-1.7L55.792,7.517a5.7,5.7,0,0,1,5.435,0l47.96,25.817a1.934,1.934,0,0,1,1.014,1.7v7.024a1.94,1.94,0,0,1-1.933,1.933H8.751a1.94,1.94,0,0,1-1.933-1.933Zm103.383,63.385v4.727H6.837v-4.727a4.108,4.108,0,0,1,4.115-4.115H65.494a1.077,1.077,0,0,0,.191.038v-.038h40.381A4.108,4.108,0,0,1,110.182,105.464ZM36.826,97.522H26.3V62.634a5.263,5.263,0,1,1,10.526,0Zm26.946,0H53.246V62.634a5.263,5.263,0,1,1,10.526,0Zm26.946,0H80.192V62.634a5.263,5.263,0,0,1,10.526,0Zm11.6,0h-7.77V62.634a9.091,9.091,0,1,0-18.181,0V97.522H67.6V62.634a9.091,9.091,0,1,0-18.181,0V97.522H40.653V62.634a9.091,9.091,0,1,0-18.181,0V97.522H14.7V47.859h87.613ZM58.509,18.6a9.646,9.646,0,1,0,9.646,9.646A9.654,9.654,0,0,0,58.509,18.6Zm0,15.444a5.818,5.818,0,1,1,5.818-5.818A5.828,5.828,0,0,1,58.509,34.042Z" transform="translate(-2.99 -3)" fill="#703593"/>
</svg>
