<svg xmlns="http://www.w3.org/2000/svg" width="63.999" height="64" viewBox="0 0 63.999 64">
  <g id="ideas_4616882" transform="translate(-0.004)">
    <g id="Page-1_47_" transform="translate(0.004 0)">
      <g id="_x30_48---AI-Idea-Sharing" transform="translate(0 0)">
        <path id="Path_159_" d="M152.954,53.633a.87.87,0,0,0-.627-1.623A14.016,14.016,0,0,0,143.408,65a.87.87,0,1,0,1.74,0,12.266,12.266,0,0,1,7.807-11.367Z" transform="translate(-127.802 -47.589)" fill="#c01421" fill-rule="evenodd"/>
        <path id="Shape_131_" d="M200.233,133.776a.87.87,0,0,0-1.606,0l-4.35,10.439a.87.87,0,1,0,1.606.67l1.227-2.945h4.64l1.227,2.945a.87.87,0,0,0,.8.535.858.858,0,0,0,.335-.067.87.87,0,0,0,.468-1.138Zm-2.4,6.424,1.595-3.828,1.595,3.828Z" transform="translate(-172.999 -118.584)" fill="#c01421"/>
        <path id="Path_158_" d="M332.392,134.983a.87.87,0,1,0,0-1.74h-5.219a.87.87,0,1,0,0,1.74h1.74v8.7h-1.74a.87.87,0,1,0,0,1.74h5.219a.87.87,0,1,0,0-1.74h-1.74v-8.7Z" transform="translate(-291.195 -118.586)" fill="#c01421" fill-rule="evenodd"/>
        <path id="Shape_130_" d="M60.739,18.078a4.266,4.266,0,0,0-4.114,3.2H54.311c-.02-.417-.05-.834-.094-1.252a20.958,20.958,0,0,0-1.223-5.146h3.479a3.2,3.2,0,0,0,3.2-3.2V9.4a4.266,4.266,0,1,0-2.133,0V11.68a1.066,1.066,0,0,1-1.066,1.066H52.052a21.313,21.313,0,0,0-38.078,0H9.551A1.066,1.066,0,0,1,8.485,11.68V9.4a4.266,4.266,0,1,0-2.133,0V11.68a3.2,3.2,0,0,0,3.2,3.2h3.49a21.313,21.313,0,0,0-1.329,6.4H9.4a4.266,4.266,0,1,0,0,2.133h2.313a21.264,21.264,0,0,0,1.327,6.4H9.551a3.2,3.2,0,0,0-3.2,3.2v2.284a4.266,4.266,0,1,0,2.133,0V33.008a1.066,1.066,0,0,1,1.066-1.066h4.42a21.3,21.3,0,0,0,5.053,6.505,13.193,13.193,0,0,1,4.39,10.024v1.6H21.282a3.2,3.2,0,1,0,0,6.4h2.133a4.265,4.265,0,0,0,3.306,4.147C27.26,63.1,29.873,65,33.012,65s5.752-1.9,6.292-4.384a4.266,4.266,0,0,0,3.306-4.147h2.133a3.2,3.2,0,1,0,0-6.4H42.61V48.364a12.964,12.964,0,0,1,4.343-9.878,21.23,21.23,0,0,0,5.087-6.545h4.433a1.066,1.066,0,0,1,1.066,1.066v2.284a4.266,4.266,0,1,0,2.133,0V33.008a3.2,3.2,0,0,0-3.2-3.2h-3.5a21.442,21.442,0,0,0,1.326-6.4h2.326a4.258,4.258,0,1,0,4.114-5.332Zm-4.266-12.8a2.133,2.133,0,1,1,2.133,2.133A2.133,2.133,0,0,1,56.473,5.282Zm-51.187,0A2.133,2.133,0,1,1,5.91,6.79,2.133,2.133,0,0,1,5.286,5.282ZM9.551,39.407a2.133,2.133,0,1,1-2.133-2.133A2.133,2.133,0,0,1,9.551,39.407Zm51.187,0a2.133,2.133,0,1,1-2.133-2.133A2.133,2.133,0,0,1,60.739,39.407ZM5.286,24.477a2.133,2.133,0,1,1,2.133-2.133A2.133,2.133,0,0,1,5.286,24.477ZM40.477,49v3.2H25.547V49Zm-19.2,5.332a1.066,1.066,0,0,1,0-2.133h2.133v2.133Zm11.73,8.531a4.356,4.356,0,0,1-4-2.133h8.007a4.356,4.356,0,0,1-4,2.133Zm7.465-6.4A2.133,2.133,0,0,1,38.344,58.6H27.68a2.133,2.133,0,0,1-2.133-2.133V54.336h14.93ZM44.743,52.2a1.066,1.066,0,1,1,0,2.133H42.61V52.2Zm.818-15.336a14.937,14.937,0,0,0-5.007,10H25.466a15.153,15.153,0,0,0-5.044-10.039,19.2,19.2,0,0,1-.213-28.793A18.972,18.972,0,0,1,32.985,3.149a20.079,20.079,0,0,1,2.21.122A19.223,19.223,0,0,1,50.4,14.216l.011.026A18.835,18.835,0,0,1,52.1,20.251a19.269,19.269,0,0,1-6.54,16.617ZM60.739,24.477a2.133,2.133,0,1,1,2.133-2.133A2.133,2.133,0,0,1,60.739,24.477Z" transform="translate(-1.004 -1)" fill="#c01421"/>
      </g>
    </g>
  </g>
</svg>
