<svg xmlns="http://www.w3.org/2000/svg" width="58.25" height="64" viewBox="0 0 58.25 64">
  <path id="improvement_11726520" d="M39.011,29.127a1.032,1.032,0,0,1,.635-1.314A110.316,110.316,0,0,0,72.294,10.065H70.519a1.032,1.032,0,0,1,0-2.065h4.66a1.032,1.032,0,0,1,1.011,1.236l-.922,4.568a1.032,1.032,0,0,1-2.024-.408l.349-1.729A112.366,112.366,0,0,1,40.325,29.763a1.031,1.031,0,0,1-1.314-.635ZM88.532,66.951A1.032,1.032,0,0,1,87.5,67.983H77.027a1.032,1.032,0,0,1-1.032-1.032,16.588,16.588,0,0,0-33.176,0,1.032,1.032,0,0,1-1.032,1.032H31.314a1.032,1.032,0,0,1-1.032-1.032,28.934,28.934,0,0,1,8.53-20.594c.252-.251.508-.5.767-.737a1.043,1.043,0,0,1-.013-.159V34.3A1.032,1.032,0,0,1,40.6,33.266h5.818A1.032,1.032,0,0,1,47.449,34.3v6.081A28.734,28.734,0,0,1,50.37,39.25V28.45A1.032,1.032,0,0,1,51.4,27.418h5.818a1.032,1.032,0,0,1,1.032,1.032v9.4c.384-.015.768-.024,1.154-.024.592,0,1.181.02,1.767.055V22.343a1.032,1.032,0,0,1,1.032-1.032h5.818a1.032,1.032,0,0,1,1.032,1.032V39.457a28.718,28.718,0,0,1,2.921,1.206V16.85a1.032,1.032,0,0,1,1.032-1.032h5.818A1.032,1.032,0,0,1,79.86,16.85V45.46a1.028,1.028,0,0,1-.18.583c.107.1.215.208.322.314A28.934,28.934,0,0,1,88.532,66.951ZM74.042,41.758a29.1,29.1,0,0,1,3.754,2.6V17.882H74.042Zm-2.065,1.234a26.872,26.872,0,0,0-11.538-3.08v8.416a18.516,18.516,0,0,1,7.384,1.981l4.154-7.195Zm-13.6-3.08a26.873,26.873,0,0,0-11.592,3.108l4.208,7.289a18.516,18.516,0,0,1,7.384-1.981Zm4.863-1.836a29.026,29.026,0,0,1,3.754.744V23.375H63.238Zm-10.8.586A29.117,29.117,0,0,1,56.188,38V29.482H52.434Zm-10.8,5.213a29,29,0,0,1,3.754-2.465V35.331H41.631Zm1.134,14.659-7.287-4.207a26.874,26.874,0,0,0-3.112,11.591h8.417A18.518,18.518,0,0,1,42.765,58.535ZM49.2,51.344,45,44.057a27.275,27.275,0,0,0-8.484,8.485L43.8,56.748A18.8,18.8,0,0,1,49.2,51.344Zm25.811,5.4L82.3,52.541a27.276,27.276,0,0,0-8.484-8.485L69.61,51.344A18.807,18.807,0,0,1,75.015,56.748Zm11.433,9.171a26.875,26.875,0,0,0-3.112-11.591l-7.287,4.207a18.518,18.518,0,0,1,1.982,7.384ZM68.886,57.472a1.032,1.032,0,0,1,0,1.46L63.63,64.188a5.056,5.056,0,1,1-1.46-1.46l5.256-5.256a1.032,1.032,0,0,1,1.46,0Zm-6.495,9.479a2.984,2.984,0,1,0-2.984,2.984A2.988,2.988,0,0,0,62.391,66.951Z" transform="translate(-30.282 -8)" fill="#c01421"/>
</svg>
