<svg xmlns="http://www.w3.org/2000/svg" width="111" height="111" viewBox="0 0 111 111">
  <path id="initial-public-offering_15749347" d="M73.079,57.654H85.764a1.383,1.383,0,0,0,1.382-1.382V43.588a1.383,1.383,0,0,0-1.382-1.382H73.079A1.383,1.383,0,0,0,71.7,43.588V56.273A1.381,1.381,0,0,0,73.079,57.654ZM74.461,44.97h9.921v9.921H74.461ZM62.12,83.714A1.383,1.383,0,0,0,63.5,82.332V69.648a1.383,1.383,0,0,0-1.382-1.382H49.435a1.383,1.383,0,0,0-1.382,1.382V82.332a1.383,1.383,0,0,0,1.382,1.382Zm-11.3-12.682h9.921v9.921H50.817Zm-18.285-31.4a5.5,5.5,0,0,0-3.362,9.845v7.084a1.383,1.383,0,0,0,1.382,1.382h3.961a1.383,1.383,0,0,0,1.382-1.382V49.479a5.5,5.5,0,0,0-3.362-9.845Zm1.315,7.894a1.38,1.38,0,0,0-.716,1.211v6.444h-1.2V48.74a1.383,1.383,0,0,0-.716-1.211,2.734,2.734,0,1,1,2.63,0ZM118.3,94.687a9.012,9.012,0,1,0-10.356.007,12.979,12.979,0,0,0-2.706,1.61,8.974,8.974,0,0,0-8.792-4.366v-62.1a3.5,3.5,0,0,0-3.5-3.5H88.61v-7.4A3.947,3.947,0,0,0,84.667,15H50.534a3.947,3.947,0,0,0-3.943,3.943v7.4H44.173a11.647,11.647,0,0,0-23.289.306v1.776a1.383,1.383,0,0,0,1.382,1.382h4.422a1.383,1.383,0,0,0,1.382-1.382V26.648a4.463,4.463,0,0,1,8.926,0v7.6H19.539A4.544,4.544,0,0,0,15,38.789V58.794a4.544,4.544,0,0,0,4.539,4.539h19.22v61.285A1.383,1.383,0,0,0,40.141,126h68.843a1.383,1.383,0,0,0,1.382-1.382v-4.574a12.819,12.819,0,0,0-2.5-7.613h16.751A1.383,1.383,0,0,0,126,111.05v-4.574a12.9,12.9,0,0,0-7.7-11.789Zm-5.184-13.615a6.248,6.248,0,1,1-6.248,6.248A6.255,6.255,0,0,1,113.115,81.073Zm-9.384,19.816a6.248,6.248,0,1,1-6.248-6.248A6.255,6.255,0,0,1,103.731,100.889ZM84.6,123.236H78.537v-10.8h8.558a12.819,12.819,0,0,0-2.5,7.613v3.19Zm-14.253-10.8h5.43v10.8H59.428V99.579H70.977a12.8,12.8,0,0,0-2.01,6.9v4.574a1.378,1.378,0,0,0,1.379,1.382Zm19.508-2.763H71.725v-3.192a10.1,10.1,0,0,1,16.938-7.457,9,9,0,0,0,3.632,9.23A13.21,13.21,0,0,0,89.854,109.67ZM84.382,78.675a8.987,8.987,0,0,0-8.9,2.275H74.461V71.03h9.921Zm-2.535,2.4A6.248,6.248,0,1,1,75.6,87.32,6.255,6.255,0,0,1,81.846,81.073ZM49.355,18.943a1.18,1.18,0,0,1,1.179-1.179H84.665a1.18,1.18,0,0,1,1.179,1.179v7.4H49.355Zm-16.823.479a7.236,7.236,0,0,0-7.227,7.227v.394H23.647v-.394a8.885,8.885,0,0,1,17.769,0v7.6H39.758v-7.6a7.233,7.233,0,0,0-7.227-7.227ZM17.763,58.794V38.789a1.778,1.778,0,0,1,1.776-1.776H45.527A1.778,1.778,0,0,1,47.3,38.789V58.794a1.778,1.778,0,0,1-1.776,1.776H19.539a1.778,1.778,0,0,1-1.776-1.776ZM41.52,63.333h4.007a4.544,4.544,0,0,0,4.539-4.539V57.657H62.12A1.383,1.383,0,0,0,63.5,56.275V43.591a1.383,1.383,0,0,0-1.382-1.382H50.066v-3.42a4.544,4.544,0,0,0-4.539-4.539H44.182V29.108H92.949a.743.743,0,0,1,.732.732V92.723a9.074,9.074,0,0,0-3.952,3.583,12.978,12.978,0,0,0-2.706-1.61,9,9,0,0,0,.124-14.656V69.653a1.383,1.383,0,0,0-1.382-1.382H73.079A1.383,1.383,0,0,0,71.7,69.653V82.337a1.383,1.383,0,0,0,1.382,1.382h.511A9,9,0,0,0,76.663,94.69a13.015,13.015,0,0,0-3.325,2.128H58.044A1.383,1.383,0,0,0,56.662,98.2v25.037H41.52Zm9.3-8.442V44.97h9.921v9.921ZM107.6,123.236H87.362v-3.192a10.121,10.121,0,0,1,20.243,0v3.192Zm15.634-13.566H105.108a12.943,12.943,0,0,0-2.443-1.416,9,9,0,0,0,3.632-9.232,10.1,10.1,0,0,1,16.938,7.457v3.192Z" transform="translate(-15 -15)" fill="#722d9a"/>
</svg>
