<svg xmlns="http://www.w3.org/2000/svg" width="68.758" height="64" viewBox="0 0 68.758 64">
  <g id="luggage_15423138" transform="translate(-4 -5.938)">
    <path id="Path_41368" data-name="Path 41368" d="M69.074,18.369H55.492V12.69a6.761,6.761,0,0,0-6.753-6.753H28.019a6.761,6.761,0,0,0-6.753,6.753v5.679H7.683A3.687,3.687,0,0,0,4,22.053v39.29a3.687,3.687,0,0,0,3.683,3.683h6.139v2.456a2.459,2.459,0,0,0,2.456,2.456h2.456a2.459,2.459,0,0,0,2.456-2.456V65.026h1.866a1.228,1.228,0,1,0,0-2.456H13.823V24.508a1.228,1.228,0,0,0-2.456,0V62.571H7.683a1.229,1.229,0,0,1-1.228-1.228V22.053a1.229,1.229,0,0,1,1.228-1.228H69.074A1.229,1.229,0,0,1,70.3,22.053v39.29a1.229,1.229,0,0,1-1.228,1.228H65.391V24.508a1.228,1.228,0,0,0-2.456,0V62.571H53.7a1.228,1.228,0,1,0,0,2.456h1.866v2.456a2.459,2.459,0,0,0,2.456,2.456H60.48a2.459,2.459,0,0,0,2.456-2.456V65.026h6.139a3.687,3.687,0,0,0,3.683-3.683V22.053A3.687,3.687,0,0,0,69.074,18.369ZM18.734,67.482H16.278V65.026h2.456ZM23.722,12.69a4.3,4.3,0,0,1,4.3-4.3H48.739a4.3,4.3,0,0,1,4.3,4.3v5.679H50.58V12.69a1.844,1.844,0,0,0-1.842-1.842H28.019a1.844,1.844,0,0,0-1.842,1.842v5.679H23.722Zm24.4,5.679H28.633V13.3H48.125ZM60.48,67.482H58.024V65.026H60.48Z" fill="#c01421"/>
    <path id="Path_41369" data-name="Path 41369" d="M32,30.063a13,13,0,1,0,13,13A13,13,0,0,0,32,30.063Zm0,24a11,11,0,1,1,11-11,11,11,0,0,1-11,11Z" transform="translate(6.379 11.875)" fill="#c01421"/>
    <path id="Path_41370" data-name="Path 41370" d="M36.626,38.8l-6.4,6.4-2.849-2.849A1,1,0,1,0,25.96,43.77l3.556,3.556a1,1,0,0,0,1.414,0l7.11-7.111A1,1,0,1,0,36.626,38.8Z" transform="translate(6.379 8.992)" fill="#c01421"/>
  </g>
</svg>
