<svg xmlns="http://www.w3.org/2000/svg" width="67.208" height="64.5" viewBox="0 0 67.208 64.5">
  <g id="mindset_17621247" transform="translate(-19.728 -29.316)">
    <g id="Group_41392" data-name="Group 41392" transform="translate(23.347 30.287)">
      <path id="Path_41360" data-name="Path 41360" d="M368.776,54.485h-1.612V52.69h1.468l.318-1.171a.894.894,0,0,1,.624-.632A6.556,6.556,0,0,0,371,50.3a.9.9,0,0,1,.887.009l1.048.6,1.273-1.273-.607-1.044a.912.912,0,0,1,0-.891,6.483,6.483,0,0,0,.594-1.43.886.886,0,0,1,.632-.624c.212-.059.4-.106.568-.153.225-.055.45-.114.6-.161,0-.132,0-.322,0-.5V44.03c0-.174,0-.365,0-.5-.148-.047-.373-.106-.6-.161-.165-.047-.356-.093-.568-.153a.894.894,0,0,1-.632-.624,6.489,6.489,0,0,0-.594-1.43.9.9,0,0,1,0-.891l.607-1.044-1.269-1.269-1.052.607a.883.883,0,0,1-.887,0,6.648,6.648,0,0,0-1.425-.59.888.888,0,0,1-.624-.628l-.318-1.171h-1.795l-.314,1.167a.894.894,0,0,1-.624.632,6.783,6.783,0,0,0-1.434.594.883.883,0,0,1-.887-.009l-1.048-.6-1.269,1.269.6,1.044a.9.9,0,0,1,.009.882,7.079,7.079,0,0,0-.6,1.447.891.891,0,0,1-.628.615c-.216.059-.407.106-.573.148-.225.059-.45.115-.6.161,0,.14,0,.352,0,.543,0,.14,0,.3,0,.471H357.69c0-.165,0-.318,0-.454a2.454,2.454,0,0,1,.348-1.71,2.67,2.67,0,0,1,1.6-.751c.025-.009.051-.013.076-.021.106-.293.225-.581.356-.861L359.642,40a1.615,1.615,0,0,1,.263-1.952l1.459-1.464a1.608,1.608,0,0,1,1.952-.255l.738.429a9.13,9.13,0,0,1,.87-.361l.216-.823a1.621,1.621,0,0,1,1.561-1.2h2.079a1.589,1.589,0,0,1,1.553,1.2l.225.823a8.624,8.624,0,0,1,.866.361l.743-.429a1.605,1.605,0,0,1,1.943.255l1.468,1.472A1.6,1.6,0,0,1,375.832,40l-.424.738a8.434,8.434,0,0,1,.356.866c.025.009.051.013.076.021a2.711,2.711,0,0,1,1.591.734,2.375,2.375,0,0,1,.356,1.68v.772a2.375,2.375,0,0,1-.356,1.68,2.737,2.737,0,0,1-1.591.734c-.025.009-.051.013-.076.021a9.025,9.025,0,0,1-.361.861l.428.743a1.606,1.606,0,0,1-.255,1.947l-1.468,1.468a1.609,1.609,0,0,1-1.939.263l-.751-.433a8.049,8.049,0,0,1-.866.356l-.225.832a1.609,1.609,0,0,1-1.553,1.2Zm5.532-15.151a0,0,0,0,1,0,0Z" transform="translate(-314.449 -34.382)" fill="#c01421" stroke="#c01421" stroke-width="0.5" fill-rule="evenodd"/>
      <path id="Path_41361" data-name="Path 41361" d="M401.616,82.39A4.088,4.088,0,1,1,405.7,78.3,4.091,4.091,0,0,1,401.616,82.39Zm0-6.381a2.293,2.293,0,1,0,2.287,2.3A2.3,2.3,0,0,0,401.616,76.009Z" transform="translate(-348.328 -68.252)" fill="#c01421" stroke="#c01421" stroke-width="0.5" fill-rule="evenodd"/>
      <path id="Path_41362" data-name="Path 41362" d="M189.186,135.2h-22.9a.87.87,0,0,1-.9-.839v-7.664a.233.233,0,0,1,0-.056,14.079,14.079,0,0,0-4.243-11l1.3-1.161a15.7,15.7,0,0,1,4.735,12.246v6.793h21.107v-2.549a.183.183,0,0,1,0-.048,4.961,4.961,0,0,1,3.742-4.848,18.886,18.886,0,0,1,6.152-.382c1.6.072,3.424.155,3.975-.259a2.365,2.365,0,0,0,.836-2.681.846.846,0,0,1-.038-.147,5.09,5.09,0,0,0-.2-.724,2.516,2.516,0,0,1,.085-2.434,2.6,2.6,0,0,0,.492-2.625,2.611,2.611,0,0,1,.276-2.343,1.916,1.916,0,0,0-.382-2.848.829.829,0,0,1-.127-.139,2.092,2.092,0,0,1-.407-1.81c.216-.823.959-1.543,2.266-2.2.675-.378,1.039-.772,1.086-1.169.068-.549-.412-1.3-1.387-2.164-4.124-3.683-4.3-4.57-4.548-8.655-.021-.346-.047-.72-.072-1.122a12.148,12.148,0,0,0-1.85-5.7c-3.224-5.1-9.907-8.265-17.879-8.456l.047-1.682c8.592.207,15.834,3.679,19.376,9.279a13.734,13.734,0,0,1,2.1,6.451c.03.41.051.788.072,1.137.229,3.711.259,4.188,4,7.529,1.434,1.277,2.07,2.446,1.935,3.572a3.371,3.371,0,0,1-1.969,2.438.243.243,0,0,0-.034.02c-1.137.569-1.353.978-1.392,1.13-.013.048-.042.167.1.4a3.5,3.5,0,0,1,.611,4.86,1.04,1.04,0,0,0-.11.951,4.184,4.184,0,0,1-.743,4.14c-.089.119.085.668.178.963a6.818,6.818,0,0,1,.242.895,3.992,3.992,0,0,1-1.438,4.451c-1.082.815-2.983.732-5.189.628-4.684-.211-7.777-.076-8.014,3.623v3.369a.869.869,0,0,1-.9.839Z" transform="translate(-147.328 -71.916)" fill="#c01421" stroke="#c01421" stroke-width="0.5" fill-rule="evenodd"/>
      <path id="Path_41363" data-name="Path 41363" d="M53.576,368.228H51.5a1.59,1.59,0,0,1-1.557-1.2l-.221-.827a7.724,7.724,0,0,1-.866-.356l-.742.428a1.61,1.61,0,0,1-1.952-.255L44.7,364.554a1.618,1.618,0,0,1-.255-1.952l.429-.743a8,8,0,0,1-.356-.861l-.832-.225a1.612,1.612,0,0,1-1.2-1.557v-2.079a1.594,1.594,0,0,1,1.2-1.553l.832-.225a7.656,7.656,0,0,1,.356-.861l-.429-.747A1.6,1.6,0,0,1,44.7,351.8l1.459-1.459a1.614,1.614,0,0,1,1.952-.259l.738.428a8.159,8.159,0,0,1,.87-.361l.221-.827a1.6,1.6,0,0,1,1.557-1.2h2.075a1.6,1.6,0,0,1,1.557,1.2l.225.827a7.749,7.749,0,0,1,.866.361l.743-.428a1.589,1.589,0,0,1,1.943.259l1.468,1.468a1.6,1.6,0,0,1,.259,1.947l-.429.738a8.231,8.231,0,0,1,.361.866l.827.225a1.59,1.59,0,0,1,1.192,1.553v2.079a1.613,1.613,0,0,1-1.192,1.557l-.827.225a8.64,8.64,0,0,1-.361.865l.429.738a1.614,1.614,0,0,1-.259,1.952l-1.468,1.468a1.6,1.6,0,0,1-1.939.259l-.751-.433a7.657,7.657,0,0,1-.861.356l-.225.832a1.591,1.591,0,0,1-1.557,1.192Zm-.174-1.659Zm-1.761-.136h1.795l.314-1.171a.9.9,0,0,1,.619-.628,7.035,7.035,0,0,0,1.438-.594.885.885,0,0,1,.882,0l1.048.6,1.273-1.269-.6-1.048a.894.894,0,0,1-.009-.887,6.337,6.337,0,0,0,.594-1.438.9.9,0,0,1,.632-.619l1.171-.314v-1.795l-1.171-.314a.9.9,0,0,1-.628-.619,6.526,6.526,0,0,0-.594-1.43.9.9,0,0,1,0-.891l.6-1.048L57.743,351.7l-1.048.607a.891.891,0,0,1-.891,0,6.466,6.466,0,0,0-1.425-.59.9.9,0,0,1-.624-.628l-.314-1.171h-1.8l-.31,1.167a.907.907,0,0,1-.628.632,6.475,6.475,0,0,0-1.425.59.881.881,0,0,1-.891,0l-1.048-.6-1.273,1.273.607,1.048a.9.9,0,0,1,0,.887,6.679,6.679,0,0,0-.594,1.434.9.9,0,0,1-.628.619l-1.171.314v1.8l1.167.31a.9.9,0,0,1,.632.619,7.121,7.121,0,0,0,.594,1.443.885.885,0,0,1-.009.883l-.6,1.048,1.273,1.269,1.044-.6a.9.9,0,0,1,.887-.009,6.818,6.818,0,0,0,1.438.6.9.9,0,0,1,.624.628l.31,1.171ZM45.995,363.5Z" transform="translate(-42.486 -304.949)" fill="#c01421" stroke="#c01421" stroke-width="0.5" fill-rule="evenodd"/>
    </g>
    <path id="Path_41364" data-name="Path 41364" d="M46.147,76.758H41a2.641,2.641,0,0,1-2.58-1.973l-.738-2.754a19.737,19.737,0,0,1-3.288-1.358L31.934,72.1a2.646,2.646,0,0,1-3.224-.429l-3.645-3.64a2.643,2.643,0,0,1-.424-3.229l1.421-2.457A19.531,19.531,0,0,1,24.7,59.053l-2.749-.734a2.647,2.647,0,0,1-1.977-2.58V50.589a2.636,2.636,0,0,1,1.973-2.58l2.749-.738a19.98,19.98,0,0,1,1.362-3.288l-1.421-2.461a2.629,2.629,0,0,1,.424-3.22l3.645-3.649a2.64,2.64,0,0,1,3.22-.42l2.461,1.421a19.631,19.631,0,0,1,3.292-1.362l.734-2.749A2.647,2.647,0,0,1,41,29.566h5.151a2.644,2.644,0,0,1,2.58,1.977l.738,2.749a19.734,19.734,0,0,1,3.288,1.362l2.465-1.421a2.635,2.635,0,0,1,3.224.424l3.64,3.64a2.64,2.64,0,0,1,.42,3.224l-1.417,2.461a19.712,19.712,0,0,1,1.358,3.288l2.749.738a2.647,2.647,0,0,1,1.981,2.58v5.151a2.647,2.647,0,0,1-1.981,2.58l-2.749.738a19.717,19.717,0,0,1-1.358,3.288L62.5,64.8a2.641,2.641,0,0,1-.42,3.224l-3.649,3.645a2.628,2.628,0,0,1-3.22.429l-2.461-1.421a19.581,19.581,0,0,1-3.288,1.358l-.738,2.749a2.645,2.645,0,0,1-2.58,1.973Zm-11.769-8.01a.9.9,0,0,1,.437.115,18.089,18.089,0,0,0,3.848,1.591.9.9,0,0,1,.619.632l.866,3.233a.86.86,0,0,0,.848.645h5.151A.863.863,0,0,0,47,74.314l.861-3.233a.9.9,0,0,1,.624-.628,18.111,18.111,0,0,0,3.848-1.6.9.9,0,0,1,.887.009l2.9,1.672a.85.85,0,0,0,1.052-.14l3.649-3.645A.861.861,0,0,0,60.95,65.7L59.278,62.8a.894.894,0,0,1,0-.887,17.986,17.986,0,0,0,1.591-3.848.9.9,0,0,1,.632-.62l3.233-.866a.864.864,0,0,0,.649-.848V50.585a.863.863,0,0,0-.653-.848l-3.233-.866a.9.9,0,0,1-.632-.619A17.9,17.9,0,0,0,59.27,44.4a.885.885,0,0,1,.009-.882l1.672-2.9a.855.855,0,0,0-.14-1.057l-3.645-3.645a.849.849,0,0,0-1.052-.14l-2.9,1.672a.894.894,0,0,1-.887.009,17.865,17.865,0,0,0-3.844-1.591.916.916,0,0,1-.624-.632L47,32.006a.863.863,0,0,0-.848-.649H41a.859.859,0,0,0-.848.653l-.866,3.229a.888.888,0,0,1-.619.632,18.021,18.021,0,0,0-3.848,1.591.893.893,0,0,1-.887,0l-2.894-1.672a.867.867,0,0,0-1.061.136L26.33,39.567a.861.861,0,0,0-.136,1.057l1.672,2.9a.9.9,0,0,1,.009.887,18.111,18.111,0,0,0-1.6,3.848.911.911,0,0,1-.628.624l-3.233.861a.863.863,0,0,0-.649.848V55.74a.859.859,0,0,0,.649.848l3.237.866a.888.888,0,0,1,.628.624,17.889,17.889,0,0,0,1.591,3.844.9.9,0,0,1-.009.887L26.194,65.7a.868.868,0,0,0,.14,1.065l3.64,3.636a.862.862,0,0,0,1.061.14l2.894-1.672a.937.937,0,0,1,.45-.119Z" transform="translate(0 0)" fill="#c01421" stroke="#c01421" stroke-width="0.5" fill-rule="evenodd"/>
    <path id="Path_41365" data-name="Path 41365" d="M102.266,125.1a13.267,13.267,0,1,1,13.267-13.263A13.276,13.276,0,0,1,102.266,125.1Zm0-24.739a11.472,11.472,0,1,0,11.472,11.476A11.482,11.482,0,0,0,102.266,100.359Z" transform="translate(-58.694 -59.618)" fill="#c01421" stroke="#c01421" stroke-width="0.5" fill-rule="evenodd"/>
    <path id="Path_41366" data-name="Path 41366" d="M86.432,396.152a4.086,4.086,0,1,1,4.081-4.086A4.094,4.094,0,0,1,86.432,396.152Zm0-6.377a2.291,2.291,0,1,0,2.287,2.291A2.3,2.3,0,0,0,86.432,389.775Z" transform="translate(-53.03 -308.551)" fill="#c01421" stroke="#c01421" stroke-width="0.5" fill-rule="evenodd"/>
    <path id="Path_41367" data-name="Path 41367" d="M136.187,162.618a.518.518,0,0,1-.115-.009.877.877,0,0,1-.662-.441l-3.076-5.325a.9.9,0,0,1,1.557-.9l2.49,4.319,7.9-7.9a.9.9,0,0,1,1.269,1.269l-8.723,8.723a.921.921,0,0,1-.636.259Z" transform="translate(-96.598 -105.408)" fill="#c01421" stroke="#c01421" stroke-width="0.5" fill-rule="evenodd"/>
  </g>
</svg>
