<svg xmlns="http://www.w3.org/2000/svg" width="111.083" height="111.083" viewBox="0 0 111.083 111.083">
  <g id="office-building_11342251" transform="translate(-1.5 -1.5)">
    <path id="Path_41439" data-name="Path 41439" d="M5.5,51.055a1.915,1.915,0,0,0,3.83,0V20.415a1.915,1.915,0,1,0-3.83,0Z" transform="translate(11.322 48.118)" fill="#703593"/>
    <circle id="Ellipse_58" data-name="Ellipse 58" cx="1.794" cy="1.794" r="1.794" transform="translate(16.675 50.762)" fill="#703593"/>
    <circle id="Ellipse_59" data-name="Ellipse 59" cx="1.794" cy="1.794" r="1.794" transform="translate(16.675 59.732)" fill="#703593"/>
    <path id="Path_41440" data-name="Path 41440" d="M27.415,18.5A1.914,1.914,0,0,0,25.5,20.415v30.64a1.915,1.915,0,0,0,3.83,0V20.415A1.914,1.914,0,0,0,27.415,18.5Z" transform="translate(67.931 48.118)" fill="#703593"/>
    <circle id="Ellipse_60" data-name="Ellipse 60" cx="1.794" cy="1.794" r="1.794" transform="translate(93.82 50.762)" fill="#703593"/>
    <circle id="Ellipse_61" data-name="Ellipse 61" cx="1.794" cy="1.794" r="1.794" transform="translate(93.82 59.732)" fill="#703593"/>
    <path id="Path_41441" data-name="Path 41441" d="M110.668,108.753h-1.915V41.72a1.914,1.914,0,0,0-1.915-1.915H97.261V18.737a1.914,1.914,0,0,0-1.915-1.915H85.77V3.415A1.914,1.914,0,0,0,83.855,1.5H30.228a1.914,1.914,0,0,0-1.915,1.915V16.822H18.737a1.914,1.914,0,0,0-1.915,1.915V39.8H7.246A1.914,1.914,0,0,0,5.33,41.72V87.685a1.915,1.915,0,1,0,3.83,0V43.635H28.313v65.118H9.161v-5.746a1.915,1.915,0,0,0-3.83,0v5.746H3.415a1.915,1.915,0,0,0,0,3.83H110.668a1.915,1.915,0,0,0,0-3.83ZM85.77,32.144h7.661V39.8H85.77Zm7.661-11.491v7.661H85.77V20.652Zm-65.118,0v7.661H20.652V20.652ZM20.652,39.8V32.144h7.661V39.8ZM32.144,41.72V5.33h49.8V108.753H70.448v-24.9a1.914,1.914,0,0,0-1.915-1.915H45.55a1.914,1.914,0,0,0-1.915,1.915v24.9H32.144Zm15.322,67.033V85.77H66.618v22.983Zm38.3,0V43.635h19.152v65.118Z" transform="translate(0 0)" fill="#703593"/>
    <path id="Path_41442" data-name="Path 41442" d="M37.4,20.5H14.415a1.915,1.915,0,1,0,0,3.83H37.4a1.915,1.915,0,0,0,0-3.83Z" transform="translate(31.135 53.779)" fill="#703593"/>
    <path id="Path_41443" data-name="Path 41443" d="M13.415,15.991H24.907a1.914,1.914,0,0,0,1.915-1.915V6.415A1.914,1.914,0,0,0,24.907,4.5H13.415A1.914,1.914,0,0,0,11.5,6.415v7.661A1.914,1.914,0,0,0,13.415,15.991ZM15.33,8.33h7.661v3.83H15.33Z" transform="translate(28.305 8.491)" fill="#703593"/>
    <path id="Path_41444" data-name="Path 41444" d="M18.415,15.991H29.907a1.914,1.914,0,0,0,1.915-1.915V6.415A1.914,1.914,0,0,0,29.907,4.5H18.415A1.914,1.914,0,0,0,16.5,6.415v7.661A1.914,1.914,0,0,0,18.415,15.991ZM20.33,8.33h7.661v3.83H20.33Z" transform="translate(42.457 8.491)" fill="#703593"/>
    <path id="Path_41445" data-name="Path 41445" d="M13.415,19.991H24.907a1.914,1.914,0,0,0,1.915-1.915V10.415A1.914,1.914,0,0,0,24.907,8.5H13.415A1.914,1.914,0,0,0,11.5,10.415v7.661A1.914,1.914,0,0,0,13.415,19.991ZM15.33,12.33h7.661v3.83H15.33Z" transform="translate(28.305 19.813)" fill="#703593"/>
    <path id="Path_41446" data-name="Path 41446" d="M18.415,19.991H29.907a1.914,1.914,0,0,0,1.915-1.915V10.415A1.914,1.914,0,0,0,29.907,8.5H18.415A1.914,1.914,0,0,0,16.5,10.415v7.661A1.914,1.914,0,0,0,18.415,19.991ZM20.33,12.33h7.661v3.83H20.33Z" transform="translate(42.457 19.813)" fill="#703593"/>
    <path id="Path_41447" data-name="Path 41447" d="M13.415,23.991H24.907a1.914,1.914,0,0,0,1.915-1.915V14.415A1.914,1.914,0,0,0,24.907,12.5H13.415A1.914,1.914,0,0,0,11.5,14.415v7.661A1.914,1.914,0,0,0,13.415,23.991ZM15.33,16.33h7.661v3.83H15.33Z" transform="translate(28.305 31.135)" fill="#703593"/>
    <path id="Path_41448" data-name="Path 41448" d="M18.415,23.991H29.907a1.914,1.914,0,0,0,1.915-1.915V14.415A1.914,1.914,0,0,0,29.907,12.5H18.415A1.914,1.914,0,0,0,16.5,14.415v7.661A1.914,1.914,0,0,0,18.415,23.991ZM20.33,16.33h7.661v3.83H20.33Z" transform="translate(42.457 31.135)" fill="#703593"/>
    <path id="Path_41449" data-name="Path 41449" d="M24.907,27.991a1.914,1.914,0,0,0,1.915-1.915V18.415A1.914,1.914,0,0,0,24.907,16.5H13.415A1.914,1.914,0,0,0,11.5,18.415v7.661a1.914,1.914,0,0,0,1.915,1.915ZM15.33,20.33h7.661v3.83H15.33Z" transform="translate(28.305 42.457)" fill="#703593"/>
    <path id="Path_41450" data-name="Path 41450" d="M18.415,27.991H29.907a1.914,1.914,0,0,0,1.915-1.915V18.415A1.914,1.914,0,0,0,29.907,16.5H18.415A1.914,1.914,0,0,0,16.5,18.415v7.661A1.914,1.914,0,0,0,18.415,27.991ZM20.33,20.33h7.661v3.83H20.33Z" transform="translate(42.457 42.457)" fill="#703593"/>
    <circle id="Ellipse_62" data-name="Ellipse 62" cx="1.794" cy="1.794" r="1.794" transform="translate(5.91 93.82)" fill="#703593"/>
  </g>
</svg>
