<svg xmlns="http://www.w3.org/2000/svg" width="73.261" height="64" viewBox="0 0 73.261 64">
  <path id="population_18615181" d="M73.244,90.175c-.74-4.245-2.729-7.074-5.6-8.107a5.41,5.41,0,0,0,1.617-3.86V77.149a5.425,5.425,0,1,0-10.85,0v1.059a5.412,5.412,0,0,0,1.621,3.865,7.8,7.8,0,0,0-4.152,3.746,6.962,6.962,0,0,0-1.605-.827,5.409,5.409,0,0,0,1.618-3.86V80.073a5.425,5.425,0,1,0-10.85,0v1.059a5.412,5.412,0,0,0,1.612,3.857A7.561,7.561,0,0,0,42.7,88.411a7.032,7.032,0,0,0-2.259-1.338,5.41,5.41,0,0,0,1.617-3.861V82.154a5.425,5.425,0,1,0-10.85,0v1.059a5.411,5.411,0,0,0,1.616,3.86A7.03,7.03,0,0,0,30.56,88.41a7.545,7.545,0,0,0-3.954-3.422,5.41,5.41,0,0,0,1.613-3.856V80.073a5.425,5.425,0,1,0-10.85,0v1.059a5.411,5.411,0,0,0,1.617,3.86,6.961,6.961,0,0,0-1.606.826,7.809,7.809,0,0,0-4.152-3.745,5.41,5.41,0,0,0,1.623-3.866V77.149a5.425,5.425,0,1,0-10.85,0v1.059a5.412,5.412,0,0,0,1.617,3.861C2.748,83.1.758,85.932.014,90.174A1,1,0,0,0,1,91.349H13.782a16.959,16.959,0,0,0-.4,1.75,1,1,0,0,0,.987,1.174H27.4q-.1.442-.183.907a1,1,0,0,0,.987,1.173H45.056a1,1,0,0,0,.987-1.175c-.054-.31-.116-.611-.184-.906H58.893A1,1,0,0,0,59.88,93.1a17.01,17.01,0,0,0-.4-1.749H72.257a1,1,0,0,0,.987-1.173Zm-53.869-10.1a3.421,3.421,0,1,1,6.843,0v1.059a3.421,3.421,0,1,1-6.843,0ZM6.006,77.149a3.421,3.421,0,1,1,6.843,0v1.059a3.421,3.421,0,1,1-6.843,0Zm-3.765,12.2c.654-2.528,2.224-5.711,5.983-5.711H10.63c2.333,0,4.088,1.209,5.224,3.593a9.826,9.826,0,0,0-1.328,2.118ZM28,92.27H15.608a12.526,12.526,0,0,1,.475-1.474,1,1,0,0,0,.063-.153,7.8,7.8,0,0,1,1.589-2.5l.02-.02a5.2,5.2,0,0,1,3.838-1.56H24a5.517,5.517,0,0,1,5.157,3.459A11.045,11.045,0,0,0,28,92.27Zm5.207-10.116a3.421,3.421,0,1,1,6.843,0v1.059a3.421,3.421,0,1,1-6.843,0Zm-3.766,12.2c.062-.239.132-.484.211-.732.009-.024.017-.048.024-.072a9.186,9.186,0,0,1,1.4-2.768l.034-.043a5.248,5.248,0,0,1,4.312-2.1h2.405a5.246,5.246,0,0,1,4.3,2.089q.02.027.041.052a9.963,9.963,0,0,1,1.638,3.569Zm30.97-17.2a3.421,3.421,0,1,1,6.843,0v1.059a3.421,3.421,0,1,1-6.843,0ZM47.045,80.073a3.421,3.421,0,1,1,6.843,0v1.059a3.421,3.421,0,1,1-6.843,0Zm-1.789,12.2A11.059,11.059,0,0,0,44.1,90.019a5.528,5.528,0,0,1,5.161-3.46h2.405c3,0,4.609,2.032,5.466,4.138.008.022.017.043.026.065a12.533,12.533,0,0,1,.49,1.508Zm13.476-2.924a9.843,9.843,0,0,0-1.327-2.116,5.552,5.552,0,0,1,5.226-3.6h2.405c3.762,0,5.329,3.183,5.981,5.711Zm-5.3-44.954v22.2a1,1,0,0,0,1,1h5.894a1,1,0,0,0,1-1v-22.2a1,1,0,0,0-1-1H54.434a1,1,0,0,0-1,1Zm2,1h3.89v20.2H55.436Zm-40.942,8.5a1,1,0,0,1,.763-1.194C33.21,48.746,45.328,43.235,55.3,34.422l-2.077-.065a1,1,0,1,1,.063-2l4.535.142a1,1,0,0,1,.97,1.034l-.146,4.54a1,1,0,0,1-1,.97h-.033a1,1,0,0,1-.969-1.034l.069-2.155c-10.257,9.1-22.662,14.764-41.023,18.805a1,1,0,0,1-1.194-.763ZM12.934,67.6h5.893a1,1,0,0,0,1-1V60.228a1,1,0,0,0-1-1H12.934a1,1,0,0,0-1,1V66.6a1,1,0,0,0,1,1Zm1-6.368h3.89v4.364h-3.89Zm19.749-9.921a1,1,0,0,0-1,1V66.595a1,1,0,0,0,1,1h5.893a1,1,0,0,0,1-1V52.31a1,1,0,0,0-1-1Zm4.892,14.285h-3.89V53.311h3.89ZM44.059,47.35a1,1,0,0,0-1,1V66.595a1,1,0,0,0,1,1h5.893a1,1,0,0,0,1-1V48.351a1,1,0,0,0-1-1Zm4.892,18.243h-3.89V49.353h3.89ZM23.309,55.266a1,1,0,0,0-1,1V66.595a1,1,0,0,0,1,1H29.2a1,1,0,0,0,1-1V56.268a1,1,0,0,0-1-1ZM28.2,65.593H24.31V57.27H28.2Z" transform="translate(0.002 -32.354)" fill="#c01421"/>
</svg>
