<svg xmlns="http://www.w3.org/2000/svg" width="54.577" height="68.595" viewBox="0 0 54.577 68.595">
  <g id="ribbon_7107704" transform="translate(-52.29 -0.001)">
    <g id="Layer_2_12_" transform="translate(52.29 0.001)">
      <g id="Ribbon" transform="translate(0 0)">
        <path id="Path_41389" data-name="Path 41389" d="M137.907,59.178a18.246,18.246,0,1,0,18.246,18.246A18.246,18.246,0,0,0,137.907,59.178Zm0,34.171a15.936,15.936,0,1,1,15.936-15.936v.012A15.948,15.948,0,0,1,137.907,93.349Z" transform="translate(-110.63 -51.246)"/>
        <path id="Path_41390" data-name="Path 41390" d="M104.765,21.064a12.176,12.176,0,0,1-1.444-2.621,12.508,12.508,0,0,1-.393-3.095,9.239,9.239,0,0,0-1.293-5.22,9.3,9.3,0,0,0-4.619-2.852,12.328,12.328,0,0,1-2.771-1.3,12.113,12.113,0,0,1-2.079-2.217A9.458,9.458,0,0,0,88,.219a9.239,9.239,0,0,0-5.3.393,12.58,12.58,0,0,1-3.13.589,12.574,12.574,0,0,1-3.13-.589,9.239,9.239,0,0,0-5.3-.393,9.423,9.423,0,0,0-4.169,3.522A11.847,11.847,0,0,1,64.889,5.97a12.329,12.329,0,0,1-2.795,1.316,9.3,9.3,0,0,0-4.619,2.852,9.238,9.238,0,0,0-1.293,5.22,12.509,12.509,0,0,1-.37,3.083,12.176,12.176,0,0,1-1.444,2.621A9.585,9.585,0,0,0,52.29,26.18a9.516,9.516,0,0,0,2.079,5.1,12.173,12.173,0,0,1,1.444,2.61,12.508,12.508,0,0,1,.393,3.095,9.239,9.239,0,0,0,1.293,5.22,9.3,9.3,0,0,0,4.619,2.852,12.842,12.842,0,0,1,2.795,1.316,10.588,10.588,0,0,1,1.848,1.928L61.182,64.057l7.841-1.663,5.07,6.2,5.6-15.913,5.6,15.913,5.1-6.2,7.841,1.663L92.57,48.1a9.524,9.524,0,0,1,1.674-1.721,12.839,12.839,0,0,1,2.795-1.316,9.365,9.365,0,0,0,4.619-2.841,9.342,9.342,0,0,0,1.293-5.231,12.509,12.509,0,0,1,.393-3.095,12.173,12.173,0,0,1,1.444-2.61,9.515,9.515,0,0,0,2.079-5.1A9.585,9.585,0,0,0,104.765,21.064ZM73.273,63.954l-3.349-4.111-5.2,1.1,3.73-10.6a6.457,6.457,0,0,0,2.679,1.79,9.239,9.239,0,0,0,5.3-.393L77.7,51.4ZM94.649,60.94l-5.185-1.1L86.1,63.954,81.7,51.47l.993.266a14.011,14.011,0,0,0,3.6.647,5.312,5.312,0,0,0,1.7-.254,6.743,6.743,0,0,0,2.852-1.963Zm8.188-30.949a13.776,13.776,0,0,0-1.709,3.164,14.261,14.261,0,0,0-.508,3.7,7.724,7.724,0,0,1-.843,3.984,7.726,7.726,0,0,1-3.6,2.067,13.944,13.944,0,0,0-3.337,1.617A7.542,7.542,0,0,0,91.681,45.6c-.473.5-.9,1.039-1.328,1.559l-.393.485a6.572,6.572,0,0,1-2.691,2.31,7.563,7.563,0,0,1-3.984-.427c-.751-.2-1.513-.416-2.31-.543h-.185a7.565,7.565,0,0,0-1.247-.1,7.053,7.053,0,0,0-.993.069h-.208a22.364,22.364,0,0,0-2.529.577,7.565,7.565,0,0,1-3.984.427,6.086,6.086,0,0,1-2.517-2.079l-.566-.693c-.37-.462-.751-.935-1.155-1.374a7.942,7.942,0,0,0-1.374-1.27,13.857,13.857,0,0,0-3.326-1.617,7.727,7.727,0,0,1-3.557-2.044,7.727,7.727,0,0,1-.82-3.961,14.259,14.259,0,0,0-.45-3.742A13.774,13.774,0,0,0,56.3,29.99a7.667,7.667,0,0,1-1.7-3.811,7.634,7.634,0,0,1,1.7-3.834,13.851,13.851,0,0,0,1.767-3.176,14.2,14.2,0,0,0,.508-3.7,7.726,7.726,0,0,1,.785-3.961,7.727,7.727,0,0,1,3.557-2.067,14.356,14.356,0,0,0,3.337-1.605A14.114,14.114,0,0,0,68.77,5.185a7.784,7.784,0,0,1,3.072-2.772,3.467,3.467,0,0,1,.993-.139,12.384,12.384,0,0,1,3,.566,14.069,14.069,0,0,0,3.73.67,14.069,14.069,0,0,0,3.73-.67,7.83,7.83,0,0,1,4-.427A7.784,7.784,0,0,1,90.4,5.185a13.855,13.855,0,0,0,2.529,2.656,14.053,14.053,0,0,0,3.245,1.605,7.644,7.644,0,0,1,3.6,2.067,7.679,7.679,0,0,1,.843,3.973,14.193,14.193,0,0,0,.508,3.7,13.858,13.858,0,0,0,1.709,3.176,7.632,7.632,0,0,1,1.7,3.834A7.67,7.67,0,0,1,102.836,29.99Z" transform="translate(-52.29 -0.001)"/>
        <path id="Path_41391" data-name="Path 41391" d="M190.67,111.953H184.5l-1.917-5.878a1.79,1.79,0,0,0-1.709-1.236h0a1.79,1.79,0,0,0-1.709,1.236l-1.917,5.878h-6.167a1.8,1.8,0,0,0-1.062,3.257l5,3.638-1.917,5.866a1.8,1.8,0,0,0,.658,2.021,1.871,1.871,0,0,0,1.062.335,1.837,1.837,0,0,0,1.051-.335l5-3.649,5.058,3.649a1.8,1.8,0,0,0,2.772-2.021l-1.917-5.866,4.92-3.638a1.8,1.8,0,0,0-1.062-3.257h.023Zm-5.589,5.243a1.79,1.79,0,0,0-.658,2.009l1.513,4.735-4.03-2.922a1.8,1.8,0,0,0-2.125,0l-4.03,2.922L177.3,119.2a1.778,1.778,0,0,0-.6-2.009l-4.03-2.933h4.954a1.8,1.8,0,0,0,1.721-1.247l1.536-4.735,1.594,4.735a1.8,1.8,0,0,0,1.721,1.247h4.977Z" transform="translate(-153.601 -90.786)"/>
      </g>
    </g>
  </g>
</svg>
