<svg xmlns="http://www.w3.org/2000/svg" xmlns:xlink="http://www.w3.org/1999/xlink" width="188" height="173" viewBox="0 0 188 173">
  <defs>
    <clipPath id="clip-path">
      <rect id="Rectangle_11140" data-name="Rectangle 11140" width="97" height="97" fill="#fff"/>
    </clipPath>
  </defs>
  <g id="Group_27666" data-name="Group 27666" transform="translate(-550 -3895)">
    <rect id="Rectangle_8351" data-name="Rectangle 8351" width="188" height="173" rx="18" transform="translate(550 3895)" fill="#f78700"/>
    <g id="Group_27612" data-name="Group 27612" transform="translate(596 3933)">
      <g id="Group_27611" data-name="Group 27611" clip-path="url(#clip-path)">
        <path id="Path_31680" data-name="Path 31680" d="M20.867,0l4.5.9a19.9,19.9,0,0,1,13.14,24.542l6.721,6.754L75.218,2.365A9.383,9.383,0,0,1,79.577,0h2.273a11.206,11.206,0,0,1,3.31,1.52A100.744,100.744,0,0,1,95.3,11.647,9.912,9.912,0,0,1,97,15.156V17.43a9.767,9.767,0,0,1-2.365,4.36L64.818,51.652l6.752,6.861A19.9,19.9,0,0,1,96.1,71.658L97,76.35v2.273c-.285.969-.29,2-.5,3-.384,1.78-1.107,5.337-3.527,4.728l-9.725-9.419L77.1,82.88l-.094.478,8.536,8.525c3.236,3.937-3.933,4.5-6.347,5.118H75.41c-1.093-.337-2.26-.407-3.368-.7-10.584-2.841-16.586-14.291-13.518-24.74l-6.719-6.749L28.164,88.1,2.885,96.535A1.847,1.847,0,0,1,.5,94.148L8.929,68.86,32.216,45.211l-6.747-6.722C15.053,41.563,3.57,35.526.738,24.967c-.3-1.108-.368-2.276-.7-3.369.078-1.231-.106-2.575,0-3.789.118-1.35,1.09-5.317,1.852-6.388.891-1.252,2.3-.911,3.263.039L13.672,20l.478-.094L20.1,13.761,10.679,4.033a1.942,1.942,0,0,1,1.158-2.362A21.327,21.327,0,0,1,18.4,0ZM4.2,16.1C1.844,27.046,10.607,36.519,21.7,35.4c1.145-.115,3.932-1.227,4.664-1.032a3.225,3.225,0,0,1,.95.577l7.666,7.674,7.467-7.506-7.856-8.2c-.661-1.329.371-2.9.622-4.325A15.925,15.925,0,0,0,16.133,4.169c-.085.328.136.379.282.569C18.436,7.369,22.43,9.99,24.277,12.6a1.808,1.808,0,0,1-.091,2.564l-9.517,9.423a1.89,1.89,0,0,1-2.229-.336ZM80.095,3.835a4.113,4.113,0,0,0-1.659.8A59.888,59.888,0,0,0,72.468,10.6c-.109.141-.308.224-.264.453L86.084,24.8l6.453-6.44a3.481,3.481,0,0,0-.173-4.35A100.462,100.462,0,0,0,82.89,4.548a3.62,3.62,0,0,0-2.8-.713M69.444,13.644,13.375,69.72l.095.478,5.383,5.191L37.92,56.561A1.947,1.947,0,0,1,39.9,59.869L21.638,78.175l5.291,5.479L83.361,27.565,77.777,21.98,52.212,47.554a1.948,1.948,0,1,1-2.657-2.848L75.028,19.229ZM92.833,80.9A15.977,15.977,0,0,0,75.719,61.6c-1.421.132-4.2,1.3-5.237,1.024a3.008,3.008,0,0,1-.946-.57l-7.5-7.474-7.641,7.47,8.055,8.23.268.845C57.859,83.072,68.279,95.691,80.9,92.83l-8.053-8.14c-.733-.95-.932-1.619-.193-2.664l9.628-9.5a1.719,1.719,0,0,1,2.019.141c2.54,1.681,5.374,5.961,7.961,7.949.19.146.24.367.569.282M23.518,85.821,11.209,73.508,9.4,79.565l7.958,7.98c.158.185.286.124.479.1,1.621-.2,3.913-1.68,5.679-1.824M5.338,91.694l8.139-2.746-5.394-5.4Z" transform="translate(0)" fill="#fff"/>
        <path id="Path_31681" data-name="Path 31681" d="M173.043,202.4a1.917,1.917,0,0,1-2.71-2.711c1.694-1.68,4.389,1.017,2.71,2.711" transform="translate(-126.864 -148.85)" fill="#fff"/>
      </g>
    </g>
  </g>
</svg>
