<svg id="Group_27602" data-name="Group 27602" xmlns="http://www.w3.org/2000/svg" xmlns:xlink="http://www.w3.org/1999/xlink" width="133.141" height="107.877" viewBox="0 0 133.141 107.877">
  <defs>
    <clipPath id="clip-path">
      <rect id="Rectangle_11133" data-name="Rectangle 11133" width="133.141" height="107.877" fill="#ed0109"/>
    </clipPath>
  </defs>
  <g id="Group_27601" data-name="Group 27601" clip-path="url(#clip-path)">
    <path id="Path_31652" data-name="Path 31652" d="M133.141,4.425V89.033c-.818,1.687-1.266,2.966-3.12,3.763a17.118,17.118,0,0,1-2.211.648h-5.851c.547,1.8,3.4,5.868,3.008,7.527-.772,3.227-5.753.816-7.965.914-1.95,2.261-3.8,8.989-7.317,4.459l-5.017-10.562L99.3,106.772c-3.507,3.536-5.223-2.738-6.984-4.905-1.929-.128-5.368,1.492-7,.511-3.021-1.818,1.562-6.531,1.8-8.932H5.331A17.129,17.129,0,0,1,3.12,92.8C1.266,92,.818,90.72,0,89.033V4.425C1.1,1.391,2.911.253,6.1,0l120.68,0c3.314.229,5.209,1.225,6.359,4.424m-4.222.061-2.138-.591H6.62l-2.4.591L4.138,88.862l2.222.7,82.669-.046,1.206-2.3c-2.036-.54-3.868-3.038-4.139-5.087-.121-.916.1-1.862-.081-2.774-.242-1.2-1.527-2.376-1.739-3.973-.457-3.448,1.188-3.963,1.682-6.322.318-1.517-.053-2.734.584-4.349.941-2.387,2.348-2.476,3.959-3.835,1.558-1.315,1.716-3.066,3.814-4.238,2.162-1.207,3.5-.726,5.559-1.2,1.568-.36,2.529-1.65,4.792-1.65,2.361,0,3.268,1.406,4.74,1.7,1.792.361,3.168-.074,5.095.885,2.244,1.117,2.475,2.906,3.843,4.209,1.1,1.048,2.655,1.455,3.728,3.027,1.334,1.954.889,3.494,1.247,5.5.317,1.777,1.915,2.906,1.765,5.5-.119,2.049-1.5,3.16-1.766,4.48-.168.829.035,1.68-.087,2.508a7.064,7.064,0,0,1-4.12,5.629c.178.692.673,2.176,1.416,2.315a42.481,42.481,0,0,0,6.5,0,5.939,5.939,0,0,0,1.888-.582ZM104.666,57.761c-1.4,0-2.694,1.3-4.016,1.57-1.419.289-2.9-.092-4.27.669-1.212.672-1.781,2.539-2.757,3.477-.721.693-1.736.995-2.487,1.67-1.708,1.538-.964,2.438-1.279,4.433-.3,1.867-1.777,3.135-1.727,4.791.044,1.451,1.446,2.752,1.727,4.526.315,1.994-.441,2.91,1.293,4.419.921.8,1.971,1.041,2.86,2.076.832.968,1.47,3.011,2.908,3.327,1.1.241,2.555.04,3.779.381,1.44.4,2.262,1.511,3.969,1.511,1.671,0,2.16-.939,3.562-1.4,1.5-.492,2.885-.212,4.185-.495,1.336-.291,1.867-2.132,2.649-3.067,1.341-1.6,3.956-2.15,4.281-4.293.146-.963-.064-1.917.135-2.979.258-1.375,1.632-2.791,1.687-4.033.058-1.31-1.42-2.937-1.691-4.245-.36-1.745.377-3.186-1.013-4.7a23.164,23.164,0,0,0-2.489-1.668c-2.063-1.71-1.6-3.82-4.833-4.26-.833-.113-1.674.063-2.51-.09-1.318-.242-2.488-1.623-3.963-1.623M89.456,98.375c1.322-.184,3.411-.915,4.674-.383,1.052.443,2.565,4.02,3,4.012.511-1.021,4.132-7.817,3.9-8.312-.52-1.134-4.51-.933-5.848-1.423-.983-.36-1.357-.992-2.212-1.421Zm27.039-7.525c-1.151.479-2.094,1.438-3.361,1.7-1.595.332-3.383.015-4.935.917-.292.413,3.311,7.594,4.01,8.536.326,0,1.758-3.507,2.8-3.953,1.409-.606,3.426.1,4.874.324Z" transform="translate(0 -0.001)" fill="#ed0109"/>
    <path id="Path_31653" data-name="Path 31653" d="M139.336,43.772c-5.078-.461-8.506-4.436-9.78-9.107l-87.7.037c-.818,4.81-4.483,8.125-9.142,9.217l.049,47.561a11.7,11.7,0,0,1,9.227,9.134l56.984.179a1.955,1.955,0,0,1-.57,3.711l-58.248-.028c-2.371-.512-1.858-2.959-2.553-4.719a7.786,7.786,0,0,0-4.47-4.1c-1.471-.5-3.272-.237-4.107-1.87l-.182-51.7c.478-2.258,2.652-1.849,4.33-2.426a8.315,8.315,0,0,0,4.442-4.131c.617-1.6.185-3.638,1.941-4.551H132c1.7.828,1.339,2.4,1.809,3.9a7.246,7.246,0,0,0,4.615,4.737c1.79.581,4.063.105,4.769,2.247l.061,34.988c-.278,2.617-3.591,2.729-3.912,0Z" transform="translate(-19.47 -20.91)" fill="#ed0109"/>
    <path id="Path_31654" data-name="Path 31654" d="M83.761,71.266l76.8.061c1.734.745,1.772,2.618.241,3.642H83.322c-1.616-1.081-1.453-3.078.439-3.7" transform="translate(-55.492 -48.101)" fill="#ed0109"/>
    <path id="Path_31655" data-name="Path 31655" d="M83.5,136.734l77.3.082c1.816,1.238,1.32,3.5-.9,3.763l-76.52-.2c-1.677-.872-1.472-2.794.116-3.643" transform="translate(-55.488 -92.288)" fill="#ed0109"/>
    <path id="Path_31656" data-name="Path 31656" d="M142.747,104l58.06.082c2.073,1.51,1.049,3.8-1.414,3.767H143.983c-2.5.077-3.493-2.565-1.237-3.85" transform="translate(-95.496 -70.193)" fill="#ed0109"/>
    <path id="Path_31657" data-name="Path 31657" d="M188.206,182.185a3.73,3.73,0,0,1-1.87.6c-8.1.73-17.288-.58-25.5-.007a1.957,1.957,0,1,1-.259-3.9h26.274a2.008,2.008,0,0,1,1.358,3.313" transform="translate(-107.14 -120.729)" fill="#ed0109"/>
    <path id="Path_31658" data-name="Path 31658" d="M95.745,106.767a3.64,3.64,0,0,1-1.612.6,63.785,63.785,0,0,1-9.864-.031c-2.809-.4-2.408-3.51-.538-3.864a79.485,79.485,0,0,1,10.9.01,1.93,1.93,0,0,1,1.113,3.286" transform="translate(-55.512 -69.715)" fill="#ed0109"/>
    <path id="Path_31659" data-name="Path 31659" d="M287.34,211.449c-10.625-10.912,5-27.594,16.555-17.69,12.746,10.926-5.069,29.486-16.555,17.69m8.443-16.718c-10.524.4-10.479,16.281.177,16.4,11.106.126,10.632-16.807-.177-16.4" transform="translate(-191.554 -128.737)" fill="#ed0109"/>
  </g>
</svg>
