<svg xmlns="http://www.w3.org/2000/svg" xmlns:xlink="http://www.w3.org/1999/xlink" width="188" height="173" viewBox="0 0 188 173">
  <defs>
    <clipPath id="clip-path">
      <rect id="Rectangle_11152" data-name="Rectangle 11152" width="110" height="110" fill="#fff"/>
    </clipPath>
  </defs>
  <g id="Group_27660" data-name="Group 27660" transform="translate(-550 -4389)">
    <rect id="Rectangle_11101" data-name="Rectangle 11101" width="188" height="173" rx="18" transform="translate(550 4389)" fill="#106a8f"/>
    <g id="Group_27636" data-name="Group 27636" transform="translate(589 4421)">
      <g id="Group_27635" data-name="Group 27635" clip-path="url(#clip-path)">
        <path id="Path_31772" data-name="Path 31772" d="M110,205.146v4.3a4.1,4.1,0,0,1-3.546,2.79c-7.088.709-15.323-.509-22.532-.016-3.713-.761-3.08-3.47-3.374-6.292-.029-.278-.092-1.356-.506-1.2L63.53,214.2a19.135,19.135,0,0,0-1.649,2.217A10.35,10.35,0,0,1,56.3,219.54H53.725c-6.829-1.182-10.4-9.239-5.909-14.827,2.515-3.129,5.9-3.857,9.781-3.3l18.681-6.793c.254-.3-1.289-2.2-1.609-2.579-14.036-16.509-41.508-9.276-44.939,11.989-.53,3.287.587,7.805-4.028,8.217-7.09-.534-15.157.686-22.129-.011a4.1,4.1,0,0,1-3.547-2.79c.062-1.423-.085-2.877,0-4.3C1.6,178.908,22.706,156.6,48.919,153.825c31.071-3.287,59.2,20.1,61.081,51.321m-56.92-47.91a51.8,51.8,0,0,0-27.648,9.406c-.739.522-5.288,3.909-5.2,4.422L35.6,186.439c4.977-3.956,11.012-6.864,17.476-7.075Zm3.866,22.129c6.472.166,12.529,3.07,17.476,7.075l15.371-15.376c.108-.618-5.552-4.732-6.447-5.323a52.218,52.218,0,0,0-26.4-8.505ZM25.587,208.583c.3-1.66.231-3.3.492-4.986A30.36,30.36,0,0,1,31,191.758c.363-.547,1.992-2.327,1.871-2.79l-15.336-15.4A51.313,51.313,0,0,0,3.679,208.583Zm80.761,0a51.311,51.311,0,0,0-13.854-35.016l-15.335,15.4.082.485c.755.518,2.345,3.62,3,3.652l13.131-4.484a3.68,3.68,0,0,1,3.1,6.323L83.9,202.569c-.289.471.254,2.407.321,3.117.089.945-.295,2.183.325,2.9Zm-13.318-15.9L61.673,203.75c-.425.285.515.893.733,1.2a8.518,8.518,0,0,1,1.631,4.707Zm-39.146,12.3c-6.564,1.054-5.334,11.793,1.864,10.886,7.033-.887,5.931-12.137-1.864-10.886" transform="translate(0 -109.54)" fill="#fff"/>
        <path id="Path_31773" data-name="Path 31773" d="M156.415,0c3.076,1.065,3.729,4.7,5.2,7.263,2.71.608,7.775.317,8.5,3.849.733,3.565-2.939,5.528-4.84,7.925.165,3.05,2.226,7.512-.926,9.629-2.97,1.994-6.09-1.352-8.864-2.193-2.683.957-5.508,3.955-8.456,2.359-3.518-1.9-1.366-6.708-1.189-9.8-1.264-1.7-4.576-3.93-4.869-6.058-.726-5.271,4.913-5.063,8.53-5.716,1.468-2.56,2.12-6.2,5.2-7.263ZM166.51,11.819c-.2-.3-6-.752-7.079-1.408-1.269-.771-2.591-4.838-3.4-6.266-.123-.218-.253-.567-.579-.492-.4.092-2.468,5.967-3.77,6.758-1.08.656-6.876,1.107-7.079,1.408a.889.889,0,0,0,.2.761c.864,1.323,4.409,4.135,4.684,5.2.351,1.353-1.117,7.463-.8,7.789a1.369,1.369,0,0,0,.8-.168c1.58-.575,3.836-2.323,5.2-2.741,2.268-.693,5.411,2.647,7.742,2.909.312-.326-1.156-6.436-.8-7.789.275-1.062,3.819-3.874,4.684-5.2a.889.889,0,0,0,.2-.761" transform="translate(-100.543)" fill="#fff"/>
        <path id="Path_31774" data-name="Path 31774" d="M46.239,58.276c2.487.71,6.549.286,8.076,2.771,2.307,3.753-2.24,6.464-4.221,9.035-.035,3.077,2.32,8.167-1.459,9.92-3.095,1.436-5.583-1.572-8.353-2.475-2.908.98-5.782,4.274-8.9,2.161s-.887-6.586-.908-9.6c-2.07-2.611-6.755-5.336-4.14-9.166,1.695-2.482,5.279-1.722,7.815-2.71,1.6-2.343,2.47-7,5.948-7.173,3.7-.185,4.652,4.76,6.142,7.242M47.046,76.8l-.771-7.744c1.3-2.152,3.577-3.809,5.063-5.9-.039-.586-6.3-1.07-7.29-1.725-1.057-.7-3.326-6.756-3.766-6.756-1.355,1.547-2.485,6.39-4.352,7.029-1.787.611-4.474.469-6.171,1.132-.251.1-.62.17-.537.534.11.484,3.939,3.916,4.512,4.728a3.267,3.267,0,0,1,.558,1.179c.25,1.584-.882,5.011-.935,6.836-.01.346-.1.436.266.682,1.571-.525,5.245-3.221,6.659-3.221,1.191,0,6.462,3.448,6.765,3.225" transform="translate(-18.239 -36.412)" fill="#fff"/>
        <path id="Path_31775" data-name="Path 31775" d="M264.636,58.276c1.489-2.482,2.44-7.427,6.142-7.242,3.478.173,4.348,4.83,5.948,7.173,2.555.987,6.1.2,7.815,2.71,2.615,3.829-2.071,6.555-4.14,9.166-.021,3.018,2.217,7.486-.908,9.6s-5.992-1.182-8.9-2.161c-2.8.929-5.235,3.922-8.353,2.475-3.76-1.745-1.423-6.849-1.459-9.92-1.957-2.6-6.542-5.259-4.221-9.035,1.54-2.505,5.591-2,8.076-2.771M263.829,76.8c.3.221,5.6-3.219,6.76-3.23,1.524-.015,5.026,2.687,6.664,3.226.367-.246.277-.336.266-.682-.053-1.825-1.185-5.252-.935-6.836.241-1.528,4.1-4.427,5.068-5.91.1-.423-.564-.573-.846-.648-1.6-.427-5.238-.507-6.446-1.286-1.289-.831-2.557-5.442-3.766-6.756-.44,0-2.709,6.056-3.766,6.756-.987.655-7.252,1.139-7.29,1.725.767,1.524,4.765,4.553,5.063,5.9.268,1.213-1.254,7.389-.771,7.744" transform="translate(-182.609 -36.412)" fill="#fff"/>
      </g>
    </g>
  </g>
</svg>
