<svg id="Group_37791" data-name="Group 37791" xmlns="http://www.w3.org/2000/svg" xmlns:xlink="http://www.w3.org/1999/xlink" width="102.171" height="77.805" viewBox="0 0 102.171 77.805">
  <defs>
    <clipPath id="clip-path">
      <rect id="Rectangle_12554" data-name="Rectangle 12554" width="102.171" height="77.805" fill="#c01421" stroke="#c01421" stroke-width="1.5"/>
    </clipPath>
  </defs>
  <g id="Group_37790" data-name="Group 37790" clip-path="url(#clip-path)">
    <path id="Path_41287" data-name="Path 41287" d="M96.4,5.393H59.812A10.268,10.268,0,0,0,50.787,0H32.071A10.294,10.294,0,0,0,21.788,10.282v6.9H9.65A9.661,9.661,0,0,0,0,26.828V68.156a9.661,9.661,0,0,0,9.65,9.65H73.208a9.661,9.661,0,0,0,9.65-9.65c0-32.61.011-41.137-.02-41.785-.039-.036-.076-.081-.115-.119H96.4a5.778,5.778,0,0,0,5.772-5.772V11.165A5.778,5.778,0,0,0,96.4,5.393M52.939,24.249A3.772,3.772,0,0,1,49.17,20.48V11.165A3.772,3.772,0,0,1,52.939,7.4H82.922V24.249H52.939ZM47.167,11.165v6.013H31.583v-6.9a.489.489,0,0,1,.488-.488H47.338a5.745,5.745,0,0,0-.171,1.371m-23.375-.883A8.288,8.288,0,0,1,32.071,2H50.787a8.251,8.251,0,0,1,6.661,3.39h-4.51a5.762,5.762,0,0,0-4.673,2.4h-16.2a2.494,2.494,0,0,0-2.491,2.491v6.9H23.792ZM80.855,68.156A7.655,7.655,0,0,1,73.209,75.8H9.65A7.655,7.655,0,0,1,2,68.156V39.209a16.48,16.48,0,0,0,14.463,8.6H32.728v1.627A3.572,3.572,0,0,0,36.3,53.007h.457V57.67a2.486,2.486,0,0,0,2.483,2.484h4.384A2.486,2.486,0,0,0,46.1,57.67V53.007h.457a3.572,3.572,0,0,0,3.568-3.568V47.812H66.392a16.48,16.48,0,0,0,14.463-8.6ZM44.1,53.008V57.67a.481.481,0,0,1-.48.48H39.237a.481.481,0,0,1-.48-.48V53.008Zm-7.8-2a1.567,1.567,0,0,1-1.565-1.565V44.181A1.567,1.567,0,0,1,36.3,42.617H46.562a1.566,1.566,0,0,1,1.565,1.565v5.258A1.566,1.566,0,0,1,46.562,51ZM80.855,31.345A14.479,14.479,0,0,1,66.392,45.808H50.13V44.181a3.572,3.572,0,0,0-3.568-3.568H36.3a3.572,3.572,0,0,0-3.568,3.568v1.627H16.467A14.479,14.479,0,0,1,2,31.345V26.828A7.655,7.655,0,0,1,9.65,19.181H47.167v1.3a5.778,5.778,0,0,0,5.772,5.772h27.87C80.894,27.352,80.834,28.1,80.855,31.345ZM100.167,20.48A3.772,3.772,0,0,1,96.4,24.249H84.925V7.4H96.4a3.772,3.772,0,0,1,3.768,3.768Z" fill="#c01421" stroke="#c01421" stroke-width="1.5"/>
    <path id="Path_41288" data-name="Path 41288" d="M427.122,53.855a4.254,4.254,0,0,0-.616,5.266L424.8,60.83a1,1,0,0,0,1.416,1.416l1.709-1.709a4.284,4.284,0,1,0-.8-6.682m4.65,4.65a2.286,2.286,0,1,1,0-3.233,2.289,2.289,0,0,1,0,3.233" transform="translate(-336.928 -41.746)" fill="#c01421" stroke="#c01421" stroke-width="1.5"/>
    <path id="Path_41289" data-name="Path 41289" d="M259.341,71.843h-5.469a1,1,0,1,0,0,2h5.469a1,1,0,0,0,0-2" transform="translate(-200.703 -57.022)" fill="#c01421" stroke="#c01421" stroke-width="1.5"/>
    <path id="Path_41290" data-name="Path 41290" d="M307.7,71.843h-5.469a1,1,0,0,0,0,2H307.7a1,1,0,0,0,0-2" transform="translate(-239.086 -57.022)" fill="#c01421" stroke="#c01421" stroke-width="1.5"/>
    <path id="Path_41291" data-name="Path 41291" d="M356.06,71.843h-5.47a1,1,0,0,0,0,2h5.47a1,1,0,0,0,0-2" transform="translate(-277.469 -57.022)" fill="#c01421" stroke="#c01421" stroke-width="1.5"/>
    <path id="Path_41292" data-name="Path 41292" d="M309.754,297.2a1,1,0,0,0-1,1v5.842a2.434,2.434,0,0,1-2.43,2.431H294.707a1,1,0,0,0,0,2h11.616a4.439,4.439,0,0,0,4.434-4.434V298.2A1,1,0,0,0,309.754,297.2Z" transform="translate(-233.113 -235.883)" fill="#c01421" stroke="#c01421" stroke-width="1.5"/>
  </g>
</svg>
