<svg id="Group_37793" data-name="Group 37793" xmlns="http://www.w3.org/2000/svg" xmlns:xlink="http://www.w3.org/1999/xlink" width="108.645" height="108.98" viewBox="0 0 108.645 108.98">
  <defs>
    <clipPath id="clip-path">
      <rect id="Rectangle_12555" data-name="Rectangle 12555" width="108.645" height="108.98" fill="#c01421" stroke="#c01421" stroke-width="1"/>
    </clipPath>
  </defs>
  <g id="Group_37792" data-name="Group 37792" clip-path="url(#clip-path)">
    <path id="Path_41293" data-name="Path 41293" d="M205.673,156.587h-43.19a14.481,14.481,0,0,1,0-28.961,15.043,15.043,0,0,1,8.583,2.734,1.256,1.256,0,1,1-1.429,2.065,12.542,12.542,0,0,0-7.153-2.288,11.971,11.971,0,0,0,0,23.939h43.19a16.825,16.825,0,0,0,0-33.648,16.1,16.1,0,0,0-11.813,4.966,1.255,1.255,0,1,1-1.82-1.729,18.586,18.586,0,0,1,13.633-5.748,19.336,19.336,0,0,1,0,38.67" transform="translate(-116.196 -92.471)" fill="#c01421" stroke="#c01421" stroke-width="1"/>
    <path id="Path_41294" data-name="Path 41294" d="M325.052,49.278A1.256,1.256,0,0,1,323.8,48.1a23.89,23.89,0,0,0-7.814-16.347,23.25,23.25,0,0,0-26.363-3.532,1.255,1.255,0,0,1-1.123-2.246,25.761,25.761,0,0,1,29.173,3.918,26.39,26.39,0,0,1,8.633,18.055,1.255,1.255,0,0,1-1.177,1.33l-.078,0" transform="translate(-225.699 -18.141)" fill="#c01421" stroke="#c01421" stroke-width="1"/>
    <path id="Path_41295" data-name="Path 41295" d="M205.279,12.572a1.256,1.256,0,0,1-1.191-1.653,16.655,16.655,0,0,1,5.067-7.258l.023-.019A15.579,15.579,0,0,1,220.655.333a15.051,15.051,0,0,1,10.22,5.688A1.255,1.255,0,1,1,228.9,7.571a12.559,12.559,0,0,0-8.529-4.742,13.047,13.047,0,0,0-9.6,2.76,14.11,14.11,0,0,0-4.3,6.125,1.256,1.256,0,0,1-1.191.859" transform="translate(-159.996 -0.184)" fill="#c01421" stroke="#c01421" stroke-width="1"/>
    <path id="Path_41296" data-name="Path 41296" d="M145.547,30.079a1.257,1.257,0,0,1-1.217-1.567A14.752,14.752,0,0,1,162.263,17.9a1.255,1.255,0,1,1-.622,2.433,12.243,12.243,0,0,0-14.878,8.8,1.256,1.256,0,0,1-1.215.945" transform="translate(-113.153 -13.673)" fill="#c01421" stroke="#c01421" stroke-width="1"/>
    <path id="Path_41297" data-name="Path 41297" d="M85.582,63.477a1.256,1.256,0,0,1-1.217-.951,12.712,12.712,0,0,1-.2-4.628c0-.014,0-.029.006-.043a13.979,13.979,0,0,1,5.311-9.121A13.386,13.386,0,0,1,99.659,46.08a1.256,1.256,0,0,1-.364,2.485,10.89,10.89,0,0,0-8.281,2.159A11.479,11.479,0,0,0,86.661,58.2a10.321,10.321,0,0,0,.14,3.72,1.257,1.257,0,0,1-1.219,1.56" transform="translate(-65.913 -36.022)" fill="#c01421" stroke="#c01421" stroke-width="1"/>
    <path id="Path_41298" data-name="Path 41298" d="M73.79,129.112a17.927,17.927,0,0,1-17.518-14.587A17.98,17.98,0,0,1,62.217,97.27a1.256,1.256,0,1,1,1.628,1.911,15.5,15.5,0,0,0-5.1,14.882,15.376,15.376,0,0,0,18.1,12.228,1.256,1.256,0,1,1,.5,2.461,17.807,17.807,0,0,1-3.554.36" transform="translate(-43.863 -76.045)" fill="#c01421" stroke="#c01421" stroke-width="1"/>
    <path id="Path_41299" data-name="Path 41299" d="M312.433,302.22a15.419,15.419,0,0,1-15.317-15.485,1.255,1.255,0,0,1,2.511,0,12.807,12.807,0,1,0,25.613,0,1.255,1.255,0,0,1,2.511,0,15.419,15.419,0,0,1-15.317,15.485" transform="translate(-233 -223.875)" fill="#c01421" stroke="#c01421" stroke-width="1"/>
    <path id="Path_41300" data-name="Path 41300" d="M276.854,311.092a4.8,4.8,0,0,1-4.322-2.741l-10.2-21.069a1.255,1.255,0,0,1,2.26-1.094L274.8,307.281q.013.026.024.052a2.315,2.315,0,0,0,2.027,1.248,2.18,2.18,0,0,0,1.716-.828,2.108,2.108,0,0,0,.409-1.82l-1.342-6.037a1.255,1.255,0,1,1,2.451-.544l1.339,6.026a4.627,4.627,0,0,1-.892,3.937,4.679,4.679,0,0,1-3.681,1.776" transform="translate(-205.624 -223.875)" fill="#c01421" stroke="#c01421" stroke-width="1"/>
    <path id="Path_41301" data-name="Path 41301" d="M213.038,177.523a1.256,1.256,0,0,1-1.255-1.255,6.285,6.285,0,0,1,6.277-6.278h27.454a12.891,12.891,0,0,0,12.806-12.806,1.256,1.256,0,0,1,2.511,0A15.4,15.4,0,0,1,245.515,172.5H218.06a3.771,3.771,0,0,0-3.766,3.767,1.256,1.256,0,0,1-1.255,1.255" transform="translate(-166.082 -122.28)" fill="#c01421" stroke="#c01421" stroke-width="1"/>
    <path id="Path_41302" data-name="Path 41302" d="M207.019,208.561h-6.7a5.683,5.683,0,0,1-5.608-5.608,1.256,1.256,0,1,1,2.511,0,3.178,3.178,0,0,0,3.1,3.1h6.7a1.256,1.256,0,0,1,0,2.511" transform="translate(-152.697 -158.172)" fill="#c01421" stroke="#c01421" stroke-width="1"/>
    <path id="Path_41303" data-name="Path 41303" d="M194.027,97.705a1.256,1.256,0,0,1-1.255-1.255,6.13,6.13,0,0,0-6.11-6.278,1.256,1.256,0,1,1,0-2.511,8.614,8.614,0,0,1,8.621,8.789,1.256,1.256,0,0,1-1.255,1.255" transform="translate(-145.397 -68.744)" fill="#c01421" stroke="#c01421" stroke-width="1"/>
    <path id="Path_41304" data-name="Path 41304" d="M221.571,83.713a1.256,1.256,0,0,1-1.255-1.255A14.545,14.545,0,0,1,227.447,70a1.256,1.256,0,0,1,1.306,2.145,12.053,12.053,0,0,0-5.926,10.311,1.256,1.256,0,0,1-1.255,1.255" transform="translate(-172.773 -54.752)" fill="#c01421" stroke="#c01421" stroke-width="1"/>
    <path id="Path_41305" data-name="Path 41305" d="M289.839,190.919a1.256,1.256,0,0,1-1.255-1.255A10.474,10.474,0,0,1,299.046,179.2a1.255,1.255,0,1,1,0,2.511,7.961,7.961,0,0,0-7.952,7.952,1.256,1.256,0,0,1-1.255,1.255" transform="translate(-226.309 -140.531)" fill="#c01421" stroke="#c01421" stroke-width="1"/>
    <path id="Path_41306" data-name="Path 41306" d="M29.029,335.288h-7.2a1.256,1.256,0,0,1-1.253-1.172l-.272-4.086a17.893,17.893,0,0,1-4.02-1.663l-3.009,2.6a1.255,1.255,0,0,1-1.708-.063L6.546,325.88a1.256,1.256,0,0,1-.08-1.688l2.626-3.179a17.906,17.906,0,0,1-1.673-4.041L3.5,316.7a1.256,1.256,0,0,1-1.169-1.253v-7.2A1.256,1.256,0,0,1,3.5,307l4.071-.271A15.973,15.973,0,0,1,9.245,302.7l-2.594-3a1.256,1.256,0,0,1,.062-1.708l5.022-5.022a1.256,1.256,0,0,1,1.708-.062l3.009,2.6a17.892,17.892,0,0,1,4.02-1.663l.272-4.086A1.256,1.256,0,0,1,22,288.582h7.2a1.255,1.255,0,0,1,1.253,1.172l.273,4.086a17.9,17.9,0,0,1,4.02,1.663l3.009-2.6a1.256,1.256,0,0,1,1.708.062l5.022,5.022a1.256,1.256,0,0,1,.08,1.688l-2.626,3.179a17.893,17.893,0,0,1,1.674,4.04l3.921.27a1.256,1.256,0,0,1,1.169,1.253v7.2a1.256,1.256,0,0,1-1.172,1.253l-4.071.271a15.989,15.989,0,0,1-1.674,4.025l2.594,3a1.256,1.256,0,0,1-.062,1.708L39.291,330.9a1.256,1.256,0,0,1-1.708.063l-3.009-2.6a17.893,17.893,0,0,1-4.02,1.663l-.273,4.086a1.255,1.255,0,0,1-1.253,1.172m-6.024-2.511h4.849l.257-3.85a1.256,1.256,0,0,1,1.028-1.152,15.074,15.074,0,0,0,4.935-2.017,1.256,1.256,0,0,1,1.467.126l2.8,2.418,3.372-3.372-2.418-2.8a1.255,1.255,0,0,1-.126-1.467,13.976,13.976,0,0,0,2.014-4.917,1.256,1.256,0,0,1,1.155-1.047l3.85-.257v-4.852l-3.686-.254a1.256,1.256,0,0,1-1.149-1.028,15.081,15.081,0,0,0-2.018-4.936,1.256,1.256,0,0,1,.109-1.446l2.454-2.97-3.39-3.39-2.8,2.418a1.256,1.256,0,0,1-1.467.126,15.083,15.083,0,0,0-4.936-2.017,1.256,1.256,0,0,1-1.028-1.152l-.257-3.85H23.173l-.257,3.85a1.256,1.256,0,0,1-1.028,1.152,15.082,15.082,0,0,0-4.935,2.017,1.256,1.256,0,0,1-1.467-.126l-2.8-2.418L9.314,298.94l2.418,2.8a1.256,1.256,0,0,1,.126,1.467,13.977,13.977,0,0,0-2.014,4.917,1.255,1.255,0,0,1-1.155,1.046l-3.85.257v4.852l3.686.254a1.256,1.256,0,0,1,1.149,1.028,15.082,15.082,0,0,0,2.017,4.936,1.255,1.255,0,0,1-.109,1.446l-2.454,2.97,3.39,3.39,2.8-2.418a1.256,1.256,0,0,1,1.467-.126,15.075,15.075,0,0,0,4.936,2.017,1.256,1.256,0,0,1,1.028,1.152Z" transform="translate(-1.826 -226.308)" fill="#c01421" stroke="#c01421" stroke-width="1"/>
    <path id="Path_41307" data-name="Path 41307" d="M77.832,372.434a8.958,8.958,0,1,1,8.789-8.956,8.884,8.884,0,0,1-8.789,8.956m0-15.4a6.447,6.447,0,1,0,6.278,6.445,6.37,6.37,0,0,0-6.278-6.445" transform="translate(-54.144 -278.018)" fill="#c01421" stroke="#c01421" stroke-width="1"/>
    <path id="Path_41308" data-name="Path 41308" d="M6.444,58.612a1.249,1.249,0,0,1-.68-.2L.575,55.063a1.256,1.256,0,1,1,1.361-2.11L7.126,56.3a1.256,1.256,0,0,1-.682,2.311" transform="translate(0 -41.369)" fill="#c01421" stroke="#c01421" stroke-width="1"/>
    <path id="Path_41309" data-name="Path 41309" d="M16.7,18.122a1.251,1.251,0,0,1-.9-.382l-5.357-5.524a1.255,1.255,0,1,1,1.8-1.748L17.6,15.992a1.256,1.256,0,0,1-.9,2.13" transform="translate(-7.91 -7.91)" fill="#c01421" stroke="#c01421" stroke-width="1"/>
    <path id="Path_41310" data-name="Path 41310" d="M56.581,7.7a1.255,1.255,0,0,1-1.056-.575L52.176,1.936A1.256,1.256,0,0,1,54.286.575l3.348,5.19A1.255,1.255,0,0,1,56.581,7.7" transform="translate(-40.76 0)" fill="#c01421" stroke="#c01421" stroke-width="1"/>
  </g>
</svg>
