<svg xmlns="http://www.w3.org/2000/svg" xmlns:xlink="http://www.w3.org/1999/xlink" width="188" height="173" viewBox="0 0 188 173">
  <defs>
    <clipPath id="clip-path">
      <rect id="Rectangle_11128" data-name="Rectangle 11128" width="111" height="111" transform="translate(-0.321 -0.321)" fill="#fff"/>
    </clipPath>
  </defs>
  <g id="Group_27673" data-name="Group 27673" transform="translate(-745 -5240)">
    <rect id="Rectangle_11100" data-name="Rectangle 11100" width="188" height="173" rx="18" transform="translate(745 5240)" fill="#ed0109"/>
    <g id="Group_27592" data-name="Group 27592" transform="translate(784.32 5271.321)">
      <g id="Group_27591" data-name="Group 27591" clip-path="url(#clip-path)">
        <path id="Path_31626" data-name="Path 31626" d="M74.866,27.074c4.218.273,10.2-1.489,11.152,4.276l.026,16.936A17.172,17.172,0,0,1,97.336,70.024c-.359,1.124-1.867,3.482-1.644,4.381.445,1.794,2.37.88,3.784,1.919a108.676,108.676,0,0,1,9.957,9.958c3.091,4.316-2.135,9.952-6.856,6.856-.424-.278-2.618-2.7-2.769-2.589a5.662,5.662,0,0,1-.783,1.736c-2.914,4.3-20.764,14.266-26.058,16.616-13.03,5.783-22.738,1.346-35.868,2.21-1.355.089-5.21.715-6.3,1.359-.653.387-.059,1.7-.2,2.646a5.448,5.448,0,0,1-1.046,2.235,80.911,80.911,0,0,1-7.007,7,1.526,1.526,0,0,1-1.685.174L.108,103.689c-.263-.826-.016-1.144.448-1.765.806-1.078,6.738-6.915,7.723-7.377,1.584-.745,2.578-.453,4.2-.163l5.474-5.918c1.251-.933,2.293-2.081,3.527-3.038C34.419,75.389,41.953,85,54.935,87.6a62.252,62.252,0,0,0,8.661.75c4.266.3,6.614,2.678,6.559,7.015A231.107,231.107,0,0,0,93.673,84.311a4.549,4.549,0,0,1-1.7-2.458c-.212-.89.271-1.638-.846-2.216-1.347-.7-2.345.49-3.586.951a18.852,18.852,0,0,1-8.833,1.181c-1.731-.174-3.488-1.153-5.051-1.295-9.1-.827-19.445.636-28.678.009a4.884,4.884,0,0,1-4.276-4.915V31.781c.533-6.195,6.789-4.471,11.159-4.707.331-3.423,3.489-3.366,6.15-2.71a5.533,5.533,0,0,1,10.7,0c2.658-.651,5.812-.723,6.15,2.71m-2.854,3.073-.2-2.968c-.75-.526-3.87.974-5.211.394-1.632-.706.125-4.227-3.229-4.228-3.389,0-1.517,3.484-3.228,4.229-1.336.582-4.461-.921-5.212-.4l-.2,2.968ZM44.985,77.418H69.167l-3.155-4.176-1.257-2.79-13.376-.084a1.619,1.619,0,0,1-1.139-2.137,5.979,5.979,0,0,1,.874-.88h12.8a24.2,24.2,0,0,1,0-5.909h-12.8c-1.016,0-1.725-2.616.49-3.012l13.372-.088a19.988,19.988,0,0,1,3.536-5.654H51.332c-1.2,0-1.773-2.725.006-3.059H72.346c2.025-.7,4.834-2.194,7-2.194h3.283c.067,0,.168.277.328.219v-16.3c0-1.994-6.521-.947-7.879-1.2.062,1.237.074,2.817-1.434,3.052-6.479-.42-13.746.6-20.131.023-1.931-.175-1.891-1.407-1.848-3.075C49.4,30.671,44,28.719,43.771,32v43.57a1.91,1.91,0,0,0,1.214,1.85M79.627,50.564A14.385,14.385,0,0,0,67.479,60.3,14.2,14.2,0,0,0,86.132,77.86c2.142-.783,3.085-2.159,5.7-1.331.643.2,1.872,1.379,2.17,1.327.791-.137-.518-1.141-.638-1.328-2.092-3.277.577-5.184,1.3-8.3,2.225-9.572-5.138-18.569-15.038-17.664M97.537,78.747l-2.543,2.5,9.416,9.4a1.865,1.865,0,0,0,2.273-2.928Zm-66.5,5.292c-6.085.766-12.328,7.922-16.123,12.34l13.668,13.653c12.191-5.019,25.763,1.176,38.178-2.087,7.073-1.859,21.882-10.693,27.676-15.437,2.4-1.966,4.711-5.253-.38-4.974-14.788,7.05-31.843,18.566-48.8,11.5-1.149-.479-2.617-1.18-1.706-2.7.894-1.492,3.017-.026,4.3.326,4.453,1.222,13.047,2.511,17.244.428,3.052-1.514,2.386-5.217-1.092-5.639-3.553-.431-6.624-.222-10.373-1.007-6.85-1.435-16.218-7.2-22.592-6.4M10.022,97.151c-1.2.25-4.973,5.054-6.284,5.98l17.832,17.832c.952-1.3,5.889-5.224,6.017-6.472a1.53,1.53,0,0,0-.165-.909L11.616,97.656a1.625,1.625,0,0,0-1.595-.5" transform="translate(0 -14.341)" fill="#fff"/>
        <path id="Path_31627" data-name="Path 31627" d="M29.06,3.947a10.419,10.419,0,0,0,2.209.661c1.2-.2,1.761-2,3.67-1.4A26.725,26.725,0,0,1,39.7,8.1c.35,1.416-1.7,2.926-1.664,3.624a7.617,7.617,0,0,0,.927,1.915c.892.643,2.872.018,3.576,1.457.457.934.435,6.13-.076,7.045-.651,1.167-3.293.835-3.617,1.248a8.824,8.824,0,0,0-.8,2.126c.139.858,2.032,2.052,1.607,3.435a55.445,55.445,0,0,1-4.729,4.912c-1.283.59-2.537-.92-3.568-1.476l-2.286.766c-.326,1.056-.239,3.22-1.419,3.723a29.477,29.477,0,0,1-6.348.113c-1.819-.322-1.4-2.135-1.792-3.466-.14-.472-1.791-1.249-2.2-1.209-.839.082-2.014,2.081-3.62,1.57A46.14,46.14,0,0,1,9.1,29.487c-1.283-1.934,1.481-2.987,1.276-4.325a7.337,7.337,0,0,0-.845-1.8c-1.22-.837-3.488.374-3.723-2.186a41.632,41.632,0,0,1,.056-6.092c.387-1.329,3.4-.987,3.842-1.522a10.654,10.654,0,0,0,.674-1.977c-.151-.94-1.989-2.179-1.63-3.446a53.846,53.846,0,0,1,4.731-4.914c1.771-.81,2.949,1.585,4.206,1.382a14.67,14.67,0,0,0,1.649-.673c.57-.673.022-3.128,1.419-3.723A32.008,32.008,0,0,1,27.7.165c1.339.555.917,3.277,1.36,3.782M39.5,16.923c-1.024-.288-2.448-.193-3.092-1.175a35.251,35.251,0,0,1-1.692-4.231c-.034-.959,1.125-1.956,1.471-2.825-.52-.463-1.772-2.2-2.411-2.046-1.13.676-1.606,1.5-3.066,1.23a22.247,22.247,0,0,1-4.2-1.924c-.523-.627-.388-2.479-.757-2.744L22.806,3.1c-.268.073-.435,2.134-.7,2.624-.362.677-4.214,2.24-5.022,2.226-1.125-.02-2.17-1.471-2.8-1.312-3.187,2.409-1.3,2.112-.692,4.125.271.9-1.123,4.587-1.743,5.279-.686.766-2.029.583-2.948.881l-.022,3.258c1.2.077,2.541.108,3.249,1.237a24.582,24.582,0,0,1,1.578,4.138c.029,1.117-1.471,2.134-1.3,2.788l1.943,2.024c.359.163,1.828-1.2,2.411-1.341.668-.165,4.514,1.425,5.048,1.973.691.711.6,2.025.883,2.946.669-.079,3,.348,3.225-.342.377-1.134-.161-2.1,1.193-2.965a34.19,34.19,0,0,1,4.209-1.68l2.624,1.456,2.2-2.136c-.382-1.148-1.607-1.746-1.349-3.072a22.777,22.777,0,0,1,1.877-4.264c.636-.67,1.966-.692,2.848-.763Z" transform="translate(-4.057 0)" fill="#fff"/>
        <path id="Path_31628" data-name="Path 31628" d="M173.445,89.673c7.247.424,15.575-.769,22.7-.055,2.7.27,2.746,2.822.664,3.065H173.164c-2.146-.24-1.758-2.953.281-3.01" transform="translate(-121.618 -63.303)" fill="#fff"/>
        <path id="Path_31629" data-name="Path 31629" d="M245.543,129.232A12.663,12.663,0,0,1,257.5,148.626c-5.178,8.184-17.726,7.492-21.949-1.212a12.722,12.722,0,0,1,10-18.183m.216,3.061c-11.313,1.312-10.8,17.921-.278,18.976,14.765,1.48,13.907-20.557.278-18.976" transform="translate(-165.916 -91.476)" fill="#fff"/>
        <path id="Path_31630" data-name="Path 31630" d="M43.119,28.631C57.443,26.889,58.931,47.6,45.876,48.895c-13.568,1.35-15.215-18.749-2.757-20.264m.215,3.06c-7.7,1.126-7.639,13.549.821,14.163,10.4.755,10.155-15.768-.821-14.163" transform="translate(-24.553 -20.203)" fill="#fff"/>
      </g>
    </g>
  </g>
</svg>
