<svg id="Group_27600" data-name="Group 27600" xmlns="http://www.w3.org/2000/svg" xmlns:xlink="http://www.w3.org/1999/xlink" width="110.39" height="110" viewBox="0 0 110.39 110">
  <defs>
    <clipPath id="clip-path">
      <rect id="Rectangle_11132" data-name="Rectangle 11132" width="110.39" height="110" fill="#ed0109"/>
    </clipPath>
  </defs>
  <g id="Group_27599" data-name="Group 27599" clip-path="url(#clip-path)">
    <path id="Path_31647" data-name="Path 31647" d="M35.4,83.116a11.853,11.853,0,0,0-1.671,1.554A63.239,63.239,0,0,0,29.08,89.8c-1.678,3.156-2.051,8.8-3.947,12.067-2.785,4.8-10.106,2.375-9.744-3.294a15.568,15.568,0,0,1,.328-1.674c.491-2.664,2.021-9.472,3.455-11.447A158.249,158.249,0,0,1,30.4,72.438c4.721-4.986,6.97-3.592,13.116-3.324,3.847.168,10.435-.235,13.771,1.353,3.28,1.561,7.806,7.237,10.989,7.489,2.562.2,6.321-2.451,9-2.123a4.9,4.9,0,0,1,1.662,9.109,60.251,60.251,0,0,1-7.943,2.733c-6.785,1.681-9.7-1.143-14.9-4.78l-.351,11.8c5.524,1.772,12.386,1.715,15.067,7.84a21.434,21.434,0,0,1,.85,2.486v15.9h6.228V105.691a1.816,1.816,0,0,1,1.663-1.451l29.372,0c2.308.288,1.455,3.346.436,3.346H81.442v15.68c0,.345-1.194,1.223-1.446,1.223H54.753v14.79c0,.405-1.241,1.446-1.668,1.446h-24.8v15.458c0,.422-1.117,1.36-1.663,1.228L1.5,157.389c-2.289-.364-1.678-3.546-.012-3.546H24.727V138.831c0-.359.778-1.668,1.223-1.668h8.34c-.32-.873-1.036-1.443-1.236-2.434a10.47,10.47,0,0,1-.107-2.358c.35-10.368,2.755-21.4,3.277-31.843a26.127,26.127,0,0,1-.822-2.622Zm28.469,27.245v11.009h4.559l.334-.334V107.026c0-7.164-9.907-7.13-14.728-8.849-2.217-.79-1.292-2.318-1.276-4.042.032-3.524.05-6.965.211-10.465.075-1.637-.77-6.257,2.237-5.344C58.881,80.3,62.729,85,67.09,85.13c3.489.1,7.3-2.269,10.636-3.114a1.537,1.537,0,0,0-.629-2.459c-1.412-.264-5.507,1.764-7.355,1.977-6.689.773-9.58-6.452-15.2-8.328-5.256,0-11.9-1.459-17.035-1a7.081,7.081,0,0,0-3.293,1.377L21.747,88.032A86.4,86.4,0,0,0,18.77,98.86a1.855,1.855,0,0,0,3.294,1.5l4.567-12.781c3.339-2.754,6.475-7.668,9.873-10.143,1.253-.913,2.28-.223,2.667,1.133.469,6.051-.586,12.94.015,18.89a6,6,0,0,0,4.219,5.122c5.142,1.543,12.254,1.786,17.06,3.624a5.8,5.8,0,0,1,3.406,4.156m-18.262-3.868c-2.116-.61-4.347-.982-6.2-2.249l-2.914,29.026a2.455,2.455,0,0,0,4.85.6Zm-2.2,30.891h7.784V122.372c0-.225.675-.945.954-1.063.647-.275.736.062.937.062h7.006V110.362c0-.469-1.087-1.017-1.508-1.159-2.86-.963-6.462-1.129-9.387-2.067L44.906,134.1Z" transform="translate(0 -48.349)" fill="#ed0109"/>
    <path id="Path_31648" data-name="Path 31648" d="M308.372,223.641v38.366c0,1.056-3.336,1.324-3.336-.222V223.641c-1.111.216-1.881,2.154-3.019,2.223a1.764,1.764,0,0,1-1.836-2.059c.249-1.206,4.744-4.652,5.621-5.958a1.728,1.728,0,0,1,1.8,0c.877,1.306,5.371,4.751,5.621,5.957a1.706,1.706,0,0,1-1.63,2.073c-1.374,0-1.993-1.932-3.225-2.236" transform="translate(-211.139 -153.066)" fill="#ed0109"/>
    <path id="Path_31649" data-name="Path 31649" d="M133.216.128c13.9-1.882,14.951,17.485,3.666,19.013C123.116,21,121.837,1.668,133.216.128m.889,3.338c-8.57,1.221-5.742,14.867,2.939,12.057,7.031-2.276,4.621-13.134-2.939-12.057" transform="translate(-88.303 0)" fill="#ed0109"/>
    <path id="Path_31650" data-name="Path 31650" d="M216.013,274.039v23.242a5.72,5.72,0,0,1-.593,1.019c-1.012.649-2.966.038-2.966-1.241v-23.02c-1.06.584-1.711,2.252-3,2.25a1.729,1.729,0,0,1-1.622-2.316,67.959,67.959,0,0,1,5.287-5.387c1.13-.856,1.609-.607,2.678.221a41.878,41.878,0,0,1,4.337,4.337c1.2,1.545.754,3.332-1.343,3.139-1.044-.1-1.839-1.755-2.777-2.244" transform="translate(-146.136 -188.562)" fill="#ed0109"/>
    <path id="Path_31651" data-name="Path 31651" d="M130.534,327.173v7.451a5.731,5.731,0,0,1-.593,1.019c-1.012.649-2.966.038-2.966-1.241v-7.228c-1.262.777-1.956,2.77-3.723,2.055-1.341-.542-1.138-1.949-.4-2.949a45.737,45.737,0,0,1,4.559-4.56,1.864,1.864,0,0,1,2.018-.453,63.6,63.6,0,0,1,5.446,5.229,1.7,1.7,0,0,1-.622,2.732c-1.733.741-2.486-1.3-3.723-2.055" transform="translate(-86.012 -225.905)" fill="#ed0109"/>
  </g>
</svg>
