<svg xmlns="http://www.w3.org/2000/svg" xmlns:xlink="http://www.w3.org/1999/xlink" width="188" height="173" viewBox="0 0 188 173">
  <defs>
    <clipPath id="clip-path">
      <rect id="Rectangle_11150" data-name="Rectangle 11150" width="109.966" height="110" fill="#f9f9f9"/>
    </clipPath>
  </defs>
  <g id="Group_27662" data-name="Group 27662" transform="translate(-724 -4632)">
    <rect id="Rectangle_11102" data-name="Rectangle 11102" width="188" height="173" rx="18" transform="translate(724 4632)" fill="#75a334"/>
    <g id="Group_27632" data-name="Group 27632" transform="translate(763 4664)">
      <g id="Group_27631" data-name="Group 27631" clip-path="url(#clip-path)">
        <path id="Path_31748" data-name="Path 31748" d="M101.816,44.669a2.328,2.328,0,0,1-.467-1.54c.22-2.1,2.8-6,2.856-8.051.031-1.054-1.622-4.705-1.783-6.647C101.5,17.242,111.2,6.857,122.483,7.483c1.5.083,3.659.884,4.88.884.916,0,2.425-.595,3.539-.673a19.227,19.227,0,0,1,20,23.552c-.27,1.238-1.59,3.946-1.647,4.539-.115,1.186,2.061,6.09,2.329,7.779.354,2.231-.626,2.681-2.694,2.474-2.119-.213-6.219-2-8.014-1.945-1.349.041-4.857,1.781-7.091,1.965-3.171.261-4.981-.656-7.564-.812-.835-.05-2.521.52-3.522.591a19.7,19.7,0,0,1-6.929-.826c-.846-.249-3.41-1.576-3.718-1.605-1.843-.177-6.461,1.661-8.676,1.756a2.6,2.6,0,0,1-1.565-.493m3.93-3.486,6.967-1.33c13.61,8.866,30.2-5.633,22.6-20.371-7.812-15.164-31.224-8.416-29.545,8.924.237,2.444,1.367,3.784,1.862,5.675.547,2.093-1.444,5.03-1.889,7.1m41.461.887c.226-.218-1.551-5.1-1.568-6.1-.022-1.246,1.082-2.77,1.5-4.055a15.6,15.6,0,0,0-14.126-20.665c7.536,6.071,10.025,16.394,5.138,24.98a23.8,23.8,0,0,1-6.024,6.5c3.021.155,5.779-1.163,8.533-2.181Z" transform="translate(-71.382 -5.252)" fill="#f9f9f9"/>
        <path id="Path_31749" data-name="Path 31749" d="M248.713,205.711c1.373.041,1.36,1.027,2.069,1.8,2.291,2.507,4.056,3.709,6.879.9.824-.82,1.557-2.618,2.811-2.734a14.725,14.725,0,0,1,4.331.892c6.935,2.551,9.621,9.476,8.816,16.47-.143,1.242-.736,1.407-1.778,1.77-8.433,2.942-23.707,2.968-32.414,1.148-1.443-.3-3.306-.247-3.512-2.031a27.033,27.033,0,0,1,.607-8.937c1.527-4.914,6.87-9.439,12.19-9.283m21.332,15.865c.381-3.794-.532-7.556-3.523-10.07-1.066-.9-4.147-2.7-5.452-1.9-.338.208-.693.992-1.082,1.355-3.286,3.071-6.866,3.356-10.323.325-1.91-1.674-1.157-2.54-4.206-1.329-5.094,2.023-6.755,7.41-6.211,12.521a69.437,69.437,0,0,0,30.8-.906" transform="translate(-166.082 -144.868)" fill="#f9f9f9"/>
        <path id="Path_31750" data-name="Path 31750" d="M134.679,291.236c1.642.092,1.891,1.823,3.005,2.856,2.116,1.96,3.99,1.827,5.981-.2.828-.841,1.483-2.61,2.812-2.734,2.065-.192,5.649,1.34,7.353,2.527,4.887,3.4,6.458,9.067,5.794,14.836-.143,1.242-.736,1.407-1.777,1.77-8.242,2.875-22.76,2.918-31.306,1.37-1.181-.214-4.357-.481-4.61-1.82a44.881,44.881,0,0,1,0-6.864c.542-5.9,6.656-12.086,12.75-11.745m-.6,3.7c-.707-.413-3.072.687-3.791,1.1-4.388,2.55-5.441,7.119-5.031,11.927a68.891,68.891,0,0,0,30.8-.906c.724-4.994-2.076-10.944-7.326-12.029-2.1-.434-1.583.347-2.73,1.418-3.439,3.213-6.881,3.285-10.437.217-.4-.347-1.382-1.674-1.481-1.732" transform="translate(-85.789 -205.074)" fill="#f9f9f9"/>
        <path id="Path_31751" data-name="Path 31751" d="M22.036,206.137c.474.408,1.118,1.829,1.83,2.491,1.506,1.4,3.069,1.879,4.869.646,1.224-.838,2.631-3.474,3.945-3.6a14.565,14.565,0,0,1,4.931,1.179c6.53,2.778,8.772,9.463,7.995,16.183-.233,2.014-3.99,2.344-5.724,2.7a74.742,74.742,0,0,1-27.138.438c-2.028-.367-4.559-.263-4.837-2.7-.746-6.552,1.5-13.671,7.83-16.56,1.341-.611,5.138-1.781,6.3-.782m20.216,15.436c.469-4.807-1.478-9.787-6.19-11.616-3.32-1.288-2.72.039-4.871,1.773-2.934,2.364-6.09,2.205-8.978-.118-1.685-1.356-1.54-2.748-4.1-1.874-5.426,1.853-7.315,7.418-6.656,12.741a69.209,69.209,0,0,0,30.8-.906" transform="translate(-5.472 -144.865)" fill="#f9f9f9"/>
        <path id="Path_31752" data-name="Path 31752" d="M47.335,131.306c13.172-1.45,14.576,17.2,3.88,20.953-12.354,4.335-18.938-19.3-3.88-20.953m-.23,3.539a6.634,6.634,0,0,0-4.334,3.205c-3.051,5.438,3.376,14.763,9.153,9.818,5.509-4.715,3.236-14.283-4.819-13.023" transform="translate(-27.212 -92.431)" fill="#f9f9f9"/>
        <path id="Path_31753" data-name="Path 31753" d="M275.4,131.314c12.45-1.374,14.833,16.022,4.681,20.645-12.555,5.718-20.2-18.933-4.681-20.645m-.23,3.539a6.554,6.554,0,0,0-5.023,5.176c-.923,6.992,7.049,13.405,11.549,5.784,3.248-5.5.189-12.01-6.525-10.96" transform="translate(-187.872 -92.438)" fill="#f9f9f9"/>
        <path id="Path_31754" data-name="Path 31754" d="M161.442,216.8c12.134-1.407,14.87,15.606,5,20.52-12.766,6.355-20.6-18.711-5-20.52m-.23,3.539a6.554,6.554,0,0,0-5.023,5.176c-.921,6.973,6.846,13.394,11.472,5.928,3.37-5.439.331-12.165-6.448-11.1" transform="translate(-107.616 -152.65)" fill="#f9f9f9"/>
        <path id="Path_31755" data-name="Path 31755" d="M3.321,308.9H29.374a6,6,0,0,1,.882.89,1.758,1.758,0,0,1-1.108,2.431l-27.5.015a1.448,1.448,0,0,1-1.555-.884L0,288.4a1.758,1.758,0,0,1,2.431-1.108,6,6,0,0,1,.89.882Z" transform="translate(0 -202.243)" fill="#f9f9f9"/>
        <path id="Path_31756" data-name="Path 31756" d="M296.314,288.345c.378-1.33,2.963-1.337,3.32.227l-.092,22.956a1.448,1.448,0,0,1-1.555.884l-27.5-.015c-1.872-.357-1.273-3.321-.226-3.321h26.053Z" transform="translate(-189.668 -202.414)" fill="#f9f9f9"/>
        <path id="Path_31757" data-name="Path 31757" d="M3.323,3.337V24.068a5.984,5.984,0,0,1-.891.883A1.852,1.852,0,0,1,0,23.841L.1.885A1.448,1.448,0,0,1,1.65,0l27.5.015a1.758,1.758,0,0,1,1.108,2.431,6,6,0,0,1-.882.89Z" transform="translate(-0.002 0.001)" fill="#f9f9f9"/>
        <path id="Path_31758" data-name="Path 31758" d="M296.171,3.337H270.118a6,6,0,0,1-.882-.89A1.758,1.758,0,0,1,270.345.015L297.845,0A1.449,1.449,0,0,1,299.4.885l.092,22.956a1.852,1.852,0,0,1-2.43,1.11,5.984,5.984,0,0,1-.891-.883Z" transform="translate(-189.525 0.001)" fill="#f9f9f9"/>
        <path id="Path_31759" data-name="Path 31759" d="M133.98,81.138a3.1,3.1,0,0,1,1.374-.512c4.93.413,10.7-.533,15.526.006,2.636.295,2.355,3.234.43,3.534-5.107-.411-11.19.595-16.178.018a1.8,1.8,0,0,1-1.152-3.047" transform="translate(-94.012 -56.674)" fill="#f9f9f9"/>
        <path id="Path_31760" data-name="Path 31760" d="M157.459,52.673a1.778,1.778,0,0,1-1.178,3.022,55.851,55.851,0,0,1-8.834.006c-2.123-.3-2.1-3.183.227-3.513a54.243,54.243,0,0,1,8.41-.026,3.1,3.1,0,0,1,1.374.512" transform="translate(-102.76 -36.635)" fill="#f9f9f9"/>
      </g>
    </g>
  </g>
</svg>
