<svg xmlns="http://www.w3.org/2000/svg" width="188" height="173" viewBox="0 0 188 173">
  <g id="Group_27655" data-name="Group 27655" transform="translate(-893 -4136)">
    <rect id="Rectangle_11100" data-name="Rectangle 11100" width="188" height="173" rx="18" transform="translate(893 4136)" fill="#013761"/>
    <g id="book_11834587" transform="translate(936.655 4170.688)">
      <path id="Path_31603" data-name="Path 31603" d="M64.033,10.752A1.752,1.752,0,0,0,62.281,9H18.919a1.752,1.752,0,0,0-1.752,1.752V25.863a1.752,1.752,0,0,0,1.752,1.752H62.281a1.752,1.752,0,0,0,1.752-1.752Zm-3.5,13.359H20.671V12.5H60.529Z" transform="translate(9.024 6.016)" fill="#fff" stroke="#fff" stroke-width="1"/>
      <path id="Path_31604" data-name="Path 31604" d="M64.033,24.377a1.752,1.752,0,0,0-1.752-1.752H18.919a1.752,1.752,0,1,0,0,3.5H62.281A1.752,1.752,0,0,0,64.033,24.377Z" transform="translate(9.024 16.262)" fill="#fff" stroke="#fff" stroke-width="1"/>
      <path id="Path_31605" data-name="Path 31605" d="M28.763,27.625a1.752,1.752,0,1,0,0,3.5h8.869a1.752,1.752,0,1,0,0-3.5Z" transform="translate(16.426 20.022)" fill="#fff" stroke="#fff" stroke-width="1"/>
      <path id="Path_31606" data-name="Path 31606" d="M46.043,35.209a15,15,0,1,0,15,15A15.018,15.018,0,0,0,46.043,35.209Zm0,26.5a11.5,11.5,0,1,1,11.5-11.5A11.511,11.511,0,0,1,46.043,61.708Z" transform="translate(19.458 25.725)" fill="#fff" stroke="#fff" stroke-width="1"/>
      <path id="Path_31607" data-name="Path 31607" d="M42.695,92.1H20.935V4.5H67.8A10.523,10.523,0,0,1,78.313,15.016v35.83a1.752,1.752,0,0,0,3.5,0V15.016A14.032,14.032,0,0,0,67.8,1H12.175A7.015,7.015,0,0,0,5.167,8.008V88.6a7.015,7.015,0,0,0,7.008,7.008h30.52a1.752,1.752,0,0,0,0-3.5ZM8.671,63.853h8.76v7.884H8.671ZM12.175,4.5h5.256V60.349H8.671V8.008A3.508,3.508,0,0,1,12.175,4.5Zm0,87.6a3.508,3.508,0,0,1-3.5-3.5V75.241h8.76V92.1Z" transform="translate(0 0)" fill="#fff" stroke="#fff" stroke-width="1"/>
      <path id="Path_31608" data-name="Path 31608" d="M81.439,75.7,70.8,65.06a23.8,23.8,0,1,0-9.91,9.91L71.529,85.606a7.007,7.007,0,0,0,9.91-9.91ZM29.546,53.97A20.257,20.257,0,1,1,49.8,74.228,20.28,20.28,0,0,1,29.546,53.97ZM78.961,83.128a3.586,3.586,0,0,1-4.955,0L63.919,73.041a23.916,23.916,0,0,0,4.955-4.955L78.961,78.173a3.5,3.5,0,0,1,0,4.955Z" transform="translate(15.698 21.965)" fill="#fff" stroke="#fff" stroke-width="1"/>
    </g>
  </g>
</svg>
