<svg xmlns="http://www.w3.org/2000/svg" xmlns:xlink="http://www.w3.org/1999/xlink" width="188" height="173" viewBox="0 0 188 173">
  <defs>
    <clipPath id="clip-path">
      <rect id="Rectangle_11147" data-name="Rectangle 11147" width="96.824" height="97" fill="#fbfbfb"/>
    </clipPath>
  </defs>
  <g id="Group_27665" data-name="Group 27665" transform="translate(-550 -3895)">
    <rect id="Rectangle_8351" data-name="Rectangle 8351" width="188" height="173" rx="18" transform="translate(550 3895)" fill="#75a334"/>
    <g id="Group_27626" data-name="Group 27626" transform="translate(596 3933)">
      <g id="Group_27625" data-name="Group 27625" clip-path="url(#clip-path)">
        <path id="Path_31725" data-name="Path 31725" d="M8.737,17.081c.163-.757,1.122-1.208,1.838-1.273,3.9-.355,9.421.126,13.423.4,1.227.084,5.259.839,6.082.44a.728.728,0,0,0,.327-.255c.111-.17,1.451-3.6,1.464-3.8.1-1.564-2.184-2.358-.489-4.559a34.751,34.751,0,0,1,3.5-3.5c1.662-1.177,2.8.27,4.442.736l3.815-1.617c.989-1.387.541-3.408,2.623-3.6A34.053,34.053,0,0,1,51.85.215c.955.407,1.171,2.506,1.7,3.352l3.919,1.708c1.566-.376,2.731-1.868,4.334-.823a36.455,36.455,0,0,1,3.61,3.583c1.463,1.9-.08,2.626-.489,4.559l1.792,4.065a3,3,0,0,0,1.215.132c6.014-.257,12.224-1.538,18.291-.985.617.056,1.838.613,1.838,1.273v4.18c2.274.215,5.07-.3,7.278.012A1.585,1.585,0,0,1,96.8,22.732L96.824,90.2a1.67,1.67,0,0,1-1.85,1.651l-38.215-.011a4.683,4.683,0,0,1-3.171,4.7c-1.578.578-6.738.5-8.6.361a5.061,5.061,0,0,1-4.951-5.062l-38.213.009A1.8,1.8,0,0,1,.1,90.858L0,22.732a1.585,1.585,0,0,1,1.459-1.459c2.208-.308,5,.2,7.278-.012.176-1.206-.239-3.069,0-4.18M50.127,3.2H46.671c-.335.958-.592,2.508-1.478,3.09a19.615,19.615,0,0,1-2.623.877c-.97.414-2.595,1.578-3.55,1.417a18.217,18.217,0,0,1-2.419-1.1L34.232,9.733c-.13.5,1.125,2.264,1.085,3.04a28.455,28.455,0,0,1-1.651,3.573c-.413.977-.24,1.931-1.221,2.667-.687.515-2.383.644-2.516,1.372a21.474,21.474,0,0,0,.033,2.982c.669.425,2.282.68,2.778,1.206a17.941,17.941,0,0,1,1.238,3.233,19.462,19.462,0,0,1,1.261,2.63c.227,1.176-1.382,2.77-.853,3.565a19.436,19.436,0,0,0,1.9,1.811c.8.219,1.823-.752,2.529-.9,1.373-.287,1.78.517,2.836.965s3.544.991,4.067,1.765c.445.659.675,2.533,1.413,2.67a12,12,0,0,0,2.823-.094c.587-.717.717-2.309,1.368-2.909.454-.418,2.972-1.075,3.817-1.433,1.05-.446,1.469-1.255,2.836-.966.591.125,1.607.9,2.2.932.671.041,1.872-1.586,2.387-2.085.149-.582-1.143-2.244-1.038-3.2a17.634,17.634,0,0,1,1.348-2.895c.347-.823.768-2.849,1.39-3.276s2.473-.6,2.6-1.284a13.875,13.875,0,0,0-.1-3.019c-.644-.491-1.5-.514-2.182-.929-1.26-.767-1.023-1.785-1.518-2.954-.395-.932-1.7-3.042-1.525-3.845.186-.841,1.272-2.17.86-2.872a20.819,20.819,0,0,0-2.083-2c-.893.216-2.159,1.223-3.064,1.135a21.556,21.556,0,0,1-3.036-1.454c-1.223-.528-2.65-.442-3.342-1.713a17.566,17.566,0,0,1-.76-2.253m-23.309,16.5-14.971-.778V80.949c3.977.281,7.975.215,11.956.584,7.881.73,15.844,2.336,23.04,5.637V43.425c-2.7.411-2.72-1.8-3.7-3.592C42.1,39.607,39.8,38.113,38.919,38.3c-1.119.239-2.368,1.612-3.654.857-.744-1.143-4.134-3.6-4.474-4.667-.358-1.125.833-2.2.889-3.314A127.563,127.563,0,0,0,18.178,30a1.569,1.569,0,0,1,0-3.088,32.81,32.81,0,0,1,5.43.185c2.368.171,4.729.623,7.1.774.132-1.472-3.888-1.854-3.888-2.817Zm58.133-.778-14.971.778v5.347c0,.963-4.021,1.345-3.888,2.817,2.37-.151,4.731-.6,7.1-.774a32.81,32.81,0,0,1,5.43-.185,1.569,1.569,0,0,1,0,3.088,127.563,127.563,0,0,0-13.5,1.179c.055,1.117,1.247,2.189.889,3.314-.34,1.068-3.73,3.523-4.474,4.667-1.479.853-3.119-1.134-4.195-.9l-3.686,1.572c-.979,1.788-1,4-3.7,3.592V87.171a65.425,65.425,0,0,1,19.567-5.222c5.124-.638,10.273-.766,15.429-1ZM8.737,24.372H3.1V88.726H42.08a2.982,2.982,0,0,1,.684.482c.977,1.132-.447,3.74,1.6,4.423a40.091,40.091,0,0,0,7.245.158c3-.281,1.534-2.288,2.214-4.008a3.678,3.678,0,0,1,.889-1.055H93.7V24.372H88.062V82.8c0,.548-.714,1.167-1.275,1.252-2.538.387-5.41.061-7.968.2-9.142.49-18.589,1.766-26.989,5.479-1.044.461-2.483,1.578-3.529,1.544-.878-.028-2.4-1.132-3.331-1.544-8.414-3.72-17.835-4.989-26.989-5.479-2.558-.137-5.429.188-7.968-.2-.561-.085-1.275-.7-1.275-1.252Z" transform="translate(0 0)" fill="#fbfbfb"/>
        <path id="Path_31726" data-name="Path 31726" d="M236.467,148.292c-.767.7-4.778.529-6.061.648a97.244,97.244,0,0,0-16.924,3.084c-1.867-.376-2.067-2.412-.247-3.146,4.526-1.824,14.906-3.107,19.883-3.254a14.236,14.236,0,0,1,2.688.05,1.569,1.569,0,0,1,.661,2.618" transform="translate(-157.021 -107.845)" fill="#fbfbfb"/>
        <path id="Path_31727" data-name="Path 31727" d="M236.56,190.284c-.66.662-4.847.524-6.068.64a89.838,89.838,0,0,0-16.729,3.12c-1.848.062-2.492-2.322-.243-3.177,4.85-1.843,14.445-3.1,19.684-3.258,1.464-.043,4.1-.383,3.761,1.805a3.094,3.094,0,0,1-.4.87" transform="translate(-157.107 -138.941)" fill="#fbfbfb"/>
        <path id="Path_31728" data-name="Path 31728" d="M232.307,271.7c.9-.045,3.395-.256,4.039.124a1.542,1.542,0,0,1,.1,2.455c-.85.725-4.582.536-5.94.67a102.756,102.756,0,0,0-11.766,1.844c-1.3.284-4.826,1.583-5.827,1.164a1.636,1.636,0,0,1-.383-2.513,10.031,10.031,0,0,1,2.865-1.024,79.747,79.747,0,0,1,16.917-2.72" transform="translate(-157.117 -201.196)" fill="#fbfbfb"/>
        <path id="Path_31729" data-name="Path 31729" d="M232.528,229.66a21.388,21.388,0,0,1,3.258-.067,1.493,1.493,0,0,1,.682,2.646c-.848.723-4.584.538-5.94.67a100.181,100.181,0,0,0-10.989,1.649c-1.506.319-4.47,1.438-5.743,1.468a1.512,1.512,0,0,1-1.6-2.008c.242-1.061,1.54-1.175,2.444-1.444a80.6,80.6,0,0,1,17.889-2.915" transform="translate(-157.144 -170.04)" fill="#fbfbfb"/>
        <path id="Path_31730" data-name="Path 31730" d="M66.2,229.648a16.606,16.606,0,0,1,3.079-.048,86.747,86.747,0,0,1,13.9,1.853,36.947,36.947,0,0,1,6.165,1.612,1.642,1.642,0,0,1,.051,2.857c-.916.386-5.287-1.078-6.6-1.358A99.673,99.673,0,0,0,71.8,232.915c-1.355-.132-5.093.053-5.94-.67a1.555,1.555,0,0,1,.343-2.6" transform="translate(-48.384 -170.045)" fill="#fbfbfb"/>
        <path id="Path_31731" data-name="Path 31731" d="M65.669,148.284a3.1,3.1,0,0,1-.4-.87c-.342-2.188,2.3-1.849,3.761-1.805,4.989.147,15.344,1.424,19.883,3.254,1.82.733,1.62,2.77-.247,3.146a97.27,97.27,0,0,0-16.924-3.084c-1.216-.112-5.392.037-6.068-.64" transform="translate(-48.323 -107.829)" fill="#fbfbfb"/>
        <path id="Path_31732" data-name="Path 31732" d="M66.375,187.674a14.215,14.215,0,0,1,2.688-.05,84.834,84.834,0,0,1,14.09,1.852,33.667,33.667,0,0,1,6.161,1.616,1.566,1.566,0,0,1-.81,2.966c-1.166-.04-4.287-1.165-5.74-1.471a97.05,97.05,0,0,0-10.989-1.649c-1.446-.134-3.943.047-5.207-.237-1.521-.342-1.818-2.666-.194-3.028" transform="translate(-48.361 -138.957)" fill="#fbfbfb"/>
        <path id="Path_31733" data-name="Path 31733" d="M66.2,271.64a18.059,18.059,0,0,1,3.273-.048,85.617,85.617,0,0,1,14.479,2.047c1.27.289,4.636.988,5.583,1.61a1.574,1.574,0,0,1-.145,2.664c-1,.419-4.528-.879-5.827-1.163A102.317,102.317,0,0,0,71.8,274.906c-1.361-.135-5.108.041-5.941-.67a1.555,1.555,0,0,1,.343-2.6" transform="translate(-48.384 -201.15)" fill="#fbfbfb"/>
        <path id="Path_31734" data-name="Path 31734" d="M153.74,41.356c16.735-2.1,16.782,23.291.731,21.917-12.962-1.109-13.028-20.376-.731-21.917m.389,3.111c-9.646,1.313-8.033,16.909,2.456,15.677,9.943-1.168,8.79-17.208-2.456-15.677" transform="translate(-107.138 -30.544)" fill="#fbfbfb"/>
      </g>
    </g>
  </g>
</svg>
