<svg xmlns="http://www.w3.org/2000/svg" xmlns:xlink="http://www.w3.org/1999/xlink" width="188" height="173" viewBox="0 0 188 173">
  <defs>
    <clipPath id="clip-path">
      <rect id="Rectangle_11127" data-name="Rectangle 11127" width="105.788" height="97" fill="#fff"/>
    </clipPath>
  </defs>
  <g id="Group_27674" data-name="Group 27674" transform="translate(-555 -4999)">
    <rect id="Rectangle_8351" data-name="Rectangle 8351" width="188" height="173" rx="18" transform="translate(555 4999)" fill="#ed0109"/>
    <g id="Group_27590" data-name="Group 27590" transform="translate(596 5037)">
      <g id="Group_27589" data-name="Group 27589" clip-path="url(#clip-path)">
        <path id="Path_31620" data-name="Path 31620" d="M.134,260.106a15.03,15.03,0,0,1,11.036-12.36c3.868-.93,15.638-.823,19.3.652,2.419.974,4.08,2.59,5.994,4.267a15.138,15.138,0,0,1,10.114-5.355c3.561-.263,12.131-.371,15.352.525a15.388,15.388,0,0,1,7.343,4.83c1.933-1.708,3.538-3.279,5.994-4.267,3.611-1.453,15.124-1.574,18.973-.738a14.714,14.714,0,0,1,11.372,13.57c.154,2.474.347,9.288-.1,11.469a4.423,4.423,0,0,1-4.341,3.285c-32.724-.165-65.516.347-98.2-.258C1.417,275.233.751,274.1.134,272.688c.314-4.008-.421-8.652,0-12.581M4.151,273.1c1.1.188,2.649-.138,3.811,0V261.86c0-1.325,2.884-1.325,2.884,0V273.1H28.767V261.86c0-1.325,2.884-1.325,2.884,0V273.1H33.3a102.3,102.3,0,0,1-.2-11.238,16.673,16.673,0,0,1,1.574-6.394,11.77,11.77,0,0,0-8.88-5.271c-3.847-.27-12.892-.439-16.189,1.135-8.317,3.972-6.446,13.017-6.569,20.62A1.319,1.319,0,0,0,4.151,273.1m60.458-11.447v11.138l.309.309h3.708c.43,0,1.048-.89,1.121-1.353A62.837,62.837,0,0,0,69.5,259.64a11.954,11.954,0,0,0-10-9.376c-3.143-.354-12.834-.4-15.606.554-5.1,1.753-7.648,6.248-7.933,11.445a66.411,66.411,0,0,0,.022,9.485c.072.463.691,1.353,1.121,1.353h3.708l.309-.309V261.653a3.922,3.922,0,0,1,.883-.777,1.568,1.568,0,0,1,2,1.4V273.1H61.725V262.272a1.568,1.568,0,0,1,2-1.4,3.572,3.572,0,0,1,.883.777M97.774,273.1h3.811c.432,0,1.166-.63,1.119-1.148-.131-7.615,1.769-16.639-6.569-20.62-3.3-1.574-12.342-1.405-16.188-1.135a11.77,11.77,0,0,0-8.88,5.271,16.678,16.678,0,0,1,1.574,6.394,102.3,102.3,0,0,1-.2,11.238h1.649V261.86c0-1.325,2.884-1.325,2.884,0V273.1H94.89V261.86c0-1.325,2.884-1.325,2.884,0Z" transform="translate(0 -179.031)" fill="#fff"/>
        <path id="Path_31621" data-name="Path 31621" d="M55.127,10.331A5.179,5.179,0,0,1,56.08.045L105.087.01c5.21-.305,7.9,6.551,3.459,9.461-.553.363-1.811.58-1.925,1.166l-.009,36.315c.033.871,1.333.938,2.058,1.445a5.2,5.2,0,0,1,.609,7.8c-1.751,1.7-4.278,1.614-6.56,1.579a10.494,10.494,0,0,1-16.1,7.751A10.126,10.126,0,0,1,81.9,57.77l-12.268.192A10.5,10.5,0,1,1,49.351,53.12a10.884,10.884,0,0,1,5.776-6.18V38.484l-.309-.309H47.4a7.4,7.4,0,0,0-2.1.576c-.961.558-1.025,1.792-1.1,2.819-.371,5.172.486,11,.018,16.105-.093,1.008-.281,1.415-1.345,1.541-1.038.123-6.107-.2-6.464.025A10.552,10.552,0,0,1,16,59.3c-1.157-.825-7.16,1.326-7.026-1.628.649-7.149-1.056-16.122.522-23.009,1.494-6.52,6.656-7.654,12.643-7.656.067-.745,1.1-2.714.754-3.271-.1-.164-1.3-1.034-1.656-1.443-5.5-6.337-4.233-18.232,4.32-21.255,3.79-1.339,5.9.088,9.285-.191C37.085.666,39.13-.925,40.8,1.677c1.464,2.282.444,5.1.311,7.511-.234,4.234.844,7.132-1.475,11.1-.856,1.467-2.091,2.412-3.049,3.756l.507,2.583a4.751,4.751,0,0,0,1.037.4H54.818l.309-.309ZM55.9,2.959a2.253,2.253,0,0,0-.265,4.488l50.934-.161c2.422-1.494,1.248-4.467-1.485-4.389ZM25.311,7.083a3.026,3.026,0,0,1,1.077-.444c.555-.009,2.912.931,3.807,1.12,1.65.349,6.66,1.029,7.918.076.721-.546.767-3.977.23-4.523-.483-.492-2.307.338-3.1.416-2.584.258-4.882-.786-7.362-.358-4.008.691-7.375,4.683-6.853,8.813a4.87,4.87,0,0,0,3.506-2.678,15.236,15.236,0,0,1,.774-2.423m12.924,3.866c-3.671.616-7.2-.071-10.781-.838a7.976,7.976,0,0,1-6.229,4.949c.036,5.6,6.153,9.413,11.353,7.654a9.241,9.241,0,0,0,5.565-6.391c.4-1.871.023-3.482.092-5.374M103.74,47.456V10.64l-.309-.309H58.114l-.309.309V26.728l.309.309H68.825a14.373,14.373,0,0,1,1.819.86c3.067,2.064,3.067,7.354,0,9.418a14.334,14.334,0,0,1-1.819.86H58.114l-.309.309v7.734H61c.9,0,2.7,1.12,3.7,1.243,6.8.833,15.277-.639,22.258,0a11.811,11.811,0,0,1,8.292-.888c.506.138,1.893.883,2,.883ZM33.9,25.392a12.918,12.918,0,0,1-8.228-.213L24.9,27.931a35.918,35.918,0,0,0,3.248,3.951,8.275,8.275,0,0,0,2.736.064,35.928,35.928,0,0,0,3.4-3.817c.239-.792-.244-1.929-.38-2.737M11.869,37.453V56.325h3.914L16,39.114a1.465,1.465,0,0,1,2.045-1.245,5.553,5.553,0,0,1,.827.821V49.106A11.98,11.98,0,0,1,24.8,46.175l1.072-6.245c-.068-.741-1.459-.937-1.864-1.641-1.029-1.788,2.207-3.6,1.715-4.8l-3.3-3.746c-3.113.336-7.474.131-9.29,3.2a13.592,13.592,0,0,0-1.272,4.5M41.325,56.325c.249-5.168-.335-10.644,0-15.776.173-2.634.466-4.584,3.45-5,7.392-1.035,15.9.247,23.418-.271,2.633-.642,2.485-5.038-.19-5.355-9.335-.163-18.7.23-28.028.013-1.009-.024-2.731-.636-3.613.078l-2.8,3.524c0,.579,2.039,2.685,2.19,3.518.36,1.98-1.963,1.918-2.053,2.878.651,3.506,1.2,7.032,1.829,10.542.083.464-.042.963.037,1.407.208,1.18,1.375,2.616,1.051,4.1l.277.341Zm-9.272-8.457-1.411-8.984c.041-1.082,1.649-1.441,1.591-2.015l-1.209-1.891L28.7,34.871l-1.355,2c-.085.528,1.543.946,1.614,2.034l-1.213,7.186c.091.3,1.778.592,2.3.8.694.268,1.332.674,2,.982M24.8,49.159c-8.778,1.2-7.927,15.443,1.583,15.216,10.266-.245,9.762-16.768-1.583-15.216M53.757,62.028c6.632,6.906,17.6-2.723,11.363-10.243-6.627-7.992-18.642,2.662-11.363,10.243M90.919,49.159c-9.873,1.351-7.162,17.629,3.355,14.91,8.829-2.283,6.77-16.295-3.355-14.91m-7.16,1.184H67.692a11.6,11.6,0,0,1,1.874,4.517l12.363-.1c.243-1.627,1.174-2.958,1.83-4.418m16.891,0A10.162,10.162,0,0,1,102.6,54.68c2.052.621,5.9.284,5.215-2.746-.1-.439-1.14-1.591-1.5-1.591Z" transform="translate(-6.379 0)" fill="#fff"/>
        <path id="Path_31622" data-name="Path 31622" d="M215.211,63.1l30.134.058c1.274,1.226.564,2.7-1.134,2.785h-28.22c-1.748.02-2.547-2.143-.78-2.843" transform="translate(-155.193 -45.716)" fill="#fff"/>
        <path id="Path_31623" data-name="Path 31623" d="M254.28,87.675l18.294-.048c1.883.122,2.235,2.66.205,2.9-5.657.658-12.551-.5-18.341,0a1.434,1.434,0,0,1-.159-2.848" transform="translate(-183.345 -63.482)" fill="#fff"/>
        <path id="Path_31624" data-name="Path 31624" d="M272.738,113.173l13.744-.031c1.673.263,1.6,2.645-.394,2.879-3.991.469-8.881-.349-12.97-.016a1.453,1.453,0,0,1-.379-2.832" transform="translate(-196.859 -81.967)" fill="#fff"/>
        <path id="Path_31625" data-name="Path 31625" d="M272.457,138.689l14.6.151c1.185,1.616.3,2.516-1.46,2.693a80.93,80.93,0,0,1-12.127-.021c-1.852-.226-2.506-1.541-1.014-2.824" transform="translate(-196.788 -100.475)" fill="#fff"/>
      </g>
    </g>
  </g>
</svg>
