<?xml version="1.0" encoding="UTF-8"?> <svg xmlns="http://www.w3.org/2000/svg" width="288.462" height="101.669" viewBox="0 0 288.462 101.669"><g id="EdgeSpark_Logo_CMYK_R" data-name="EdgeSpark Logo CMYK R" transform="translate(-6.007 -8.59)"><g id="Group_101" data-name="Group 101" transform="translate(54.303 8.59)"><path id="Path_136" data-name="Path 136" d="M59.784,36.756c.877,3.519,3.783,5.125,7.408,5.125a15.769,15.769,0,0,0,8.644-2.8v6.573a19.555,19.555,0,0,1-9.68,2.325c-8.391,0-14.446-5.231-14.446-13.2A13.141,13.141,0,0,1,65.067,21.37c6.266,0,12.163,4.142,12.163,12.681a20.671,20.671,0,0,1-.159,2.695H59.784Zm10.2-4.977a4.966,4.966,0,0,0-5.02-4.4,5.268,5.268,0,0,0-5.231,4.4Z" transform="translate(-51.71 -7.865)" fill="#171717"></path><path id="Path_137" data-name="Path 137" d="M96.59,46.749a11.379,11.379,0,0,1-6.467,1.966c-6.425,0-11.962-4.967-11.962-12.787,0-8.021,5.854-13.822,13.463-13.822a12.118,12.118,0,0,1,4.819.93l.106-.053V8.59h7.862V48.144H96.7V46.8Zm-.053-17.14a9.158,9.158,0,0,0-4.09-.983c-4.142,0-6.372,3.107-6.372,6.943,0,3.783,2.177,6.731,6.055,6.731a8.4,8.4,0,0,0,4.407-1.289Z" transform="translate(-50.209 -8.59)" fill="#171717"></path><path id="Path_138" data-name="Path 138" d="M110.086,50.06a16.148,16.148,0,0,0,8.232,2.589c3.836,0,6.214-1.966,6.214-5.749V45.505l-.106-.053a10.726,10.726,0,0,1-5.949,1.712c-6.161,0-11.857-4.766-11.857-12.48,0-7.461,5.337-13.3,13.252-13.3a14.517,14.517,0,0,1,6.372,1.448l6.161-1.088V46.9c0,8.021-5.485,12.48-13.621,12.48a20.735,20.735,0,0,1-8.7-1.86V50.06Zm14.446-21.071a8.93,8.93,0,0,0-3.878-.93c-4.09,0-6.055,3-6.055,6.319,0,3.73,2.283,6.372,5.949,6.372a7.889,7.889,0,0,0,3.984-1.088Z" transform="translate(-48.594 -7.864)" fill="#171717"></path><path id="Path_139" data-name="Path 139" d="M142.614,36.756c.877,3.519,3.783,5.125,7.408,5.125a15.769,15.769,0,0,0,8.644-2.8v6.573a19.555,19.555,0,0,1-9.68,2.325c-8.391,0-14.446-5.231-14.446-13.2A13.141,13.141,0,0,1,147.9,21.37c6.266,0,12.163,4.142,12.163,12.681a20.675,20.675,0,0,1-.158,2.695H142.614Zm10.2-4.977a4.966,4.966,0,0,0-5.02-4.4,5.268,5.268,0,0,0-5.231,4.4Z" transform="translate(-47.01 -7.865)" fill="#171717"></path><path id="Path_140" data-name="Path 140" d="M162.451,41.057a18.682,18.682,0,0,0,9.733,2.748c3.519,0,5.8-1.036,5.8-3.519,0-3.054-3.677-3.107-7.609-3.783-4.872-.824-8.7-2.283-8.7-7.3.053-5.284,4.555-7.82,10.462-7.82a20.662,20.662,0,0,1,9.109,2.018v4.66a19.316,19.316,0,0,0-9.32-2.483c-3.265,0-5.537.983-5.537,3.265,0,2.9,3.625,2.9,7.408,3.572,4.872.824,8.908,2.177,8.908,7.461,0,5.907-5.284,8.126-10.715,8.126a21.476,21.476,0,0,1-9.532-2.071V41.057Z" transform="translate(-45.47 -7.864)" fill="#171717"></path><path id="Path_141" data-name="Path 141" d="M189.75,58.81h-4.66V21.951h4.66V23.61l.106.053a12.632,12.632,0,0,1,7.249-2.283c6.837,0,12.322,5.337,12.322,13.2,0,8.179-5.949,13.41-13.3,13.41a14.459,14.459,0,0,1-6.266-1.395l-.106.053V58.81ZM196.218,43.9c5.072,0,8.5-3.73,8.5-8.961,0-5.178-3.318-9.373-8.391-9.373a10.594,10.594,0,0,0-6.573,2.325V42.124A13.8,13.8,0,0,0,196.218,43.9Z" transform="translate(-44.141 -7.864)" fill="#171717"></path><path id="Path_142" data-name="Path 142" d="M212.865,46.182a6.789,6.789,0,0,1-2.695-5.643,7.076,7.076,0,0,1,3.36-6.214,13.342,13.342,0,0,1,7.144-1.712,22.34,22.34,0,0,1,5.432.676V31.165a5.515,5.515,0,0,0-1.448-4.2,6.927,6.927,0,0,0-4.713-1.395,13.32,13.32,0,0,0-7.82,2.536V23.557a16.008,16.008,0,0,1,8.5-2.177c3.107,0,5.8.676,7.609,2.325,1.5,1.342,2.536,3.519,2.536,6.679V41.2c0,1.553.571,2.695,1.966,2.695a3.648,3.648,0,0,0,1.5-.359v3.878a6.54,6.54,0,0,1-2.483.465,5.4,5.4,0,0,1-4.914-2.695h-.106a12.121,12.121,0,0,1-7.82,2.79A10.083,10.083,0,0,1,212.865,46.182Zm13.252-4.565V36.851a19.306,19.306,0,0,0-4.967-.676c-3.16,0-6.266.93-6.266,3.931,0,2.483,2.124,3.73,4.872,3.73A10.531,10.531,0,0,0,226.116,41.617Z" transform="translate(-42.718 -7.864)" fill="#171717"></path><path id="Path_143" data-name="Path 143" d="M236.62,21.931h4.66v3.73l.106.053a9.289,9.289,0,0,1,7.556-3.984,6.215,6.215,0,0,1,1.659.211v4.607a7.315,7.315,0,0,0-1.807-.211,8.358,8.358,0,0,0-7.513,4.5v16.57h-4.66Z" transform="translate(-41.217 -7.844)" fill="#171717"></path><path id="Path_144" data-name="Path 144" d="M253.37,8.59h4.66V33.857l.106.053,11.392-11.233h5.96L263.832,34.068l12.892,14.086h-6.108l-12.48-13.822-.106.053V48.154h-4.66Z" transform="translate(-40.267 -8.59)" fill="#171717"></path></g><path id="Path_145" data-name="Path 145" d="M292.134,72.1,69.647,66.073a.468.468,0,0,0-.444.285L58.6,89.85,49.5,65.418a.446.446,0,0,0-.5-.306L24.176,67.627l21.05-13.495a.48.48,0,0,0,.169-.613L26.352,13.764a.48.48,0,0,0-.888.359l11.55,35.94L6.2,72.784a.481.481,0,0,0,.285.867H6.5l38.117-.581,11.941,36.584a.476.476,0,0,0,.444.328h.011a.457.457,0,0,0,.444-.306L71.4,73.259l220.722-.19a.474.474,0,0,0,.476-.476A.483.483,0,0,0,292.134,72.1Z" transform="translate(0 0.278)" fill="#43c4e2"></path><g id="Group_102" data-name="Group 102" transform="translate(290.739 8.59)"><path id="Path_146" data-name="Path 146" d="M277.31,8.59a1.849,1.849,0,1,1-1.86,1.849A1.811,1.811,0,0,1,277.31,8.59Zm0,3.371a1.482,1.482,0,0,0,1.532-1.532,1.527,1.527,0,1,0-3.054,0A1.474,1.474,0,0,0,277.31,11.961Zm-.021-1.236h-.254v.719h-.423V9.435h.74a.679.679,0,0,1,.761.645.588.588,0,0,1-.4.571l.476.782H277.7Zm.021-.338c.232,0,.37-.085.37-.285s-.137-.285-.37-.285h-.275v.571h.275Z" transform="translate(-275.45 -8.59)" fill="#171717"></path></g></g></svg> 