<svg xmlns="http://www.w3.org/2000/svg" xmlns:xlink="http://www.w3.org/1999/xlink" width="104" height="104" viewBox="0 0 104 104">
  <defs>
    <clipPath id="clip-path">
      <rect id="Rectangle_11137" data-name="Rectangle 11137" width="104" height="104" transform="translate(-0.057 -0.057)" fill="#ec8201"/>
    </clipPath>
  </defs>
  <g id="Group_27606" data-name="Group 27606" transform="translate(0.057 0.057)">
    <g id="Group_27605" data-name="Group 27605" clip-path="url(#clip-path)">
      <path id="Path_31667" data-name="Path 31667" d="M169.345,62.139c-1.269,4.957-8.135,5.778-9.938.812H119.251v5.073h28.292c.08,0,1.332.421,1.522.506,4.772,2.141,2.493,9.439,3.073,13.563,1.049.779,1.762,1.015,2.486,2.179a5.18,5.18,0,0,1-6.109,7.736c-4.661-1.666-4.347-8.228.151-9.917-.261-2.726.332-6.02-.026-8.673-.1-.73-.659-1.945-1.5-1.945H119.251v5.275h19.571c.467,0,1.125,1.222,1.128,1.725,0,.575-.847,1.725-1.33,1.725H119.251v3.449h11.256c.078,0,1.267.477,1.457.572a5.146,5.146,0,0,1,2.709,3.985c.318,3.55-.28,7.537.024,11.136.093.279,1.309.84,1.687,1.153,3.331,2.764,1.691,8.625-2.653,9.1a5.209,5.209,0,0,1-2.5-10.045c-.262-3.463.307-7.326,0-10.738-.1-1.128-.579-1.583-1.728-1.72-1.1-.132-10.392-.178-10.855.107-.175.107-.327.562-.619.8-2.067,1.691-7.705.018-10.084-.848A27.755,27.755,0,0,1,95.236,44.5c4.229-5.716,12.06-10.476,19.253-10.971,2.1-.144,3.093.086,4.457,1.622,3.4-.295,7.434.388,10.755,0a1.539,1.539,0,0,0,1.521-1.522c.391-3.384-.31-7.474.008-10.936a5.2,5.2,0,0,1-.964-9.3c4.786-2.959,10.12,2.726,7,7.411a8.94,8.94,0,0,1-2.57,2.1c-.3,3.6.294,7.585-.024,11.135-.166,1.849-2.222,4.557-4.166,4.557H119.251v3.449H138.62c.483,0,1.334,1.15,1.33,1.725,0,.5-.661,1.725-1.128,1.725H119.251v5.275h27.886c.844,0,1.4-1.215,1.5-1.945.358-2.652-.235-5.947.026-8.672-1.623-.778-3.239-2.2-3.456-4.092-.785-6.854,8.116-8.239,9.978-2.678.992,2.961-.479,5.356-3.05,6.767-.58,4.124,1.7,11.423-3.073,13.563-.19.085-1.442.506-1.522.506H119.251V59.3h40.156c1.853-4.953,8.636-4.22,9.938.812ZM132.793,16.116a1.724,1.724,0,1,0,.539,3.4,1.724,1.724,0,0,0-.539-3.4m16.82,17.457c-1.357.4-1.31,2.912.167,3.2a1.712,1.712,0,1,0-.167-3.2M115.6,36.979a24.213,24.213,0,0,0,0,48.29Zm47.8,22.565c-1.509.45-1.213,3.526.9,3.3,2.551-.276,1.9-4.132-.9-3.3M149.613,85.515c-1.357.4-1.31,2.912.167,3.2a1.712,1.712,0,1,0-.167-3.2m-17.032,17.243a1.734,1.734,0,0,0,.543,3.408,1.734,1.734,0,1,0-.543-3.408" transform="translate(-65.46 -9.182)" fill="#ec8201"/>
      <path id="Path_31668" data-name="Path 31668" d="M51.155,0a4.022,4.022,0,0,1,2.633,3.757A97.567,97.567,0,0,1,53.8,16.747c-.366,4.688-3.5,3.827-6.945,4.414A31.264,31.264,0,0,0,25.8,68.889c5.593,8.77,15.234,13.812,25.557,14.4,1.711.687,2.3,2.084,2.443,3.846a97.567,97.567,0,0,1-.011,12.989,3.842,3.842,0,0,1-2.836,3.757H48.519c-1.061-.341-1.977-.171-3.055-.7-3.44-1.679-2.472-6.125-3.635-9.146a45.145,45.145,0,0,1-12.511-5.133c-3.192,1.714-6.216,5.887-10.194,3.3a43.717,43.717,0,0,1-7.281-7.325c-2.714-4.362,1.478-6.768,3.205-10.316a43.572,43.572,0,0,1-5.1-12.339c-.064-.274-.272-.263-.467-.344C8.086,61.3,5.417,61.4,3.769,60.9A4.952,4.952,0,0,1,.618,57.966c-.406-1.08-.239-1.958-.571-2.98C.156,53-.1,50.866.047,48.9c.223-2.98,1.1-5.263,4.214-6.031,1.243-.306,4.523-.447,5.382-.905.442-.235.548-1.513.744-2.1a47.567,47.567,0,0,1,4.66-10.545c-2.322-4.272-6.41-6.355-2.42-11.358,1.277-1.6,6.206-6.641,8.054-6.957,3.835-.657,5.57,2.444,8.636,3.971A45.15,45.15,0,0,1,41.828,9.843c.4-.3.877-4.887,1.105-5.793.7-2.777,2.731-3.813,5.382-4.05ZM50.141,3.449c-1.114.131-3.2-.115-3.74,1.026-.7,1.467-.632,5.319-1.177,7.141-.487,1.626-2.574,1.489-3.958,1.925A51.068,51.068,0,0,0,33.3,16.735c-1.809.918-3.342,2.8-5.334,1.693-1.433-.8-4.195-3.483-5.419-3.91-1.266-.441-1.937.433-2.834,1.2s-4.919,4.753-5.183,5.572a1.527,1.527,0,0,0-.052.876c.295,1.4,3.63,4.692,4.316,6.244.523,1.513-1.32,3.491-2.023,4.857-.58,1.127-1.133,2.287-1.612,3.46-1.042,2.555-1.627,5.216-2.537,7.81a1.914,1.914,0,0,1-.967.656c-1.964.588-5.118.445-6.95,1.163A1.479,1.479,0,0,0,3.924,47,12.45,12.45,0,0,0,3.5,49.814a31.712,31.712,0,0,0,.243,6.652,1.959,1.959,0,0,0,.779,1.046c1.477.722,5.251.625,7.094,1.221,1.784.577,1.666,2.959,2.171,4.523a47.938,47.938,0,0,0,2.99,7.357c.749,1.457,2.635,3.4,1.979,5.017l-4.272,6.085a1.436,1.436,0,0,0,.119,1.016c.351.857,4.2,4.645,5.117,5.432.9.771,1.568,1.646,2.834,1.2,1.224-.427,3.986-3.113,5.419-3.91,1.986-1.1,3.188.582,4.928,1.49A45.36,45.36,0,0,0,40,89.985c1.223.391,4.216.77,4.869,1.621,1.024,1.333.725,6.111,1.53,7.8.542,1.141,2.629.9,3.74,1.026v-14c-13.217-.322-25.487-9.31-30.317-21.51A34.713,34.713,0,0,1,46.448,17.711c1.035-.173,2.291-.1,3.187-.261a.658.658,0,0,0,.506-.3Z" transform="translate(0)" fill="#ec8201"/>
    </g>
  </g>
</svg>
