<svg xmlns="http://www.w3.org/2000/svg" xmlns:xlink="http://www.w3.org/1999/xlink" width="188.969" height="53" viewBox="0 0 188.969 53"><defs><clipPath id="clip-path"><rect id="Rectangle_5" data-name="Rectangle 5" width="188.969" height="53" transform="translate(0 0)" fill="none"></rect></clipPath></defs><g id="Logo" transform="translate(0 -0.001)"><g id="Group_1" data-name="Group 1" transform="translate(0 0.001)" clip-path="url(#clip-path)"><path id="Path_1" data-name="Path 1" d="M33.813,84.09l-1.938-7.642h1.043l.907,3.867c.227.952.431,1.9.567,2.642h.022c.124-.76.363-1.667.624-2.653l1.02-3.855H37.09l.93,3.878c.215.907.42,1.814.533,2.619h.023c.158-.839.373-1.69.612-2.641L40.2,76.448h1.009L39.04,84.09H38.008l-.964-3.979a23.161,23.161,0,0,1-.5-2.494h-.022a23.9,23.9,0,0,1-.589,2.494L34.845,84.09Z" transform="translate(-13.951 -33.459)" fill="#cccbcb"></path><path id="Path_2" data-name="Path 2" d="M50,75.723h1v3.423h.022a1.852,1.852,0,0,1,.714-.7,2.052,2.052,0,0,1,1.021-.284c.737,0,1.916.454,1.916,2.347v3.265h-1V80.621c0-.885-.329-1.633-1.27-1.633a1.433,1.433,0,0,0-1.338,1,1.2,1.2,0,0,0-.068.476v3.31H50Z" transform="translate(-21.885 -33.142)" fill="#cccbcb"></path><path id="Path_3" data-name="Path 3" d="M61.442,83.107a1.758,1.758,0,0,0,1.882,1.9,3.612,3.612,0,0,0,1.519-.283l.17.714a4.443,4.443,0,0,1-1.825.34,2.548,2.548,0,0,1-2.7-2.767,2.664,2.664,0,0,1,2.574-2.959,2.325,2.325,0,0,1,2.267,2.586,3.9,3.9,0,0,1-.034.464Zm2.925-.714a1.42,1.42,0,0,0-1.383-1.621,1.654,1.654,0,0,0-1.531,1.621Z" transform="translate(-26.474 -35.039)" fill="#cccbcb"></path><path id="Path_4" data-name="Path 4" d="M71.263,81.894c0-.646-.011-1.2-.046-1.712h.873l.034,1.077h.046a1.646,1.646,0,0,1,1.519-1.2,1.06,1.06,0,0,1,.283.035v.94a1.541,1.541,0,0,0-.34-.034,1.4,1.4,0,0,0-1.338,1.282,2.877,2.877,0,0,0-.045.464v2.925h-.986Z" transform="translate(-31.169 -35.039)" fill="#cccbcb"></path><path id="Path_5" data-name="Path 5" d="M77.936,83.107a1.757,1.757,0,0,0,1.882,1.9,3.607,3.607,0,0,0,1.519-.283l.17.714a4.445,4.445,0,0,1-1.825.34,2.549,2.549,0,0,1-2.7-2.767,2.664,2.664,0,0,1,2.574-2.959,2.325,2.325,0,0,1,2.267,2.586,3.757,3.757,0,0,1-.034.464Zm2.925-.714a1.42,1.42,0,0,0-1.383-1.621,1.654,1.654,0,0,0-1.531,1.621Z" transform="translate(-33.693 -35.039)" fill="#cccbcb"></path><rect id="Rectangle_1" data-name="Rectangle 1" width="0.986" height="7.642" transform="translate(51.807 42.989)" fill="#cccbcb"></rect><path id="Path_6" data-name="Path 6" d="M101.317,75.723v6.633c0,.486.012,1.042.046,1.417h-.9l-.045-.952H100.4a2.029,2.029,0,0,1-1.87,1.077,2.5,2.5,0,0,1-2.347-2.789c-.012-1.825,1.122-2.948,2.46-2.948A1.836,1.836,0,0,1,100.3,79h.022V75.723Zm-1,4.8a1.735,1.735,0,0,0-.046-.419,1.468,1.468,0,0,0-1.44-1.157c-1.031,0-1.644.907-1.644,2.121,0,1.111.544,2.029,1.621,2.029a1.5,1.5,0,0,0,1.462-1.19,1.722,1.722,0,0,0,.046-.431Z" transform="translate(-42.096 -33.142)" fill="#cccbcb"></path><path id="Path_7" data-name="Path 7" d="M108.506,83.107a1.757,1.757,0,0,0,1.882,1.9,3.605,3.605,0,0,0,1.519-.283l.17.714a4.444,4.444,0,0,1-1.825.34,2.549,2.549,0,0,1-2.7-2.767,2.665,2.665,0,0,1,2.575-2.959,2.325,2.325,0,0,1,2.267,2.586,3.9,3.9,0,0,1-.034.464Zm2.925-.714a1.421,1.421,0,0,0-1.383-1.621,1.655,1.655,0,0,0-1.531,1.621Z" transform="translate(-47.072 -35.039)" fill="#cccbcb"></path><path id="Path_8" data-name="Path 8" d="M121.066,85.669l-.079-.692h-.034a2.043,2.043,0,0,1-1.678.817,1.564,1.564,0,0,1-1.677-1.576c0-1.326,1.179-2.052,3.3-2.04v-.114a1.131,1.131,0,0,0-1.247-1.27,2.739,2.739,0,0,0-1.429.408l-.226-.657a3.4,3.4,0,0,1,1.8-.488c1.678,0,2.086,1.145,2.086,2.245v2.053a7.731,7.731,0,0,0,.091,1.315Zm-.147-2.8c-1.088-.023-2.324.17-2.324,1.235a.883.883,0,0,0,.941.953,1.364,1.364,0,0,0,1.326-.918,1.037,1.037,0,0,0,.057-.317Z" transform="translate(-51.468 -35.039)" fill="#cccbcb"></path><path id="Path_9" data-name="Path 9" d="M127.647,84.648a2.614,2.614,0,0,0,1.315.4c.725,0,1.065-.363,1.065-.816,0-.477-.283-.737-1.02-1.009-.986-.351-1.451-.9-1.451-1.553a1.692,1.692,0,0,1,1.893-1.61,2.735,2.735,0,0,1,1.349.34l-.249.725a2.141,2.141,0,0,0-1.122-.317c-.589,0-.918.34-.918.749,0,.453.329.657,1.043.928.953.363,1.44.84,1.44,1.656,0,.963-.748,1.644-2.052,1.644a3.119,3.119,0,0,1-1.542-.375Z" transform="translate(-55.757 -35.039)" fill="#cccbcb"></path><rect id="Rectangle_2" data-name="Rectangle 2" width="0.986" height="7.642" transform="translate(78.953 42.989)" fill="#cccbcb"></rect><path id="Path_10" data-name="Path 10" d="M149.58,80.182c-.022.4-.044.838-.044,1.508v3.186a3.154,3.154,0,0,1-.783,2.505,2.906,2.906,0,0,1-2,.657,3.536,3.536,0,0,1-1.825-.453l.25-.76a3.089,3.089,0,0,0,1.609.431c1.021,0,1.769-.533,1.769-1.916v-.612h-.022a1.959,1.959,0,0,1-1.746.918,2.453,2.453,0,0,1-2.335-2.675,2.634,2.634,0,0,1,2.471-2.914,1.825,1.825,0,0,1,1.712.953h.023l.046-.828Zm-1.031,2.166a1.412,1.412,0,0,0-.057-.453,1.437,1.437,0,0,0-1.395-1.055c-.952,0-1.632.805-1.632,2.075,0,1.077.544,1.973,1.622,1.973a1.459,1.459,0,0,0,1.383-1.021,1.73,1.73,0,0,0,.079-.533Z" transform="translate(-63.223 -35.039)" fill="#cccbcb"></path><path id="Path_11" data-name="Path 11" d="M156.279,81.667c0-.566-.011-1.031-.046-1.485h.885l.057.907h.022a2.016,2.016,0,0,1,1.814-1.032c.76,0,1.938.453,1.938,2.335V85.67h-1V82.506c0-.884-.329-1.621-1.27-1.621a1.463,1.463,0,0,0-1.406,1.485v3.3h-1Z" transform="translate(-68.378 -35.039)" fill="#cccbcb"></path><path id="Path_12" data-name="Path 12" d="M168.519,77.053a.618.618,0,0,1-1.236,0,.609.609,0,0,1,.624-.624.592.592,0,0,1,.612.624m-1.111,1.542h1v5.487h-1Z" transform="translate(-73.214 -33.451)" fill="#cccbcb"></path><path id="Path_13" data-name="Path 13" d="M172.94,77.477v1.576h1.428v.759H172.94v2.96c0,.68.193,1.066.748,1.066a2.245,2.245,0,0,0,.578-.068l.046.747a2.422,2.422,0,0,1-.885.137,1.383,1.383,0,0,1-1.077-.419,2.036,2.036,0,0,1-.385-1.429V79.812h-.851v-.759h.851V77.737Z" transform="translate(-74.891 -33.909)" fill="#cccbcb"></path><path id="Path_14" data-name="Path 14" d="M179.024,83.107a1.757,1.757,0,0,0,1.882,1.9,3.6,3.6,0,0,0,1.519-.283l.171.714a4.45,4.45,0,0,1-1.825.34,2.548,2.548,0,0,1-2.7-2.767,2.664,2.664,0,0,1,2.574-2.959,2.325,2.325,0,0,1,2.267,2.586,3.755,3.755,0,0,1-.034.464Zm2.925-.714a1.421,1.421,0,0,0-1.383-1.621,1.654,1.654,0,0,0-1.531,1.621Z" transform="translate(-77.936 -35.039)" fill="#cccbcb"></path><path id="Path_15" data-name="Path 15" d="M194,81.687l-.795,2.4h-1.019l2.6-7.642h1.19l2.607,7.642h-1.054l-.817-2.4Zm2.505-.772-.748-2.2c-.17-.5-.283-.951-.4-1.393h-.022c-.114.453-.239.918-.386,1.383l-.748,2.21Z" transform="translate(-84.114 -33.459)" fill="#cccbcb"></path><path id="Path_16" data-name="Path 16" d="M205.4,81.667c0-.566-.011-1.031-.045-1.485h.884l.057.907h.022a2.016,2.016,0,0,1,1.814-1.032c.76,0,1.939.453,1.939,2.335V85.67h-1V82.506c0-.884-.33-1.621-1.27-1.621a1.417,1.417,0,0,0-1.338,1.02,1.44,1.44,0,0,0-.068.465v3.3h-1Z" transform="translate(-89.877 -35.039)" fill="#cccbcb"></path><path id="Path_17" data-name="Path 17" d="M221.057,75.723v6.633c0,.486.012,1.042.045,1.417h-.9l-.044-.952h-.023a2.03,2.03,0,0,1-1.87,1.077,2.5,2.5,0,0,1-2.348-2.789c-.011-1.825,1.123-2.948,2.46-2.948a1.834,1.834,0,0,1,1.656.839h.023V75.723Zm-1,4.8a1.736,1.736,0,0,0-.046-.419,1.468,1.468,0,0,0-1.44-1.157c-1.031,0-1.644.907-1.644,2.121,0,1.111.544,2.029,1.621,2.029a1.5,1.5,0,0,0,1.463-1.19,1.723,1.723,0,0,0,.046-.431Z" transform="translate(-94.501 -33.142)" fill="#cccbcb"></path><path id="Path_18" data-name="Path 18" d="M232.337,76.507a9.523,9.523,0,0,1,1.8-.159,3.159,3.159,0,0,1,2.1.556,1.605,1.605,0,0,1,.635,1.349,1.816,1.816,0,0,1-1.293,1.679v.022a1.97,1.97,0,0,1,1.576,1.916,2.061,2.061,0,0,1-.647,1.531,3.837,3.837,0,0,1-2.641.714,11.374,11.374,0,0,1-1.531-.091Zm.986,3.129h.9c1.042,0,1.655-.544,1.655-1.281,0-.9-.68-1.247-1.678-1.247a4.2,4.2,0,0,0-.873.068Zm0,3.661a5.234,5.234,0,0,0,.828.046c1.02,0,1.961-.374,1.961-1.485,0-1.043-.9-1.473-1.972-1.473h-.817Z" transform="translate(-101.686 -33.415)" fill="#cccbcb"></path><path id="Path_19" data-name="Path 19" d="M243.171,81.894c0-.646-.011-1.2-.046-1.712H244l.034,1.077h.046a1.646,1.646,0,0,1,1.519-1.2,1.06,1.06,0,0,1,.283.035v.94a1.544,1.544,0,0,0-.341-.034A1.4,1.4,0,0,0,244.2,82.28a2.757,2.757,0,0,0-.045.464v2.925h-.986Z" transform="translate(-106.408 -35.039)" fill="#cccbcb"></path><path id="Path_20" data-name="Path 20" d="M252.4,85.669l-.08-.692h-.034a2.044,2.044,0,0,1-1.679.817,1.564,1.564,0,0,1-1.677-1.576c0-1.326,1.179-2.052,3.3-2.04v-.114a1.13,1.13,0,0,0-1.247-1.27,2.737,2.737,0,0,0-1.428.408l-.227-.657a3.4,3.4,0,0,1,1.8-.488c1.677,0,2.086,1.145,2.086,2.245v2.053a7.674,7.674,0,0,0,.091,1.315Zm-.148-2.8c-1.088-.023-2.324.17-2.324,1.235a.883.883,0,0,0,.94.953,1.365,1.365,0,0,0,1.327-.918,1.071,1.071,0,0,0,.056-.317Z" transform="translate(-108.949 -35.039)" fill="#cccbcb"></path><path id="Path_21" data-name="Path 21" d="M259.383,81.667c0-.566-.011-1.031-.045-1.485h.884l.056.907h.023a2.017,2.017,0,0,1,1.814-1.032c.76,0,1.939.453,1.939,2.335V85.67h-1V82.506c0-.884-.329-1.621-1.27-1.621a1.417,1.417,0,0,0-1.338,1.02,1.439,1.439,0,0,0-.068.465v3.3h-1Z" transform="translate(-113.503 -35.039)" fill="#cccbcb"></path><path id="Path_22" data-name="Path 22" d="M275.04,75.723v6.633c0,.486.012,1.042.045,1.417h-.9l-.044-.952h-.023a2.029,2.029,0,0,1-1.87,1.077,2.5,2.5,0,0,1-2.348-2.789c-.011-1.825,1.123-2.948,2.46-2.948A1.834,1.834,0,0,1,274.02,79h.023V75.723Zm-1,4.8A1.738,1.738,0,0,0,274,80.1a1.468,1.468,0,0,0-1.44-1.157c-1.031,0-1.644.907-1.644,2.121,0,1.111.544,2.029,1.621,2.029A1.5,1.5,0,0,0,274,81.9a1.724,1.724,0,0,0,.046-.431Z" transform="translate(-118.128 -33.142)" fill="#cccbcb"></path><path id="Path_23" data-name="Path 23" d="M281.547,84.648a2.616,2.616,0,0,0,1.316.4c.725,0,1.065-.363,1.065-.816,0-.477-.283-.737-1.021-1.009-.986-.351-1.451-.9-1.451-1.553a1.692,1.692,0,0,1,1.893-1.61,2.732,2.732,0,0,1,1.349.34l-.249.725a2.139,2.139,0,0,0-1.122-.317c-.589,0-.918.34-.918.749,0,.453.328.657,1.043.928.953.363,1.44.84,1.44,1.656,0,.963-.748,1.644-2.051,1.644a3.117,3.117,0,0,1-1.542-.375Z" transform="translate(-123.115 -35.039)" fill="#cccbcb"></path><path id="Path_24" data-name="Path 24" d="M294.3,76.507a9.522,9.522,0,0,1,1.8-.159,3.159,3.159,0,0,1,2.1.556,1.605,1.605,0,0,1,.635,1.349,1.816,1.816,0,0,1-1.293,1.679v.022a1.97,1.97,0,0,1,1.576,1.916,2.061,2.061,0,0,1-.647,1.531,3.837,3.837,0,0,1-2.641.714,11.374,11.374,0,0,1-1.531-.091Zm.986,3.129h.9c1.043,0,1.656-.544,1.656-1.281,0-.9-.68-1.247-1.678-1.247a4.2,4.2,0,0,0-.873.068Zm0,3.661a5.233,5.233,0,0,0,.828.046c1.02,0,1.961-.374,1.961-1.485,0-1.043-.9-1.473-1.972-1.473h-.817Z" transform="translate(-128.807 -33.415)" fill="#cccbcb"></path><rect id="Rectangle_3" data-name="Rectangle 3" width="0.998" height="8.049" transform="translate(171.609 42.581)" fill="#cccbcb"></rect><path id="Path_25" data-name="Path 25" d="M312.634,85.669l-.079-.692h-.035a2.042,2.042,0,0,1-1.677.817,1.564,1.564,0,0,1-1.678-1.576c0-1.326,1.179-2.052,3.3-2.04v-.114a1.131,1.131,0,0,0-1.247-1.27,2.74,2.74,0,0,0-1.429.408l-.226-.657a3.4,3.4,0,0,1,1.8-.488c1.679,0,2.086,1.145,2.086,2.245v2.053a7.783,7.783,0,0,0,.091,1.315Zm-.147-2.8c-1.088-.023-2.325.17-2.325,1.235a.883.883,0,0,0,.941.953,1.364,1.364,0,0,0,1.326-.918,1.038,1.038,0,0,0,.057-.317Z" transform="translate(-135.311 -35.039)" fill="#cccbcb"></path><path id="Path_26" data-name="Path 26" d="M318.542,85.189l2.483-3.232c.238-.3.465-.556.714-.85v-.023h-2.97v-.8h4.184l-.012.624-2.448,3.186c-.228.305-.454.578-.7.861v.022H323v.793h-4.456Z" transform="translate(-139.415 -35.136)" fill="#cccbcb"></path><path id="Path_27" data-name="Path 27" d="M328.388,83.107a1.757,1.757,0,0,0,1.882,1.9,3.6,3.6,0,0,0,1.519-.283l.171.714a4.45,4.45,0,0,1-1.825.34,2.548,2.548,0,0,1-2.7-2.767,2.664,2.664,0,0,1,2.574-2.959,2.325,2.325,0,0,1,2.267,2.586,3.754,3.754,0,0,1-.034.464Zm2.925-.714a1.421,1.421,0,0,0-1.383-1.621,1.654,1.654,0,0,0-1.531,1.621Z" transform="translate(-143.307 -35.039)" fill="#cccbcb"></path><path id="Path_28" data-name="Path 28" d="M50,35.737V52.576H46.585l-.244-3.213A6.76,6.76,0,0,1,43.7,52.149a7.58,7.58,0,0,1-3.986,1.077,5.311,5.311,0,0,1-3.8-1.4,5.046,5.046,0,0,1-1.566-3.64V35.737h3.783v11.1a3.559,3.559,0,0,0,.833,2.257,3,3,0,0,0,2.258.874,4.169,4.169,0,0,0,2.522-.834,5.736,5.736,0,0,0,1.81-2.3,7.723,7.723,0,0,0,.671-3.254v-7.85Z" transform="translate(-15.03 -15.641)" fill="#cccbcb"></path><path id="Path_29" data-name="Path 29" d="M70.286,51.816A6.6,6.6,0,0,1,67.541,49.9l1.627-2.2A8.069,8.069,0,0,0,71.3,49.213a5.151,5.151,0,0,0,2.217.529,4.115,4.115,0,0,0,2.2-.529,1.78,1.78,0,0,0,.854-1.627,1.873,1.873,0,0,0-.529-1.383,3.261,3.261,0,0,0-1.2-.773q-.671-.244-2.257-.732-4.312-1.382-4.311-4.922a4.841,4.841,0,0,1,1.566-3.62,6.052,6.052,0,0,1,4.372-1.5,10.294,10.294,0,0,1,3.173.448,7.745,7.745,0,0,1,2.562,1.423l-1.5,2.319a4.628,4.628,0,0,0-1.647-1.1A5.721,5.721,0,0,0,74.9,37.3a3.4,3.4,0,0,0-1.952.549,1.785,1.785,0,0,0-.285,2.766,3.352,3.352,0,0,0,1.1.732q.568.224,2.237.752a8.6,8.6,0,0,1,3.233,1.789,3.9,3.9,0,0,1,1.159,2.97,5.253,5.253,0,0,1-1.708,4.026,6.848,6.848,0,0,1-4.84,1.586,9.811,9.811,0,0,1-3.559-.651" transform="translate(-29.56 -15.166)" fill="#cccbcb"></path><path id="Path_30" data-name="Path 30" d="M96.368,21.809a2.327,2.327,0,0,1,1.586-.61,2.255,2.255,0,0,1,1.566.61,2.022,2.022,0,0,1,0,3.01,2.253,2.253,0,0,1-1.566.611,2.325,2.325,0,0,1-1.586-.611,1.983,1.983,0,0,1,0-3.01m3.376,24.4H95.961V29.375h3.783Z" transform="translate(-41.874 -9.278)" fill="#cccbcb"></path><path id="Path_31" data-name="Path 31" d="M109.6,38.921a8.606,8.606,0,0,1,3.335-3.233,9.8,9.8,0,0,1,4.82-1.179,9.574,9.574,0,0,1,4.779,1.179,8.433,8.433,0,0,1,3.254,3.213,9.039,9.039,0,0,1,1.159,4.555,9.144,9.144,0,0,1-1.159,4.576,8.352,8.352,0,0,1-3.274,3.234,9.779,9.779,0,0,1-4.84,1.179,10.019,10.019,0,0,1-4.759-1.118,8.241,8.241,0,0,1-3.315-3.152,9.111,9.111,0,0,1-1.2-4.718,8.834,8.834,0,0,1,1.2-4.535m3.335,7.5a5.435,5.435,0,0,0,1.952,2.115,5.348,5.348,0,0,0,6.65-.895,5.87,5.87,0,0,0,1.545-4.149,5.944,5.944,0,0,0-1.545-4.169,5.069,5.069,0,0,0-3.9-1.688,4.958,4.958,0,0,0-2.766.793,5.649,5.649,0,0,0-1.932,2.135,6.379,6.379,0,0,0,0,5.857" transform="translate(-47.445 -15.103)" fill="#cccbcb"></path><path id="Path_32" data-name="Path 32" d="M161.17,35.983a4.818,4.818,0,0,1,1.586,3.64V52.069h-3.823V40.924a3.419,3.419,0,0,0-.854-2.237,3.177,3.177,0,0,0-2.319-.854,4.581,4.581,0,0,0-3.7,1.789,6.96,6.96,0,0,0-1.464,4.555v7.891h-3.783V35.23h3.416l.244,3.254a6.6,6.6,0,0,1,2.685-2.867,8.04,8.04,0,0,1,4.108-1.038,5.589,5.589,0,0,1,3.9,1.4" transform="translate(-64.255 -15.134)" fill="#cccbcb"></path><path id="Path_33" data-name="Path 33" d="M202.3,13.387v3.782H188.8v9.355h11.836v3.783H188.8V42.794h-3.945V13.387Z" transform="translate(-80.905 -5.859)" fill="#cccbcb"></path><rect id="Rectangle_4" data-name="Rectangle 4" width="3.783" height="31.522" transform="translate(124.938 5.413)" fill="#cccbcb"></rect><path id="Path_34" data-name="Path 34" d="M254.131,36.126V52.965h-3.783V50.2a8.705,8.705,0,0,1-2.6,2.176,7.528,7.528,0,0,1-3.864,1,9.006,9.006,0,0,1-4.332-1.038A7.537,7.537,0,0,1,236.5,49.3a9.568,9.568,0,0,1-1.118-4.759,9.645,9.645,0,0,1,1.16-4.819,8.186,8.186,0,0,1,3.132-3.173,8.707,8.707,0,0,1,4.372-1.118,7.23,7.23,0,0,1,3.742.935,7.627,7.627,0,0,1,2.563,2.441l.285-2.685Zm-5.674,12.954a5.158,5.158,0,0,0,1.891-3.152V42.593a5.189,5.189,0,0,0-2.033-2.908,5.884,5.884,0,0,0-3.539-1.118,5.517,5.517,0,0,0-2.786.732,5.385,5.385,0,0,0-2.034,2.054,5.938,5.938,0,0,0-.752,2.989,5.84,5.84,0,0,0,.773,2.97,5.9,5.9,0,0,0,2.074,2.135,5.369,5.369,0,0,0,2.847.793,5.611,5.611,0,0,0,3.559-1.16" transform="translate(-103.018 -15.509)" fill="#cccbcb"></path><path id="Path_35" data-name="Path 35" d="M281.354,36.744a9.4,9.4,0,0,1,2.542-1.627,6.9,6.9,0,0,1,2.359-.61l-.163,3.783a6.19,6.19,0,0,0-3.315.732,5.891,5.891,0,0,0-2.318,2.258,6.043,6.043,0,0,0-.834,3.07v7.688h-3.783V35.2h3.376l.285,3.986a7.477,7.477,0,0,1,1.851-2.441" transform="translate(-120.727 -15.103)" fill="#cccbcb"></path><path id="Path_36" data-name="Path 36" d="M308.98,47.726l1.749,2.807a11.769,11.769,0,0,1-2.908,1.4,9.793,9.793,0,0,1-3.03.509,9.954,9.954,0,0,1-4.9-1.16,8.138,8.138,0,0,1-3.234-3.192,9.246,9.246,0,0,1-1.139-4.6,8.6,8.6,0,0,1,1.241-4.535,9.005,9.005,0,0,1,3.4-3.254,9.546,9.546,0,0,1,4.718-1.2,8.093,8.093,0,0,1,5.511,1.932,9.929,9.929,0,0,1,3.03,5.389l-13.341,4.677a5.293,5.293,0,0,0,1.973,1.973,5.576,5.576,0,0,0,2.827.711,6.862,6.862,0,0,0,4.108-1.464m-8.216-8.582a5.869,5.869,0,0,0-1.5,4.149,7.988,7.988,0,0,0,.04.935l9.8-3.62a5.6,5.6,0,0,0-1.729-2.237,4.456,4.456,0,0,0-2.786-.854,4.981,4.981,0,0,0-3.823,1.627" transform="translate(-129.338 -15.103)" fill="#cccbcb"></path><path id="Path_37" data-name="Path 37" d="M37.318,0H9.132A8.842,8.842,0,0,0,2.694,2.66,8.758,8.758,0,0,0,0,9.133V49a1.317,1.317,0,0,0,1.315,1.315H8.739V9.133c0-.307.13-.461.394-.461h29.5V1.315A1.317,1.317,0,0,0,37.318,0" transform="translate(0 0)" fill="#f7993d" fill-rule="evenodd"></path><path id="Path_38" data-name="Path 38" d="M23.314,34.372l5.4-3.116,5.4-3.115a1.724,1.724,0,0,1,2.586,1.492V42.1a1.724,1.724,0,0,1-2.586,1.492l-5.4-3.115-5.4-3.116a1.723,1.723,0,0,1,0-2.985" transform="translate(-9.826 -12.213)" fill="#f7993d" fill-rule="evenodd"></path></g></g></svg>