<svg xmlns="http://www.w3.org/2000/svg" xmlns:xlink="http://www.w3.org/1999/xlink" width="85.335" height="85.335" viewBox="0 0 85.335 85.335">
  <defs>
    <clipPath id="clip-path">
      <path id="path2481" d="M0-682.665H85.335v85.335H0Z" transform="translate(0 682.665)" fill="#f9f9f9"/>
    </clipPath>
  </defs>
  <g id="g2475" transform="translate(0 682.665)">
    <g id="g2477" transform="translate(0 -682.665)">
      <g id="g2479" clip-path="url(#clip-path)">
        <g id="g2485" transform="translate(1.25 79.408)">
          <path id="path2487" d="M0,0H82.835" fill="none" stroke="#fff" stroke-linecap="round" stroke-linejoin="round" stroke-width="2"/>
        </g>
        <g id="g2489" transform="translate(81.413 41.999)">
          <path id="path2491" d="M0,0V37.409" fill="none" stroke="#fff" stroke-linecap="round" stroke-linejoin="round" stroke-width="2"/>
        </g>
        <g id="g2493" transform="translate(3.922 41.999)">
          <path id="path2495" d="M0-261.859v-37.409" transform="translate(0 299.269)" fill="none" stroke="#fff" stroke-linecap="round" stroke-linejoin="round" stroke-width="2"/>
        </g>
        <g id="g2497" transform="translate(52.02 29.975)">
          <path id="path2499" d="M-187.043-84.169h5.344l-5.344-12.024h-26.721" transform="translate(213.763 96.193)" fill="none" stroke="#fff" stroke-linecap="round" stroke-linejoin="round" stroke-width="2"/>
        </g>
        <g id="g2501" transform="translate(1.25 20.623)">
          <path id="path2503" d="M-224.45-65.465h-26.721l-5.344,12.024h20.04L-215.1-74.817l21.377,21.377h9.352" transform="translate(256.515 74.817)" fill="none" stroke="#fff" stroke-linecap="round" stroke-linejoin="round" stroke-width="2"/>
        </g>
      </g>
    </g>
    <g id="g2505" transform="translate(42.667 -676.739)">
      <path id="path2507" d="M0-102.873v-14.7" transform="translate(0 117.569)" fill="none" stroke="#fff" stroke-linecap="round" stroke-linejoin="round" stroke-width="2"/>
    </g>
    <g id="g2509" transform="translate(42.667 -676.739)">
      <path id="path2511" d="M0,0H9.352V6.68H0" fill="none" stroke="#fff" stroke-linecap="round" stroke-linejoin="round" stroke-width="2"/>
    </g>
    <g id="g2513" transform="translate(0 -682.665)">
      <g id="g2515" clip-path="url(#clip-path)">
        <g id="g2521" transform="translate(34.651 36.655)">
          <path id="path2523" d="M-112.225-56.113a8.016,8.016,0,0,1-8.016,8.016,8.016,8.016,0,0,1-8.016-8.016,8.016,8.016,0,0,1,8.016-8.016A8.016,8.016,0,0,1-112.225-56.113Z" transform="translate(128.257 64.129)" fill="none" stroke="#fff" stroke-linecap="round" stroke-linejoin="round" stroke-width="2"/>
        </g>
        <g id="g2525" transform="translate(42.667 43.335)">
          <path id="path2527" d="M0-28.056v-2.672l2.672-1.336" transform="translate(0 32.064)" fill="none" stroke="#fff" stroke-linecap="round" stroke-linejoin="round" stroke-width="2"/>
        </g>
        <g id="g2529" transform="translate(42.667 62.04)">
          <path id="path2531" d="M0,0V12.024" fill="none" stroke="#fff" stroke-linecap="round" stroke-linejoin="round" stroke-width="2"/>
        </g>
        <g id="g2533" transform="translate(31.979 74.064)">
          <path id="path2535" d="M0-37.408v-5.344H21.377v5.344" transform="translate(0 42.752)" fill="none" stroke="#fff" stroke-linecap="round" stroke-linejoin="round" stroke-width="2"/>
        </g>
        <g id="g2537" transform="translate(34.651 62.04)">
          <path id="path2539" d="M-112.225-84.169V-96.193h-16.032v12.024" transform="translate(128.257 96.193)" fill="none" stroke="#fff" stroke-linecap="round" stroke-linejoin="round" stroke-width="2"/>
        </g>
        <g id="g2541" transform="translate(9.266 62.04)">
          <path id="path2543" d="M-56.114-56.113h10.688v-8.016h-18.7v8.016h2.673" transform="translate(64.131 64.129)" fill="none" stroke="#fff" stroke-linecap="round" stroke-linejoin="round" stroke-width="2"/>
        </g>
        <path id="path2545" d="M74.129-285.22h18.7v-8.016h-18.7Z" transform="translate(-64.863 341.916)" fill="none" stroke="#fff" stroke-linecap="round" stroke-linejoin="round" stroke-width="2"/>
        <g id="g2547" transform="translate(18.619 48.679)">
          <path id="path2549" d="M0-56.113v-8.016" transform="translate(0 64.129)" fill="none" stroke="#fff" stroke-linecap="round" stroke-linejoin="round" stroke-width="2"/>
        </g>
        <g id="g2551" transform="translate(18.619 62.04)">
          <path id="path2553" d="M0-56.113v-8.016" transform="translate(0 64.129)" fill="none" stroke="#fff" stroke-linecap="round" stroke-linejoin="round" stroke-width="2"/>
        </g>
        <path id="path2555" d="M458.9-178.338h18.7v-8.016H458.9Z" transform="translate(-401.538 248.394)" fill="none" stroke="#fff" stroke-linecap="round" stroke-linejoin="round" stroke-width="2"/>
        <path id="path2557" d="M458.9-285.22h18.7v-8.016H458.9Z" transform="translate(-401.538 341.916)" fill="none" stroke="#fff" stroke-linecap="round" stroke-linejoin="round" stroke-width="2"/>
        <g id="g2559" transform="translate(66.716 48.679)">
          <path id="path2561" d="M0-56.113v-8.016" transform="translate(0 64.129)" fill="none" stroke="#fff" stroke-linecap="round" stroke-linejoin="round" stroke-width="2"/>
        </g>
        <g id="g2563" transform="translate(66.716 62.04)">
          <path id="path2565" d="M0-56.113v-8.016" transform="translate(0 64.129)" fill="none" stroke="#fff" stroke-linecap="round" stroke-linejoin="round" stroke-width="2"/>
        </g>
      </g>
    </g>
  </g>
</svg>
