<svg xmlns="http://www.w3.org/2000/svg" xmlns:xlink="http://www.w3.org/1999/xlink" width="188" height="173" viewBox="0 0 188 173">
  <defs>
    <clipPath id="clip-path">
      <rect id="Rectangle_11130" data-name="Rectangle 11130" width="100.244" height="97" fill="#fff"/>
    </clipPath>
  </defs>
  <g id="Group_27671" data-name="Group 27671" transform="translate(-738 -5736)">
    <rect id="Rectangle_11102" data-name="Rectangle 11102" width="188" height="173" rx="18" transform="translate(738 5736)" fill="#ed0109"/>
    <g id="Group_27670" data-name="Group 27670">
      <g id="Group_27596" data-name="Group 27596" transform="translate(782 5774)">
        <g id="Group_27595" data-name="Group 27595" transform="translate(0 0)" clip-path="url(#clip-path)">
          <path id="Path_31637" data-name="Path 31637" d="M45.206,14.9c24.138-1.481,40.472,24.679,28.72,45.856-11.063,19.935-39.433,21.219-52.36,2.481C7.883,43.4,21.319,16.362,45.206,14.9M37.123,28.889a43.225,43.225,0,0,0,16.961.6c.467-.08,2.525-.4,2.59-.711-1.568-3.455-4.638-7.56-8.12-9.23-1.843-.885-2.3-.5-3.944.465-3.263,1.9-5.824,5.56-7.487,8.878m2.416-9.441a24.518,24.518,0,0,0-10.98,6.039l5.265,2.526c1.261-3.233,3.5-5.949,5.716-8.566M60,27.767c.582.369,4.74-1.711,5.461-2.28-3.206-2.737-7-5.22-11.2-6.039A27,27,0,0,1,60,27.767M19.547,44.051h5.712c.5-2.761,2.744-4.393,5.292-5.2l1.968-7.639-6.68-3a28.328,28.328,0,0,0-6.292,15.836m54.7,0a25.875,25.875,0,0,0-4.169-13.076c-.361-.557-1.74-2.75-2.309-2.744-.657,0-4.976,2.894-6.258,2.874a55.186,55.186,0,0,1,2.188,10.2c.081.9-.287,2.078.333,2.744Zm-35.809,0H60.41c-.325-4.019-.777-8.143-2.332-11.879a48.253,48.253,0,0,1-16.011,1.113c-2.113-.213-4.165-.787-6.269-1.007l-1.727,6.8c2.058,1.194,3.906,2.456,4.37,4.976M31.357,42.34c-4.438.653-3.59,7.327,1.021,6.746,4.3-.542,3.357-7.389-1.021-6.746m-6.1,5.226H19.547a31.446,31.446,0,0,0,6.479,15.777l6.432-3.133-1.9-7.671a7.07,7.07,0,0,1-5.294-4.972m35.151,0H38.55a8.18,8.18,0,0,1-4.522,4.755L35.6,59.194a55,55,0,0,1,17.639-.833c.8.1,4.765,1.056,5,.718A46.376,46.376,0,0,0,60.41,47.566m13.84,0H63.7a39.816,39.816,0,0,1-2.179,12.615l6.469,3.176a26.717,26.717,0,0,0,6.256-15.79M56.675,62.508a44.211,44.211,0,0,0-19.551,0c1.714,3.52,4.528,7.545,8.119,9.343,1.982.993,2.315.657,4.165-.466a18.8,18.8,0,0,0,7.267-8.878M39.759,72.169a32.01,32.01,0,0,1-5.93-8.472c-.442-.28-4.646,1.644-5.273,2.215L30.9,67.957a26.75,26.75,0,0,0,8.857,4.212m25.7-6.366c-.8-.261-4.971-2.547-5.471-2.184-1.178,3.19-3.373,5.769-5.513,8.33A22.619,22.619,0,0,0,65.462,65.8" transform="translate(2.236 2.063)" fill="#fff"/>
          <path id="Path_31638" data-name="Path 31638" d="M39.3,1.893a1.975,1.975,0,0,1,.405,1.7l-7.37,13.734c-2.116,1.748-3.28-.86-3.963-2.532A34.558,34.558,0,0,0,16.2,26.675a39.14,39.14,0,0,0,16.928,56.63,39.692,39.692,0,0,0,34.131-.851c-.746-1.674-2.91-3.837-.282-5l9.848.164c2.221.852,7.185-1.194,7.036,2.427-2.269,3.993-4.12,8.281-6.458,12.229-.313.53-.975,1.844-1.511,2-2.035.606-2.68-1.59-3.376-3.016l-.3-.017c-1.789.763-3.522,1.671-5.342,2.363a49.216,49.216,0,0,1-43.866-87.6c-.277-1.406-1.867-2.463-1.4-4.023.536-1.786,4.84-.83,6.208-.805,2.461.046,4.8.077,7.25.22,1.117.065,3.434-.308,4.232.492m-4.113,2.8L26.4,4.468c-.191.173,1.245,1.83.415,3.161-.221.354-5.081,3.364-6.012,4.094A45.807,45.807,0,0,0,68.287,89.307c2.414-1.08,5.42-4.107,6.77-.259l4.284-7.907-8.785-.22c.737,1.893,1.333,2.652-.595,3.909-9.526,6.216-24.624,6.617-35.111,2.9C5,77.168-3.162,37.96,20.243,16.437c1.374-1.263,6.349-5.25,7.9-5.719,2.2-.665,2.588,1.96,2.755,1.877Z" transform="translate(0 0.126)" fill="#fff"/>
          <path id="Path_31639" data-name="Path 31639" d="M81.42,13.22c.753.686,2.3,4.663,2.755,4.932,1.344.382,5.826.451,6.274,1.966.641,2.168-2.995,3.847-3.817,5.656.057,1.358.5,2.86.564,4.186.252,5.275-4.655,1.027-7.1.377-1.379.451-4.257,2.608-5.594,2.228-2.588-.736-.434-5.039-.744-6.953-1.139-1.783-5.877-4.488-2.868-6.471l5.322-1.05c1.1-1.3,2.718-7.137,5.209-4.872m-1.035,4.987c-.51-.113-.351.068-.488.281-1.484,2.3-1.3,3.238-4.779,3.234-.286.253,1.967,2.146,2.141,2.8.285,1.066-.371,2.246-.164,3.351,1.108-.26,1.981-1.123,3.186-1.116s2,1.083,3.182,1.116l-.354-3.081,2.112-3.067c-2.789.032-3.944-.976-4.836-3.515" transform="translate(9.719 1.766)" fill="#fff"/>
          <path id="Path_31640" data-name="Path 31640" d="M45.112.018a31.215,31.215,0,0,1,4.743.431,48.873,48.873,0,0,1,24.97,11.5,44.222,44.222,0,0,1,4.142,4.205c.8,1.537-.457,3.27-2.112,2.553-.821-.357-3.1-3.091-4.007-3.9A45.609,45.609,0,0,0,48.54,3.741c-1.1-.165-3.015-.035-3.98-.413A1.754,1.754,0,0,1,45.112.018" transform="translate(6.059 0)" fill="#fff"/>
          <path id="Path_31641" data-name="Path 31641" d="M80.574,65.88a1.809,1.809,0,0,1-3.006-1.343,61.516,61.516,0,0,0,3.716-9.7,45.426,45.426,0,0,0,1.084-17.526c-.183-1.49-1.607-5.219.034-5.959,2.947-1.329,3.261,4.257,3.484,6.176a49.055,49.055,0,0,1-3.6,24.9,22.274,22.274,0,0,1-1.709,3.454" transform="translate(10.784 4.331)" fill="#fff"/>
        </g>
      </g>
    </g>
  </g>
</svg>
