<svg id="Group_23779" data-name="Group 23779" xmlns="http://www.w3.org/2000/svg" xmlns:xlink="http://www.w3.org/1999/xlink" width="59.952" height="67.481" viewBox="0 0 59.952 67.481">
  <defs>
    <clipPath id="clip-path">
      <rect id="Rectangle_1747" data-name="Rectangle 1747" width="59.952" height="67.481" fill="#393939"/>
    </clipPath>
  </defs>
  <g id="Group_22725" data-name="Group 22725" clip-path="url(#clip-path)">
    <path id="Path_3419" data-name="Path 3419" d="M88.71,128.9h15.752c.9,0,1.394-.364,1.4-1.033.007-.629-.5-1-1.376-1q-15.776,0-31.553,0a2.566,2.566,0,0,0-.633.071.96.96,0,0,0-.609,1.4,1.145,1.145,0,0,0,1.166.564q7.925,0,15.85,0m.025-8.119H73.086a5.455,5.455,0,0,0-.64.025.945.945,0,0,0-.867,1.01c.019.64.439.956,1.287.956q15.846,0,31.692,0a2.325,2.325,0,0,0,.631-.078.936.936,0,0,0,.669-.977,1,1,0,0,0-.786-.9,4.376,4.376,0,0,0-.689-.036q-7.824,0-15.648,0M80.582,115.9c2.6,0,5.2.014,7.8-.016a1.961,1.961,0,0,0,1.067-.368.812.812,0,0,0,.144-1.04,1.108,1.108,0,0,0-1.162-.568q-7.8,0-15.6,0a2.07,2.07,0,0,0-.675.105.86.86,0,0,0-.582.885.837.837,0,0,0,.584.877,2.874,2.874,0,0,0,.821.116c2.534.008,5.067,0,7.6,0" transform="translate(-64.492 -102.632)" fill="#393939"/>
    <path id="Path_3420" data-name="Path 3420" d="M105.466,370.492l-3.439-1.816a3.394,3.394,0,0,1-5.672-.958,3.489,3.489,0,0,1-2.845-.15,3.329,3.329,0,0,1-1.7-2.3,8.849,8.849,0,0,1-1.173-.118,3.182,3.182,0,0,1-2.542-2.34c-.083-.3-.234-.328-.492-.329a3.279,3.279,0,0,1-3.432-2.99,3.331,3.331,0,0,1,.7-2.4q.382-.538.766-1.074l-.044-.168a2.035,2.035,0,0,0-.656.063,3.748,3.748,0,0,1-3.593-.021c-.745-.418-1.489-.84-2.208-1.3a2.1,2.1,0,0,1-.738-3.036q4.19-7.118,8.417-14.214a2.041,2.041,0,0,1,2.707-.788,23.4,23.4,0,0,1,2.7,1.63,3.629,3.629,0,0,1,1.468,3.228.68.68,0,0,0,.385.695,3.124,3.124,0,0,0,2.928.21c.826-.321,1.645-.664,2.486-.943a4.916,4.916,0,0,1,4.107.641,1.262,1.262,0,0,0,1.065.128c.962-.276,1.935-.514,2.906-.757a5.154,5.154,0,0,1,3.143.209c.932.351,1.873.693,2.833.951a4,4,0,0,0,1.255-.094,3.875,3.875,0,0,1,.437-3.384,1.615,1.615,0,0,1,.434-.529,35.034,35.034,0,0,1,3.381-2.089,2,2,0,0,1,2.531,1.065q3.373,5.682,6.737,11.37c.36.608.734,1.209,1.076,1.827.309.557.584,1.133.874,1.7V353a2.56,2.56,0,0,1-1.126,1.6c-.724.421-1.441.854-2.169,1.27a3.569,3.569,0,0,1-2.995.283.616.616,0,0,0-.413-.027c-.4.209-.778.458-1.181.7a3.365,3.365,0,0,1-3.761,5.272,3.463,3.463,0,0,1-4.131,2.883,3.442,3.442,0,0,1-1.827,2.669,3.274,3.274,0,0,1-3.168-.058c-.127.359-.214.659-.338.942a3.6,3.6,0,0,1-2.4,1.951ZM103.226,367c.768.451,1.507.912,2.271,1.326a1.323,1.323,0,0,0,1.309-2.3c-.64-.4-1.294-.783-1.938-1.178a.9.9,0,0,1-.435-.973.869.869,0,0,1,.761-.8,1.574,1.574,0,0,1,.872.2c1.454.833,2.883,1.71,4.336,2.546a1.349,1.349,0,0,0,2.022-.781,1.262,1.262,0,0,0-.648-1.5c-1.547-.935-3.111-1.843-4.646-2.8a1.381,1.381,0,0,1-.628-.8,1.254,1.254,0,0,1,.369-.93.936.936,0,0,1,1.189-.021q2.054,1.225,4.111,2.445c.8.478,1.6.977,2.419,1.426a1.313,1.313,0,0,0,2-.991,1.28,1.28,0,0,0-.711-1.347q-3.2-1.894-6.405-3.792a1.025,1.025,0,0,1-.511-1.449c.317-.552.882-.651,1.536-.265q2.886,1.706,5.771,3.413c.962.568,1.921,1.141,2.9,1.686a1.275,1.275,0,0,0,1.512-.161,1.153,1.153,0,0,0,.369-1.38,2.469,2.469,0,0,0-.919-.966c-4.1-2.456-8.223-4.883-12.339-7.318-.123-.073-.254-.135-.385-.2A4.444,4.444,0,0,1,103.49,353a2.066,2.066,0,0,1-2.374-2.19c-.012-1.235.03-2.47-.012-3.7a4.92,4.92,0,0,1,1.221-3.673,6.018,6.018,0,0,0-1.783-.2,18.27,18.27,0,0,0-2.794.914,5.1,5.1,0,0,1-4.595-.3c-.093-.053-.194-.092-.312-.147L86.628,354.19l.072.18a6.948,6.948,0,0,0,.713-.072,9.274,9.274,0,0,1,1.287-.29,3.35,3.35,0,0,1,3,1.626,3.359,3.359,0,0,1,5.653,1.81,3.2,3.2,0,0,1,3.051,1.18,3.394,3.394,0,0,1,.61,3.231A3.427,3.427,0,0,1,103.226,367m18.742-12.273-3.108-5.252c-.454-.768-.394-1.308.185-1.672.53-.333,1.064-.108,1.513.645.959,1.61,1.909,3.225,2.874,4.831a1.879,1.879,0,0,0,2.773.744c.474-.263.939-.542,1.4-.825.747-.456.765-.3.276-1.123q-3.942-6.662-7.882-13.326c-.213-.361-.381-.463-.759-.211-.559.374-1.165.677-1.732,1.04a1.864,1.864,0,0,0-.619,2.66c.35.595.7,1.187,1.045,1.787a1.041,1.041,0,0,1-.254,1.481,1.012,1.012,0,0,1-1.454-.461c-.18-.286-.356-.575-.539-.871a5.269,5.269,0,0,1-4.166-.1c-.515-.214-1.042-.4-1.558-.612a2.936,2.936,0,0,0-1.929-.132c-1,.268-2,.513-3,.777a2.447,2.447,0,0,0-1.942,2.511c0,1.317,0,2.634,0,3.951,0,.143.019.286.033.475a4.538,4.538,0,0,0,.616-.069,2.409,2.409,0,0,0,1.88-2.3c.137-1.189.793-1.51,1.83-.894l2.543,1.51q5.13,3.045,10.264,6.082a.692.692,0,0,0,.553.07,12.561,12.561,0,0,0,1.156-.714m-38.954-.351a2.055,2.055,0,0,0,1.792-1.025q.833-1.4,1.659-2.8,2.425-4.09,4.848-8.181a1.9,1.9,0,0,0-.744-2.92c-.522-.311-1.055-.6-1.565-.934-.32-.207-.5-.173-.695.173-.836,1.451-1.7,2.886-2.556,4.326q-2.752,4.64-5.511,9.276c-.215.36-.213.563.187.768.539.278,1.038.634,1.576.914a8.741,8.741,0,0,0,1.01.4m6.875,7.484a1.46,1.46,0,0,0,.962,1.306,1.279,1.279,0,0,0,1.459-.429c.949-1.3,1.892-2.607,2.809-3.931a1.326,1.326,0,1,0-2.156-1.545c-.947,1.282-1.866,2.585-2.779,3.89a3.511,3.511,0,0,0-.3.708m5.382,4.108a4.6,4.6,0,0,0,.858-.557,6.482,6.482,0,0,0,.73-.987c.69-.961,1.393-1.912,2.064-2.885a1.332,1.332,0,0,0-.259-1.852,1.3,1.3,0,0,0-1.876.272c-.971,1.3-1.912,2.631-2.848,3.961a1.212,1.212,0,0,0-.029,1.353,1.4,1.4,0,0,0,1.361.694m-6.615-10.006c-.188.1-.539.168-.715.384a23.853,23.853,0,0,0-1.65,2.259,1.26,1.26,0,0,0,.46,1.679A1.273,1.273,0,0,0,88.506,360c.482-.642.944-1.3,1.407-1.955a1.231,1.231,0,0,0,.042-1.391,1.526,1.526,0,0,0-1.3-.695m11.749,7.787a3.889,3.889,0,0,0-.96.575,10.718,10.718,0,0,0-1.1,1.5,1.318,1.318,0,0,0,2.109,1.556,11.689,11.689,0,0,0,1.122-1.553,1.435,1.435,0,0,0-1.169-2.083" transform="translate(-70.309 -303.011)" fill="#393939"/>
    <path id="Path_3421" data-name="Path 3421" d="M46.426,13.264h-.642c-1.942-.005-3.886.038-5.827-.028a4.958,4.958,0,0,1-4.794-4.977c-.012-1.877,0-3.754,0-5.631,0-.655,0-.656-.679-.656q-14.52,0-29.039,0a5.7,5.7,0,0,0-.885.064,3.016,3.016,0,0,0-2.51,2.72c-.021.262-.038.526-.038.788q0,25.735.01,51.47a4.508,4.508,0,0,0,.3,1.775,2.842,2.842,0,0,0,2.77,1.781q4.963.006,9.927,0a2.507,2.507,0,0,1,.681.072.915.915,0,0,1,.7.959.889.889,0,0,1-.708.895,1.352,1.352,0,0,1-.388.06c-3.49,0-6.981.042-10.469-.028A4.964,4.964,0,0,1,.009,57.674C0,57.526,0,57.377,0,57.229Q0,31.272,0,5.314A5.035,5.035,0,0,1,3.037.427,4.335,4.335,0,0,1,4.843.019Q19.881-.018,34.919,0a4,4,0,0,1,2.91,1.248q4.647,4.643,9.285,9.3a4.2,4.2,0,0,1,1.3,3.088q-.01,8.323.006,16.646c0,1.015-.923,1.374-1.43,1.016a1.946,1.946,0,0,1-.546-.813,1.7,1.7,0,0,1-.021-.636q0-7.928,0-15.856v-.726m-1.61-2.02-7.679-7.7c0,.106,0,.231,0,.356.015,1.544-.047,3.094.067,4.631a2.8,2.8,0,0,0,2.672,2.691c1.663.11,3.338.025,4.94.025" transform="translate(0 0)" fill="#393939"/>
    <path id="Path_3422" data-name="Path 3422" d="M88.709,246.939q-7.925,0-15.85,0a1.145,1.145,0,0,1-1.166-.564.96.96,0,0,1,.609-1.4,2.565,2.565,0,0,1,.633-.071q15.776,0,31.553,0c.875,0,1.383.374,1.375,1-.007.669-.5,1.033-1.4,1.033H88.709" transform="translate(-64.492 -220.669)" fill="#393939"/>
    <path id="Path_3423" data-name="Path 3423" d="M88.778,183.441q7.824,0,15.648,0a4.389,4.389,0,0,1,.689.036,1,1,0,0,1,.786.9.936.936,0,0,1-.668.977,2.327,2.327,0,0,1-.631.078q-15.846.005-31.692,0c-.848,0-1.269-.316-1.287-.956a.945.945,0,0,1,.867-1.01,5.433,5.433,0,0,1,.64-.025H88.778" transform="translate(-64.535 -165.289)" fill="#393939"/>
    <path id="Path_3424" data-name="Path 3424" d="M80.6,115.9c-2.534,0-5.067,0-7.6,0a2.874,2.874,0,0,1-.821-.116.837.837,0,0,1-.584-.877.86.86,0,0,1,.582-.885,2.07,2.07,0,0,1,.675-.105q7.8-.008,15.6,0a1.108,1.108,0,0,1,1.162.568.812.812,0,0,1-.144,1.041,1.961,1.961,0,0,1-1.067.368c-2.6.03-5.2.016-7.8.016" transform="translate(-64.506 -102.632)" fill="#393939"/>
  </g>
</svg>
