<svg id="Group_27624" data-name="Group 27624" xmlns="http://www.w3.org/2000/svg" xmlns:xlink="http://www.w3.org/1999/xlink" width="107.647" height="110" viewBox="0 0 107.647 110">
  <defs>
    <clipPath id="clip-path">
      <rect id="Rectangle_11146" data-name="Rectangle 11146" width="107.647" height="110" fill="#75a334"/>
    </clipPath>
  </defs>
  <g id="Group_27623" data-name="Group 27623" clip-path="url(#clip-path)">
    <path id="Path_31720" data-name="Path 31720" d="M63.76.032c4.136.521,9.453,5.2,9.453,9.558v9.558h27.822a7.322,7.322,0,0,1,5.732,3.505c1.7,3.162.759,5.966-1.306,8.6a6.745,6.745,0,0,1-.233,10.125c4.033,3.317,2.748,10.2-2.368,11.493.673,1.92,1.234,3.336.8,5.421-.494,2.392-3.325,5.316-5.852,5.316H89.971c13.2,16.94-2.328,41.035-23.367,35.28-1.245-.34-5.44-1.962-6.163-2.86a1.723,1.723,0,0,1,.9-2.748c.671-.13,3.784,1.736,4.887,2.119,18.2,6.33,33.214-15.125,21.16-29.745-14.415-17.483-42.137.364-31.258,21.154.57,1.09,2.861,3.439.753,4.394-1.455.66-2.267-.742-2.964-1.755A23.078,23.078,0,0,1,50.657,80.3c-.425-.806-3.262.388-3.558,1.333-.41,1.308.034,4.155-.089,5.711A5.25,5.25,0,0,1,41.95,92.6c-2.179.2-8.309.261-10.132-.6-4.134-1.956-1.975-6.693-2.74-9.933-.261-1.1-2.016-2.044-3.06-2.063-1.244-.023-3.69,3.213-4.794,4.121-2.166,1.782-4.533,2.236-6.883.432-1.033-.793-6.507-6.339-6.91-7.267a5.341,5.341,0,0,1,1-5.735c.794-.993,3.809-3.392,4.1-4.281a4,4,0,0,0-1.289-3.46c-.93-.529-4.815-.065-6.24-.205A5.185,5.185,0,0,1,.217,59.583a60.334,60.334,0,0,1-.052-9.615,5.179,5.179,0,0,1,3.811-4.136c1.852-.31,6.533.539,7.672-.707a6.651,6.651,0,0,0,.992-2.47c.053-2.014-5.09-4.644-5.549-7.342a5.482,5.482,0,0,1,.549-3.644,44.835,44.835,0,0,1,7.153-7.239c5.158-3.109,6.966,2.51,10.088,4.481.993.626,2.819.1,3.632-.646,1.246-1.138.4-5.819.707-7.67a5.18,5.18,0,0,1,4.138-3.81,61.447,61.447,0,0,1,9.435.019A5.228,5.228,0,0,1,47,21.62c.144,1.452-.323,5.073.114,6.115.349.832,2.528,1.656,3.385,1.466,1.819-.4,4.861-6.219,7.889-5.544.251-.241-.156-5.9.013-6.967a1.615,1.615,0,0,1,3.215-.016L61.6,50.835c-.135,1.186,1.607,6.021,2.694,6.123.512.048,3.58-1.078,4.569-1.24a22.533,22.533,0,0,1,14.227,2.3c-.463-2.113.374-3.841,1.309-5.672a6.76,6.76,0,0,1-1.095-10.973,6.891,6.891,0,0,1,0-10.309A6.823,6.823,0,0,1,81,25.109c.125-.965.7-1.792.8-2.739H72.032c-.528,0-1.871-1.713-1.992-2.3-.544-2.673.238-6.915-.051-9.829a7.832,7.832,0,0,0-8.021-6.948l-.356.288V9.8c0,1.016-2.937,1.832-3.228-.64a32.453,32.453,0,0,1,.1-6.139,4.442,4.442,0,0,1,2.7-2.994c.823.072,1.779-.1,2.578,0M58.389,26.88c-3.026.936-4.422,5.314-7.844,5.582-2.811.22-6.426-1.812-6.766-4.829-.215-1.91.914-7.3-1.6-7.637a55.041,55.041,0,0,0-7.971,0c-2.891.26-1.615,4.54-1.819,6.772-.419,4.588-5.816,7.372-9.557,4.621-1.273-.936-3.785-4.466-5.161-4.525a1.784,1.784,0,0,0-.908.178c-.951,1.085-6.325,5.69-6.5,6.61-.353,1.867,3.037,4.037,4.191,5.466a6.121,6.121,0,0,1-4.292,9.89c-1.991.157-6.484-.957-6.78,1.6a55.284,55.284,0,0,0-.01,7.965,1.677,1.677,0,0,0,1.3,1.707c3.53.823,7.52-1.459,9.932,2.535,1.428,2.364,1.875,4.729.068,7.023-1.379,1.75-5.642,4.146-3.977,6.549a60.28,60.28,0,0,0,5.48,5.476c.806.58,1.3.846,2.238.3,1.884-1.089,3.373-4.206,5.878-5.076A6.337,6.337,0,0,1,32.4,82.607c.174,2.213-1.059,6.458,1.814,6.779a49.519,49.519,0,0,0,7.719-.025c2.955-.414,1.6-5.542,1.845-7.821.357-3.3,4.066-4.416,6.78-5.034A22.5,22.5,0,0,1,61.178,58.544a27.73,27.73,0,0,1-1.818-3.317,17.339,17.339,0,0,1-.971-3.54Zm29.387-4.45c-4.28.535-4.906,5.43-1.04,6.932l14.93.082c3.39-.84,3.75-5.7.386-6.8-1.717-.563-12.118-.482-14.277-.212m-.434,10.305a3.557,3.557,0,0,0-.437,6.983c4.514-.335,10.162.624,14.542.03a3.518,3.518,0,0,0,.435-6.841c-1.814-.506-12.419-.482-14.54-.172m-.219,10.3a3.553,3.553,0,0,0,0,6.985,94.118,94.118,0,0,0,14.11.033,3.541,3.541,0,0,0,.182-7.018,95.974,95.974,0,0,0-14.292,0m1.934,10.31c-3.812.641-3.913,6.53.592,7.037a49.169,49.169,0,0,0,7.716-.019,3.548,3.548,0,0,0-.188-7.078,50.246,50.246,0,0,0-8.121.06" transform="translate(0 0)" fill="#75a334"/>
    <path id="Path_31721" data-name="Path 31721" d="M194.56,278.479h-4.941a34.453,34.453,0,0,1-18.363-7.524c-.769-.645-3.627-3.34-3.845-4.12a1.622,1.622,0,0,1,2.423-1.762c1.036.6,3.053,3.036,4.338,4.041,20.33,15.892,48.917-.4,47.026-25.963-.109-1.472-1.212-4.767-1.067-5.783.2-1.411,2.333-1.633,2.981-.64a15.316,15.316,0,0,1,.783,2.869c3.932,18.824-10.179,37.518-29.334,38.883" transform="translate(-119.413 -168.479)" fill="#75a334"/>
    <path id="Path_31722" data-name="Path 31722" d="M234.385,243.114a1.667,1.667,0,0,1,1.529,2.621c-4.077,4.174-7.66,9.046-11.679,13.239-.887.926-1.771,2.186-3.131,1.191l-8.32-9.509a1.632,1.632,0,0,1,2.4-1.967l6.9,7.7,11.19-12.651a2.847,2.847,0,0,1,1.112-.625" transform="translate(-151.771 -173.456)" fill="#75a334"/>
    <path id="Path_31723" data-name="Path 31723" d="M89.492,131.967c17.271-1.943,26.287,19,13.254,29.789-8.594,7.117-22.019,3.986-26.351-6.291-.543-1.288-1.761-4.5.591-4.655,1.614-.106,1.7,1.838,2.136,2.788,7.837,17.021,31.185,6.886,25.73-9.4-3.794-11.325-19.878-12.36-25.165-1.629-.756,1.534-.81,4.2-2.91,3.938s-.923-3.073-.442-4.283a17.105,17.105,0,0,1,13.157-10.258" transform="translate(-53.924 -94.074)" fill="#75a334"/>
    <path id="Path_31724" data-name="Path 31724" d="M109.184,159.079c12.655-1.468,13.8,17.965,1.229,18.074-11.351.1-12.317-16.788-1.229-18.074m.21,3.218c-6.85.977-6.346,11.732,1.02,11.634,8.1-.108,7.345-12.827-1.02-11.634" transform="translate(-72.327 -113.453)" fill="#75a334"/>
  </g>
</svg>
