<svg xmlns="http://www.w3.org/2000/svg" xmlns:xlink="http://www.w3.org/1999/xlink" width="188" height="173" viewBox="0 0 188 173">
  <defs>
    <clipPath id="clip-path">
      <rect id="Rectangle_11142" data-name="Rectangle 11142" width="114.548" height="114.568" fill="#fff"/>
    </clipPath>
  </defs>
  <g id="Group_27668" data-name="Group 27668" transform="translate(-550 -4389)">
    <rect id="Rectangle_11101" data-name="Rectangle 11101" width="188" height="173" rx="18" transform="translate(550 4389)" fill="#f78700"/>
    <g id="Group_27616" data-name="Group 27616" transform="translate(587 4418)">
      <g id="Group_27615" data-name="Group 27615" clip-path="url(#clip-path)">
        <path id="Path_31692" data-name="Path 31692" d="M122.679,190.852V173.736a4.538,4.538,0,0,1,1.021-.9,2,2,0,0,1,2.57,1.856v16.158l19.985-13.887.128-19.5a1.838,1.838,0,0,1,3.6.7c-.455,6.251.564,13.255,0,19.414a3.4,3.4,0,0,1-.486,1.6c-7.617,5.009-14.92,10.877-22.574,15.792-2.115,1.358-2.085,1.91-4.416.48-6.706-4.114-15.143-10.147-21.446-14.94-.99-.752-2.395-1.491-2.33-2.937.523-6.158-.662-13.371.011-19.4.313-2.8,3.33-2.554,3.6-.492l.11,19.28,19.38,13.654Z" transform="translate(-67.08 -106.28)" fill="#fff"/>
        <path id="Path_31693" data-name="Path 31693" d="M124.531,76.808c.943-.158,2.083.843,2.864,1.344,6.607,4.239,14.531,9.681,20.729,14.46,2.846,2.2,3.287,2.6.239,4.939-6.234,4.777-13.975,10.079-20.587,14.363-2.63,1.7-2.366,2.285-5.179.479-7.646-4.91-14.787-10.693-22.408-15.654-2.2-1.793-.161-2.982,1.342-4.126,6.255-4.759,13.973-10.1,20.587-14.363a10.773,10.773,0,0,1,2.411-1.441m20.884,18.157-20.5-14.079L104.242,94.966l20.5,14.571Z" transform="translate(-67.554 -52.282)" fill="#fff"/>
        <path id="Path_31694" data-name="Path 31694" d="M51.977,51.169a2.527,2.527,0,0,1,1.878.175l7.3,7.3c.916,2.025-.54,3.45-2.539,2.539l-7.3-7.3c-.5-.8-.352-2.416.661-2.714" transform="translate(-34.749 -34.768)" fill="#fff"/>
        <path id="Path_31695" data-name="Path 31695" d="M283.163,51.1c1.893-.569,2.971.778,2.341,2.579l-7.4,7.437c-1.95.863-3.322-.366-2.641-2.4,1.538-1.023,6.5-7.252,7.7-7.614" transform="translate(-187.419 -34.699)" fill="#fff"/>
        <path id="Path_31696" data-name="Path 31696" d="M58.913,275.347c1.893-.569,2.971.778,2.341,2.579l-7.4,7.437c-1.95.863-3.322-.366-2.641-2.4,1.538-1.023,6.5-7.252,7.7-7.614" transform="translate(-34.745 -187.373)" fill="#fff"/>
        <path id="Path_31697" data-name="Path 31697" d="M276.227,275.419a2.527,2.527,0,0,1,1.878.175l7.3,7.3c.916,2.025-.54,3.45-2.539,2.539l-7.3-7.3c-.5-.8-.352-2.416.661-2.714" transform="translate(-187.424 -187.443)" fill="#fff"/>
        <path id="Path_31698" data-name="Path 31698" d="M174.649.123c1.145-.335,2.311,0,2.476,1.252.426,3.247-.336,7.424-.019,10.778a1.728,1.728,0,0,1-3.357-.221,73.074,73.074,0,0,1,0-10.557,1.432,1.432,0,0,1,.9-1.252" transform="translate(-118.163 0)" fill="#fff"/>
        <path id="Path_31699" data-name="Path 31699" d="M.95,174.285l11.194-.044a1.748,1.748,0,0,1,0,3.338h-11c-1.458-.272-1.526-2.764-.2-3.295" transform="translate(0 -118.628)" fill="#fff"/>
        <path id="Path_31700" data-name="Path 31700" d="M318.023,174.285l11.194-.044c1.53.286,1.522,3.056,0,3.339h-11a1.769,1.769,0,0,1-.2-3.295" transform="translate(-215.815 -118.628)" fill="#fff"/>
        <path id="Path_31701" data-name="Path 31701" d="M175.477,316.937a1.72,1.72,0,0,1,1.771,1.473c.418,3.262-.33,7.414-.018,10.778-.281,1.508-3.112,1.649-3.357-.221-.426-3.247.336-7.424.019-10.778a1.832,1.832,0,0,1,1.586-1.252" transform="translate(-118.286 -215.777)" fill="#fff"/>
      </g>
    </g>
  </g>
</svg>
