<svg xmlns="http://www.w3.org/2000/svg" xmlns:xlink="http://www.w3.org/1999/xlink" width="188" height="173" viewBox="0 0 188 173">
  <defs>
    <clipPath id="clip-path">
      <rect id="Rectangle_11149" data-name="Rectangle 11149" width="114.019" height="110" fill="#f9f9f9"/>
    </clipPath>
  </defs>
  <g id="Group_27663" data-name="Group 27663" transform="translate(-550 -4389)">
    <rect id="Rectangle_11101" data-name="Rectangle 11101" width="188" height="173" rx="18" transform="translate(550 4389)" fill="#75a334"/>
    <g id="Group_27630" data-name="Group 27630" transform="translate(587 4421)">
      <g id="Group_27629" data-name="Group 27629" clip-path="url(#clip-path)">
        <path id="Path_31740" data-name="Path 31740" d="M0,1.122A2.266,2.266,0,0,1,2.107,0L62.445.029a1.682,1.682,0,0,1,1.677,1.44c.463,2.986-.317,7.017.013,10.119h4.788l.669.445c5.517,6.236,12.015,11.68,17.434,17.974l.061,19.314a25.122,25.122,0,0,1-2.448,28.711l2.991,3.033c1.77-2.051,3.987-3.413,6.555-1.652,5.52,6.319,13.241,12.079,18.5,18.464A10.467,10.467,0,0,1,114.019,100v1.782a18.522,18.522,0,0,1-1,1.786,71.022,71.022,0,0,1-5.915,5.888c-1.9,1.17-3.716.281-5.23-.988-4.836-4.053-9.213-10.6-14.134-14.371-.224-.172-.281-.429-.67-.333V104.34c0,.571-1.51,1.36-2.1,1.236l-72.016-.159a2.1,2.1,0,0,1-1.373-1.745V89.086H1c-.391,0-.67-.737-1-.891ZM60.8,3.349H3.34v82.4h8.24V13.481c0-.531.909-1.893,1.448-1.893H60.8Zm6.013,11.58H14.92v87.518H83.733V90.088a9.5,9.5,0,0,1-.794-1.431c-.544-2.3.788-3.819,2.349-5.249l-3-2.952c-11.442,9.815-29.423,7.092-37.038-6C34.365,55.743,50.943,33.572,71.975,38.378c4.564,1.043,8.291,3.617,11.757,6.615V31.854H67.81c-.257,0-1-.91-1-1ZM81.283,28.736,69.926,17.379V28.736ZM64.536,41.051c-16.866,1.3-25.152,20.773-14.871,34.112C58.61,86.77,77.143,85.41,84.439,72.756a21.119,21.119,0,0,0-19.9-31.705m21.7,47.1,18.5,18.371.455.115a1.773,1.773,0,0,0,.7-.4,62.649,62.649,0,0,0,4.851-4.965.485.485,0,0,0,.062-.4l-18.612-18.8c-.406-.245-.653-.109-1.01.1-.285.168-4.447,4.331-4.677,4.674-.252.376-.536.836-.267,1.3" transform="translate(0 0)" fill="#f9f9f9"/>
        <path id="Path_31741" data-name="Path 31741" d="M73.684,307.567l45.831-.052a1.565,1.565,0,0,1,0,3.126H74.077c-1.852.066-1.975-2.712-.393-3.075" transform="translate(-51.033 -216.206)" fill="#f9f9f9"/>
        <path id="Path_31742" data-name="Path 31742" d="M73.641,99.19l37.694.069c1.654,1.089.936,3.178-1,3.224H74.484c-2.045.017-2.753-2.475-.843-3.293" transform="translate(-50.99 -69.738)" fill="#f9f9f9"/>
        <path id="Path_31743" data-name="Path 31743" d="M73.687,141.11l15.972-.034c1.8.283,1.791,3.071-.426,3.331-4.656.547-10.365-.407-15.135-.018-1.887-.3-1.979-2.92-.41-3.28" transform="translate(-51.036 -99.187)" fill="#f9f9f9"/>
        <path id="Path_31744" data-name="Path 31744" d="M73.307,183.188l16.894.159c1.164,1.561.588,2.915-1.353,3.134a96.664,96.664,0,0,1-14.449-.026c-2.088-.254-2.764-1.961-1.092-3.268" transform="translate(-50.879 -128.795)" fill="#f9f9f9"/>
        <path id="Path_31745" data-name="Path 31745" d="M73.908,265.606l15.529-.034a1.674,1.674,0,0,1,.017,3.332c-4.8.56-10.666-.415-15.579-.018-1.757-.275-1.685-2.894.033-3.28" transform="translate(-51.035 -186.717)" fill="#f9f9f9"/>
        <path id="Path_31746" data-name="Path 31746" d="M73.9,224.356l15.529-.034a1.681,1.681,0,0,1,.024,3.34l-15.6-.017a1.69,1.69,0,0,1,.042-3.289" transform="translate(-51.029 -157.715)" fill="#f9f9f9"/>
        <path id="Path_31747" data-name="Path 31747" d="M194.936,174.8c4.649-.757,7.29,5.189,2.576,8.365-6.5,4.383-14.532,7.69-21.166,12.015a5.272,5.272,0,0,1-4.745-1.606,73.53,73.53,0,0,1-5.125-8.681,4.432,4.432,0,0,1,7.022-5.019c1.506,1.234,2.107,3.6,3.345,5.111,5.262-2.863,10.453-6.473,15.775-9.163a9.792,9.792,0,0,1,2.318-1.022m-20.819,16.813c.943.912,3.163-.723,4.1-1.24,5.277-2.9,12.359-6.624,17.2-9.967,1.672-1.154,1.932-2.57-.415-2.421-5.724,3.028-11.283,6.994-17.01,9.938-1.187.611-2.051,1.345-3.276.243L171.3,182.3c-.548-.4-1.663-.323-1.874.4l.062.964Z" transform="translate(-116.829 -122.853)" fill="#f9f9f9"/>
      </g>
    </g>
  </g>
</svg>
