<svg xmlns="http://www.w3.org/2000/svg" xmlns:xlink="http://www.w3.org/1999/xlink" width="188" height="173" viewBox="0 0 188 173">
  <defs>
    <clipPath id="clip-path">
      <path id="path5757" d="M0-682.665H110.726v110.726H0Z" transform="translate(0 682.665)" fill="#fff"/>
    </clipPath>
  </defs>
  <g id="Group_27652" data-name="Group 27652" transform="translate(-550 -3895)">
    <rect id="Rectangle_8351" data-name="Rectangle 8351" width="188" height="173" rx="18" transform="translate(550 3895)" fill="#013761"/>
    <g id="g5751" transform="translate(579.97 4608.635)">
      <g id="g5753" transform="translate(0 -682.665)">
        <g id="g5755" clip-path="url(#clip-path)">
          <g id="g5761" transform="translate(11.744 70.533)">
            <path id="path5763" d="M-41.864-95.891h0a8.1,8.1,0,0,1-8.1-8.1v-2.355a8.1,8.1,0,0,1,8.1-8.1,8.1,8.1,0,0,1,8.1,8.1V-104A8.1,8.1,0,0,1-41.864-95.891Z" transform="translate(49.969 114.456)" fill="none" stroke="#fff" stroke-linecap="round" stroke-linejoin="round" stroke-width="5"/>
          </g>
          <g id="g5765" transform="translate(2.135 89.097)">
            <path id="path5767" d="M-125.256,0h-13.072A11.178,11.178,0,0,0-149.5,11.178v8.289h35.427V11.178A11.178,11.178,0,0,0-125.256,0Z" transform="translate(149.505)" fill="none" stroke="#fff" stroke-linecap="round" stroke-linejoin="round" stroke-width="5"/>
          </g>
          <g id="g5769" transform="translate(47.17 70.533)">
            <path id="path5771" d="M-41.864-95.891h0a8.1,8.1,0,0,1-8.1-8.1v-2.355a8.1,8.1,0,0,1,8.1-8.1,8.1,8.1,0,0,1,8.1,8.1V-104A8.1,8.1,0,0,1-41.864-95.891Z" transform="translate(49.969 114.456)" fill="none" stroke="#fff" stroke-linecap="round" stroke-linejoin="round" stroke-width="5"/>
          </g>
          <g id="g5773" transform="translate(37.562 89.097)">
            <path id="path5775" d="M-142.216-100.551h7.894v-8.289A11.178,11.178,0,0,0-145.5-120.017h-13.072a11.178,11.178,0,0,0-11.177,11.178v8.289h8.069" transform="translate(169.749 120.017)" fill="none" stroke="#fff" stroke-linecap="round" stroke-linejoin="round" stroke-width="5"/>
          </g>
          <g id="g5777" transform="translate(82.597 70.533)">
            <path id="path5779" d="M-41.864-95.891h0a8.1,8.1,0,0,1-8.1-8.1v-2.355a8.1,8.1,0,0,1,8.1-8.1,8.1,8.1,0,0,1,8.1,8.1V-104A8.1,8.1,0,0,1-41.864-95.891Z" transform="translate(49.969 114.456)" fill="none" stroke="#fff" stroke-linecap="round" stroke-linejoin="round" stroke-width="5"/>
          </g>
          <g id="g5781" transform="translate(72.989 89.097)">
            <path id="path5783" d="M-125.256,0h-13.072A11.178,11.178,0,0,0-149.5,11.178v8.289h35.427V11.178A11.178,11.178,0,0,0-125.256,0Z" transform="translate(149.505)" fill="none" stroke="#fff" stroke-linecap="round" stroke-linejoin="round" stroke-width="5"/>
          </g>
          <g id="g5785" transform="translate(9.371 2.163)">
            <path id="path5787" d="M-267.121-115.492a24.091,24.091,0,0,0-2.767-6.677l3.3-3.3-8.248-8.247-3.3,3.3a24.1,24.1,0,0,0-6.677-2.767v-4.667h-11.664v4.667a24.094,24.094,0,0,0-6.677,2.767l-3.3-3.3-8.248,8.247,3.3,3.3a24.087,24.087,0,0,0-2.767,6.677h-4.667v11.664h4.667a24.086,24.086,0,0,0,2.767,6.677l-3.3,3.3,8.248,8.248,3.3-3.3a24.068,24.068,0,0,0,6.677,2.767v4.667h11.664v-4.667a24.073,24.073,0,0,0,6.677-2.767l3.3,3.3,8.248-8.248-3.3-3.3a24.092,24.092,0,0,0,2.767-6.677" transform="translate(318.835 137.85)" fill="none" stroke="#fff" stroke-linecap="round" stroke-linejoin="round" stroke-width="5"/>
          </g>
          <g id="g5789" transform="translate(25.142 17.933)">
            <path id="path5791" d="M-124.753-43.044a12.425,12.425,0,0,0-11.732-8.333,12.42,12.42,0,0,0-12.42,12.42,12.42,12.42,0,0,0,12.42,12.42A12.425,12.425,0,0,0-124.778-34.8" transform="translate(148.905 51.377)" fill="none" stroke="#fff" stroke-linecap="round" stroke-linejoin="round" stroke-width="5"/>
          </g>
          <g id="g5793" transform="translate(77.913 2.55)">
            <path id="path5795" d="M-49.655-113.737h0a9.613,9.613,0,0,1-9.613-9.613v-2.793a9.613,9.613,0,0,1,9.613-9.613h0a9.613,9.613,0,0,1,9.613,9.613v2.793A9.613,9.613,0,0,1-49.655-113.737Z" transform="translate(59.268 135.756)" fill="none" stroke="#fff" stroke-linecap="round" stroke-linejoin="round" stroke-width="5"/>
          </g>
          <g id="g5797" transform="translate(98.131 39.294)">
            <path id="path5799" d="M0-56.1V-66.96" transform="translate(0 66.96)" fill="none" stroke="#fff" stroke-linecap="round" stroke-linejoin="round" stroke-width="5"/>
          </g>
          <g id="g5801" transform="translate(47.847 24.57)">
            <path id="path5803" d="M-245,0h-41.645a5.785,5.785,0,0,0-5.785,5.785,5.785,5.785,0,0,0,5.785,5.785h20.325V25.757h34.578v-12.5A13.258,13.258,0,0,0-245,0Z" transform="translate(292.426)" fill="none" stroke="#fff" stroke-linecap="round" stroke-linejoin="round" stroke-width="5"/>
          </g>
          <g id="g5805" transform="translate(55.363 108.563)">
            <path id="path5807" d="M0,0H0" transform="translate(0)" fill="none" stroke="#fff" stroke-linecap="round" stroke-linejoin="round" stroke-width="5"/>
          </g>
        </g>
      </g>
    </g>
  </g>
</svg>
