<svg xmlns="http://www.w3.org/2000/svg" width="188" height="173" viewBox="0 0 188 173">
  <g id="Group_27654" data-name="Group 27654" transform="translate(-893 -4632)">
    <rect id="Rectangle_11102" data-name="Rectangle 11102" width="188" height="173" rx="18" transform="translate(893 4632)" fill="#013761"/>
    <g id="Layer_24" data-name="Layer 24" transform="translate(927.626 4665)">
      <path id="Path_31596" data-name="Path 31596" d="M106.129,3H6.619A2.619,2.619,0,0,0,4,5.619V16.093a2.619,2.619,0,0,0,2.619,2.619V84.179A2.619,2.619,0,0,0,9.237,86.8H50.063L28.328,108.507a2.629,2.629,0,0,0,3.719,3.719L53.755,90.49v19.876a2.619,2.619,0,0,0,5.237,0V90.49L80.7,112.225a2.629,2.629,0,1,0,3.719-3.719L62.685,86.8H103.51a2.619,2.619,0,0,0,2.619-2.619V18.712a2.619,2.619,0,0,0,2.619-2.619V5.619A2.619,2.619,0,0,0,106.129,3ZM9.237,8.237H103.51v5.237H9.237Zm91.654,73.323H11.856V18.712h89.035ZM32.806,57.992h4.138l.131.34L34.141,61.24a2.619,2.619,0,0,0-.759,1.859,2.75,2.75,0,0,0,.759,1.859l7.411,7.411a2.619,2.619,0,0,0,3.719,0L48.2,69.436l.314.131V73.7a2.619,2.619,0,0,0,2.619,2.619H61.611A2.619,2.619,0,0,0,64.23,73.7V69.567l.314-.131,2.933,2.933a2.619,2.619,0,0,0,3.719,0l7.411-7.411a2.75,2.75,0,0,0,.759-1.859,2.619,2.619,0,0,0-.759-1.859l-2.933-2.907.131-.34h4.138a2.619,2.619,0,0,0,2.619-2.619V44.9a2.619,2.619,0,0,0-2.619-2.619H75.8a1.6,1.6,0,0,1-.131-.314l2.933-2.933a2.619,2.619,0,0,0,0-3.719L71.2,27.9a2.619,2.619,0,0,0-1.859-.759h0a2.619,2.619,0,0,0-1.859.759L64.57,30.837l-.34-.131V26.568a2.619,2.619,0,0,0-2.619-2.619H51.136a2.619,2.619,0,0,0-2.619,2.619v4.138l-.34.131L45.271,27.9a2.619,2.619,0,0,0-1.859-.759h0a2.619,2.619,0,0,0-1.859.759l-7.411,7.411a2.619,2.619,0,0,0,0,3.719l2.933,2.933a1.6,1.6,0,0,1-.131.314H32.806A2.619,2.619,0,0,0,30.187,44.9V55.374a2.619,2.619,0,0,0,2.619,2.619Zm2.619-10.475H38.8a2.619,2.619,0,0,0,2.619-1.859,13.984,13.984,0,0,1,1.231-2.985,2.619,2.619,0,0,0-.55-3.011l-2.409-2.383,3.719-3.692,2.357,2.357a2.619,2.619,0,0,0,3.142.471A15.476,15.476,0,0,1,51.9,35.184a2.619,2.619,0,0,0,1.859-2.619V29.187h5.237v3.378a2.619,2.619,0,0,0,1.859,2.619,15.476,15.476,0,0,1,2.985,1.231,2.619,2.619,0,0,0,3.142-.471l2.357-2.357,3.719,3.692-2.409,2.383a2.619,2.619,0,0,0-.445,3.116,13.984,13.984,0,0,1,1.231,2.985,2.619,2.619,0,0,0,2.619,1.859h3.273V52.86H73.945a2.619,2.619,0,0,0-2.619,1.859A13.984,13.984,0,0,1,70.1,57.7a2.661,2.661,0,0,0,.471,3.142L72.924,63.2l-3.457,3.614-2.619-2.409a2.619,2.619,0,0,0-3.116-.445,15.478,15.478,0,0,1-2.985,1.231,2.619,2.619,0,0,0-1.859,2.619v3.273H53.755V67.708A2.619,2.619,0,0,0,51.9,65.089a15.477,15.477,0,0,1-2.985-1.231,2.619,2.619,0,0,0-3.116.445l-2.383,2.409L39.719,63.23l2.357-2.357a2.661,2.661,0,0,0,.471-3.142,13.984,13.984,0,0,1-1.231-2.985A2.619,2.619,0,0,0,38.7,52.886H35.424Zm20.95,13.093A10.475,10.475,0,1,0,45.9,50.136,10.475,10.475,0,0,0,56.374,60.611Zm0-15.712a5.237,5.237,0,1,1-5.237,5.237A5.237,5.237,0,0,1,56.374,44.9Z" transform="translate(0 0)" fill="#fff"/>
    </g>
  </g>
</svg>
