<svg id="Group_15324" data-name="Group 15324" xmlns="http://www.w3.org/2000/svg" xmlns:xlink="http://www.w3.org/1999/xlink" width="1441.021" height="1129" viewBox="0 0 1441.021 1129">
  <defs>
    <clipPath id="clip-path">
      <path id="Path_30379" data-name="Path 30379" d="M3575.114,1151.782c-52.369-19.973-139.383-53.156-246-159.193-159.231-158.362-190.791-295.575-116.939-465.2,58.676-134.767,183.962-289.962,364.668-492.551v2.636C3396.963,239.21,3272.229,393.86,3213.784,528.1c-73.518,168.857-42.054,305.49,116.564,463.244,106.35,105.771,193.153,138.875,245.4,158.8l1.1.419v1.882Z" transform="translate(-3174.277 -34.839)" fill="#efefef"/>
    </clipPath>
    <clipPath id="clip-path-2">
      <path id="Path_30380" data-name="Path 30380" d="M3572.186,1175.074c-51.217-22.771-136.315-60.608-237.048-172.243-150.444-166.725-174.55-305.44-91.647-470.83,60.882-121.457,179.515-257.253,348.231-429.135v2.511c-167.936,171.159-286.037,306.464-346.664,427.412-82.528,164.64-58.487,302.774,91.384,468.866,100.488,111.362,185.373,149.1,236.462,171.818,6.9,3.067,13.182,5.861,18.817,8.531v1.944c-5.8-2.764-12.327-5.667-19.536-8.873" transform="translate(-3196.389 -102.866)" fill="#efefef"/>
    </clipPath>
    <clipPath id="clip-path-3">
      <path id="Path_30381" data-name="Path 30381" d="M3573.239,1185.664c-49.91-25.5-132.842-67.88-227.4-184.792-141.222-174.606-157.8-314.421-66.089-475.094,62.016-108.644,173.6-226.8,329.664-371.722v2.393c-155.319,144.3-266.388,262.014-328.142,370.2-91.3,159.944-74.751,299.174,65.934,473.114,94.326,116.625,177.051,158.894,226.838,184.334,14.89,7.609,26.865,13.729,35.37,19.9v2.2c-8.407-6.347-20.68-12.619-36.173-20.535" transform="translate(-3222.679 -154.056)" fill="#efefef"/>
    </clipPath>
    <clipPath id="clip-path-4">
      <path id="Path_30382" data-name="Path 30382" d="M3590.169,1091.713c22.267-24.074,33.009-39.711,34.339-51.783,1.9-17.2-15.82-27.5-46.712-45.451-48.465-28.162-128.988-74.955-217.094-196.8-131.589-181.977-140.6-322.481-40.341-477.966C3382.488,223.358,3486.616,121.279,3629.546,0V2.3c-142.222,120.749-245.859,222.43-307.71,318.357-99.8,154.783-90.8,294.7,40.29,475.988,87.893,121.55,168.212,168.224,216.553,196.315,31.519,18.317,49.6,28.822,47.575,47.159-1.351,12.248-11.907,27.849-33.723,51.59Z" transform="translate(-3252.603)" fill="#efefef"/>
    </clipPath>
    <clipPath id="clip-path-5">
      <path id="Path_30383" data-name="Path 30383" d="M3567.068,1081.661c40.835-36.84,59.868-57.762,62.463-73.458,2.825-17.074-14.311-28.313-44.187-47.9-46.871-30.738-124.75-81.809-206.15-208.237-121.573-188.819-122.982-329.6-14.479-479.448C3425.958,188.038,3522.25,100.6,3651.73,0V2.221c-128.812,100.149-224.627,187.23-285.591,271.424-108.014,149.169-106.58,289.371,14.525,477.467,81.2,126.116,158.884,177.06,205.638,207.72,30.487,19.992,47.971,31.459,44.961,49.662-2.637,15.955-21.421,36.821-61.59,73.169Z" transform="translate(-3285.573)" fill="#efefef"/>
    </clipPath>
    <clipPath id="clip-path-6">
      <path id="Path_30384" data-name="Path 30384" d="M3541.495,1071.921c62.89-49.378,91.234-74.358,95.374-93.057,3.742-16.893-12.762-29.04-41.538-50.218-45.143-33.223-120.15-88.424-194.605-219.066-111.2-195.107-105-335.764,11.433-479.532C3471.552,156.711,3559.671,82.582,3675.533,0V2.157c-115.228,82.2-202.894,156.008-262.009,229-115.91,143.118-122.047,283.194-11.274,477.556,74.271,130.315,149.091,185.38,194.122,218.519,29.361,21.608,46.2,34,42.212,52.019-4.215,19.036-32.236,43.925-94.246,92.673Z" transform="translate(-3320.95)" fill="#efefef"/>
    </clipPath>
    <clipPath id="clip-path-7">
      <path id="Path_30385" data-name="Path 30385" d="M3513.009,1062.111c88.484-61.387,127.016-89.268,132.947-110.544,4.648-16.671-11.176-29.691-38.767-52.391-43.283-35.612-115.2-94.784-182.494-229.253-100.5-200.827-86.72-340.942,37.307-478.212C3518.63,129.038,3598.267,66.975,3700.5,0V2.1C3598.853,68.75,3519.652,130.529,3463.31,192.886c-123.471,136.654-137.162,276.193-37.046,476.252C3493.392,803.277,3565.128,862.3,3608.3,897.822c28.152,23.161,44.3,36.448,39.343,54.218-6.045,21.68-44.18,49.432-131.554,110.07Z" transform="translate(-3358.062)" fill="#efefef"/>
    </clipPath>
    <clipPath id="clip-path-8">
      <path id="Path_30386" data-name="Path 30386" d="M3480.625,1051.9l15.592-9.6c106.812-65.764,152.366-93.812,159.963-116.29,5.542-16.4-9.554-30.25-35.877-54.405-41.3-37.9-109.917-100.868-169.85-238.772-89.512-205.962-68.184-345.132,63.075-475.5C3566.5,104.715,3637.4,53.546,3726.15,0V2.053c-88.2,53.274-158.693,104.192-211.383,156.525-130.667,129.785-151.874,268.381-62.7,473.553,59.788,137.569,128.231,200.379,169.424,238.181,26.863,24.649,42.267,38.788,36.361,56.265-7.8,23.073-53.514,51.221-160.708,117.22l-13.165,8.108Z" transform="translate(-3396.177)" fill="#efefef"/>
    </clipPath>
    <clipPath id="clip-path-9">
      <path id="Path_30387" data-name="Path 30387" d="M3442.91,1041.008q31.53-17.244,58-31.6c110.207-59.9,157.208-85.448,166.008-107.483,6.417-16.07-7.91-30.723-32.892-56.267-39.191-40.072-104.307-106.652-156.708-247.6-78.258-210.49-49.447-348.3,88.66-471.4C3614.458,83.457,3676.429,42.073,3751.953,0V2.006c-75.027,41.847-136.611,83.011-184.807,125.968C3429.661,250.516,3401,387.767,3478.964,597.457c52.27,140.591,117.222,207.006,156.316,246.979,25.489,26.062,40.109,41.011,33.265,58.145-9.033,22.619-56.2,48.255-166.8,108.369q-25.324,13.763-55.188,30.058Z" transform="translate(-3434.526)" fill="#efefef"/>
    </clipPath>
    <clipPath id="clip-path-10">
      <path id="Path_30388" data-name="Path 30388" d="M3244.763,1029.192c41.233-19.95,77.076-36.994,108.066-51.729,113.283-53.863,161.6-76.836,171.573-98.363,7.275-15.7-6.241-31.1-29.807-57.957-36.971-42.129-98.4-112.131-143.111-255.7-66.78-214.412-30.569-350.469,113.982-465.927,43.2-34.507,96.1-67.164,158.8-99.52V1.972c-62.255,32.166-114.78,64.631-157.7,98.917-143.9,114.938-179.93,250.44-113.406,464.033,44.6,143.209,105.876,213.035,142.753,255.06,24.044,27.4,37.836,43.116,30.077,59.86-10.242,22.1-58.725,45.151-172.407,99.205-30.16,14.34-64.922,30.868-104.792,50.146Z" transform="translate(-3244.763)" fill="#efefef"/>
    </clipPath>
    <clipPath id="clip-path-11">
      <path id="Path_30389" data-name="Path 30389" d="M3001.377,1016.212c67.242-28.61,122.635-51.368,167.907-69.967,116.025-47.667,165.508-68,176.632-88.952,8.114-15.287-4.549-31.4-26.629-59.484-34.642-44.065-92.2-117.282-129.1-263.052-55.1-217.7-11.6-351.6,138.976-459.089,37.2-26.553,80.944-51.485,131.344-75.669V1.947c-49.987,24.024-93.4,48.79-130.323,75.149-149.9,107-193.189,240.361-138.293,457.235,36.8,145.41,94.218,218.441,128.771,262.394,22.532,28.661,35.454,45.1,26.8,61.394-11.423,21.517-61.08,41.919-177.515,89.755-44.443,18.258-98.628,40.52-164.084,68.339Z" transform="translate(-3001.377)" fill="#efefef"/>
    </clipPath>
    <clipPath id="clip-path-12">
      <path id="Path_30390" data-name="Path 30390" d="M2719.5,1001.866c100.947-37.439,179.887-64.991,240.854-86.268,118.431-41.335,168.939-58.963,181.177-79.287,8.928-14.826-2.847-31.6-23.38-60.835-32.213-45.872-85.735-122.091-114.705-269.637-43.269-220.362,7.4-351.72,163.563-450.919,30.541-19.4,65.136-37.562,103.837-54.92V1.921c-38.333,17.227-72.617,35.245-102.9,54.48-155.456,98.749-205.884,229.577-162.781,449.1,28.9,147.189,82.286,223.214,114.417,268.968,20.95,29.834,32.965,46.946,23.447,62.75-12.566,20.867-63.252,38.558-182.1,80.039-60.058,20.96-137.562,48.011-236.378,84.61Z" transform="translate(-2719.499)" fill="#efefef"/>
    </clipPath>
    <clipPath id="clip-path-13">
      <path id="Path_30391" data-name="Path 30391" d="M2382.358,985.981q32.614-10.463,67.713-21.432c112.143-35.061,198.673-60.108,264.574-79.186,120.489-34.878,171.875-49.753,185.193-69.387,9.714-14.322-1.139-31.705-20.062-62.01-29.688-47.541-79.011-126.531-99.975-275.439-31.307-222.375,26.383-350.807,187.67-441.428A757.054,757.054,0,0,1,3044,0V1.9a754.179,754.179,0,0,0-75.667,36.728c-160.562,90.213-217.982,218.126-186.8,439.654,20.91,148.522,70.115,227.324,99.731,274.752,19.308,30.92,30.382,48.656,20.025,63.924-13.674,20.159-65.243,35.088-186.159,70.089-65.844,19.06-152.3,44.086-264.537,79.177-21.565,6.741-42.337,13.313-62.47,19.757Z" transform="translate(-2382.358)" fill="#efefef"/>
    </clipPath>
    <clipPath id="clip-path-14">
      <path id="Path_30392" data-name="Path 30392" d="M1967.833,968.385c53.828-15.264,113.914-31.187,180.871-48.212,113.943-28.971,201.66-49.3,268.464-64.784,122.2-28.322,174.314-40.4,188.671-59.286,10.474-13.777.576-31.72-16.684-63-27.077-49.076-72.065-130.618-84.958-280.435C2484.944,228.924,2549.484,103.8,2715.43,22.015Q2738.9,10.451,2765.084,0V1.888q-25.768,10.333-48.878,21.7c-165.2,81.411-229.441,206.039-210.262,428.928,12.86,149.441,57.738,230.781,84.746,279.735,17.612,31.919,27.711,50.226,16.547,64.912-14.745,19.392-67.042,31.514-189.669,59.935-66.808,15.484-154.528,35.815-268.428,64.776-64.5,16.4-122.6,31.769-174.865,46.511Z" transform="translate(-1967.833)" fill="#efefef"/>
    </clipPath>
    <clipPath id="clip-path-15">
      <path id="Path_30393" data-name="Path 30393" d="M1468.367,948.915c84.118-23.637,190.287-47.024,322.8-73.193,115.385-22.787,204.047-38.345,271.571-50.2,123.547-21.682,176.237-30.93,191.592-49.01,11.205-13.193,2.291-31.645-13.255-63.814-24.387-50.466-64.908-134.318-69.692-284.612-7.145-224.456,64.058-345.918,234.177-418.618Q2416.984,4.59,2429.017,0V1.886q-11.661,4.471-22.768,9.2C2236.9,83.462,2166.018,204.439,2173.135,428.037c4.773,149.916,45.192,233.561,69.519,283.9,15.86,32.823,24.958,51.649,13.017,65.709-15.769,18.57-68.649,27.85-192.632,49.608-67.566,11.858-156.286,27.428-271.533,50.187-129.374,25.548-233.526,48.429-316.568,71.47Z" transform="translate(-1468.367)" fill="#efefef"/>
    </clipPath>
    <clipPath id="clip-path-16">
      <path id="Path_30394" data-name="Path 30394" d="M961.075,927.452c96.461-36.941,245.711-64.76,468.165-96.323,116.477-16.527,205.834-27.275,273.885-35.459,124.538-14.979,177.65-21.368,193.96-38.594,11.9-12.567,3.992-31.474-9.793-64.434-21.627-51.708-57.559-137.624-54.221-287.962C1838.04,180.96,1915.178,63.565,2087.684,0V1.871c-171.3,63.331-247.917,180.245-252.861,402.848-3.33,149.949,32.516,235.658,54.089,287.24,14.068,33.632,22.133,52.923,9.45,66.319-16.75,17.692-70.051,24.1-195.03,39.135-68.12,8.193-157.566,18.95-273.845,35.45-219.136,31.092-367.078,58.511-463.4,94.589Z" transform="translate(-961.075)" fill="#efefef"/>
    </clipPath>
    <clipPath id="clip-path-17">
      <path id="Path_30395" data-name="Path 30395" d="M589.7,903.917c82.738-61.887,252.792-89.938,569.841-117.566,117.039-10.2,206.936-16.112,275.4-20.616,125.164-8.233,178.546-11.745,195.764-28.067,12.56-11.906,5.687-31.211-6.3-64.868-18.8-52.8-50.047-140.538-38.595-290.47C1602.055,169.665,1678.549,56.99,1837.806,0V1.867c-158.109,56.811-234.085,169.025-250.243,380.6-11.422,149.56,19.741,237.073,38.5,289.743,12.229,34.343,19.242,54.042,5.855,66.733-17.677,16.758-71.247,20.281-196.855,28.543-68.394,4.5-158.2,10.407-275.361,20.616C845.469,815.484,676,843.224,592.9,903.917Z" transform="translate(-589.704)" fill="#efefef"/>
    </clipPath>
    <clipPath id="clip-path-18">
      <path id="Path_30396" data-name="Path 30396" d="M364.038,878.25c59.1-97.735,227.521-123.807,624.528-136.874,117.558-3.87,207.563-4.919,276.109-5.718,125.425-1.463,178.917-2.086,196.992-17.455,13.186-11.213,7.365-30.86-2.785-65.115-15.925-53.741-42.385-143.034-22.855-292.128C1462.427,159.418,1538.561,51.509,1685.965,0V1.87c-146.319,51.377-221.939,158.838-248.2,359.32-19.482,148.725,6.912,237.795,22.8,291.4,10.358,34.953,16.3,55,2.243,66.95-18.556,15.78-72.239,16.405-198.113,17.874-68.6.8-158.672,1.85-276.074,5.714C593.906,756.122,425.752,781.923,366.3,878.25Z" transform="translate(-364.038)" fill="#efefef"/>
    </clipPath>
    <clipPath id="clip-path-19">
      <path id="Path_30397" data-name="Path 30397" d="M216.509,850.4c39.207-139.622,193.784-163.942,654.217-154.217,117.542,2.482,207.5,6.3,276.018,9.2,125.321,5.313,178.77,7.577,197.648-6.794,13.771-10.482,9.018-30.417.733-65.171-13-54.522-34.6-145.114-7.049-292.938C1373.591,149.937,1449.675,46.858,1586.7,0V1.858c-136.005,46.763-211.572,149.421-246.9,338.948-27.483,147.455-5.938,237.818,7.03,292.2,8.455,35.461,13.3,55.8-1.376,66.975-19.383,14.755-73.02,12.48-198.787,7.15-68.517-2.9-158.483-6.716-275.978-9.2C412.174,688.25,257.778,712.3,218.4,850.4Z" transform="translate(-216.509)" fill="#efefef"/>
    </clipPath>
    <clipPath id="clip-path-20">
      <path id="Path_30398" data-name="Path 30398" d="M102.316,820.4c27.451-183.989,162.706-208.021,673.467-169.567,117.273,8.829,206.877,17.491,275.119,24.09,124.85,12.072,178.1,17.219,197.724,3.889,14.317-9.723,10.647-29.885,4.249-65.035-10.036-55.143-26.712-146.764,8.782-292.89C1305.353,141,1381.692,42.78,1509.865,0V1.868c-127.215,42.718-203.047,140.533-246.5,319.437-35.4,145.75-18.769,237.15-8.755,292.161,6.526,35.865,10.271,56.436-4.991,66.8-20.152,13.686-73.589,8.521-198.883-3.594-68.277-6.6-157.927-15.269-275.081-24.089C266.6,614.263,131.548,638.024,104.1,820.4Z" transform="translate(-102.316)" fill="#efefef"/>
    </clipPath>
    <clipPath id="clip-path-21">
      <path id="Path_30399" data-name="Path 30399" d="M0,788.273q.81-7.61,1.758-14.923C29.679,558.386,150.4,535.391,689.186,605.372,805.726,620.51,894.779,634,962.6,644.285c124.017,18.794,176.907,26.809,197.226,14.558,14.818-8.936,12.244-29.266,7.754-64.712-7.044-55.6-18.749-147.991,24.586-291.988C1243.249,132.4,1320.18,39.047,1441.021,0V1.865c-119.947,39.012-196.377,131.974-247.177,300.786-43.221,143.623-31.545,235.789-24.519,291.26,4.583,36.165,7.21,56.908-8.59,66.434-20.86,12.576-73.939,4.534-198.4-14.329-67.784-10.273-156.788-23.76-273.378-38.9C151.6,537.316,31.228,560.091,3.5,773.578q-.935,7.2-1.735,14.7Z" fill="#efefef"/>
    </clipPath>
  </defs>
  <g id="Group_15283" data-name="Group 15283" transform="translate(1038.454)">
    <g id="Group_15282" data-name="Group 15282" clip-path="url(#clip-path)">
      <rect id="Rectangle_8136" data-name="Rectangle 8136" width="1107.601" height="1092.829" transform="translate(190.052 -219.157) rotate(45.881)" fill="#efefef"/>
    </g>
  </g>
  <g id="Group_15285" data-name="Group 15285" transform="translate(1045.688 14.267)">
    <g id="Group_15284" data-name="Group 15284" clip-path="url(#clip-path-2)">
      <rect id="Rectangle_8137" data-name="Rectangle 8137" width="1076.24" height="1062.101" transform="translate(186.398 -215.465) rotate(45.881)" fill="#efefef"/>
    </g>
  </g>
  <g id="Group_15287" data-name="Group 15287" transform="translate(1054.289 26.458)">
    <g id="Group_15286" data-name="Group 15286" clip-path="url(#clip-path-3)">
      <rect id="Rectangle_8138" data-name="Rectangle 8138" width="1048.674" height="1034.953" transform="translate(182.525 -210.589) rotate(45.881)" fill="#efefef"/>
    </g>
  </g>
  <g id="Group_15289" data-name="Group 15289" transform="translate(1064.079 37.287)">
    <g id="Group_15288" data-name="Group 15288" clip-path="url(#clip-path-4)">
      <rect id="Rectangle_8139" data-name="Rectangle 8139" width="1068.771" height="1053.929" transform="translate(178.52 -204.623) rotate(45.881)" fill="#efefef"/>
    </g>
  </g>
  <g id="Group_15291" data-name="Group 15291" transform="translate(1074.865 47.339)">
    <g id="Group_15290" data-name="Group 15290" clip-path="url(#clip-path-5)">
      <rect id="Rectangle_8140" data-name="Rectangle 8140" width="1051.863" height="1036.936" transform="translate(174.481 -197.665) rotate(45.881)" fill="#efefef"/>
    </g>
  </g>
  <g id="Group_15293" data-name="Group 15293" transform="translate(1086.438 57.079)">
    <g id="Group_15292" data-name="Group 15292" clip-path="url(#clip-path-6)">
      <rect id="Rectangle_8141" data-name="Rectangle 8141" width="1038.25" height="1023.328" transform="translate(167.517 -192.912) rotate(45.881)" fill="#efefef"/>
    </g>
  </g>
  <g id="Group_15295" data-name="Group 15295" transform="translate(1098.579 66.889)">
    <g id="Group_15294" data-name="Group 15294" clip-path="url(#clip-path-7)">
      <rect id="Rectangle_8142" data-name="Rectangle 8142" width="1024.456" height="1009.537" transform="translate(160.075 -188.066) rotate(45.881)" fill="#efefef"/>
    </g>
  </g>
  <g id="Group_15297" data-name="Group 15297" transform="translate(1111.048 77.096)">
    <g id="Group_15296" data-name="Group 15296" clip-path="url(#clip-path-8)">
      <rect id="Rectangle_8143" data-name="Rectangle 8143" width="1009.401" height="994.462" transform="translate(152.986 -182.518) rotate(45.881)" fill="#efefef"/>
    </g>
  </g>
  <g id="Group_15299" data-name="Group 15299" transform="translate(1123.594 87.992)">
    <g id="Group_15298" data-name="Group 15298" clip-path="url(#clip-path-9)">
      <rect id="Rectangle_8144" data-name="Rectangle 8144" width="993.005" height="978.036" transform="translate(146.408 -176.363) rotate(45.881)" fill="#efefef"/>
    </g>
  </g>
  <g id="Group_15301" data-name="Group 15301" transform="translate(1061.514 99.808)">
    <g id="Group_15300" data-name="Group 15300" clip-path="url(#clip-path-10)">
      <rect id="Rectangle_8145" data-name="Rectangle 8145" width="1003.049" height="988.916" transform="translate(195.591 -189.664) rotate(45.881)" fill="#efefef"/>
    </g>
  </g>
  <g id="Group_15303" data-name="Group 15303" transform="translate(981.891 112.788)">
    <g id="Group_15302" data-name="Group 15302" clip-path="url(#clip-path-11)">
      <rect id="Rectangle_8146" data-name="Rectangle 8146" width="1049.161" height="1037.042" transform="translate(236.627 -229.456) rotate(45.881)" fill="#efefef"/>
    </g>
  </g>
  <g id="Group_15305" data-name="Group 15305" transform="translate(889.675 127.134)">
    <g id="Group_15304" data-name="Group 15304" clip-path="url(#clip-path-12)">
      <rect id="Rectangle_8147" data-name="Rectangle 8147" width="1103.057" height="1093.257" transform="translate(284.154 -275.543) rotate(45.881)" fill="#efefef"/>
    </g>
  </g>
  <g id="Group_15307" data-name="Group 15307" transform="translate(779.381 143.019)">
    <g id="Group_15306" data-name="Group 15306" clip-path="url(#clip-path-13)">
      <rect id="Rectangle_8148" data-name="Rectangle 8148" width="1168.434" height="1161.379" transform="translate(340.997 -330.664) rotate(45.881)" fill="#efefef"/>
    </g>
  </g>
  <g id="Group_15309" data-name="Group 15309" transform="translate(643.77 160.615)">
    <g id="Group_15308" data-name="Group 15308" clip-path="url(#clip-path-14)">
      <rect id="Rectangle_8149" data-name="Rectangle 8149" width="1250.206" height="1246.484" transform="translate(410.888 -398.437) rotate(45.881)" fill="#efefef"/>
    </g>
  </g>
  <g id="Group_15311" data-name="Group 15311" transform="translate(480.372 180.085)">
    <g id="Group_15310" data-name="Group 15310" clip-path="url(#clip-path-15)">
      <rect id="Rectangle_8150" data-name="Rectangle 8150" width="1349.979" height="1350.234" transform="translate(495.1 -480.098) rotate(45.881)" fill="#efefef"/>
    </g>
  </g>
  <g id="Group_15313" data-name="Group 15313" transform="translate(314.413 201.548)">
    <g id="Group_15312" data-name="Group 15312" clip-path="url(#clip-path-16)">
      <rect id="Rectangle_8151" data-name="Rectangle 8151" width="1450.102" height="1454.435" transform="translate(580.633 -563.038) rotate(45.881)" fill="#efefef"/>
    </g>
  </g>
  <g id="Group_15315" data-name="Group 15315" transform="translate(192.92 225.083)">
    <g id="Group_15314" data-name="Group 15314" clip-path="url(#clip-path-17)">
      <rect id="Rectangle_8152" data-name="Rectangle 8152" width="1517.783" height="1525.271" transform="translate(643.248 -623.756) rotate(45.881)" fill="#efefef"/>
    </g>
  </g>
  <g id="Group_15317" data-name="Group 15317" transform="translate(119.094 250.75)">
    <g id="Group_15316" data-name="Group 15316" clip-path="url(#clip-path-18)">
      <rect id="Rectangle_8153" data-name="Rectangle 8153" width="1550.75" height="1560.402" transform="translate(681.296 -660.651) rotate(45.881)" fill="#efefef"/>
    </g>
  </g>
  <g id="Group_15319" data-name="Group 15319" transform="translate(70.83 278.602)">
    <g id="Group_15318" data-name="Group 15318" clip-path="url(#clip-path-19)">
      <rect id="Rectangle_8154" data-name="Rectangle 8154" width="1564.354" height="1575.662" transform="translate(706.171 -684.772) rotate(45.881)" fill="#efefef"/>
    </g>
  </g>
  <g id="Group_15321" data-name="Group 15321" transform="translate(33.472 308.598)">
    <g id="Group_15320" data-name="Group 15320" clip-path="url(#clip-path-20)">
      <rect id="Rectangle_8155" data-name="Rectangle 8155" width="1568.826" height="1581.599" transform="translate(725.424 -703.441) rotate(45.881)" fill="#efefef"/>
    </g>
  </g>
  <g id="Group_15323" data-name="Group 15323" transform="translate(0 340.727)">
    <g id="Group_15322" data-name="Group 15322" clip-path="url(#clip-path-21)">
      <rect id="Rectangle_8156" data-name="Rectangle 8156" width="1569.063" height="1583.263" transform="translate(742.675 -720.17) rotate(45.881)" fill="#efefef"/>
    </g>
  </g>
</svg>
