<svg xmlns="http://www.w3.org/2000/svg" xmlns:xlink="http://www.w3.org/1999/xlink" width="188" height="173" viewBox="0 0 188 173">
  <defs>
    <clipPath id="clip-path">
      <rect id="Rectangle_11141" data-name="Rectangle 11141" width="92.486" height="97" fill="#fff"/>
    </clipPath>
  </defs>
  <g id="Group_27667" data-name="Group 27667" transform="translate(-785 -4136)">
    <rect id="Rectangle_11100" data-name="Rectangle 11100" width="188" height="173" rx="18" transform="translate(785 4136)" fill="#f78700"/>
    <g id="Group_27614" data-name="Group 27614" transform="translate(833 4174)">
      <g id="Group_27613" data-name="Group 27613" clip-path="url(#clip-path)">
        <path id="Path_31682" data-name="Path 31682" d="M2.249,65.491a2.947,2.947,0,0,1-.586-.619C.8,63.406,1.7,58.86,1.341,56.958c-.1-.545-1.048-1.328-1.189-2.226C-.117,53.011-.034,44.07.447,42.6c.232-.712.843-1.321.9-2.11l0-38.771A1.9,1.9,0,0,1,2.291.052L86.821,0c1.231-.029,1.417.645,1.505,1.709l0,62.084c.051.485-.4,1.7-.915,1.7H21.833V77.442c0,.255-.629.476-.894.512-4.226.569-9.715-.454-14.081,0-.294.127-1.094-.591-1.094-.713V65.491ZM85.908,2.42H3.756V38.776a9.775,9.775,0,0,1,2.3-.61,114.546,114.546,0,0,1,15.673.009A6.732,6.732,0,0,1,27.15,42.4c.672,2.005.837,10.713.254,12.7-.713,2.424-2.957,2.986-5.238,2.8l-.333.269V63.08H85.908ZM21.833,55.447c1.75-.01,3.106.433,3.4-1.725.238-1.762.2-8.774-.28-10.33a4.271,4.271,0,0,0-3.417-2.809c-4.836.285-10.088-.377-14.873-.008A4.156,4.156,0,0,0,2.55,44.1c-.347,3.237.225,7.1.042,10.4.671,1.334,1.929.9,3.172.945V45.706c0-1.3,2.41-.775,2.41,0V75.534h4.419V62.779c0-1.171,2.41-.965,2.41-.2V75.534h4.419V46.107c0-1.541,2.41-1.437,2.41-.6ZM5.764,57.858l-1.921.188v4.846l1.921.188Z" transform="translate(0 0)" fill="#fff"/>
        <path id="Path_31683" data-name="Path 31683" d="M266.841,311.978a12.314,12.314,0,0,1,12.531,6.237c1.434,2.664,2.13,6.613-1.934,6.972-5.7.5-12.115-.4-17.89,0-5.5-1.362-1.567-8.041,1.107-10.352a12.754,12.754,0,0,1,6.185-2.854m-7.54,10.54a1.92,1.92,0,0,0,1.048.258c5.392.463,11.427-.369,16.89,0,2.088-.277-.178-3.807-.918-4.725a9.734,9.734,0,0,0-16.7,2.37c-.207.523-.767,1.662-.317,2.1" transform="translate(-188.007 -228.354)" fill="#fff"/>
        <path id="Path_31684" data-name="Path 31684" d="M77.608,312a12.126,12.126,0,0,1,11.98,5.584c1.714,2.791,2.975,6.806-1.38,7.627-5.712-.4-12.061.5-17.694,0-3.592-.318-3.5-3.536-2.337-6.17A12.349,12.349,0,0,1,77.608,312m11.044,10.541c.45-.434-.11-1.573-.317-2.1a9.724,9.724,0,0,0-16.7-2.37c-.739.918-3.006,4.448-.918,4.725,5.463-.371,11.5.461,16.89,0a1.92,1.92,0,0,0,1.048-.258" transform="translate(-49.392 -228.378)" fill="#fff"/>
        <path id="Path_31685" data-name="Path 31685" d="M172.14,311.985a12.406,12.406,0,0,1,11.376,4.58c1.977,2.515,4.141,8.165-.779,8.628-5.658.532-12.138-.413-17.885-.007-3.346-.793-3.287-3.229-2.145-5.962a12.422,12.422,0,0,1,9.432-7.239m.2,2.406a10.133,10.133,0,0,0-7.536,6.122c-.215.578-.747,1.63-.166,2.08l18.617-.1c.721-.9-1.334-4.063-2.023-4.845a9.923,9.923,0,0,0-8.892-3.257" transform="translate(-118.616 -228.36)" fill="#fff"/>
        <path id="Path_31686" data-name="Path 31686" d="M95.3,262.078c7.726-.09,8.01,11.265.968,11.971-8.8.882-9.011-11.877-.968-11.971m0,2.408a3.762,3.762,0,0,0-3.534,3.812,3.659,3.659,0,0,0,5.6,2.828,3.618,3.618,0,0,0-2.063-6.64" transform="translate(-65.502 -191.889)" fill="#fff"/>
        <path id="Path_31687" data-name="Path 31687" d="M284.871,262.078c7.546-.086,8,11.205.972,11.975-8.745.958-9.246-11.88-.972-11.975m0,2.407c-5.106.1-4.547,8.124.926,7.109,3.974-.737,3.374-7.195-.926-7.109" transform="translate(-204.252 -191.889)" fill="#fff"/>
        <path id="Path_31688" data-name="Path 31688" d="M190.057,261.986c7.571-.206,8.223,11.294.948,11.994-8.662.833-8.933-11.776-.948-11.994m0,2.409c-4.821.19-4.483,8.033.94,7.165,4.018-.644,3.533-7.341-.94-7.165" transform="translate(-134.927 -191.82)" fill="#fff"/>
        <path id="Path_31689" data-name="Path 31689" d="M158.184,47.1a12.835,12.835,0,0,0,1.669.562c.979-.094,2.942-2.7,4.775-2.293.884.195,5.4,4.643,5.559,5.5.414,2.195-2.294,4.237-2.168,5.162.288,2.124,2.776,1.669,4.384,2.266a2.258,2.258,0,0,1,1.613,2.2,33.29,33.29,0,0,1-.049,5.778c-.489,2.92-4.59,1.768-5.465,2.971a3.829,3.829,0,0,0-.48,1.446c.12.576,1.735,2.345,2.023,3.216a3.222,3.222,0,0,1,.1,1.807c-.142.548-3.745,4.193-4.386,4.651-2.527,1.806-3.834-.694-6.075-1.654l-1.5.6c-.6,1.9-.189,5.082-2.745,5.39a39.083,39.083,0,0,1-6.386-.051c-2.382-.481-1.724-4.83-2.487-5.394a13.19,13.19,0,0,0-1.542-.544c-.443.075-2.311,1.681-3.013,2a2.145,2.145,0,0,1-2.554-.127,57.594,57.594,0,0,1-4.5-4.537c-1.438-2.29,1.985-4.217,1.862-5.664-.23-2.7-4.4-1.218-5.525-3.125-.707-1.2-.719-6.933.005-8.107,1.142-1.852,5.981-.6,5.523-3.439-.266-1.65-3.483-3.137-1.677-5.571a55.987,55.987,0,0,1,4.669-4.569c1.877-.926,3.348,1.209,4.876,1.874.845.368,1.182-.144,2.016-.453.575-1.822.22-5,2.7-5.289a39.789,39.789,0,0,1,6.035,0,2.252,2.252,0,0,1,1.744,1.068c.447.817.8,4.085,1,4.321m-3.072-2.953-5.395-.011c-.43,1.6-.289,4.147-1.878,5.052a18.122,18.122,0,0,1-2.3.921c-1.733.328-2.977-1.556-4.279-2.068a.544.544,0,0,0-.586-.005c-.808.37-2.675,2.983-3.586,3.622.928,1.774,2.667,2.947,2.066,5.113-1.127,4.061-2.7,2.6-5.579,3.665-.281.1-.289.191-.341.463a37.016,37.016,0,0,0,.028,4.9c1.64.669,3.993.277,5.033,1.9,2.1,3.264.351,4.361-1.152,7.172l3.653,3.58c.645.124,2.859-2.055,4.013-2.168a6.524,6.524,0,0,1,3.779,1.611c.816,1.107.674,3.13,1.234,4.417l5.287-.032c.506-1.555.33-4.157,1.889-5.041a18.312,18.312,0,0,1,2.3-.922c1.886-.352,4.113,2.506,5.064,2.073a35.439,35.439,0,0,0,3.392-3.451c-.284-1.154-1.993-2.733-2.168-3.8-.193-1.174.793-3.954,1.993-4.413.6-.229,3.94-.652,4.03-1.032l-.1-5.1c-1.488-.6-4.047-.384-4.978-1.852a5.478,5.478,0,0,1-.87-3.769c.223-.735,2.292-3.073,2.028-3.6l-3.467-3.393c-.736-.192-3.034,2.062-4.2,2.174a7.607,7.607,0,0,1-3.7-1.493c-.719-.842-1.007-4.321-1.221-4.5" transform="translate(-95.738 -30.453)" fill="#fff"/>
        <path id="Path_31690" data-name="Path 31690" d="M28.993,77.946c11.74-1.59,12.3,15.444,1.521,15.538-9.77.085-10.392-14.336-1.521-15.538m.2,2.406c-5.7.962-5.526,10.566,1.191,10.722,7.563.176,7.284-12.151-1.191-10.722" transform="translate(-16.65 -56.994)" fill="#fff"/>
        <path id="Path_31691" data-name="Path 31691" d="M181.389,81.183c13.605-.913,16.058,19.124,3.065,21.743-15.35,3.094-18.31-20.72-3.065-21.743m0,2.406c-11.881,1.223-9.208,19.446,2.667,16.926,10.313-2.188,7.734-18-2.667-16.926" transform="translate(-125.451 -59.419)" fill="#fff"/>
      </g>
    </g>
  </g>
</svg>
