<svg id="Group_27608" data-name="Group 27608" xmlns="http://www.w3.org/2000/svg" xmlns:xlink="http://www.w3.org/1999/xlink" width="107.328" height="107.372" viewBox="0 0 107.328 107.372">
  <defs>
    <clipPath id="clip-path">
      <rect id="Rectangle_11138" data-name="Rectangle 11138" width="107.328" height="107.372" fill="#ec8201"/>
    </clipPath>
  </defs>
  <g id="Group_27607" data-name="Group 27607" clip-path="url(#clip-path)">
    <path id="Path_31669" data-name="Path 31669" d="M30.616,139.625c-.584.247-1.126.638-1.73.844-2.448.834-13.132.787-16.074.5-11.118-1.1-8.46-19.355.11-22.579-1.672-3.019-2.665-5.334-1.578-8.836,2.514-8.1,14.439-8.136,17.044,0,1.094,3.415.056,5.89-1.579,8.838l2.914,1.9,2.01,2.348c0-1.816,2.468-4.828,2.659-6.2.082-.588-.726-1.236-.975-1.847-1.133-2.782.613-3.853.543-5.888a10.954,10.954,0,0,0-2.034-4.919c-1.212-1.305-3.1-1.133-4.121-3.04-1.147-2.133-1.139-7.375.25-9.385,1.066-1.542,2.686-1.387,3.772-2.495a10.857,10.857,0,0,0,2.15-5.236c-.014-1.495-1.17-2.523-.877-4.671.3-2.19,4.639-6.519,6.83-6.816,2.936-.4,3.469,1.522,7.094.149,3.354-1.27,2.582-2.188,4.235-4.492,1.809-2.523,9.164-2.48,11.543-.865,1.48,1.006,1.589,3.046,2.974,4.185a10.326,10.326,0,0,0,4.784,1.811c1.576-.031,2.424-1.071,4.5-.79,2.194.3,6.531,4.629,6.83,6.816.293,2.148-.862,3.176-.877,4.671a10.856,10.856,0,0,0,2.15,5.236c1.04,1.061,2.736,1.052,3.771,2.5,1.386,1.933,1.37,7.3.25,9.385-1.026,1.907-2.909,1.735-4.121,3.04a10.958,10.958,0,0,0-2.034,4.919c-.07,2.035,1.676,3.106.543,5.888-.249.611-1.057,1.259-.975,1.847.191,1.372,2.657,4.384,2.659,6.2l2.01-2.348,2.914-1.9c-1.635-2.948-2.673-5.423-1.579-8.838,2.573-8.035,14.239-8.155,16.985-.162,1.188,3.457.153,6-1.518,9,5.74,2.7,7.989,9.27,7.389,15.314a8.353,8.353,0,0,1-7.279,7.265,99.323,99.323,0,0,1-14.106,0,9.173,9.173,0,0,1-3.7-1.339v8.159c0,2.63-3.2,5.386-5.735,5.676-5.605.642-15.306-4.351-21.245-4.9-5.685,1.1-11.506,3.523-17.137,4.6-3.277.624-6.468.515-8.48-2.5a12.464,12.464,0,0,1-1.158-2.869Zm47.705-26.6c0-1.416-.891-2.657-.911-4.137-.037-2.648,1.926-6.887,4.069-8.473,1.392-1.03,2.663-.656,2.892-2.7.1-.933.138-3.561-.44-4.255-.36-.433-2-.988-2.7-1.551-2.249-1.8-4.135-6.469-3.7-9.3.149-.971.963-2.3.749-3.17a14.978,14.978,0,0,0-3.528-3.652c-1.1-.346-2.845.792-4.153.8a14.116,14.116,0,0,1-7.622-3.12c-.853-.821-2.121-3.55-2.349-3.691-.787-.485-5.477-.485-6.264,0-.245.151-1.368,2.651-2.014,3.355a13.672,13.672,0,0,1-7.957,3.456c-1.242,0-2.964-1.059-3.979-.854-.762.155-3.74,3.227-3.762,4.09-.025.979.952,2.583.916,4.019-.065,2.589-2.037,6.843-4.189,8.356-1.542,1.084-2.554.509-2.77,2.825a16.9,16.9,0,0,0,.009,2.691c.229,2.047,1.5,1.672,2.892,2.7,2.172,1.608,4.074,5.8,4.068,8.474,0,1.47-.924,2.727-.911,4.136,2.934-2.795,5.9-5.861,9.853-7.156-.659-1.5-1.736-2.68-2.348-4.248A14.331,14.331,0,0,1,50.623,83.7c11.878-6.381,25.059,5.431,20.192,17.918-.611,1.568-1.688,2.751-2.348,4.248,3.949,1.325,6.922,4.343,9.853,7.156M56.1,85.591c-14.87,1.789-10.48,25.237,4.424,20.957,12.5-3.59,8.7-22.535-4.424-20.957M18.91,107.043c-6.659,1.054-5.337,11.539,1.72,10.655,6.874-.861,5.594-11.813-1.72-10.655m75.257,0c-6.619,1.048-5.362,11.542,1.72,10.655,6.874-.861,5.594-11.813-1.72-10.655M44.95,129.678c.372,1.742-.276,4.708,0,6.594l24.943-6.025c.336-1.361,1.319-2.172,2.735-1.593,1.506.616.663,1.963,1.1,2.7.117.2,1.491,1.171,1.9,1.682a7.358,7.358,0,0,1-.225,9.378c-2.242,2.689-7.109,2.922-10.3,4.035-.216.075-.514.027-.448.327l11.814,3.074c2.289.294,3.97-.29,4.285-2.761-.22-5.939.378-12.19.036-18.092a23.315,23.315,0,0,0-15.392-20.611,15.563,15.563,0,0,1-15.825,0,23.362,23.362,0,0,0-15.39,20.389,146.652,146.652,0,0,0,0,17.9c.232,2.71,1.7,3.511,4.319,3.175,10.254-3.317,21.89-5.01,31.975-8.546,4.753-1.667,3.932-7.055-.775-7.5l-27.845,7.108c-2.783.425-3.194-3.136-.485-3.66.3-2.065-.493-5.855.086-7.7.509-1.621,3.169-1.346,3.483.123m-28.727-9.008c-1.359.127-3.884,2.252-4.739,3.327-2.879,3.618-4.447,12.846,1.989,13.4a93.8,93.8,0,0,0,13-.011c6.254-.633,4.56-10,1.677-13.517-.835-1.019-3.172-2.948-4.47-3.158-.854-.138-2.78.636-4.158.593-1.047-.033-2.622-.7-3.3-.636m75.257,0c-1.359.127-3.884,2.252-4.739,3.327-2.879,3.618-4.447,12.846,1.989,13.4a93.8,93.8,0,0,0,13-.011c6.234-.63,4.56-10,1.677-13.517-.835-1.019-3.172-2.948-4.47-3.158-.854-.138-2.78.636-4.158.593-1.047-.033-2.622-.7-3.3-.636" transform="translate(-3.821 -46.145)" fill="#ec8201"/>
    <path id="Path_31670" data-name="Path 31670" d="M161.889.1c9.9-1.435,11.3,13.386,1.93,14.219-9.473.843-10.685-12.95-1.93-14.219m.443,3.573c-4.316.7-3.578,7.859,1.461,7.045,4.316-.7,3.578-7.859-1.461-7.045" transform="translate(-109.39 0)" fill="#ec8201"/>
    <path id="Path_31671" data-name="Path 31671" d="M317.9,71.958c9.908-1.436,11.286,13.387,1.931,14.219-9.449.84-10.694-12.949-1.931-14.219m.443,3.573c-4.383.708-3.482,7.933,1.463,7.047,4.354-.78,3.532-7.854-1.463-7.047" transform="translate(-218.814 -50.4)" fill="#ec8201"/>
    <path id="Path_31672" data-name="Path 31672" d="M5.911,71.958c9.9-1.435,11.3,13.386,1.93,14.219-9.438.839-10.691-12.95-1.93-14.219m.443,3.573c-4.316.7-3.578,7.859,1.461,7.045,4.316-.7,3.579-7.859-1.461-7.045" transform="translate(0 -50.4)" fill="#ec8201"/>
    <path id="Path_31673" data-name="Path 31673" d="M81.074,35.41a1.834,1.834,0,0,1,1.254,3.284L58.117,49.848A1.807,1.807,0,0,1,56.185,46.8Z" transform="translate(-38.876 -24.824)" fill="#ec8201"/>
    <path id="Path_31674" data-name="Path 31674" d="M212.983,35.4c.753-.135,2.738.91,3.57,1.267,7.373,3.163,14.531,6.9,21.878,10.131a1.8,1.8,0,0,1-1.77,3.108L211.949,38.361a1.9,1.9,0,0,1,1.034-2.958" transform="translate(-148.395 -24.822)" fill="#ec8201"/>
    <path id="Path_31675" data-name="Path 31675" d="M311.642,144.7c-1.149,1.16-3.618-.024-3.06-1.816l3.395-12.492a1.8,1.8,0,0,1,3.3,1.261c-1.177,3.717-1.783,7.878-3.006,11.545a5.756,5.756,0,0,1-.624,1.5" transform="translate(-216.371 -90.844)" fill="#ec8201"/>
    <path id="Path_31676" data-name="Path 31676" d="M31.888,144.653a5.756,5.756,0,0,1-.624-1.5c-1.223-3.666-1.83-7.828-3.006-11.545-.163-2.284,2.509-3.128,3.517-.588a87.73,87.73,0,0,1,3.173,11.819,1.869,1.869,0,0,1-3.06,1.816" transform="translate(-19.814 -90.802)" fill="#ec8201"/>
    <path id="Path_31677" data-name="Path 31677" d="M199.087,245.5a38.215,38.215,0,0,1,6.4,0c1.729.382,1.544,3.136,0,3.481a38.381,38.381,0,0,1-6.4,0,1.839,1.839,0,0,1,0-3.48" transform="translate(-138.759 -172.09)" fill="#ec8201"/>
  </g>
</svg>
