<svg id="Group_27620" data-name="Group 27620" xmlns="http://www.w3.org/2000/svg" xmlns:xlink="http://www.w3.org/1999/xlink" width="110" height="110" viewBox="0 0 110 110">
  <defs>
    <clipPath id="clip-path">
      <rect id="Rectangle_11144" data-name="Rectangle 11144" width="110" height="110" fill="#74a235"/>
    </clipPath>
  </defs>
  <g id="Group_27619" data-name="Group 27619" clip-path="url(#clip-path)">
    <path id="Path_31708" data-name="Path 31708" d="M37.813,0c.651.314,1.313.36,2.013.672.791.353,1.457,1.086,2.285,1.368a25.67,25.67,0,0,0,2.8.42c3.327.761,5.239,3.645,5.547,6.914.2,2.119.3,9.253-.291,11.04a5.224,5.224,0,0,1-1.628,2.03c-.237.209-.712.227-.865.471-.253.4-.42,2-.674,2.711a12.743,12.743,0,0,1-2.309,3.706c-1.4,1.527-3.052,1.753-2.274,4.411,3.265.994,6.647,1.511,9.965,2.281a23.794,23.794,0,0,0,2.318.712c.413.015,2.106-1.138,2.886-1.384a25.582,25.582,0,0,1,9.919-.272,30.544,30.544,0,0,1,2.811,1.486c1.934.757,3.145.193,5.162,1.713,1,.753,2.508,2.93,2.508,4.153V48.77H89.053c3.162,0,6.485,2.741,7.423,5.682.7,2.181.672,10.392.433,12.915-.191,2.022-2.219,2.2-3.193.587-.318-3.61.27-7.568-.037-11.135-.62-7.218-10.911-4.193-15.692-4.827a14.713,14.713,0,0,1-6.623,12.175l-.049,3.808c6.343,2.09,13.773,1.272,17.588,7.8a15.19,15.19,0,0,1,1.761,5.114V89.8a4.4,4.4,0,0,0,2.52-2.314c1.31-2.787.045-10.22.478-13.7a1.643,1.643,0,0,1,3.186-.375c-.556,6.946,2.8,17.36-6.159,19.851-.41.469.2,10.556-.122,12.448-.385,2.235-2.006,3.48-3.986,4.285H42.324c-1.607-.713-3.054-1.538-3.7-3.285-.074-.2-.384-1.24-.384-1.334V93.457H19.336v13c0,1.568-1.582,3.089-3.008,3.545H10.957a4.25,4.25,0,0,1-2.779-2.914L8.071,93.658A8.932,8.932,0,0,1,1.2,89.572,16.708,16.708,0,0,1,0,86.582V55.859a8.726,8.726,0,0,1,9.239-7.089,12.911,12.911,0,0,1,4.409-10.307c3.916-3.2,10.14-3.273,14.915-4.528l-.1-2.782a14.153,14.153,0,0,1-4.077-4.517c-.467-.963-.8-3.2-1.08-3.646-.166-.267-.693-.33-.952-.552a4.338,4.338,0,0,1-1.74-3.2C19.928,11.553,20.265,1.108,30.078,0Zm9.453,13.32V9.131a8.561,8.561,0,0,0-1.071-2.366c-1.254-1.4-3.091-1.132-4.687-1.543s-2.74-1.774-4.251-1.98c-7.29-.992-14.506.924-13.421,9.769.106.862,1.083,1.006,1.893,1.114a18.683,18.683,0,0,0,8.972-1.23c3.829-1.4,6.405-4.4,10.419-1.188.349.279,1.731,2.041,2.146,1.614M23.849,16.974l.1,2.579c.326.653,1.675.188,2.234,1.2.4.726.448,2.707.88,3.847,1.059,2.8,5.267,6.073,8.285,6.125,3.374.058,7.992-3.6,8.843-6.836.249-.947.165-2.56.613-3.254.7-1.081,2.239-.043,2.463-2.049.231-2.067-1.166-1.754-2.564-2.816-.664-.5-1.2-1.349-1.881-1.771-2-1.238-2.99.256-4.721,1.007-4.574,1.987-9.265,3.192-14.255,1.965M39.1,33.3a12.194,12.194,0,0,1-7.3,0c-.694,3.393,2.045,6.95,5.523,4.986,1.987-1.122,1.878-2.959,1.78-4.986M12.461,48.77H17.51c1.365,0,2.468,2.988-.2,3.233C12.532,52.44,4.8,50,3.274,56.233L3.242,86.026c.084,1.484,2.29,4.208,3.741,4.208h31.26V81.1a13.917,13.917,0,0,1,2.185-5.979c3.918-5.752,11.093-5.231,17.123-7.048l-.007-3.91a14.822,14.822,0,0,1-6.624-12.175l-27.6,0c-1.922-.5-1.081-3.217.424-3.217H50.918V43.506a20.375,20.375,0,0,1,.547-2.032c.247-.76.684-1.416.956-2.156L42.247,37.184a19.556,19.556,0,0,1-1.677,2.635,6.831,6.831,0,0,1-11.585-2.631c-3.2.661-6.9,1.146-10.032,2.069-4.361,1.284-6.577,5.062-6.493,9.513M60.109,38.087a6.708,6.708,0,0,0-5.976,6.27c-.366,4.245-.393,10.5,2.063,14.065,5.809,8.428,17.813,4.071,18.577-5.671.161-2.053.283-8.189-.1-10.01-.624-2.942-2.967-2.315-5.021-2.928-1.164-.347-2.147-1.362-3.3-1.639a26.2,26.2,0,0,0-6.238-.087m.692,29.8h7.3l0-2.363a10.778,10.778,0,0,1-7.3,0Zm26.641,21.7V81.1c0-3.735-3.608-6.756-6.913-7.7-10.5-2.988-22.762-3.359-33.164.276-2.732.954-5.9,4.438-5.9,7.42V89.59a14.524,14.524,0,0,1,9.55-4.737c8.919-.584,18.5.435,27.483.038a14.34,14.34,0,0,1,8.944,4.7m-37-1.444c-8.359,1.465-9.688,9.078-8.987,16.386a2.487,2.487,0,0,0,1.139,2.083l43.718,0a2.223,2.223,0,0,0,1.138-2.084c.674-7.226-.784-15.756-9.561-16.452-8.794-.7-18.555.488-27.448.068M15.9,106.777c-.07-.211.215-.466.215-.537V93.779l-.322-.322h-4.4v13l.322.322Z" fill="#74a235"/>
    <path id="Path_31709" data-name="Path 31709" d="M284.679,0a5.725,5.725,0,0,1,4.512,4.3V20.2a5.548,5.548,0,0,1-4.837,4.294c-1.4.142-4.008-.326-5.126.245-1.071.547-4.716,6.219-5.943,7.593-1.019,1.142-2.09,2-3.725,1.161-3.264-1.666.655-8.652-3.24-9.006-5.179-.472-14.3,2.325-14.95-5.246a96.978,96.978,0,0,1,.063-14.562C251.779,2.115,253.49.638,255.89,0Zm-13.32,29.219c2.743-2.225,4.368-7.555,8.274-7.947,2.478-.249,6.028,1.131,6.344-2.25a98.927,98.927,0,0,0,0-13.552c-.143-1.539-.7-2.108-2.253-2.258-8.475-.822-18.263.646-26.877,0-1.474.06-2.09.86-2.246,2.266a96,96,0,0,0-.008,13.115c.089,1.211.293,2.35,1.67,2.627,3.931.791,11.082-1.5,13.917,1.766a7,7,0,0,1,1.18,2.043Z" transform="translate(-179.191)" fill="#74a235"/>
  </g>
</svg>
