<svg xmlns="http://www.w3.org/2000/svg" xmlns:xlink="http://www.w3.org/1999/xlink" width="188" height="173" viewBox="0 0 188 173">
  <defs>
    <clipPath id="clip-path">
      <rect id="Rectangle_11129" data-name="Rectangle 11129" width="83.609" height="97" fill="#f9f9f9"/>
    </clipPath>
  </defs>
  <g id="Group_27672" data-name="Group 27672" transform="translate(-555 -5493)">
    <rect id="Rectangle_11101" data-name="Rectangle 11101" width="188" height="173" rx="18" transform="translate(555 5493)" fill="#ed0109"/>
    <g id="Group_27594" data-name="Group 27594" transform="translate(607 5531)">
      <g id="Group_27593" data-name="Group 27593" clip-path="url(#clip-path)">
        <path id="Path_31631" data-name="Path 31631" d="M.733,213.96l81.817-.046c1.192.119,1.07,1.455,1.042,2.392a42.138,42.138,0,0,1-27.823,38.069C30.1,263.347,2.76,245.931.223,218.954a23.994,23.994,0,0,1-.18-3.975c.062-.371.308-.9.69-1.018M22.439,216.2H2.311c.26,2.231.378,4.474.816,6.685a40.51,40.51,0,0,0,8.42,17.447,64.524,64.524,0,0,1,13.362-4.195A80.909,80.909,0,0,1,22.439,216.2m36.46,0H24.718a72.094,72.094,0,0,0,2.494,19.344l8.427-.922a102.966,102.966,0,0,1,14.619.189c.86.077,5.981.962,6.195.648A73.731,73.731,0,0,0,58.9,216.2m22.407,0H61.178a80.518,80.518,0,0,1-2.469,19.938,64.521,64.521,0,0,1,13.362,4.195A40,40,0,0,0,80.646,221.9c.321-1.9.437-3.8.66-5.7M55.672,237.851a82.852,82.852,0,0,0-27.729.1c1.995,7.692,9.8,21.927,19.356,14.413,4.2-3.3,6.9-9.515,8.372-14.51m-30.03.595c-.737-.474-9.28,2.364-10.6,2.923-.458.194-1.061.411-1.475.618-.132.066-.368.018-.238.323a38.905,38.905,0,0,0,20.887,11.3c-4.261-4.109-6.789-9.587-8.571-15.163m44.65,3.584c-3.988-1.486-8.06-3.149-12.317-3.584-1.768,5.584-4.314,11.05-8.571,15.163a38.149,38.149,0,0,0,19.469-9.868c.263-.251,1.6-1.466,1.419-1.712" transform="translate(0 -159.753)" fill="#f9f9f9"/>
        <path id="Path_31632" data-name="Path 31632" d="M61.393,109.244a25.685,25.685,0,0,1,6.085,15.278c.032.776.044,1.766-.908,1.967-1.893.4-1.4-2.764-1.593-4.025-3.944-25.75-40.866-25.712-44.219,1.119-.128,1.027.4,3.489-1.575,2.9-.973-.288-.762-2.231-.7-3.092a24.456,24.456,0,0,1,6.073-14.056c-8.757-2.6-18.188,3.184-20.379,11.9-.406,1.614-.418,3.178-.721,4.787a1.146,1.146,0,0,1-2.026-.208c-.561-1.964.96-6.965,1.893-8.851a19.3,19.3,0,0,1,23-9.658,24.736,24.736,0,0,1,33.123.007,19.253,19.253,0,0,1,25.121,17.409c.035.739-.024,1.58-.9,1.764-1.808.379-1.379-2.261-1.6-3.454-1.811-9.968-10.661-16.12-20.673-13.791" transform="translate(-0.975 -75.39)" fill="#f9f9f9"/>
        <path id="Path_31633" data-name="Path 31633" d="M129.641.1c13.2-1.578,18.511,15.19,7.765,21.437A11.622,11.622,0,0,1,120.281,8.784c.981-4.182,5.034-8.163,9.36-8.68m.186,2.275c-9.585,1.3-10.24,16.391-.154,18.286,14.163,2.662,15.136-20.312.154-18.286" transform="translate(-89.583 0)" fill="#f9f9f9"/>
        <path id="Path_31634" data-name="Path 31634" d="M139.222,120.15a22.375,22.375,0,0,0,4.433.219c.85.055,2.369.085,2.525,1.1.2,1.308-4.19,3.546-4.875,4.747-.253.877,1.364,4.479,1.447,5.706a1.256,1.256,0,0,1-1.481,1.3c-.876-.246-4.644-3.359-5.189-3.309-1.264.47-4.42,3.38-5.542,3.366a1.1,1.1,0,0,1-.961-.73c-.4-1.246,1.4-4.826,1.413-6.336-.122-.489-4.018-3.011-4.615-3.748a1.226,1.226,0,0,1-.2-1.314c.492-1.1,4.207-.679,5.322-.757.53-.037,1.046-.207,1.578-.226.478-1.039,1.629-5.416,2.389-5.87a1.28,1.28,0,0,1,1.249-.084c.737.361,1.913,5.008,2.5,5.945m2.62,2.508-3.988-.286c-.568-.134-1.52-3.994-1.9-3.7l-1.445,3.589-4.064.4c.541.906,2.82,1.855,3.006,2.8s-.71,2.843-.917,3.845c1.219-.214,2.477-1.966,3.7-1.911.983.044,2.339,1.56,3.325,1.913.023-1.263-1.081-2.82-.718-4.044.2-.674,2.509-1.928,3-2.6" transform="translate(-94.148 -85.196)" fill="#f9f9f9"/>
        <path id="Path_31635" data-name="Path 31635" d="M228.277,40.868c11.642-.284,12.308,17.093,1.455,18.183-13.128,1.318-13.7-17.885-1.455-18.183m0,2.279c-8.413.216-8.726,12.813-.819,13.625,10.2,1.046,10.205-13.866.819-13.625" transform="translate(-163.904 -30.518)" fill="#f9f9f9"/>
        <path id="Path_31636" data-name="Path 31636" d="M49.489,40.871a9.123,9.123,0,1,1-7.851,13.441,9.163,9.163,0,0,1,7.851-13.441m-.009,2.286c-8.381.174-8.753,12.8-.81,13.618,10.091,1.036,10.289-13.815.81-13.618" transform="translate(-30.311 -30.52)" fill="#f9f9f9"/>
      </g>
    </g>
  </g>
</svg>
