<svg xmlns="http://www.w3.org/2000/svg" xmlns:xlink="http://www.w3.org/1999/xlink" width="80" height="112" viewBox="0 0 80 112">
  <defs>
    <clipPath id="clip-path">
      <rect id="Rectangle_12264" data-name="Rectangle 12264" width="80" height="112" transform="translate(0.004 -0.161)" fill="#0775ac"/>
    </clipPath>
  </defs>
  <g id="Group_34199" data-name="Group 34199" transform="translate(0.139 0.161)">
    <g id="Group_34198" data-name="Group 34198" transform="translate(-0.143 0)" clip-path="url(#clip-path)">
      <path id="Path_38167" data-name="Path 38167" d="M75.966,71.793H99.9a11.965,11.965,0,0,0,11.966-11.966V55.839H95.908a3.989,3.989,0,1,1,0-7.977h15.954V39.885H95.908a3.989,3.989,0,1,1,0-7.977h15.954V23.931H95.908a3.989,3.989,0,1,1,0-7.977h15.954V11.966A11.965,11.965,0,0,0,99.9,0H75.966A11.965,11.965,0,0,0,64,11.966v3.989H79.954a3.989,3.989,0,1,1,0,7.977H64v7.977H79.954a3.989,3.989,0,1,1,0,7.977H64v7.977H79.954a3.989,3.989,0,1,1,0,7.977H64v3.989A11.965,11.965,0,0,0,75.966,71.793" transform="translate(-47.927 0)" fill="#0775ac"/>
      <path id="Path_38168" data-name="Path 38168" d="M75.782,144a3.988,3.988,0,0,0-3.989,3.989v19.943a19.942,19.942,0,0,1-19.943,19.943H27.92A19.942,19.942,0,0,1,7.977,167.931V147.989a3.989,3.989,0,0,0-7.977,0v19.943a27.92,27.92,0,0,0,27.92,27.92H35.9V211.8H27.92a3.989,3.989,0,0,0,0,7.977H51.851a3.989,3.989,0,1,0,0-7.977H43.874V195.851h7.977a27.92,27.92,0,0,0,27.92-27.92V147.989A3.988,3.988,0,0,0,75.782,144" transform="translate(0.119 -108.104)" fill="#0775ac"/>
    </g>
  </g>
</svg>
