<svg xmlns="http://www.w3.org/2000/svg" xmlns:xlink="http://www.w3.org/1999/xlink" width="188" height="173" viewBox="0 0 188 173">
  <defs>
    <clipPath id="clip-path">
      <rect id="Rectangle_11143" data-name="Rectangle 11143" width="119.385" height="106.591" fill="#f9f9f9"/>
    </clipPath>
  </defs>
  <g id="Group_27669" data-name="Group 27669" transform="translate(-710 -4632)">
    <rect id="Rectangle_11102" data-name="Rectangle 11102" width="188" height="173" rx="18" transform="translate(710 4632)" fill="#f78700"/>
    <g id="Group_27618" data-name="Group 27618" transform="translate(744 4665)">
      <g id="Group_27617" data-name="Group 27617" clip-path="url(#clip-path)">
        <path id="Path_31702" data-name="Path 31702" d="M343.81,98.606v27.461c-.951,4.579-4.981,6.6-9.307,4.888-.057,2.208.068,4.432.008,6.641-.155,5.716-.53,11.487-.717,17.2-.134,4.08.172,8.8-.225,12.807a6.636,6.636,0,0,1-11.28,4.3c-4.881,3.806-10.99,1.547-11.519-4.771-.615-7.345-.476-15.786-.711-23.259-.136-4.3-.116-8.624-.224-12.925-4.436,1.691-8.762-.313-9.278-5.266-.855-8.2.589-17.707-.039-26.047a10.236,10.236,0,0,1,8.961-9.656,50.745,50.745,0,0,1,6.4.135l6.209,5.907,6.766-5.984c2.935.029,6.012-.483,8.8.642a11.016,11.016,0,0,1,6.16,7.919m-30.95,9.658v13.382h18.616V108.264c0-.682,2.823-2.047,3.39.334.667,5.412-.544,11.837.094,17.127.374,3.1,4.944,3.4,5.356-.707.8-7.981-.589-17.243,0-25.36-.614-5.425-5.233-6.825-10.071-6.124l-6.922,6.341a1.9,1.9,0,0,1-2.433-.105c-2.078-1.447-4.3-4.726-6.563-6.236-4.918-.674-9.659.545-10.3,6.123.516,8.124-.7,17.118-.012,25.138.381,4.432,4.9,3.983,5.339.9.693-4.872-.456-11.232.012-16.278.1-1.105.413-2.215,1.754-2.215a2.564,2.564,0,0,1,1.745,1.06m18.384,16.872H313.093c.355,5.94.282,11.869.456,17.813.167,5.715.529,11.486.717,17.2.1,2.881-1.2,10.778,3.578,10.122a3.54,3.54,0,0,0,2.7-3.131V131.187h3.49v36.886a4.894,4.894,0,0,0,1.178,1.614c2.036,1.517,4.52.047,4.852-2.333.24-1.724-.051-3.992.011-5.807.283-8.357.7-16.757.95-25.115.114-3.761.048-7.539.223-11.3" transform="translate(-224.425 -67.207)" fill="#f9f9f9"/>
        <path id="Path_31703" data-name="Path 31703" d="M34.216,130.652c-.057,2.208.068,4.432.008,6.641-.155,5.716-.53,11.487-.717,17.2-.133,4.057.131,8.577-.215,12.585-.513,5.954-6.849,8.438-11.29,4.526-4.861,3.8-10.99,1.562-11.519-4.771-.614-7.348-.476-15.784-.711-23.259-.136-4.3-.116-8.624-.224-12.925-4.592,1.724-8.849-.409-9.3-5.473-.756-8.43.537-17.957.021-26.5,1.219-7.916,8-9.916,15.161-8.927L21.8,95.727c.674.117,5.653-5.78,6.954-6.029a37.9,37.9,0,0,1,5.821-.013,10.276,10.276,0,0,1,8.947,9.2c-.671,8.461.938,18.408-.061,26.694-.573,4.75-4.963,6.769-9.242,5.069m-21.41-9.31H30.841l.349-.349V107.961a4.369,4.369,0,0,1,.99-.871,1.681,1.681,0,0,1,2.445,1.392l.162,17.524c1.741,3.055,4.95,2.036,5.254-1.514.687-8.022-.527-17.013-.012-25.138-.615-5.421-5.221-6.825-10.071-6.124l-6.8,6.236a1.944,1.944,0,0,1-1.991.362c-1.365-.441-5.422-5.662-7.133-6.6-4.811-.671-9.8.552-10.3,6.123-.745,8.217.463,17.622.1,25.956.582,3.421,4.922,3.221,5.257-.352.475-5.057-.573-11.073-.009-16.066.268-2.371,2.484-2.7,3.484-.692Zm18.151,3.491H12.806c.355,5.94.282,11.869.456,17.813.167,5.715.529,11.486.717,17.2.069,2.1-.417,7.105.582,8.727,1.777,2.885,5.907.975,5.687-2.2l-.008-35.847c.674-2.4,3.51-1.682,3.5.709l.052,36.485a3.014,3.014,0,0,0,5.894-.282Z" transform="translate(0 -66.904)" fill="#f9f9f9"/>
        <path id="Path_31704" data-name="Path 31704" d="M355.522.052c13.111-1.236,14.666,19.952,3.085,22.4-14.35,3.033-16.589-21.127-3.085-22.4m.225,3.482c-5.2.635-6,5.706-5.53,10.064.727,6.685,10.431,7.611,12.228,1.056,1.328-4.841-.481-11.879-6.7-11.12" transform="translate(-258.991 0)" fill="#f9f9f9"/>
        <path id="Path_31705" data-name="Path 31705" d="M55.2.052C68.312-1.184,69.867,20,58.286,22.452,43.918,25.488,41.71,1.324,55.2.052m.225,3.482c-5.2.635-6,5.706-5.53,10.064.727,6.685,10.431,7.611,12.228,1.056,1.328-4.841-.481-11.879-6.7-11.12" transform="translate(-34.532 0)" fill="#f9f9f9"/>
        <path id="Path_31706" data-name="Path 31706" d="M186.3,141.6h20.594a1.851,1.851,0,0,1-.021,3.7c-4.23.6-10.7-.108-15.1-.221-1.822-.047-3.657.053-5.477.011-.105.4.167.465.346.7.8,1.049,3.923,3.473,4.211,4.412a1.8,1.8,0,0,1-2.94,1.762,89.491,89.491,0,0,1-7.332-7.325,1.755,1.755,0,0,1,0-2.353l8.027-7.8a1.744,1.744,0,0,1,2.25,2c-.278,1.417-3.757,3.7-4.566,5.113" transform="translate(-134.629 -100.427)" fill="#f9f9f9"/>
        <path id="Path_31707" data-name="Path 31707" d="M202.584,227.237H181.757a2.19,2.19,0,0,1-1.623-1.593c-.069-.526.482-1.9.925-1.9h21.525c.1-.406-.168-.465-.348-.7-.877-1.145-4.062-3.476-4.272-4.592-.337-1.794,1.731-2.455,3.228-1.346A81.544,81.544,0,0,1,208.3,224.2c.867,1.239.351,2.008-.476,3.042a62.3,62.3,0,0,1-6.28,6.287c-.894.737-1.975,1.514-3.041.47-2.114-2.07,3.168-5.1,4.082-6.759" transform="translate(-134.627 -161.86)" fill="#f9f9f9"/>
      </g>
    </g>
  </g>
</svg>
