<svg id="Group_34192" data-name="Group 34192" xmlns="http://www.w3.org/2000/svg" xmlns:xlink="http://www.w3.org/1999/xlink" width="71.437" height="75.585" viewBox="0 0 71.437 75.585">
  <defs>
    <clipPath id="clip-path">
      <rect id="Rectangle_12260" data-name="Rectangle 12260" width="71.437" height="75.585" fill="#7d4cd4"/>
    </clipPath>
  </defs>
  <g id="Group_34191" data-name="Group 34191" clip-path="url(#clip-path)">
    <path id="Path_38161" data-name="Path 38161" d="M64.784,0H6.654A6.661,6.661,0,0,0,0,6.654v52.1a6.661,6.661,0,0,0,6.654,6.654H27.748L33.873,74.6a2.219,2.219,0,0,0,3.691,0l6.125-9.187H64.783a6.661,6.661,0,0,0,6.654-6.654V6.654A6.661,6.661,0,0,0,64.784,0ZM67,58.758a2.221,2.221,0,0,1-2.218,2.218H42.5a2.218,2.218,0,0,0-1.845.988L35.719,69.37l-4.938-7.407a2.218,2.218,0,0,0-1.845-.988H6.654a2.22,2.22,0,0,1-2.218-2.218V6.654A2.22,2.22,0,0,1,6.654,4.436h58.13A2.22,2.22,0,0,1,67,6.654Z" fill="#7d4cd4"/>
    <path id="Path_38162" data-name="Path 38162" d="M261.347,53.107a7.688,7.688,0,0,0-10.029,4.154L239.652,85.427a2.217,2.217,0,0,0-.159,1.054l1.085,11.642a2.22,2.22,0,0,0,3.624,1.5l9-7.465a2.218,2.218,0,0,0,.633-.858L265.5,63.136A7.673,7.673,0,0,0,261.347,53.107Zm.056,8.331-1.282,3.1-5.987-2.48,1.282-3.1a3.24,3.24,0,1,1,5.987,2.48M249.947,89.1,244.6,93.528l-.644-6.911,8.476-20.464,5.986,2.48Z" transform="translate(-204.129 -44.771)" fill="#7d4cd4"/>
    <path id="Path_38163" data-name="Path 38163" d="M90.895,159.33a2.218,2.218,0,0,0-2.218-2.218H66.43a2.218,2.218,0,1,0,0,4.436H88.677a2.218,2.218,0,0,0,2.218-2.218" transform="translate(-54.733 -133.918)" fill="#7d4cd4"/>
    <path id="Path_38164" data-name="Path 38164" d="M66.43,91.574H94.059a2.218,2.218,0,0,0,0-4.436H66.43a2.218,2.218,0,1,0,0,4.436" transform="translate(-54.733 -74.274)" fill="#7d4cd4"/>
    <path id="Path_38165" data-name="Path 38165" d="M66.43,236.1H83.945a2.218,2.218,0,0,0,0-4.436H66.43a2.218,2.218,0,1,0,0,4.436" transform="translate(-54.733 -197.464)" fill="#7d4cd4"/>
    <path id="Path_38166" data-name="Path 38166" d="M85.208,306.215H66.43a2.218,2.218,0,1,0,0,4.436H85.208a2.218,2.218,0,1,0,0-4.436" transform="translate(-54.733 -261.009)" fill="#7d4cd4"/>
  </g>
</svg>
