<svg xmlns="http://www.w3.org/2000/svg" width="188" height="173" viewBox="0 0 188 173">
  <g id="Group_27653" data-name="Group 27653" transform="translate(-550 -4389)">
    <rect id="Rectangle_11101" data-name="Rectangle 11101" width="188" height="173" rx="18" transform="translate(550 4389)" fill="#013761"/>
    <g id="voting_2352288" transform="translate(582.24 4421.5)">
      <path id="Path_31597" data-name="Path 31597" d="M7.8,27.474A21.474,21.474,0,1,0,29.274,6,21.421,21.421,0,0,0,7.8,27.474Zm37.515,0a16.3,16.3,0,0,1-32.6,0,16.454,16.454,0,0,1,16.559-16.3A16.015,16.015,0,0,1,45.315,27.474Z" transform="translate(10.952 0)" fill="#fff"/>
      <path id="Path_31598" data-name="Path 31598" d="M11.767,77.294H68.428A10.492,10.492,0,0,0,79.036,66.687v-19.4A19.1,19.1,0,0,0,65.582,29.171l-7.244-2.329a7.082,7.082,0,0,0-6.986,1.811L39.709,41.59l-12.16-13.2a6.636,6.636,0,0,0-6.727-1.811L14.1,28.654A19.194,19.194,0,0,0,.9,46.765V66.428A11.105,11.105,0,0,0,11.767,77.294ZM6.333,47.023a13.906,13.906,0,0,1,9.573-13.2l6.727-2.07h.517a1.344,1.344,0,0,1,1.035.517l14.23,15.265a2.8,2.8,0,0,0,1.811.776,2.349,2.349,0,0,0,1.811-.776L55.491,32.535c.259-.517,1.035-.517,1.552-.517l7.244,2.329a13.9,13.9,0,0,1,9.832,13.2v19.4a5.305,5.305,0,0,1-5.433,5.433H11.767a5.872,5.872,0,0,1-5.433-5.692Z" transform="translate(0 25.706)" fill="#fff"/>
      <path id="Path_31599" data-name="Path 31599" d="M46.39,50.482a2.349,2.349,0,0,0,1.811-.776L58.809,39.1a2.561,2.561,0,0,0-3.622-3.622l-9.055,9.055-3.1-2.846a2.568,2.568,0,0,0-3.363,3.881c4.916,3.622,5.175,4.916,6.727,4.916Z" transform="translate(51.941 39.064)" fill="#fff"/>
      <path id="Path_31600" data-name="Path 31600" d="M74.285,10.3h-37A2.444,2.444,0,0,0,34.7,12.887v37a2.444,2.444,0,0,0,2.587,2.587h37a2.444,2.444,0,0,0,2.587-2.587v-37A2.444,2.444,0,0,0,74.285,10.3ZM71.7,47.3H39.875V15.475H71.7Z" transform="translate(45.52 6.825)" fill="#fff"/>
      <path id="Path_31601" data-name="Path 31601" d="M74.285,29.6h-37A2.444,2.444,0,0,0,34.7,32.187V69.444a2.444,2.444,0,0,0,2.587,2.587h37a2.444,2.444,0,0,0,2.587-2.587V32.187A2.593,2.593,0,0,0,74.285,29.6ZM71.7,66.857H39.875V34.775H71.7Z" transform="translate(45.52 30.969)" fill="#fff"/>
      <path id="Path_31602" data-name="Path 31602" d="M39.776,33.746a2.5,2.5,0,0,0,3.622,0l5.433-5.433,5.692,5.433a2.561,2.561,0,1,0,3.622-3.622L52.713,24.69l5.433-5.433a2.561,2.561,0,1,0-3.622-3.622l-5.692,5.175L43.4,15.376A2.561,2.561,0,0,0,39.776,19l5.433,5.433-5.433,5.433A2.809,2.809,0,0,0,39.776,33.746Z" transform="translate(52.345 11.922)" fill="#fff"/>
    </g>
  </g>
</svg>
