<svg xmlns="http://www.w3.org/2000/svg" xmlns:xlink="http://www.w3.org/1999/xlink" width="188" height="173" viewBox="0 0 188 173">
  <defs>
    <clipPath id="clip-path">
      <rect id="Rectangle_11151" data-name="Rectangle 11151" width="110" height="110" fill="#f9f9f9"/>
    </clipPath>
  </defs>
  <g id="Group_27661" data-name="Group 27661" transform="translate(-829 -4632)">
    <rect id="Rectangle_11102" data-name="Rectangle 11102" width="188" height="173" rx="18" transform="translate(829 4632)" fill="#106a8f"/>
    <g id="Group_27634" data-name="Group 27634" transform="translate(868 4664)">
      <g id="Group_27633" data-name="Group 27633" clip-path="url(#clip-path)">
        <path id="Path_31761" data-name="Path 31761" d="M90.662,190.68a7.994,7.994,0,0,1-6.212-6.141c0-13.155-.07-26.423-.009-39.5.017-3.718-.733-10.98,1.1-13.935.748-1.205,3.391-3.368,4.8-3.368h16.65v-9.775c0-1.656,3.272-4.63,5.067-4.6,9.642.586,20.333-.842,29.853-.026a5.727,5.727,0,0,1,4.783,2.951,8.956,8.956,0,0,1,.9,2.105v9.346h16.436a11.924,11.924,0,0,1,2.187.821,8.687,8.687,0,0,1,3.936,5.41v50.488a8.242,8.242,0,0,1-6.23,6.23Zm49.629-70.254v6.982l.322.322h3.223c.307-.188.3-.428.333-.741a51.515,51.515,0,0,0-.03-7.941,2.722,2.722,0,0,0-1.9-2.183l-29.561-.1a2.815,2.815,0,0,0-2.251,1.831v9.131h3.652v-7.3Zm-3.437,3.438H117.518v3.545l.322.322h19.014Zm-.645,31.152,26.254-5.005c1.9-.46,4-1.531,4.258-3.691a79.288,79.288,0,0,0,0-11.607,4,4,0,0,0-3.752-3.553l-72.31.11a4.141,4.141,0,0,0-2.768,3.032,82.27,82.27,0,0,0-.023,12.232c.227,1.893,2.376,3.1,4.083,3.436l26.429,5.045v-6.768c0-.924,1.789-2.112,2.7-2.237a81.574,81.574,0,0,1,12.02-.027,3.288,3.288,0,0,1,2.172.943,7.3,7.3,0,0,1,.935,1.751Zm-3.437-5.586H121.815v13.643a9.953,9.953,0,0,0,.77,1.594,5.478,5.478,0,0,0,9.292.089,9.417,9.417,0,0,0,.9-2.112Zm-44.9,2.578v32.334a7.669,7.669,0,0,0,1.183,1.824,4.3,4.3,0,0,0,2.568,1.085c24.06-.155,48.186.268,72.206-.213,1.089-.144,2.89-2.14,2.89-3.126v-31.9l-2.157.958-28.34,5.5c.184,3.834-.045,7.434-3.121,10.092a8.973,8.973,0,0,1-13.9-2.866c-1.163-2.425-.759-4.616-.843-7.214l-27.521-5.242Z" transform="translate(-60.155 -80.68)" fill="#f9f9f9"/>
        <path id="Path_31762" data-name="Path 31762" d="M54.57,0c1.982.687,3.3,2.293,4.732,3.754,3.072,3.139,6.427,6.713,9.343,9.993,1.37,1.54,2.718,2.661,2.905,4.829.258,2.988-.169,6.384-.054,9.414-.451,2.038-3.391,1.007-3.391-.168V20.41H57.471a9.45,9.45,0,0,1-3.446-1.925,9.162,9.162,0,0,1-1.818-3.553V3.438H4.619A1.923,1.923,0,0,0,3.427,5.253l.023,86.58a1.637,1.637,0,0,0,1.4,1.4l14.552.058a1.734,1.734,0,0,1-.182,3.38c-4.6-.413-10.328.606-14.793-.006C2.236,96.361.735,94.515,0,92.6V4.082A6.324,6.324,0,0,1,4.082,0ZM65.527,16.973,55.645,6.23V14.5c0,.7,1.594,2.471,2.256,2.471Z" fill="#f9f9f9"/>
        <path id="Path_31763" data-name="Path 31763" d="M270.918,0c1.736.9,1.488,6.77,2.488,7.5l4.911,1.953c1.408-.533,5.048-3.78,6.362-3.565a2.046,2.046,0,0,1,.858.44,48.865,48.865,0,0,1,4.4,4.4,1.968,1.968,0,0,1,.466,1.01c.068,1.29-3.081,4.772-3.592,6.21l1.836,4.814c.613,1.075,6.758.862,7.619,2.586v7.3a2.71,2.71,0,0,1-1.073.968c-1.171.508-5.9,1.024-6.395,1.445-.713,1.613-2.315,7.778-4.83,6.562-2.232-1.079-.287-2.953.308-4.316.433-.993,1.464-4.563,1.882-4.993.784-.806,6.623-1.37,6.683-1.725l-.218-3.215c-1.525-.586-5.812-.632-6.67-1.923a27.283,27.283,0,0,1-1.184-3.542c-.413-1.022-1.876-3.12-1.838-3.974.061-1.372,3.614-5.256,3.43-5.976L284.135,9.88c-1.531.611-4.7,3.641-6.216,3.437-.621-.083-2.69-1.464-3.566-1.819-1-.4-2.436-.6-3.278-1.019-1.655-.815-1.511-5.015-2.13-6.678-.265-.712-2.677-.232-3.387-.353-.239.231-.8,5.452-1.417,6.424-.9,1.435-3.278.793-3.078-1.574a48.4,48.4,0,0,1,1.584-7.224A2.71,2.71,0,0,1,263.614,0Z" transform="translate(-186.27)" fill="#f9f9f9"/>
        <path id="Path_31764" data-name="Path 31764" d="M277.7,52.311c1.871-.544,5.648.64,7.372,1.563a14.172,14.172,0,0,1,6.389,17.569c-.5,1.18-1.076,2.032-2.537,1.567-2.142-.681-.182-3.673-.012-5.19a10.745,10.745,0,0,0-8.916-12.094c-.944-.18-2,.241-2.867-.571a1.8,1.8,0,0,1,.57-2.845" transform="translate(-197.409 -37.228)" fill="#f9f9f9"/>
        <path id="Path_31765" data-name="Path 31765" d="M64.284,81.035l24.665-.051c2.252.26,2.018,3.186-.215,3.447H64.877c-1.986-.232-2.531-2.661-.593-3.4" transform="translate(-45.009 -57.785)" fill="#f9f9f9"/>
        <path id="Path_31766" data-name="Path 31766" d="M64.889,52.716c7.456.444,16.03-.791,23.358-.054,2.934.295,2.855,3.186.652,3.439l-25.031-.115c-1.576-1.189-.839-3.095,1.02-3.27" transform="translate(-44.96 -37.405)" fill="#f9f9f9"/>
        <path id="Path_31767" data-name="Path 31767" d="M63.486,110.576c-1.108-1.213-.263-2.77,1.323-2.946,4-.443,8.8.331,12.883.019a1.729,1.729,0,0,1-.2,3.429c-3.987.463-8.822-.362-12.9,0a1.981,1.981,0,0,1-1.1-.507" transform="translate(-44.94 -76.698)" fill="#f9f9f9"/>
        <path id="Path_31768" data-name="Path 31768" d="M30.23,108.29c.827-.9,3.847-.819,4.186.733.836,3.833-6.979,2.324-4.186-.733" transform="translate(-21.138 -76.855)" fill="#f9f9f9"/>
        <path id="Path_31769" data-name="Path 31769" d="M31.205,80.848c1.295-.289,3.438-.195,3.513,1.57.113,2.625-5.006,2.438-4.74-.2a1.684,1.684,0,0,1,1.226-1.371" transform="translate(-21.384 -57.6)" fill="#f9f9f9"/>
        <path id="Path_31770" data-name="Path 31770" d="M31.913,53.36c1.525-.2,3.321.531,2.745,2.32-.414,1.286-2.33,1.266-3.443,1.057-1.613-.3-1.734-3.053.7-3.377" transform="translate(-21.434 -38.051)" fill="#f9f9f9"/>
        <path id="Path_31771" data-name="Path 31771" d="M231.083,279.425a1.752,1.752,0,0,1-2.68-2.139c1.175-2.4,4.69.52,2.68,2.139" transform="translate(-162.825 -197.205)" fill="#f9f9f9"/>
      </g>
    </g>
  </g>
</svg>
