<svg id="Group_27622" data-name="Group 27622" xmlns="http://www.w3.org/2000/svg" xmlns:xlink="http://www.w3.org/1999/xlink" width="109.964" height="110" viewBox="0 0 109.964 110">
  <defs>
    <clipPath id="clip-path">
      <rect id="Rectangle_11145" data-name="Rectangle 11145" width="109.964" height="110" fill="#75a334"/>
    </clipPath>
  </defs>
  <g id="Group_27621" data-name="Group 27621" clip-path="url(#clip-path)">
    <path id="Path_31710" data-name="Path 31710" d="M85.717,110H5.371A7.111,7.111,0,0,1,0,104.629V5.378A6.761,6.761,0,0,1,6.115,0H84.973a6.574,6.574,0,0,1,6.113,5.917c.74,7.451-.555,16.063.01,23.637a2.152,2.152,0,1,1-4.285.4l-.02-23.4a2.3,2.3,0,0,0-1.7-2.164L5.677,4.5,4.5,5.685l-.207,97.556a2.358,2.358,0,0,0,2.471,2.471l78.155-.059a2.275,2.275,0,0,0,1.857-2.01c.693-4.9-.519-11.2.07-16.257a2.133,2.133,0,0,1,4.226.183c-.391,5.3.6,11.529,0,16.714A6.82,6.82,0,0,1,85.717,110" fill="#75a334"/>
    <path id="Path_31711" data-name="Path 31711" d="M273.51,99.852a8.991,8.991,0,0,1,9.687,12.265L255.6,160.144,240.978,171.08c-2.8.827-3.192-.951-3.08-3.293.242-5.034,1.5-10.366,1.737-15.448,8.975-16.77,18.769-33.309,28.546-49.652a9.04,9.04,0,0,1,5.329-2.835m.206,4.288c-2.743.518-3.668,3.873-5.093,5.859l8.232,4.6a29.469,29.469,0,0,0,2.391-4.07,4.763,4.763,0,0,0-5.529-6.389m-7.142,9.621-21.8,37.483,8.053,4.81,21.775-37.47Zm-16.864,45.75-.222-.525-5.79-3.337-1.075,8.807Z" transform="translate(-173.877 -72.931)" fill="#75a334"/>
    <path id="Path_31712" data-name="Path 31712" d="M113.638,43.119A19.771,19.771,0,1,1,100.468,75.5c-10.191-12.057-2.422-30.866,13.17-32.379m14.649,28.723c7.206-10.648-.463-25.049-13.433-24.5-12.165.516-18.762,14.561-11.909,24.5.3.07.352-.044.539-.208.937-.824,1.785-2.216,2.912-3.1a10.173,10.173,0,0,1,2.981-1.639c-.515-1.528-1.355-2.629-1.5-4.386-.465-5.531,2.844-10.123,8.718-9.577,5.526.514,7.975,6.683,6.337,11.511-.179.528-1.253,2.2-1.074,2.452a10.168,10.168,0,0,1,2.981,1.639c1.127.886,1.976,2.281,2.913,3.1.186.164.239.278.539.208M118.118,58.169a3.462,3.462,0,0,0-2.83-.945c-4.8.283-4.024,9.308,1.2,8.08,2.923-.687,3.392-5.255,1.627-7.135M114.28,69.754a10.32,10.32,0,0,0-7.886,5.4,15.185,15.185,0,0,0,18.445,0c-1.828-3.816-6.423-5.9-10.559-5.4" transform="translate(-70.072 -31.447)" fill="#75a334"/>
    <path id="Path_31713" data-name="Path 31713" d="M92.894,215.8l31.581.112c1.8,1.087,1.8,2.887,0,3.972l-31.2.162c-2.81-.318-3.067-3.542-.379-4.246" transform="translate(-66.526 -157.734)" fill="#75a334"/>
    <path id="Path_31714" data-name="Path 31714" d="M92.894,260.509l31.581.112c1.8,1.087,1.8,2.887,0,3.972l-31.2.162c-2.81-.318-3.067-3.542-.379-4.245" transform="translate(-66.526 -190.416)" fill="#75a334"/>
    <path id="Path_31715" data-name="Path 31715" d="M92.894,305.222l31.581.112c1.8,1.087,1.8,2.887,0,3.972l-31.2.162c-2.81-.318-3.067-3.542-.379-4.246" transform="translate(-66.526 -223.099)" fill="#75a334"/>
    <path id="Path_31716" data-name="Path 31716" d="M163.217,349.284a84.514,84.514,0,0,1,12.182-.038,2.169,2.169,0,0,1,0,4.272,84.318,84.318,0,0,1-12.182-.038,2.113,2.113,0,0,1,0-4.195" transform="translate(-117.945 -255.13)" fill="#75a334"/>
    <path id="Path_31717" data-name="Path 31717" d="M58.953,215.685c2.919-.419,3.3,3.982.567,4.251-2.711.268-3.207-3.872-.567-4.251" transform="translate(-41.817 -157.632)" fill="#75a334"/>
    <path id="Path_31718" data-name="Path 31718" d="M58.953,260.4c2.919-.419,3.3,3.982.567,4.251-2.711.268-3.207-3.872-.567-4.251" transform="translate(-41.817 -190.315)" fill="#75a334"/>
    <path id="Path_31719" data-name="Path 31719" d="M58.953,305.111c2.919-.419,3.3,3.982.567,4.251-2.711.268-3.207-3.872-.567-4.251" transform="translate(-41.817 -222.997)" fill="#75a334"/>
  </g>
</svg>
