<svg xmlns="http://www.w3.org/2000/svg" xmlns:xlink="http://www.w3.org/1999/xlink" width="188" height="173" viewBox="0 0 188 173">
  <defs>
    <clipPath id="clip-path">
      <rect id="Rectangle_11148" data-name="Rectangle 11148" width="102.686" height="102.909" fill="#f9f9f9"/>
    </clipPath>
  </defs>
  <g id="Group_27664" data-name="Group 27664" transform="translate(-786 -4136)">
    <rect id="Rectangle_11100" data-name="Rectangle 11100" width="188" height="173" rx="18" transform="translate(786 4136)" fill="#75a334"/>
    <g id="Group_27628" data-name="Group 27628" transform="translate(829 4171)">
      <g id="Group_27627" data-name="Group 27627" clip-path="url(#clip-path)">
        <path id="Path_31735" data-name="Path 31735" d="M65.987,29.332H50.295c-2.4,0-6.3-3.655-6.3-6.071V7.339H7.341v87.97H33.8a4.754,4.754,0,0,1,2.28,1.615,3.7,3.7,0,0,1-2.737,5.717c-8.538-.651-18.393.88-26.775-.029A7.4,7.4,0,0,1,0,95.662l0-88.9A7.447,7.447,0,0,1,6.76,0L47.784,0l1.927.593L72.522,23.369a3.518,3.518,0,0,1,.805,2.173c.646,7.294-.418,15.647-.111,23.046A3.709,3.709,0,0,1,66.57,49.71a9.008,9.008,0,0,1-.583-1.25ZM60.718,22l-9.393-9.393V22Z" transform="translate(0 0.001)" fill="#f9f9f9"/>
        <path id="Path_31736" data-name="Path 31736" d="M189.761,144.036c10.838-1.231,16.782,10.6,10.124,18.829l-34.834,34.808c-5.078,2.563-11.2,3.177-16.647,4.885-3.31.342-4.79-1.612-4.35-4.806a104.459,104.459,0,0,1,3.771-14.1,7.473,7.473,0,0,1,1.115-2.092L183.853,146.6a11.532,11.532,0,0,1,5.908-2.568m.447,7.321c-.588.109-2.547,1.253-2.441,1.862l5.793,5.627c3.581-2.949,1.615-8.409-3.351-7.489m-7.81,7.065-20.289,20.289,5.628,5.794,20.455-20.289Zm-29.7,35.491c2.157-.851,5.618-.984,7.614-1.891a14.38,14.38,0,0,0,2.219-2.148l-5.628-5.794c-.3-.053-2.148,1.853-2.314,2.219-.907,2-1.04,5.457-1.891,7.614" transform="translate(-100 -99.978)" fill="#f9f9f9"/>
        <path id="Path_31737" data-name="Path 31737" d="M50.936,168.084l37.745-.056a3.683,3.683,0,0,1,0,7.332H51.339a3.687,3.687,0,0,1-.4-7.276" transform="translate(-33.346 -116.704)" fill="#f9f9f9"/>
        <path id="Path_31738" data-name="Path 31738" d="M50.934,216.131l30.623-.035a3.686,3.686,0,0,1-.208,7.311l-30.22-.021a3.69,3.69,0,0,1-.194-7.256" transform="translate(-33.344 -150.089)" fill="#f9f9f9"/>
        <path id="Path_31739" data-name="Path 31739" d="M50.932,120.21H70.753a3.69,3.69,0,0,1-.194,7.256l-19.626-.035a3.69,3.69,0,0,1,0-7.221" transform="translate(-33.342 -83.492)" fill="#f9f9f9"/>
      </g>
    </g>
  </g>
</svg>
