<svg xmlns="http://www.w3.org/2000/svg" xmlns:xlink="http://www.w3.org/1999/xlink" width="188" height="173" viewBox="0 0 188 173">
  <defs>
    <clipPath id="clip-path">
      <rect id="Rectangle_11154" data-name="Rectangle 11154" width="134.28" height="100" fill="#f9f9f9"/>
    </clipPath>
  </defs>
  <g id="Group_27658" data-name="Group 27658" transform="translate(-550 -3895)">
    <rect id="Rectangle_8351" data-name="Rectangle 8351" width="188" height="173" rx="18" transform="translate(550 3895)" fill="#106a8f"/>
    <g id="Group_27640" data-name="Group 27640" transform="translate(577 3932)">
      <g id="Group_27639" data-name="Group 27639" clip-path="url(#clip-path)">
        <path id="Path_31777" data-name="Path 31777" d="M134.28,2.162V3.735l-9.456,10.9,9.456,11.133v1.574c-.329.553-1.311,1.836-1.967,1.836H101.5v23.6h17.178a3.044,3.044,0,0,1,1.553,1.069L134.28,75.6V77.17l-14.706,22.4-1.185.389L2.741,100A2.98,2.98,0,0,1,0,98.151V54.615c.329-.553,1.311-1.836,1.967-1.836H19.145V43.338c-6.437-1.893-7.816-10.512-2.485-14.681a8.573,8.573,0,0,1,13.729,5.926c.38,4.286-2.247,7.518-6,9.148v9.048H57.7V36.125C48.231,32.268,50.98,18.48,61.512,19.46c9.02.839,9.963,13.89,1.432,16.665V52.779H96.252V2.293c0-1.125,1.747-1.885,2.741-1.98,10.349-1,22.285.777,32.8.007a3.006,3.006,0,0,1,2.485,1.842m-8.655,3.409H101.5V23.93h24.128l-6.676-7.618a2.912,2.912,0,0,1,0-3.123ZM59.2,24.781c-3.391.87-2.5,7.636,2.442,6.113,3.346-1.032,2.343-7.34-2.442-6.113m-37.759,7.33c-3.827.524-3.591,6.123-.075,6.513,5.1.565,4.811-7.161.075-6.513M39.864,58.024H5.245V94.742H39.864L51.412,76.271ZM45.9,94.742H78.024L89.9,76.293,78.024,58.024H45.9l11.217,17.5A3.385,3.385,0,0,1,56.6,78.3Zm38.553,0h32.128L128.469,76.3,116.577,58.024H84.45L95.424,74.981a3,3,0,0,1,0,2.8Z" transform="translate(0 0)" fill="#f9f9f9"/>
      </g>
    </g>
  </g>
</svg>
