<svg id="Group_27604" data-name="Group 27604" xmlns="http://www.w3.org/2000/svg" xmlns:xlink="http://www.w3.org/1999/xlink" width="112.338" height="107.515" viewBox="0 0 112.338 107.515">
  <defs>
    <clipPath id="clip-path">
      <rect id="Rectangle_11134" data-name="Rectangle 11134" width="112.338" height="107.515" fill="#ed0109"/>
    </clipPath>
  </defs>
  <g id="Group_27603" data-name="Group 27603" clip-path="url(#clip-path)">
    <path id="Path_31660" data-name="Path 31660" d="M112.337,13.4V25.471l-1.206,5.7A28.165,28.165,0,0,1,81.375,50.748,39.5,39.5,0,0,1,69.493,58.6L69.387,77.91H73a11.408,11.408,0,0,1,3.376,1.446c3.812,2.546,4.207,7.189,2.868,11.278,3.868.7,7.127,4.5,7.834,8.285.688,3.684-.541,8.014-4.866,8.4a74.973,74.973,0,0,1-10.757,0c-1.785-.236-2.061-2.894.283-3.25,3.135-.475,7.165.379,10.256-.043,3.044-.415,1.973-5.04.934-6.878a7.867,7.867,0,0,0-5.351-3.639H34.9a7.654,7.654,0,0,0-6.171,5.67c-.436,1.834-.6,4.129,1.555,4.827l33.3.011a1.757,1.757,0,0,1,1.2,3.176l-34.728.115c-9.009-2.337-4.173-15.548,3.179-16.677-1.421-4.149-.823-9.2,3.254-11.55a14.626,14.626,0,0,1,2.99-1.175h3.616L42.986,58.6A39.707,39.707,0,0,1,31.1,50.748,28.148,28.148,0,0,1,1.348,31.174l-1.206-5.7c.331-3.8-.444-8.356,0-12.068A16.492,16.492,0,0,1,3.214,6.5c5.88-7.183,15.545-4.844,23.78-5.152C31.121,1.19,35.343.45,39.474.439c2.16-.006,2.946,2.022,1.22,3.214L25.722,4.679a4.114,4.114,0,0,0-3.236,4.216c1.806,11.025.339,23.049,6.029,33.036C40.406,62.8,71.5,63,83.723,42.348c5.989-10.117,4.554-22.774,6.245-34.071a4.026,4.026,0,0,0-2.245-3.249C86.081,4.286,79.8,4.1,77.6,3.971c-9.549-.566-19.115-.412-28.692-.453a1.648,1.648,0,0,1,.2-3.289c6.079-.553,13.978.05,20.161.239,5.423.166,10.81.673,16.216.878,6.148.232,14.613-1.156,19.987,1.928a14.827,14.827,0,0,1,6.866,10.13M20.3,4.627H13.837A10.816,10.816,0,0,0,3.432,14.394C2.419,25.785,4.292,36.736,14.317,43.42c2.252,1.5,7.838,3.991,10.477,3.991h3.4c-.646-1.051-1.422-2.035-2.063-3.09-.391-.644-1.491-2.991-1.777-3.267a17.835,17.835,0,0,0-2.883-1.063c-9.7-4.361-13.012-13.419-12.13-23.634.2-2.316,1.858-4.851,4.212-5.437,1.235-.307,5.189.076,5.668-.248.338-.229-.035-1.933.016-2.618A13.58,13.58,0,0,1,20.3,4.627M84.288,47.412h3.4c2.645,0,8.225-2.48,10.477-3.991,10.017-6.722,11.9-17.609,10.885-29.026A10.816,10.816,0,0,0,98.642,4.627H92.177c.733,1.79,1.492,3.621.87,5.6l.215.449c3.693.275,7.08-.753,9.108,3.166,1.221,2.359.918,8.314.481,11.02A20.239,20.239,0,0,1,91.6,39.7a34.2,34.2,0,0,0-3.47,1.353c-.287.278-1.385,2.623-1.777,3.267-.641,1.055-1.417,2.039-2.063,3.09M22.71,36.88c-2.112-7.258-2.078-14.964-2.877-22.459l-.175-.264c-2.558.032-6.619-1.173-7.026,2.427a35.238,35.238,0,0,0,.318,8.239A16.687,16.687,0,0,0,22.71,36.88m67.059,0A17.018,17.018,0,0,0,99.843,22.725a42.092,42.092,0,0,0,0-6.14c-.415-3.641-4.465-2.375-7.026-2.427l-.175.264c-.8,7.494-.765,15.2-2.877,22.459M66.1,59.7a37.309,37.309,0,0,1-19.722,0V77.91H66.1ZM39.747,81.253c-3.063.894-4.362,3.48-3.835,6.588.1.584.776,2.246,1.371,2.357H75.2c.648-.12,1.318-1.923,1.4-2.543.434-3.126-.946-5.663-4.054-6.434Z" transform="translate(0 0)" fill="#ed0109"/>
    <path id="Path_31661" data-name="Path 31661" d="M292.874,226.991a5.222,5.222,0,0,1,5.089,3.557c.248.786.173,1.583.38,2.252.246.8,1.328,1.656,1.715,2.671a5.247,5.247,0,0,1-3.3,6.912,22.522,22.522,0,0,0-2.521.548c-.73.341-1.322,1.226-2.354,1.592a5.2,5.2,0,0,1-6.907-3.606c-.19-.633-.125-1.346-.386-2.027-.275-.718-.875-1.072-1.214-1.637a5.324,5.324,0,0,1,3.023-7.873,14.455,14.455,0,0,0,2.356-.493c1.605-.747,1.749-1.871,4.116-1.9m-4.2,14.067c1.668,1.549,3.126-.735,4.6-1.287,1.189-.445,3.177-.247,3.708-1.552.7-1.724-.939-2.454-1.529-3.839-.451-1.057-.393-3.362-1.422-3.841-1.832-.854-2.605.793-3.965,1.412-1.168.532-3.4.331-3.926,1.553-.762,1.779.807,2.529,1.409,3.963.419,1,.5,3.01,1.123,3.592" transform="translate(-199.931 -160.586)" fill="#ed0109"/>
    <path id="Path_31662" data-name="Path 31662" d="M44.553,194.558a5.425,5.425,0,0,1,6.212-1c.724.359,1.22,1.087,2.133,1.375s1.678.217,2.681.607a5.244,5.244,0,0,1,2.662,7.128c-.339.691-1.064,1.234-1.326,1.963-.3.833-.246,1.836-.561,2.729a5.306,5.306,0,0,1-6.241,3.306c-1.2-.246-2.258-1.589-3-1.828-.875-.284-1.9-.152-2.944-.563a5.31,5.31,0,0,1-3.146-5.512c.238-1.776,1.365-2.373,1.848-3.634.632-1.649.116-3.011,1.679-4.572m3.6,1.716c-2.064.269-1.648,2.483-2.189,3.972s-2.651,2.928-1.173,4.563c.7.775,2.457.627,3.563,1.04,1.449.541,2.076,2.059,3.859,1.53,1.386-.411,1.194-2.9,1.645-4.056.555-1.421,2.054-2,1.479-3.808-.427-1.343-2.567-1.11-3.747-1.513-1.206-.412-2.357-1.868-3.437-1.727" transform="translate(-28.994 -136.536)" fill="#ed0109"/>
    <path id="Path_31663" data-name="Path 31663" d="M154.331,27.684A7.213,7.213,0,0,1,161.4,30.16c.42.513.646,1.165,1.006,1.625,1.978,2.522,5.347,1.179,7.5,4.994,2.058,3.643.755,5.627-1.235,8.552-1.49,2.19-.656,3.1-.938,5.424-.465,3.824-4.249,6.263-7.95,5.814-1.582-.192-2.373-1.189-4.194-1.084-1.278.073-2.128.874-3.338,1.051-3.78.554-7.66-1.871-8.136-5.782-.3-2.461.577-3.23-1.029-5.552-1.888-2.732-3.044-4.508-1.379-8,2.038-4.274,5.691-2.809,7.737-5.418,1.41-1.8,2.18-3.644,4.888-4.1m.436,3.289c-1.791.367-2.356,2.743-3.559,3.9-2.169,2.08-6,1.31-6.8,4.384-.8,3.1,2.044,3.917,2.732,6.492.645,2.415-.663,5.252,1.655,6.9,2.42,1.72,4.059-.248,6.346-.449,2.7-.237,4.668,1.6,6.919,1,3.327-.878,2.012-5.115,2.636-7.453.687-2.576,3.533-3.388,2.732-6.492-.65-2.518-2.783-2.316-4.648-3.024C158.9,34.751,159.5,30,154.768,30.973" transform="translate(-99.683 -19.495)" fill="#ed0109"/>
    <path id="Path_31664" data-name="Path 31664" d="M175.122,146.414c1.258-.2,1.927,1.782,4.121,1.731,2.1-.049,3.542-3.15,5.026-.884,1.244,1.9-2.35,3.918-3.953,4.141-2.021.282-5.618-.632-6.5-2.672a1.812,1.812,0,0,1,1.307-2.316" transform="translate(-122.891 -103.572)" fill="#ed0109"/>
    <path id="Path_31665" data-name="Path 31665" d="M138.578,137.361a1.664,1.664,0,0,1,1.865.895,11.948,11.948,0,0,1,.066,4.124,1.657,1.657,0,0,1-3.193-.555c-.147-1.288-.335-4.139,1.262-4.464" transform="translate(-97.078 -97.152)" fill="#ed0109"/>
    <path id="Path_31666" data-name="Path 31666" d="M236.7,137.361a1.664,1.664,0,0,1,1.865.895,11.948,11.948,0,0,1,.066,4.124,1.657,1.657,0,0,1-3.193-.555c-.147-1.288-.335-4.139,1.262-4.464" transform="translate(-166.497 -97.152)" fill="#ed0109"/>
  </g>
</svg>
