<svg xmlns="http://www.w3.org/2000/svg" xmlns:xlink="http://www.w3.org/1999/xlink" width="188" height="173" viewBox="0 0 188 173">
  <defs>
    <clipPath id="clip-path">
      <rect id="Rectangle_11153" data-name="Rectangle 11153" width="113.539" height="110" fill="#fff"/>
    </clipPath>
  </defs>
  <g id="Group_27659" data-name="Group 27659" transform="translate(-893 -4136)">
    <rect id="Rectangle_11100" data-name="Rectangle 11100" width="188" height="173" rx="18" transform="translate(893 4136)" fill="#106a8f"/>
    <g id="Group_27638" data-name="Group 27638" transform="translate(930 4168)">
      <g id="Group_27637" data-name="Group 27637" clip-path="url(#clip-path)">
        <path id="Path_31776" data-name="Path 31776" d="M0,11.844C.683,9.753,1.583,7.786,3.614,6.7a12.85,12.85,0,0,1,2.263-.842H53.222V2.42a7.926,7.926,0,0,1,.769-1.226,3.54,3.54,0,0,1,2.66-1.11c1.574-.135,6.2-.2,7.427.571a4.1,4.1,0,0,1,1.34,1.987V5.857h42.245a12.85,12.85,0,0,1,2.263.842c2.032,1.087,2.931,3.054,3.614,5.145v2c-.823,3.337-3.254,5.932-6.873,5.989l-.014,53.979c3.634.575,5.99,2.5,6.887,6.116v2a7.384,7.384,0,0,1-3.482,5.056,9.268,9.268,0,0,1-2.173.932H75.841L84.8,103.454a4.479,4.479,0,0,1-7.4,4.96L65.739,88.362c-.4-.672-1.21-.433-1.873-.455v14.747c0,.112-.315,1.4-.39,1.605a4.549,4.549,0,0,1-8.044.62,16.016,16.016,0,0,1-.657-1.56V87.907l-1.888.219L41.122,108.517a4.552,4.552,0,0,1-7.8-4.037l9.259-16.573H5.655a9.268,9.268,0,0,1-2.173-.932A7.384,7.384,0,0,1,0,81.919V80.146c.738-3.734,3.2-5.758,6.887-6.337L6.873,19.83C3.258,19.752.859,17.184,0,13.84ZM62.092,5.857l-.208-2.342H56.756l-.208,2.342ZM6.374,9.236c-4.319,1.2-3.811,6.8.6,7.274h99.587c4.779-.541,4.779-6.8,0-7.336Zm96.966,10.591H10.2V73.936h93.138ZM6.595,77.315c-4.2.954-4.312,6.338-.057,7.27H107c4.552-1.047,4.1-6.906-.662-7.332ZM49.008,87.908c-.839.124-2.05-.345-2.636.356l-9.779,17.254a1.139,1.139,0,0,0,2.1.565Zm11.31,0-1.854.031-.364.523c.329,4.409-.434,9.43-.013,13.763.2,2.094,2.231,1.433,2.231.873Zm9.092,0,10.325,17.946c.929,1.451,2.7.738,2.041-.916L72.17,88.362c-.6-.827-1.864-.336-2.76-.453" transform="translate(0 0)" fill="#fff"/>
      </g>
    </g>
  </g>
</svg>
