<svg id="Group_27598" data-name="Group 27598" xmlns="http://www.w3.org/2000/svg" xmlns:xlink="http://www.w3.org/1999/xlink" width="109.236" height="110.156" viewBox="0 0 109.236 110.156">
  <defs>
    <clipPath id="clip-path">
      <rect id="Rectangle_11131" data-name="Rectangle 11131" width="109.236" height="110.156" fill="#ed0109"/>
    </clipPath>
  </defs>
  <g id="Group_27597" data-name="Group 27597" clip-path="url(#clip-path)">
    <path id="Path_31642" data-name="Path 31642" d="M18.717,160.267c-.3-.259-1.291-1.046-1.291-1.4V125.413c-1.581,1.405-2.288,4.948-4.928,3.1A103.794,103.794,0,0,1,1.626,117.44C-1.507,112.7.3,108.628,3.546,104.756c3.442-4.108,7.38-7.862,10.859-11.946.849-.721,2-.509,3.021-.532a19.93,19.93,0,0,1-2.741-4.464A12.836,12.836,0,0,1,32.921,71.945a13.013,13.013,0,0,1,5.162,17.108L57.166,75.975a2.074,2.074,0,0,1,1.8.264,71.852,71.852,0,0,1,5.326,6.937c.733,1.155,1.428,1.956.266,3.2L39.587,104.221v10.22H52.173c2.728,0,7.423,4.7,7.423,7.423V138l.323.323h17c.3,0,1.359,1.546,1.183,2.044-.31,5.615.412,11.658.009,17.221-.09,1.241-.179,1.985-1.3,2.68H38.941c-.842-.647-1.2-.923-1.3-2.034-.53-5.81.425-12.411,0-18.307-.057-.477.818-1.6,1.193-1.6h6.132v-9.251H32.057v30.013c0,.482-.99.868-1.291,1.183Zm6.837-86.214c-11.873,1.359-9.968,19.65,2.283,18.2,11.616-1.371,9.811-19.589-2.283-18.2m-4.47,30.6V156.61H28.4V127.027c0-.939,1.207-1.548,2.034-1.624,5.262-.482,11.244.388,16.585,0,.456-.135,1.605.929,1.605,1.193V138l.323.323h6.992V122.294c0-1.553-2.723-3.889-4.247-4.144-4.021-.674-9.541.413-13.719-.05a2.14,2.14,0,0,1-2.259-2.259A84.172,84.172,0,0,1,35.707,104a5.169,5.169,0,0,1,.347-1.589L60.577,84.754c.217-.229,0-.367-.1-.555-.724-1.32-2.2-2.526-2.838-3.95L35.607,95.293c-2.059,3.119-3.273,7.143-5.235,10.255-.915,1.452-1.868,2.023-3.362.709L21.732,96.043l-5.5.095L4.953,108.745a5.58,5.58,0,0,0,0,7.089l8.493,8.5,3.087-4.376-6.089-6.387a1.815,1.815,0,0,1-.237-1.723l8-8.137c.891-.614,2.649-.131,2.878.941m9.9-8.714H26.032c.087.489,2.334,5.133,2.579,4.948ZM17.426,115.516v-5.809c-.462.368-2.845,2.53-2.782,2.876ZM74.441,141.98H41.308v14.63H74.441Z" transform="translate(0 -50.111)" fill="#ed0109"/>
    <path id="Path_31643" data-name="Path 31643" d="M282.717,0c1.649,1.085,1.168,3.234,1.57,4.992a13.046,13.046,0,0,0,9.048,9.24c1.706.455,5.366-.013,5.241,2.409-.106,2.045-2.715,1.643-4.078,1.917a13,13,0,0,0-10.435,10.434c-.236,1.31.222,3.959-1.917,4.077-2.278.126-1.961-3.431-2.29-4.928a12.977,12.977,0,0,0-10.211-9.583c-1.391-.293-4,.166-4.133-1.9-.155-2.422,3.6-1.978,5.3-2.428a13.06,13.06,0,0,0,9.3-10.489c.256-1.362-.287-2.835,1.313-3.743Zm6.454,16.354c-3.279-1.254-5.236-4.251-7.312-6.887a14.038,14.038,0,0,1-6.887,6.887A27.548,27.548,0,0,1,280.44,21.1c.356.449,1.3,2.355,1.737,2.351,1.6-3.134,4.16-5.141,6.994-7.1" transform="translate(-189.343)" fill="#ed0109"/>
    <path id="Path_31644" data-name="Path 31644" d="M248.614,103.512l2.256,2.9L232.79,119.76c-.248.178-.344.055-.536-.1-.32-.256-1.938-2.481-1.726-2.813Z" transform="translate(-164.384 -73.818)" fill="#ed0109"/>
    <path id="Path_31645" data-name="Path 31645" d="M241.46,72.087l1.726,2.7-.075.292-11.068,7.071-1.726-2.7.075-.292Z" transform="translate(-164.247 -51.408)" fill="#ed0109"/>
    <path id="Path_31646" data-name="Path 31646" d="M197.988,164.717l4.84-3.438,2.22,2.9-4.8,3.555c-.458.005-2.378-2.846-2.258-3.017" transform="translate(-141.188 -115.014)" fill="#ed0109"/>
  </g>
</svg>
