<svg id="Group_37795" data-name="Group 37795" xmlns="http://www.w3.org/2000/svg" xmlns:xlink="http://www.w3.org/1999/xlink" width="84.175" height="95.997" viewBox="0 0 84.175 95.997">
  <defs>
    <clipPath id="clip-path">
      <rect id="Rectangle_12556" data-name="Rectangle 12556" width="84.175" height="95.997" fill="#c01421"/>
    </clipPath>
  </defs>
  <g id="Group_37794" data-name="Group 37794" transform="translate(0 0)" clip-path="url(#clip-path)">
    <path id="Path_41311" data-name="Path 41311" d="M41.23,95.97c30,1.094,51.9-31.545,39.322-58.836C89.766,20.311,79.694.285,60.472,0A23.49,23.49,0,0,0,39.905,12.04,41.722,41.722,0,0,0,6.089,32.257C-10.748,59.284,9.4,95.708,41.23,95.97M10.47,76.022H22.922a37.623,37.623,0,0,0,8.446,15,38.889,38.889,0,0,1-20.9-15m-2.2-40.677H21.957a73.7,73.7,0,0,0-2.273,16.9H3.516a38.488,38.488,0,0,1,4.752-16.9m29.74-19.039a24.148,24.148,0,0,0,.31,15.611H26.532c2.756-7.885,6.915-13.5,11.476-15.611M78.477,41.179A37.942,37.942,0,0,1,80.62,52.247H71.108a93.749,93.749,0,0,0,7.369-11.068m-10.086,14.5h12.23a38.252,38.252,0,0,1-4.793,16.919H62.193a70.047,70.047,0,0,0,2.021-12.1c.895-.979,2.36-2.628,4.177-4.817M58.644,72.594H44.155V55.675h8.4c3.7,4.474,6.582,7.376,6.709,7.5a1.7,1.7,0,0,0,1.181.5,64.229,64.229,0,0,1-1.8,8.92m-33.15,0A69.662,69.662,0,0,1,23.11,55.675H40.726V72.594Zm15.232,3.428V92.451c-5.609-.842-10.9-6.973-14.2-16.428ZM44.155,92.29V76.022H57.6C54.438,85.073,49.486,91.04,44.155,92.29m0-40.042V44.036c1.863,3.019,3.852,5.821,5.677,8.211Zm-4.56-16.9c.331.794.7,1.618,1.131,2.492V52.247H23.11a69.6,69.6,0,0,1,2.384-16.9ZM19.684,55.675a73.675,73.675,0,0,0,2.275,16.919H8.317A38.2,38.2,0,0,1,3.5,55.675ZM52.755,91.028A37.52,37.52,0,0,0,61.2,76.022H73.679A38.809,38.809,0,0,1,52.755,91.028m7.719-87.6A20.214,20.214,0,0,1,80.664,23.619c-.489,10.427-7.033,19.805-14.4,29.254-2.929,3.523-4.076,4.776-5.79,6.618-1.262-1.342-3.385-3.672-5.782-6.611C49.211,46.141,40.279,33.6,40.279,23.619A20.275,20.275,0,0,1,60.473,3.428M31.422,16.865a37.542,37.542,0,0,0-8.5,15.052H10.393A38.3,38.3,0,0,1,31.422,16.865" transform="translate(0 0)" fill="#c01421"/>
    <path id="Path_41312" data-name="Path 41312" d="M40.553,31.686A12.684,12.684,0,0,0,53.22,19.018c-.595-16.766-24.742-16.761-25.335,0A12.684,12.684,0,0,0,40.553,31.686m0-21.907c12.21.389,12.206,18.091,0,18.478-12.21-.389-12.208-18.093,0-18.478" transform="translate(19.914 4.603)" fill="#c01421"/>
  </g>
</svg>
